M48
; DRILL file KiCad 10.0.0 date 2026-05-14T11:48:18
; FORMAT={-:-/ absolute / inch / decimal}
; #@! TF.CreationDate,2026-05-14T11:48:18+02:00
; #@! TF.GenerationSoftware,Kicad,Pcbnew,10.0.0
; #@! TF.FileFunction,Plated,1,4,PTH
FMAT,2
INCH
; #@! TA.AperFunction,Plated,PTH,ComponentDrill
T1C0.0079
; #@! TA.AperFunction,Plated,PTH,ViaDrill
T2C0.0118
; #@! TA.AperFunction,Plated,PTH,ComponentDrill
T3C0.0197
; #@! TA.AperFunction,Plated,PTH,ViaDrill
T4C0.0236
; #@! TA.AperFunction,Plated,PTH,ComponentDrill
T5C0.0236
; #@! TA.AperFunction,Plated,PTH,ComponentDrill
T6C0.0315
; #@! TA.AperFunction,Plated,PTH,ComponentDrill
T7C0.0335
; #@! TA.AperFunction,Plated,PTH,ComponentDrill
T8C0.0354
; #@! TA.AperFunction,Plated,PTH,ComponentDrill
T9C0.0374
; #@! TA.AperFunction,Plated,PTH,ComponentDrill
T10C0.0394
; #@! TA.AperFunction,Plated,PTH,ComponentDrill
T11C0.0402
; #@! TA.AperFunction,Plated,PTH,ComponentDrill
T12C0.0433
; #@! TA.AperFunction,Plated,PTH,ComponentDrill
T13C0.0472
; #@! TA.AperFunction,Plated,PTH,ComponentDrill
T14C0.0642
%
G90
G05
T1
X5.0866Y-2.9646
X5.0866Y-3.0039
X5.0866Y-3.0433
X5.126Y-2.9646
X5.126Y-3.0039
X5.126Y-3.0433
X5.1654Y-2.9646
X5.1654Y-3.0039
X5.1654Y-3.0433
X5.5546Y-4.3243
X5.5546Y-4.3519
X5.5546Y-4.3794
X5.5546Y-4.407
X5.5546Y-4.4345
X5.5822Y-4.3243
X5.5822Y-4.3519
X5.5822Y-4.3794
X5.5822Y-4.407
X5.5822Y-4.4345
X5.6097Y-4.3243
X5.6097Y-4.3519
X5.6097Y-4.3794
X5.6097Y-4.407
X5.6097Y-4.4345
X5.6373Y-4.3243
X5.6373Y-4.3519
X5.6373Y-4.3794
X5.6373Y-4.407
X5.6373Y-4.4345
X5.6649Y-4.3243
X5.6649Y-4.3519
X5.6649Y-4.3794
X5.6649Y-4.407
X5.6649Y-4.4345
X6.0586Y-4.3243
X6.0586Y-4.3519
X6.0586Y-4.3794
X6.0586Y-4.407
X6.0586Y-4.4345
X6.0861Y-4.3243
X6.0861Y-4.3519
X6.0861Y-4.3794
X6.0861Y-4.407
X6.0861Y-4.4345
X6.1137Y-4.3243
X6.1137Y-4.3519
X6.1137Y-4.3794
X6.1137Y-4.407
X6.1137Y-4.4345
X6.1412Y-4.3243
X6.1412Y-4.3519
X6.1412Y-4.3794
X6.1412Y-4.407
X6.1412Y-4.4345
X6.1688Y-4.3243
X6.1688Y-4.3519
X6.1688Y-4.3794
X6.1688Y-4.407
X6.1688Y-4.4345
X8.1152Y-3.4016
X8.1152Y-3.4557
X8.1152Y-3.5098
X8.1152Y-3.564
X8.1152Y-3.6181
X8.1693Y-3.4016
X8.1693Y-3.4557
X8.1693Y-3.5098
X8.1693Y-3.564
X8.1693Y-3.6181
X8.2234Y-3.4016
X8.2234Y-3.4557
X8.2234Y-3.5098
X8.2234Y-3.564
X8.2234Y-3.6181
X8.2776Y-3.4016
X8.2776Y-3.4557
X8.2776Y-3.5098
X8.2776Y-3.564
X8.2776Y-3.6181
X8.3317Y-3.4016
X8.3317Y-3.4557
X8.3317Y-3.5098
X8.3317Y-3.564
X8.3317Y-3.6181
T2
X2.5827Y-4.3366
X2.5846Y-4.5354
X2.6122Y-2.6713
X2.6161Y-4.7598
X2.626Y-2.7067
X2.6457Y-2.8996
X2.6831Y-4.7638
X2.6969Y-4.5984
X2.6988Y-4.6988
X2.7047Y-2.4843
X2.7146Y-4.3327
X2.7254Y-2.435
X2.7382Y-4.5709
X2.7382Y-4.7598
X2.7421Y-4.186
X2.7441Y-3.6713
X2.753Y-2.3642
X2.7579Y-2.4075
X2.7596Y-3.5772
X2.7618Y-2.5167
X2.7913Y-3.8268
X2.7972Y-3.5276
X2.8071Y-2.3307
X2.8071Y-3.6732
X2.8287Y-4.5906
X2.8327Y-3.6142
X2.8346Y-3.5728
X2.8366Y-3.6535
X2.8543Y-3.311
X2.8622Y-4.7657
X2.8681Y-4.1811
X2.8819Y-3.748
X2.8827Y-3.7764
X2.8835Y-3.7079
X2.8898Y-3.5807
X2.9016Y-3.5236
X2.9024Y-4.3307
X2.9232Y-3.624
X2.9522Y-3.5177
X2.9606Y-3.4803
X2.9685Y-3.5394
X2.9756Y-3.7303
X2.999Y-2.3681
X3.0Y-3.3937
X3.0Y-3.563
X3.0039Y-2.7244
X3.0157Y-4.3602
X3.0289Y-3.565
X3.0295Y-4.6063
X3.0394Y-4.7106
X3.0433Y-4.7756
X3.0561Y-4.5207
X3.0827Y-2.4173
X3.0984Y-4.6024
X3.1122Y-2.3445
X3.1156Y-3.563
X3.1161Y-4.061
X3.1201Y-4.1811
X3.151Y-3.502
X3.1516Y-3.1555
X3.1543Y-3.3579
X3.1608Y-3.5492
X3.165Y-3.2476
X3.1654Y-2.9272
X3.2303Y-2.7303
X3.2461Y-4.1516
X3.2559Y-2.8209
X3.2598Y-4.3484
X3.2815Y-4.4656
X3.2835Y-4.2343
X3.3022Y-2.4252
X3.3041Y-2.3287
X3.311Y-2.7008
X3.312Y-4.063
X3.3189Y-4.5965
X3.3209Y-4.4222
X3.3228Y-3.3681
X3.3238Y-4.2923
X3.3238Y-4.3248
X3.3258Y-4.2638
X3.3533Y-4.2559
X3.3533Y-4.3425
X3.3602Y-4.4734
X3.3878Y-4.5955
X3.3888Y-4.1171
X3.4065Y-2.4882
X3.4094Y-4.3071
X3.4114Y-4.6516
X3.4134Y-4.249
X3.4291Y-2.3829
X3.4291Y-2.4232
X3.4429Y-4.4528
X3.4508Y-2.5433
X3.4518Y-4.3396
X3.4528Y-4.1663
X3.4547Y-2.3543
X3.4685Y-3.9705
X3.4695Y-4.4193
X3.4724Y-4.5984
X3.4882Y-4.375
X3.4902Y-2.811
X3.4902Y-4.6949
X3.5089Y-4.4629
X3.5295Y-4.5945
X3.5502Y-4.3258
X3.5787Y-4.1988
X3.5846Y-3.9075
X3.5974Y-4.375
X3.6063Y-4.4567
X3.6398Y-3.813
X3.6476Y-4.372
X3.6752Y-2.7717
X3.6752Y-4.5906
X3.6791Y-4.4567
X3.685Y-3.1732
X3.685Y-3.2126
X3.686Y-4.3307
X3.7023Y-4.0969
X3.7146Y-4.5433
X3.7205Y-4.6929
X3.7217Y-3.8366
X3.7283Y-2.9213
X3.7283Y-2.9646
X3.7362Y-2.8858
X3.7362Y-3.0
X3.749Y-4.1929
X3.7638Y-3.1732
X3.7756Y-2.8858
X3.7756Y-3.0
X3.7776Y-3.8248
X3.7776Y-4.122
X3.7827Y-3.5261
X3.786Y-3.6187
X3.7874Y-4.503
X3.7904Y-3.2372
X3.8091Y-3.6604
X3.815Y-2.8858
X3.815Y-3.0
X3.815Y-3.2372
X3.8169Y-4.0482
X3.8319Y-3.6187
X3.8425Y-3.2362
X3.8504Y-3.6575
X3.8524Y-4.2224
X3.8543Y-2.8858
X3.8543Y-3.0
X3.8543Y-3.8012
X3.874Y-4.1161
X3.8809Y-3.127
X3.8917Y-2.7697
X3.8937Y-2.8858
X3.8937Y-3.0
X3.9016Y-2.9213
X3.9016Y-2.9646
X3.9026Y-3.7805
X3.9203Y-3.126
X3.937Y-2.7028
X3.937Y-3.3366
X3.9429Y-4.6398
X3.9587Y-3.127
X3.9764Y-2.4488
X3.9823Y-4.3957
X3.9889Y-3.377
X4.0118Y-3.2175
X4.0172Y-3.7318
X4.0197Y-3.9803
X4.0256Y-4.0217
X4.0354Y-3.8445
X4.0393Y-3.3179
X4.0394Y-3.4307
X4.0453Y-4.0925
X4.0502Y-3.2805
X4.0551Y-4.1543
X4.063Y-3.9803
X4.0681Y-3.5411
X4.0685Y-4.182
X4.0945Y-4.0276
X4.0972Y-3.4992
X4.0984Y-4.4311
X4.1004Y-4.5846
X4.1161Y-3.4016
X4.122Y-4.0787
X4.1343Y-4.3835
X4.1367Y-3.3788
X4.1612Y-3.3341
X4.1654Y-3.5039
X4.1674Y-3.377
X4.1732Y-2.9173
X4.1791Y-4.3612
X4.185Y-3.2795
X4.187Y-3.9055
X4.1969Y-3.2008
X4.1988Y-3.7205
X4.199Y-3.3257
X4.2286Y-4.0607
X4.2291Y-2.5293
X4.2291Y-2.689
X4.2392Y-4.1801
X4.247Y-4.2795
X4.248Y-2.8068
X4.249Y-3.747
X4.2539Y-3.8579
X4.2902Y-3.8425
X4.2913Y-3.1447
X4.2945Y-4.0472
X4.2952Y-3.4929
X4.2984Y-3.6242
X4.3031Y-3.376
X4.3043Y-3.4625
X4.3169Y-4.2421
X4.3228Y-3.0591
X4.3228Y-4.563
X4.3246Y-3.5282
X4.3248Y-3.6929
X4.3268Y-4.0472
X4.3315Y-3.7374
X4.3343Y-3.2933
X4.3346Y-3.0187
X4.3346Y-3.628
X4.3356Y-4.0886
X4.3386Y-4.3839
X4.3396Y-3.3907
X4.3406Y-3.2632
X4.3496Y-4.0059
X4.3504Y-2.811
X4.3622Y-4.0482
X4.3711Y-3.4173
X4.3711Y-3.4774
X4.372Y-2.7677
X4.372Y-3.2618
X4.375Y-3.001
X4.375Y-3.0551
X4.3768Y-3.36
X4.38Y-3.1248
X4.3937Y-4.4075
X4.3957Y-3.9272
X4.4036Y-3.7469
X4.4125Y-3.8491
X4.4331Y-3.7556
X4.435Y-3.7224
X4.4414Y-3.2811
X4.4419Y-3.4902
X4.4488Y-4.2343
X4.4528Y-3.8409
X4.462Y-3.6195
X4.4626Y-2.5945
X4.4721Y-3.2811
X4.4724Y-4.0256
X4.4843Y-2.7224
X4.4863Y-3.9152
X4.4902Y-4.4606
X4.5028Y-3.2811
X4.5031Y-3.8835
X4.5079Y-4.2854
X4.5087Y-3.1102
X4.5089Y-3.251
X4.5118Y-3.6417
X4.5256Y-4.3406
X4.5335Y-3.4173
X4.5344Y-3.0413
X4.5453Y-3.25
X4.5527Y-3.8657
X4.5709Y-3.6969
X4.5709Y-4.5079
X4.5728Y-3.3593
X4.5768Y-4.3839
X4.5823Y-3.6067
X4.5827Y-3.2776
X4.5866Y-4.1211
X4.5936Y-3.248
X4.5965Y-3.7461
X4.5988Y-3.1244
X4.6004Y-3.4843
X4.624Y-4.6398
X4.6358Y-2.5965
X4.6358Y-3.2579
X4.6398Y-3.4252
X4.6437Y-4.2874
X4.6465Y-3.698
X4.6634Y-4.1722
X4.6732Y-3.5591
X4.6772Y-4.4902
X4.689Y-3.2402
X4.7028Y-3.064
X4.7028Y-3.5189
X4.7047Y-3.2707
X4.7116Y-3.4134
X4.7335Y-3.1346
X4.7336Y-3.8513
X4.7382Y-3.5236
X4.75Y-2.999
X4.753Y-3.373
X4.753Y-4.0581
X4.7559Y-2.7697
X4.7657Y-4.2894
X4.7844Y-3.128
X4.8012Y-3.5689
X4.8012Y-3.685
X4.8031Y-3.6083
X4.8041Y-3.8031
X4.812Y-3.8583
X4.8159Y-2.997
X4.8209Y-4.1594
X4.8219Y-3.939
X4.8222Y-2.683
X4.8297Y-3.1683
X4.8465Y-3.0935
X4.8524Y-2.689
X4.8622Y-3.7776
X4.8622Y-4.502
X4.875Y-3.2293
X4.878Y-2.5906
X4.8937Y-4.1949
X4.8976Y-2.7618
X4.9061Y-3.5278
X4.9144Y-4.1486
X4.9301Y-4.3346
X4.9409Y-2.7992
X4.9488Y-3.8287
X4.9633Y-3.1654
X4.9724Y-3.5984
X4.9744Y-2.8268
X4.9798Y-3.1395
X4.9921Y-3.1053
X4.9931Y-4.0581
X5.0079Y-3.5984
X5.0138Y-4.2008
X5.0172Y-2.9935
X5.0197Y-4.2894
X5.0197Y-4.3307
X5.0217Y-3.4646
X5.0226Y-3.373
X5.0266Y-3.938
X5.0308Y-3.077
X5.0505Y-3.8243
X5.0551Y-3.7609
X5.061Y-3.1872
X5.061Y-3.4402
X5.0815Y-3.6777
X5.0823Y-3.8544
X5.0925Y-2.6555
X5.0965Y-3.3307
X5.0965Y-4.4626
X5.1093Y-3.3927
X5.1118Y-3.6726
X5.1122Y-3.5217
X5.115Y-3.7837
X5.1201Y-3.2766
X5.124Y-4.3091
X5.124Y-4.3898
X5.1343Y-3.114
X5.1535Y-3.4508
X5.1575Y-3.7026
X5.1669Y-2.6157
X5.1712Y-3.1466
X5.1811Y-4.0541
X5.1823Y-3.1179
X5.1935Y-2.912
X5.2067Y-3.7402
X5.2067Y-3.8012
X5.2205Y-4.376
X5.2216Y-3.5484
X5.2244Y-4.4744
X5.2274Y-3.063
X5.2402Y-4.6043
X5.2421Y-2.6122
X5.247Y-3.3602
X5.2472Y-3.5154
X5.251Y-3.1102
X5.252Y-3.1594
X5.2579Y-4.0679
X5.2618Y-4.2874
X5.2638Y-3.7244
X5.2667Y-3.5787
X5.2972Y-3.7224
X5.2972Y-4.7343
X5.2992Y-3.1969
X5.3061Y-3.9459
X5.31Y-2.9675
X5.3228Y-3.436
X5.3366Y-3.5
X5.3425Y-3.5866
X5.3543Y-4.7244
X5.3543Y-4.7835
X5.3602Y-2.811
X5.3789Y-3.2795
X5.3858Y-4.6772
X5.3878Y-2.998
X5.3898Y-4.7677
X5.3917Y-3.9498
X5.3937Y-2.878
X5.4134Y-3.5177
X5.4213Y-4.7244
X5.4232Y-3.5969
X5.4331Y-2.6535
X5.435Y-3.1594
X5.4409Y-4.6594
X5.4621Y-4.281
X5.4665Y-2.376
X5.4665Y-3.0984
X5.4724Y-3.0315
X5.4731Y-4.2156
X5.4744Y-3.6181
X5.4783Y-4.5492
X5.4798Y-4.3763
X5.4951Y-4.1663
X5.502Y-2.7382
X5.5039Y-4.4764
X5.5079Y-3.6004
X5.5103Y-4.2899
X5.5138Y-2.9252
X5.5197Y-4.5039
X5.5276Y-2.561
X5.5354Y-4.4764
X5.5472Y-3.937
X5.5492Y-3.6358
X5.5512Y-4.6693
X5.5551Y-2.7736
X5.5551Y-3.1102
X5.563Y-4.7244
X5.5669Y-3.0768
X5.5709Y-4.1051
X5.5709Y-4.1707
X5.5709Y-4.7835
X5.5866Y-4.0138
X5.5965Y-2.7106
X5.5984Y-4.6772
X5.5984Y-4.7677
X5.6083Y-4.2472
X5.628Y-2.9882
X5.6339Y-4.7244
X5.685Y-4.4764
X5.687Y-3.5118
X5.7008Y-4.5039
X5.7165Y-4.4764
X5.7303Y-4.5453
X5.7362Y-4.0835
X5.7461Y-3.3811
X5.75Y-3.1093
X5.7799Y-4.4255
X5.7803Y-3.2795
X5.7972Y-2.3799
X5.7972Y-3.9528
X5.8031Y-2.9862
X5.8209Y-4.1713
X5.8243Y-4.5527
X5.8268Y-4.7638
X5.8465Y-3.6358
X5.8543Y-4.7244
X5.8665Y-3.3331
X5.8858Y-4.6732
X5.8858Y-4.7717
X5.8996Y-4.6319
X5.904Y-4.4405
X5.9173Y-4.7244
X5.9208Y-4.1481
X5.9252Y-3.1161
X5.9317Y-3.1651
X5.9331Y-4.6614
X5.935Y-2.8386
X5.9798Y-4.3629
X5.9823Y-4.0217
X5.9919Y-4.3132
X5.998Y-4.5551
X6.0Y-2.5354
X6.0079Y-4.4764
X6.011Y-3.0827
X6.0138Y-4.2402
X6.0157Y-2.7894
X6.0236Y-4.5039
X6.0394Y-4.4764
X6.0472Y-4.124
X6.0669Y-4.7244
X6.0846Y-3.2963
X6.0851Y-4.1344
X6.0984Y-4.6772
X6.0984Y-4.7677
X6.1058Y-4.249
X6.1299Y-4.7244
X6.1378Y-2.7382
X6.1398Y-2.7972
X6.1417Y-3.0768
X6.1535Y-4.6732
X6.1614Y-4.7756
X6.1654Y-4.5433
X6.1811Y-4.1516
X6.188Y-3.1122
X6.189Y-4.4764
X6.2047Y-4.5039
X6.2126Y-3.1545
X6.2205Y-4.4764
X6.2244Y-2.811
X6.2362Y-3.9469
X6.2402Y-2.4626
X6.2805Y-3.2175
X6.2913Y-2.8504
X6.2992Y-3.1358
X6.3091Y-2.7224
X6.3189Y-4.1417
X6.3346Y-2.7972
X6.3386Y-3.8012
X6.3465Y-4.5945
X6.3524Y-4.0295
X6.3661Y-4.5217
X6.374Y-4.4311
X6.3976Y-2.8543
X6.3996Y-4.6319
X6.4075Y-2.6319
X6.4154Y-4.6791
X6.4173Y-2.6969
X6.4409Y-3.2657
X6.4429Y-4.5315
X6.4488Y-4.4508
X6.4508Y-2.8996
X6.4508Y-4.3051
X6.4606Y-4.5827
X6.4665Y-4.3957
X6.4705Y-2.6063
X6.4764Y-2.4764
X6.4843Y-2.7697
X6.4862Y-4.7087
X6.4882Y-3.937
X6.4902Y-4.1516
X6.4946Y-3.1407
X6.4961Y-4.0256
X6.5059Y-3.5138
X6.5079Y-2.5413
X6.5354Y-2.8543
X6.5591Y-4.7598
X6.5748Y-2.9134
X6.5827Y-3.0453
X6.5906Y-3.2028
X6.6024Y-4.187
X6.6142Y-3.9626
X6.6161Y-2.4764
X6.6398Y-4.187
X6.6398Y-4.2815
X6.6535Y-3.2874
X6.6549Y-3.9
X6.6594Y-4.0315
X6.6732Y-3.8012
X6.6756Y-3.9646
X6.6811Y-2.5433
X6.6819Y-3.4051
X6.6821Y-3.9144
X6.7205Y-3.2539
X6.7228Y-3.2909
X6.7343Y-3.9921
X6.752Y-3.0709
X6.7598Y-3.2539
X6.7724Y-2.9024
X6.7736Y-3.3366
X6.7854Y-4.189
X6.7862Y-3.4406
X6.7894Y-4.2657
X6.7972Y-4.378
X6.8051Y-4.3228
X6.8051Y-4.4744
X6.811Y-2.7362
X6.8335Y-2.9378
X6.8406Y-4.6004
X6.8465Y-2.435
X6.8484Y-4.3268
X6.8512Y-3.9929
X6.8563Y-4.2087
X6.8563Y-4.4094
X6.8583Y-3.3622
X6.8602Y-4.248
X6.8642Y-4.2913
X6.8661Y-4.6398
X6.8799Y-4.6024
X6.8898Y-4.5453
X6.8937Y-2.7736
X6.8996Y-3.4449
X6.9016Y-2.8484
X6.9232Y-3.8996
X6.9287Y-3.1555
X6.9488Y-4.3878
X6.9512Y-3.4291
X6.9744Y-3.2559
X6.9783Y-2.3445
X6.9988Y-3.4268
X7.002Y-3.8799
X7.0138Y-4.7461
X7.0285Y-2.8387
X7.0335Y-4.4291
X7.0354Y-2.5433
X7.0378Y-4.0098
X7.0433Y-3.1102
X7.0453Y-2.5689
X7.0453Y-3.0591
X7.0567Y-4.1988
X7.0591Y-3.3346
X7.063Y-3.8524
X7.0846Y-3.3874
X7.1299Y-4.5591
X7.1516Y-3.7717
X7.1673Y-3.4114
X7.1701Y-3.1327
X7.1862Y-4.0425
X7.2047Y-2.5
X7.2598Y-2.313
X7.2657Y-3.2047
X7.2697Y-2.8819
X7.2854Y-3.3465
X7.3031Y-2.5591
X7.3071Y-3.8591
X7.3209Y-2.9823
X7.3976Y-3.6398
X7.4154Y-3.2441
X7.4193Y-3.3878
X7.4668Y-3.2212
X7.4803Y-2.6181
X7.4961Y-4.0709
X7.5217Y-3.0886
X7.5433Y-3.3248
X7.5472Y-2.5295
X7.5768Y-4.0059
X7.5965Y-2.3661
X7.5965Y-3.0315
X7.6417Y-4.1142
X7.6496Y-3.0512
X7.65Y-3.0917
X7.6516Y-3.8583
X7.689Y-3.6339
X7.689Y-3.7992
X7.6929Y-2.374
X7.6988Y-3.2293
X7.7008Y-3.7469
X7.7165Y-3.498
X7.7165Y-3.5374
X7.7254Y-3.1762
X7.7362Y-4.0157
X7.7461Y-3.2224
X7.7461Y-4.0984
X7.7697Y-3.5571
X7.7717Y-4.5965
X7.8091Y-2.8189
X7.815Y-2.9902
X7.8278Y-2.3553
X7.8327Y-3.5197
X7.8374Y-2.948
X7.8445Y-3.1762
X7.8465Y-4.122
X7.8524Y-4.5118
X7.8681Y-4.1969
X7.872Y-3.8346
X7.874Y-2.5354
X7.8829Y-3.1909
X7.8976Y-3.1132
X7.8996Y-4.2776
X7.9035Y-4.7421
X7.9075Y-4.0059
X7.9114Y-3.6949
X7.9272Y-3.1762
X7.935Y-2.9547
X7.9626Y-2.6516
X7.9685Y-3.19
X7.9823Y-3.624
X7.9862Y-3.2805
X7.9892Y-3.8071
X7.9931Y-3.8789
X8.003Y-3.7426
X8.0138Y-3.4321
X8.0138Y-3.4646
X8.0453Y-3.3047
X8.0473Y-3.1733
X8.0539Y-2.7752
X8.0571Y-2.5886
X8.0571Y-3.8346
X8.0709Y-4.1339
X8.0709Y-4.2717
X8.0768Y-2.8602
X8.0827Y-3.0709
X8.0846Y-3.0354
X8.0906Y-3.3858
X8.0958Y-3.1462
X8.1093Y-2.9931
X8.1181Y-3.065
X8.122Y-4.5394
X8.1358Y-3.7539
X8.1496Y-4.3701
X8.1555Y-3.0531
X8.1673Y-3.8307
X8.1732Y-3.2126
X8.189Y-4.0827
X8.1949Y-4.5866
X8.1973Y-3.3013
X8.2126Y-3.125
X8.2136Y-3.712
X8.2252Y-2.9228
X8.2256Y-2.9972
X8.228Y-2.8516
X8.2362Y-2.4114
X8.2457Y-3.3719
X8.2815Y-2.5807
X8.2835Y-4.1791
X8.315Y-3.8445
X8.3264Y-2.9724
X8.3322Y-3.3716
X8.3343Y-3.1374
X8.3504Y-2.378
X8.3504Y-4.0374
X8.3612Y-3.8337
X8.3638Y-2.8157
X8.3707Y-3.4409
X8.372Y-3.752
X8.3941Y-3.1661
X8.3961Y-3.0937
X8.3976Y-2.9882
X8.4094Y-3.2835
X8.4096Y-3.3194
X8.4114Y-4.2441
X8.4311Y-3.1398
X8.438Y-3.8465
X8.4409Y-2.6339
X8.4502Y-3.4835
X8.4508Y-3.3484
X8.4545Y-3.1713
X8.4618Y-3.5461
X8.4646Y-2.3917
X8.502Y-3.8898
X8.5135Y-3.5391
X8.5136Y-3.3512
X8.5193Y-3.4425
X8.5197Y-2.8268
X8.5197Y-3.0276
X8.5217Y-3.628
X8.5335Y-4.6949
X8.5377Y-3.3029
X8.5551Y-3.2008
X8.5561Y-3.8622
X8.5941Y-2.735
X8.6083Y-3.1752
X8.6102Y-3.9764
X8.6181Y-2.8189
X8.6299Y-4.3858
X8.6535Y-3.4291
X8.6555Y-3.6339
X8.6594Y-3.5472
X8.6732Y-3.189
X8.7087Y-2.7539
X8.7343Y-3.3209
X8.7579Y-3.2835
X8.7835Y-3.7382
X8.8031Y-3.6476
X8.8091Y-3.1319
X8.811Y-3.4665
X8.8287Y-2.9429
X8.8858Y-3.2677
X8.9429Y-3.2382
X8.9764Y-4.1063
X8.9783Y-4.5295
X8.9843Y-2.685
X9.0118Y-3.3366
X9.0472Y-3.9252
X9.0709Y-3.0965
X9.1437Y-2.6063
T3
X3.7165Y-3.6476
X4.4783Y-3.7402
X4.6811Y-3.7402
X4.6949Y-3.9813
T4
X2.9331Y-3.6594
X3.2244Y-4.7761
X3.3346Y-3.6772
X3.3346Y-3.7323
X3.3346Y-3.7874
X3.3494Y-3.499
X5.3452Y-4.5991
X5.3878Y-4.3662
X5.3902Y-4.3209
X5.3906Y-4.2752
X6.378Y-4.1535
X6.378Y-4.2106
X6.378Y-4.2736
X6.378Y-4.3484
X6.7067Y-4.252
X6.7087Y-4.1969
T6
X8.5994Y-3.4774
X8.5994Y-3.5774
X8.5994Y-3.6774
X8.5994Y-3.7774
X8.8994Y-3.4774
X8.8994Y-3.5774
X8.8994Y-3.6774
X8.8994Y-3.7774
T7
X6.622Y-4.7283
X6.7205Y-4.7283
X6.8189Y-4.7283
T8
X5.3671Y-2.9492
X5.4167Y-3.0492
X5.4671Y-2.9492
X5.5167Y-3.0492
X5.5671Y-2.9492
X5.6167Y-3.0492
X5.6671Y-2.9492
X5.7167Y-3.0492
X7.6874Y-2.9433
X7.737Y-3.0433
X7.7874Y-2.9433
X7.837Y-3.0433
X7.8874Y-2.9433
X7.937Y-3.0433
X7.9874Y-2.9433
X8.037Y-3.0433
X8.4217Y-2.9439
X8.4713Y-3.0439
X8.5217Y-2.9439
X8.5713Y-3.0439
X8.6217Y-2.9439
X8.6713Y-3.0439
X8.7217Y-2.9439
X8.7713Y-3.0439
T9
X3.7126Y-2.3622
X3.7126Y-2.6063
X3.811Y-2.3622
X3.811Y-2.6063
X3.9094Y-2.3622
X3.9094Y-2.6063
X4.0079Y-2.6063
X4.1063Y-2.6063
X4.1142Y-2.3622
X4.2126Y-2.3622
X4.311Y-2.3622
X4.311Y-2.6496
X4.3189Y-4.1516
X4.4094Y-2.6496
X4.4173Y-4.1516
X4.5079Y-2.6496
X4.5157Y-2.3622
X4.5157Y-4.1516
X4.6063Y-2.6496
X4.6142Y-2.3622
X4.7047Y-2.6496
X4.7126Y-2.3622
X4.9173Y-2.3622
X5.0157Y-2.3622
X5.1142Y-2.3622
X5.4626Y-4.6063
X5.561Y-4.6063
X5.6594Y-4.6063
X5.7579Y-4.6063
X5.9665Y-4.6063
X6.002Y-2.4055
X6.002Y-2.6457
X6.065Y-4.6063
X6.1004Y-2.4055
X6.1004Y-2.6457
X6.1634Y-4.6063
X6.1988Y-2.4055
X6.1988Y-2.6457
X6.2618Y-4.6063
X6.2972Y-2.4055
X6.2972Y-2.6457
X6.5709Y-2.4055
X6.5709Y-2.6457
X6.6693Y-2.4055
X6.6693Y-2.6457
X6.7677Y-2.4055
X6.7677Y-2.6457
X6.9961Y-2.4055
X6.9961Y-2.6457
X7.0945Y-2.4055
X7.0945Y-2.6457
X7.1929Y-2.4055
X7.1929Y-2.6457
X7.2913Y-2.4055
X7.2913Y-2.6457
X7.3898Y-2.4055
X7.3898Y-2.6457
T10
X6.0157Y-2.9035
X6.1142Y-2.9035
T11
X5.2811Y-2.5059
X5.3811Y-2.5059
X5.7028Y-2.5059
X5.8028Y-2.5059
X7.6014Y-2.5
X7.7014Y-2.5
X8.023Y-2.5
X8.123Y-2.5
X8.3356Y-2.5006
X8.4356Y-2.5006
X8.7573Y-2.5006
X8.8573Y-2.5006
T12
X2.7835Y-2.8898
X2.7835Y-4.0906
X3.0591Y-2.8898
X3.0591Y-4.0906
X7.287Y-4.5866
X7.287Y-4.6866
X7.387Y-4.5866
X7.387Y-4.6866
X7.487Y-4.5866
X7.487Y-4.6866
X7.587Y-4.5866
X7.587Y-4.6866
X7.687Y-4.5866
X7.687Y-4.6866
T13
X2.6516Y-4.5037
X2.7028Y-2.5809
X2.7894Y-4.5037
X2.8406Y-2.5809
X2.9882Y-4.5037
X3.0374Y-2.5809
X3.126Y-4.5037
X3.1752Y-2.5809
X3.374Y-2.5809
X3.5118Y-2.5809
T14
X5.237Y-2.8189
X5.8469Y-2.8189
X7.5573Y-2.813
X8.1671Y-2.813
X8.2915Y-2.8136
X8.9014Y-2.8136
T5
G00X3.2866Y-4.5247
M15
G01X3.2866Y-4.568
M16
G05
G00X3.2866Y-4.6991
M15
G01X3.2866Y-4.7227
M16
G05
G00X3.6268Y-4.5247
M15
G01X3.6268Y-4.568
M16
G05
G00X3.6268Y-4.6991
M15
G01X3.6268Y-4.7227
M16
G05
G00X4.1882Y-4.5227
M15
G01X4.1882Y-4.566
M16
G05
G00X4.1882Y-4.6971
M15
G01X4.1882Y-4.7208
M16
G05
G00X4.5283Y-4.5227
M15
G01X4.5283Y-4.566
M16
G05
G00X4.5283Y-4.6971
M15
G01X4.5283Y-4.7208
M16
G05
T10
G00X3.7992Y-4.4272
M15
G01X3.7992Y-4.3484
M16
G05
G00X3.9449Y-4.2697
M15
G01X4.0236Y-4.2697
M16
G05
G00X3.9449Y-4.5059
M15
G01X4.0236Y-4.5059
M16
G05
M30
