M48
; DRILL file KiCad 10.0.0 date 2026-05-15T17:00:53
; FORMAT={-:-/ absolute / inch / decimal}
; #@! TF.CreationDate,2026-05-15T17:00:53+02:00
; #@! TF.GenerationSoftware,Kicad,Pcbnew,10.0.0
; #@! TF.FileFunction,Plated,1,4,PTH
FMAT,2
INCH
; #@! TA.AperFunction,Plated,PTH,ComponentDrill
T1C0.0079
; #@! TA.AperFunction,Plated,PTH,ViaDrill
T2C0.0118
; #@! TA.AperFunction,Plated,PTH,ComponentDrill
T3C0.0197
; #@! TA.AperFunction,Plated,PTH,ViaDrill
T4C0.0236
; #@! TA.AperFunction,Plated,PTH,ComponentDrill
T5C0.0236
; #@! TA.AperFunction,Plated,PTH,ComponentDrill
T6C0.0315
; #@! TA.AperFunction,Plated,PTH,ComponentDrill
T7C0.0335
; #@! TA.AperFunction,Plated,PTH,ComponentDrill
T8C0.0354
; #@! TA.AperFunction,Plated,PTH,ComponentDrill
T9C0.0374
; #@! TA.AperFunction,Plated,PTH,ComponentDrill
T10C0.0394
; #@! TA.AperFunction,Plated,PTH,ComponentDrill
T11C0.0402
; #@! TA.AperFunction,Plated,PTH,ComponentDrill
T12C0.0433
; #@! TA.AperFunction,Plated,PTH,ComponentDrill
T13C0.0472
; #@! TA.AperFunction,Plated,PTH,ComponentDrill
T14C0.0642
%
G90
G05
T1
X5.0866Y-2.9744
X5.0866Y-3.0138
X5.0866Y-3.0531
X5.126Y-2.9744
X5.126Y-3.0138
X5.126Y-3.0531
X5.1654Y-2.9744
X5.1654Y-3.0138
X5.1654Y-3.0531
X5.9632Y-4.3243
X5.9632Y-4.3519
X5.9632Y-4.3794
X5.9632Y-4.407
X5.9632Y-4.4345
X5.9907Y-4.3243
X5.9907Y-4.3519
X5.9907Y-4.3794
X5.9907Y-4.407
X5.9907Y-4.4345
X6.0183Y-4.3243
X6.0183Y-4.3519
X6.0183Y-4.3794
X6.0183Y-4.407
X6.0183Y-4.4345
X6.0458Y-4.3243
X6.0458Y-4.3519
X6.0458Y-4.3794
X6.0458Y-4.407
X6.0458Y-4.4345
X6.0734Y-4.3243
X6.0734Y-4.3519
X6.0734Y-4.3794
X6.0734Y-4.407
X6.0734Y-4.4345
X6.4671Y-4.3243
X6.4671Y-4.3519
X6.4671Y-4.3794
X6.4671Y-4.407
X6.4671Y-4.4345
X6.4946Y-4.3243
X6.4946Y-4.3519
X6.4946Y-4.3794
X6.4946Y-4.407
X6.4946Y-4.4345
X6.5222Y-4.3243
X6.5222Y-4.3519
X6.5222Y-4.3794
X6.5222Y-4.407
X6.5222Y-4.4345
X6.5498Y-4.3243
X6.5498Y-4.3519
X6.5498Y-4.3794
X6.5498Y-4.407
X6.5498Y-4.4345
X6.5773Y-4.3243
X6.5773Y-4.3519
X6.5773Y-4.3794
X6.5773Y-4.407
X6.5773Y-4.4345
X7.9035Y-3.4016
X7.9035Y-3.4557
X7.9035Y-3.5098
X7.9035Y-3.564
X7.9035Y-3.6181
X7.9577Y-3.4016
X7.9577Y-3.4557
X7.9577Y-3.5098
X7.9577Y-3.564
X7.9577Y-3.6181
X8.0118Y-3.4016
X8.0118Y-3.4557
X8.0118Y-3.5098
X8.0118Y-3.564
X8.0118Y-3.6181
X8.0659Y-3.4016
X8.0659Y-3.4557
X8.0659Y-3.5098
X8.0659Y-3.564
X8.0659Y-3.6181
X8.1201Y-3.4016
X8.1201Y-3.4557
X8.1201Y-3.5098
X8.1201Y-3.564
X8.1201Y-3.6181
T2
X2.8799Y-4.378
X2.8819Y-4.2362
X2.9272Y-4.2913
X2.9528Y-3.8868
X2.9656Y-3.7028
X3.0079Y-4.0797
X3.0118Y-3.2963
X3.0118Y-3.5906
X3.0157Y-4.3602
X3.0433Y-4.7756
X3.061Y-3.7559
X3.063Y-4.1358
X3.1033Y-3.6358
X3.1073Y-4.6988
X3.1102Y-4.001
X3.1132Y-3.9026
X3.1161Y-2.747
X3.128Y-4.5256
X3.1309Y-4.186
X3.1506Y-3.811
X3.1522Y-3.7709
X3.1703Y-3.5866
X3.1713Y-3.4537
X3.1791Y-3.9626
X3.2264Y-4.5915
X3.2461Y-3.7933
X3.2687Y-3.626
X3.2783Y-3.3269
X3.2835Y-4.3268
X3.2923Y-2.8199
X3.2972Y-3.0984
X3.2976Y-3.628
X3.313Y-3.5039
X3.3219Y-4.0118
X3.3228Y-3.3681
X3.3248Y-4.4921
X3.3346Y-4.5512
X3.3396Y-4.1417
X3.3612Y-4.6939
X3.3622Y-2.8248
X3.3799Y-2.6791
X3.3843Y-3.626
X3.424Y-3.4095
X3.4295Y-3.6122
X3.4303Y-3.5336
X3.4321Y-4.0148
X3.4646Y-4.5207
X3.4902Y-2.811
X3.4941Y-4.7736
X3.497Y-2.374
X3.502Y-2.5167
X3.5049Y-2.6014
X3.562Y-2.935
X3.5925Y-4.1811
X3.6171Y-4.6644
X3.6191Y-4.0236
X3.6309Y-3.9085
X3.6348Y-2.7805
X3.6417Y-3.7835
X3.6762Y-3.1526
X3.6762Y-3.5246
X3.6772Y-3.8396
X3.6801Y-3.2539
X3.685Y-2.378
X3.687Y-3.3829
X3.687Y-3.4616
X3.69Y-3.2943
X3.6978Y-3.2018
X3.6988Y-4.1811
X3.7047Y-2.6122
X3.7116Y-2.8307
X3.7126Y-4.1004
X3.7146Y-3.126
X3.7254Y-3.9734
X3.7264Y-3.7274
X3.7264Y-3.8012
X3.7283Y-3.6437
X3.7343Y-2.6781
X3.7579Y-3.5531
X3.7638Y-4.4724
X3.7874Y-3.123
X3.7874Y-3.1624
X3.7874Y-3.2018
X3.7874Y-3.2411
X3.7874Y-3.2805
X3.7874Y-4.7815
X3.7982Y-3.5236
X3.8002Y-3.313
X3.811Y-3.0285
X3.8179Y-4.3209
X3.8228Y-3.1152
X3.8228Y-3.2884
X3.8268Y-2.4734
X3.8376Y-2.5896
X3.8396Y-4.0669
X3.8406Y-2.3455
X3.8406Y-2.999
X3.8484Y-2.5433
X3.8661Y-3.1152
X3.8661Y-3.2884
X3.8661Y-4.1772
X3.8691Y-2.8947
X3.8799Y-4.1093
X3.8927Y-3.688
X3.9016Y-3.123
X3.9016Y-3.1624
X3.9016Y-3.2018
X3.9016Y-3.2411
X3.9016Y-3.2805
X3.9045Y-2.4026
X3.9045Y-2.4518
X3.9085Y-4.7057
X3.9154Y-2.3494
X3.9252Y-4.4134
X3.9331Y-2.8533
X3.9352Y-3.5831
X3.9662Y-3.5844
X3.9823Y-3.1142
X3.9862Y-3.2224
X3.9911Y-3.3287
X4.0086Y-3.6093
X4.0207Y-2.3671
X4.0256Y-4.0217
X4.0285Y-2.8947
X4.0394Y-3.0453
X4.0419Y-4.1606
X4.0541Y-3.4183
X4.0743Y-3.5224
X4.0826Y-3.1862
X4.0965Y-3.589
X4.1053Y-2.5472
X4.1102Y-4.2244
X4.129Y-4.6929
X4.1432Y-3.3888
X4.1457Y-4.0748
X4.1693Y-3.8819
X4.1722Y-3.5453
X4.1734Y-3.398
X4.1746Y-3.2244
X4.1772Y-2.9478
X4.1772Y-3.0256
X4.185Y-3.6173
X4.1975Y-3.5224
X4.1984Y-3.3519
X4.1986Y-3.3197
X4.1988Y-3.2856
X4.2012Y-3.7189
X4.2027Y-3.5906
X4.2165Y-2.7874
X4.2166Y-3.8352
X4.2431Y-4.0059
X4.247Y-3.9065
X4.249Y-3.747
X4.2579Y-4.3898
X4.2608Y-2.5305
X4.2618Y-2.8789
X4.2638Y-2.7224
X4.2776Y-4.7677
X4.287Y-3.1327
X4.2917Y-3.3976
X4.2992Y-2.9961
X4.3051Y-3.2638
X4.3094Y-3.2961
X4.3173Y-3.4855
X4.3201Y-3.8453
X4.3248Y-3.0453
X4.3258Y-2.7264
X4.3278Y-4.0059
X4.3317Y-3.5126
X4.3346Y-3.0187
X4.3353Y-3.6958
X4.3431Y-3.7455
X4.3445Y-3.9724
X4.3455Y-4.2333
X4.3484Y-3.8671
X4.3553Y-3.5846
X4.3563Y-3.5354
X4.3701Y-2.9951
X4.3779Y-3.8486
X4.3809Y-4.2933
X4.3866Y-3.128
X4.3878Y-3.8886
X4.3917Y-3.9557
X4.3976Y-4.0689
X4.4047Y-3.7493
X4.4094Y-3.7165
X4.4124Y-3.5384
X4.4134Y-3.2587
X4.4163Y-3.9281
X4.4311Y-4.0886
X4.4341Y-3.7403
X4.438Y-3.4429
X4.4386Y-3.2773
X4.4498Y-2.5226
X4.4518Y-3.1378
X4.4567Y-3.5827
X4.4577Y-3.0965
X4.4587Y-3.6504
X4.4703Y-3.2767
X4.4763Y-2.7669
X4.4823Y-4.1378
X4.4918Y-3.8412
X4.4931Y-3.2558
X4.499Y-3.6722
X4.503Y-2.9124
X4.507Y-4.4311
X4.5161Y-3.7481
X4.5279Y-3.506
X4.5428Y-4.3835
X4.5463Y-3.003
X4.5481Y-3.0473
X4.5498Y-3.2671
X4.5504Y-3.8622
X4.5512Y-2.8573
X4.5581Y-3.3701
X4.5866Y-3.7461
X4.5866Y-4.251
X4.5874Y-3.2811
X4.5876Y-3.6073
X4.5896Y-3.0561
X4.5955Y-2.811
X4.5965Y-3.1142
X4.6033Y-2.9685
X4.6201Y-3.7402
X4.6299Y-3.2811
X4.6378Y-2.9272
X4.6486Y-3.3494
X4.6545Y-3.4203
X4.6574Y-3.2438
X4.6752Y-3.6939
X4.6841Y-3.0512
X4.6929Y-3.2677
X4.7077Y-2.7215
X4.7336Y-3.8513
X4.7343Y-3.3927
X4.739Y-3.2435
X4.7461Y-2.8179
X4.7461Y-3.1152
X4.749Y-3.0177
X4.7667Y-4.4606
X4.7752Y-3.128
X4.8011Y-3.8032
X4.8012Y-3.5689
X4.8051Y-4.1476
X4.8107Y-3.6339
X4.812Y-3.8583
X4.8171Y-4.4606
X4.8228Y-3.935
X4.8248Y-3.0246
X4.8337Y-2.7589
X4.8573Y-4.2343
X4.8602Y-2.5945
X4.8691Y-2.8396
X4.875Y-3.0138
X4.878Y-4.1693
X4.8848Y-3.1142
X4.9054Y-3.8675
X4.9144Y-2.7549
X4.9164Y-4.2854
X4.9321Y-3.1919
X4.9341Y-4.3406
X4.9341Y-3.8567
X4.9449Y-3.0118
X4.9508Y-3.1654
X4.9547Y-3.1122
X4.9606Y-3.8411
X4.9675Y-3.6339
X4.9717Y-3.8124
X4.9724Y-3.0846
X4.9794Y-4.5079
X4.9815Y-3.1593
X4.9852Y-4.1427
X4.9911Y-2.8396
X5.0197Y-3.2077
X5.0205Y-3.0054
X5.0226Y-3.373
X5.0256Y-3.4646
X5.0295Y-3.9427
X5.0335Y-2.5965
X5.0384Y-3.8012
X5.0522Y-4.2874
X5.0598Y-3.6995
X5.0614Y-3.209
X5.0719Y-4.1722
X5.0768Y-3.4421
X5.0815Y-3.6777
X5.0857Y-4.4902
X5.1118Y-3.6726
X5.1181Y-2.4392
X5.126Y-3.2815
X5.126Y-3.3386
X5.1343Y-3.126
X5.1427Y-2.5167
X5.1496Y-4.0984
X5.1535Y-3.4508
X5.1575Y-2.4392
X5.1693Y-3.1772
X5.1743Y-4.2894
X5.1752Y-3.2844
X5.1772Y-4.1299
X5.1823Y-3.1179
X5.1998Y-2.9118
X5.205Y-3.08
X5.2106Y-2.7136
X5.2205Y-2.939
X5.2205Y-3.7475
X5.2343Y-3.1949
X5.2421Y-2.6122
X5.247Y-3.3602
X5.2589Y-4.1929
X5.2707Y-4.502
X5.2756Y-2.31
X5.2756Y-2.5906
X5.2795Y-3.9565
X5.2884Y-3.0728
X5.2905Y-4.1022
X5.2933Y-2.8888
X5.2992Y-3.7657
X5.3008Y-3.9323
X5.3179Y-2.8612
X5.3238Y-3.4882
X5.3386Y-4.3346
X5.3504Y-3.3091
X5.3661Y-3.502
X5.384Y-3.527
X5.3898Y-2.998
X5.3937Y-2.878
X5.3957Y-3.1053
X5.3967Y-2.7992
X5.4114Y-2.4242
X5.4114Y-2.7697
X5.4223Y-4.2008
X5.4282Y-4.2894
X5.4282Y-4.3307
X5.4331Y-2.6535
X5.4331Y-3.7774
X5.435Y-3.1594
X5.4665Y-3.0984
X5.4724Y-3.0315
X5.4738Y-3.6116
X5.502Y-2.7382
X5.505Y-4.4626
X5.5098Y-3.5995
X5.5138Y-2.9252
X5.5236Y-4.0591
X5.5256Y-2.4311
X5.5276Y-2.561
X5.5295Y-3.3081
X5.5325Y-4.3091
X5.5325Y-4.3898
X5.5551Y-2.7736
X5.5551Y-3.1102
X5.564Y-4.185
X5.5669Y-3.0768
X5.5886Y-3.7924
X5.5965Y-2.7106
X5.6043Y-3.1624
X5.628Y-2.9882
X5.629Y-4.376
X5.6329Y-4.4744
X5.6437Y-2.564
X5.6506Y-2.4341
X5.6663Y-4.1781
X5.6664Y-4.0679
X5.6703Y-4.2874
X5.69Y-2.8081
X5.6949Y-3.1614
X5.7058Y-4.7343
X5.7343Y-3.4469
X5.75Y-3.1093
X5.751Y-4.2146
X5.7629Y-4.7244
X5.7629Y-4.7835
X5.7638Y-2.9065
X5.7944Y-4.6772
X5.7983Y-4.7677
X5.8031Y-2.9862
X5.8061Y-4.0659
X5.8298Y-4.7244
X5.8307Y-3.1289
X5.8376Y-4.2106
X5.8495Y-4.6594
X5.8583Y-2.4183
X5.8665Y-3.3331
X5.8701Y-2.6575
X5.8706Y-4.281
X5.8817Y-4.2156
X5.8869Y-4.5492
X5.8883Y-4.3763
X5.8937Y-3.1526
X5.9036Y-4.1663
X5.9124Y-4.4764
X5.9189Y-4.2899
X5.9252Y-3.1161
X5.9281Y-4.503
X5.935Y-4.0295
X5.944Y-4.4764
X5.9597Y-4.6693
X5.9715Y-4.7244
X5.9793Y-4.0965
X5.9794Y-4.1707
X5.9794Y-4.7835
X5.9803Y-2.5354
X5.9913Y-3.0827
X5.9921Y-3.7924
X5.9961Y-2.7894
X6.007Y-4.6772
X6.007Y-4.7677
X6.0138Y-3.9862
X6.0168Y-4.2472
X6.0384Y-2.4843
X6.0424Y-4.7244
X6.065Y-3.2963
X6.0936Y-4.4764
X6.1093Y-4.5049
X6.1102Y-3.4449
X6.1181Y-2.7382
X6.1201Y-2.7972
X6.122Y-3.0768
X6.124Y-4.4754
X6.126Y-4.249
X6.1388Y-4.5453
X6.1417Y-4.0768
X6.1683Y-3.1122
X6.1871Y-4.2065
X6.189Y-4.0335
X6.1929Y-3.1545
X6.2047Y-2.811
X6.2205Y-2.4626
X6.2294Y-4.1713
X6.2308Y-4.541
X6.2353Y-4.7638
X6.2608Y-3.2175
X6.2629Y-4.7244
X6.2717Y-2.8504
X6.2717Y-4.0787
X6.2795Y-3.1358
X6.2894Y-2.7224
X6.2944Y-4.6732
X6.2944Y-4.7717
X6.3071Y-3.1654
X6.3081Y-4.6319
X6.3126Y-4.4405
X6.315Y-2.7972
X6.3258Y-4.7244
X6.3293Y-4.1481
X6.3386Y-3.8012
X6.3416Y-4.6614
X6.378Y-2.8543
X6.3829Y-2.9783
X6.3858Y-2.4478
X6.3878Y-2.6319
X6.3884Y-4.3629
X6.3908Y-4.0217
X6.3917Y-3.1693
X6.3976Y-2.6969
X6.4004Y-4.3132
X6.4066Y-4.5551
X6.4144Y-4.4764
X6.4223Y-4.2402
X6.4311Y-4.5039
X6.439Y-3.2274
X6.4479Y-4.4764
X6.4488Y-2.8543
X6.4508Y-2.8996
X6.4557Y-3.439
X6.4755Y-4.7244
X6.4783Y-3.1703
X6.4882Y-2.9134
X6.4937Y-4.1344
X6.4961Y-3.0453
X6.507Y-4.6772
X6.507Y-4.7677
X6.5143Y-4.249
X6.5157Y-2.8622
X6.5384Y-4.7244
X6.5621Y-4.6732
X6.5659Y-2.9124
X6.5699Y-4.7756
X6.5739Y-4.5433
X6.5896Y-4.1516
X6.5975Y-4.4764
X6.5994Y-3.1161
X6.6102Y-3.3839
X6.6112Y-3.3376
X6.6132Y-4.5039
X6.622Y-2.8593
X6.629Y-4.4764
X6.6299Y-2.5453
X6.6423Y-3.9024
X6.6654Y-3.0709
X6.6673Y-3.4488
X6.6713Y-2.9213
X6.6919Y-3.9024
X6.7244Y-2.7362
X6.7274Y-4.1417
X6.7343Y-3.9024
X6.7343Y-3.9921
X6.7362Y-3.1654
X6.747Y-2.9341
X6.755Y-4.5945
X6.7609Y-4.0295
X6.7618Y-4.0915
X6.7657Y-3.9724
X6.7726Y-2.6388
X6.7747Y-4.5217
X6.7825Y-4.4311
X6.7835Y-2.7736
X6.7862Y-3.4406
X6.7913Y-2.8484
X6.8061Y-2.4557
X6.8081Y-4.6319
X6.8239Y-4.6791
X6.8413Y-3.4811
X6.8512Y-3.9929
X6.8514Y-4.5315
X6.8573Y-4.4508
X6.8593Y-4.3051
X6.8681Y-2.3445
X6.8692Y-4.5827
X6.8751Y-4.3957
X6.8886Y-3.4449
X6.8947Y-4.7087
X6.8987Y-4.1516
X6.9046Y-4.0256
X6.9094Y-3.9341
X6.9114Y-4.0984
X6.9182Y-2.8387
X6.9331Y-3.1102
X6.9488Y-3.3339
X6.9537Y-2.7126
X6.9676Y-4.7598
X6.9734Y-3.9409
X7.0109Y-4.187
X7.0378Y-4.0098
X7.0483Y-4.187
X7.0483Y-4.2815
X7.068Y-4.0315
X7.0787Y-3.3406
X7.0915Y-4.0709
X7.0945Y-2.5
X7.0984Y-3.9478
X7.1398Y-3.0925
X7.1555Y-3.2047
X7.1594Y-2.8819
X7.1673Y-3.4114
X7.1862Y-4.0425
X7.1929Y-2.5591
X7.194Y-4.189
X7.1979Y-4.2657
X7.2058Y-4.378
X7.2106Y-2.9823
X7.2136Y-4.3228
X7.2136Y-4.4744
X7.2372Y-4.1043
X7.2491Y-4.6004
X7.257Y-4.3268
X7.2598Y-2.313
X7.2648Y-4.2087
X7.2648Y-4.4094
X7.2688Y-4.248
X7.2727Y-4.2913
X7.2747Y-4.6398
X7.2785Y-3.2717
X7.2854Y-3.3465
X7.2884Y-4.6024
X7.2983Y-4.5453
X7.3573Y-4.3878
X7.3632Y-3.0886
X7.3642Y-2.9518
X7.3888Y-2.5295
X7.4046Y-4.5591
X7.4183Y-4.0059
X7.4193Y-3.3878
X7.438Y-2.3661
X7.438Y-3.0315
X7.4675Y-3.1398
X7.4685Y-4.7382
X7.4774Y-3.7992
X7.4892Y-3.7469
X7.4997Y-3.5283
X7.5049Y-3.2766
X7.5049Y-3.498
X7.5345Y-2.374
X7.5551Y-3.5413
X7.5571Y-3.8809
X7.5724Y-3.1181
X7.5778Y-4.0157
X7.5787Y-3.1929
X7.5876Y-4.0984
X7.5925Y-2.8819
X7.6211Y-3.5197
X7.6476Y-2.7441
X7.6516Y-4.3573
X7.6555Y-3.8012
X7.6693Y-2.3553
X7.688Y-4.122
X7.689Y-3.6063
X7.6998Y-3.6949
X7.7106Y-3.1211
X7.7106Y-3.1654
X7.7156Y-2.5354
X7.749Y-4.0059
X7.7736Y-3.0984
X7.7746Y-3.2805
X7.7766Y-2.9547
X7.7776Y-3.8071
X7.7914Y-3.7426
X7.7918Y-3.1565
X7.8022Y-3.4321
X7.8022Y-3.4646
X7.8042Y-2.6516
X7.8051Y-4.5148
X7.8081Y-3.6181
X7.8337Y-3.3047
X7.874Y-2.7913
X7.8789Y-3.3858
X7.8986Y-3.7854
X7.8986Y-2.5886
X7.9154Y-3.1181
X7.9242Y-3.7156
X7.937Y-4.2717
X7.9596Y-3.1988
X7.9626Y-3.8957
X7.9734Y-3.1467
X7.9744Y-3.0315
X7.9796Y-3.3656
X7.9882Y-4.5394
X8.002Y-3.712
X8.0157Y-4.3701
X8.0246Y-3.1447
X8.0305Y-4.0827
X8.0335Y-3.2047
X8.0375Y-3.3712
X8.0463Y-4.5965
X8.0709Y-4.1339
X8.075Y-3.0876
X8.0778Y-2.4114
X8.0866Y-3.001
X8.0866Y-3.7894
X8.0925Y-3.124
X8.1181Y-2.9291
X8.127Y-4.5118
X8.1398Y-3.8858
X8.1496Y-4.1791
X8.1585Y-3.7805
X8.1605Y-3.7104
X8.1743Y-3.2038
X8.1743Y-4.2776
X8.185Y-3.126
X8.192Y-2.378
X8.192Y-4.0374
X8.1929Y-3.0157
X8.1946Y-3.2508
X8.2087Y-3.8415
X8.2214Y-3.376
X8.2333Y-3.8907
X8.2362Y-3.5591
X8.248Y-3.2835
X8.249Y-3.2402
X8.2746Y-3.5581
X8.2776Y-4.2441
X8.2815Y-3.1476
X8.3022Y-4.314
X8.3031Y-2.8681
X8.3061Y-2.3917
X8.31Y-3.5591
X8.3121Y-4.7421
X8.315Y-3.2323
X8.3307Y-3.374
X8.3553Y-2.7451
X8.3661Y-3.3504
X8.3858Y-3.2598
X8.3868Y-3.376
X8.4094Y-3.3465
X8.4197Y-3.3974
X8.4242Y-3.1122
X8.435Y-3.6614
X8.437Y-3.2717
X8.4439Y-3.5561
X8.4537Y-3.4843
X8.4567Y-3.3976
X8.4626Y-3.8081
X8.4764Y-3.2894
X8.5Y-2.8602
X8.5197Y-3.3484
X8.5335Y-4.6949
X8.5709Y-3.439
X8.5743Y-3.3676
X8.6033Y-2.9695
X8.6299Y-4.3858
X8.7845Y-3.2382
X8.8179Y-4.1063
X8.8258Y-2.685
X8.8534Y-3.3366
X8.9783Y-4.5295
X9.0472Y-3.9252
X9.0709Y-3.0965
X9.1437Y-2.6063
T3
X4.3051Y-3.5728
X4.4724Y-3.7362
X4.7185Y-3.7323
X5.8602Y-4.0118
T4
X3.6053Y-3.3386
X3.6053Y-3.3957
X3.8927Y-3.4557
X4.0512Y-2.7874
X4.0558Y-3.1358
X4.3533Y-2.4392
X4.4242Y-2.4392
X4.7589Y-2.4392
X4.8238Y-2.4392
X5.7537Y-4.5991
X5.7963Y-4.2726
X5.7963Y-4.3209
X5.7963Y-4.3662
X6.7865Y-4.1535
X6.7865Y-4.2106
X6.7865Y-4.2736
X6.7865Y-4.3484
X7.1152Y-4.252
X7.1172Y-4.1969
T6
X8.3535Y-3.5051
X8.3535Y-3.6051
X8.3535Y-3.7051
X8.3535Y-3.8051
X8.6535Y-3.5051
X8.6535Y-3.6051
X8.6535Y-3.7051
X8.6535Y-3.8051
T7
X7.0306Y-4.7283
X7.129Y-4.7283
X7.2274Y-4.7283
T8
X5.3671Y-2.9492
X5.4167Y-3.0492
X5.4671Y-2.9492
X5.5167Y-3.0492
X5.5671Y-2.9492
X5.6167Y-3.0492
X5.6671Y-2.9492
X5.7167Y-3.0492
X7.529Y-2.9433
X7.5786Y-3.0433
X7.629Y-2.9433
X7.6786Y-3.0433
X7.729Y-2.9433
X7.7786Y-3.0433
X7.829Y-2.9433
X7.8786Y-3.0433
X8.2357Y-2.9439
X8.2853Y-3.0439
X8.3357Y-2.9439
X8.3853Y-3.0439
X8.4357Y-2.9439
X8.4853Y-3.0439
X8.5357Y-2.9439
X8.5853Y-3.0439
T9
X4.1102Y-2.3622
X4.1142Y-2.6476
X4.2087Y-2.3622
X4.2126Y-2.6476
X4.3071Y-2.3622
X4.311Y-2.6476
X4.4094Y-2.6476
X4.5079Y-2.6476
X4.5118Y-2.3622
X4.5354Y-4.1801
X4.6102Y-2.3622
X4.6339Y-4.1801
X4.7087Y-2.3622
X4.7165Y-2.6476
X4.7165Y-2.8915
X4.7323Y-4.1801
X4.815Y-2.6476
X4.815Y-2.8915
X4.9134Y-2.3622
X4.9134Y-2.6476
X4.9134Y-2.8915
X5.0118Y-2.3622
X5.0118Y-2.6476
X5.1102Y-2.3622
X5.1102Y-2.6476
X5.8711Y-4.6063
X5.9695Y-4.6063
X5.9783Y-2.4055
X5.9783Y-2.6476
X6.068Y-4.6063
X6.0768Y-2.4055
X6.0768Y-2.6476
X6.1664Y-4.6063
X6.1752Y-2.4055
X6.1752Y-2.6476
X6.2736Y-2.4055
X6.2736Y-2.6476
X6.3751Y-4.6063
X6.4735Y-4.6063
X6.4803Y-2.4055
X6.4803Y-2.6476
X6.5719Y-4.6063
X6.5787Y-2.4055
X6.5787Y-2.6476
X6.6703Y-4.6063
X6.6772Y-2.4055
X6.6772Y-2.6476
X6.8858Y-2.4055
X6.8858Y-2.6476
X6.9843Y-2.4055
X6.9843Y-2.6476
X7.0827Y-2.4055
X7.0827Y-2.6476
X7.1811Y-2.4055
X7.1811Y-2.6476
X7.2795Y-2.4055
X7.2795Y-2.6476
T10
X5.9961Y-2.9035
X6.0945Y-2.9035
T11
X5.2811Y-2.5059
X5.3811Y-2.5059
X5.7028Y-2.5059
X5.8028Y-2.5059
X7.4429Y-2.5
X7.5429Y-2.5
X7.8646Y-2.5
X7.9646Y-2.5
X8.1496Y-2.5006
X8.2496Y-2.5006
X8.5713Y-2.5006
X8.6713Y-2.5006
T12
X3.2086Y-2.9429
X3.2086Y-4.1437
X3.4842Y-2.9429
X3.4842Y-4.1437
X7.5617Y-4.5866
X7.5617Y-4.6866
X7.6617Y-4.5866
X7.6617Y-4.6866
X7.7617Y-4.5866
X7.7617Y-4.6866
X7.8617Y-4.5866
X7.8617Y-4.6866
X7.9617Y-4.5866
X7.9617Y-4.6866
T13
X3.061Y-4.5039
X3.1004Y-2.5809
X3.1988Y-4.5039
X3.2382Y-2.5809
X3.3957Y-4.5037
X3.435Y-2.5809
X3.5335Y-4.5037
X3.5728Y-2.5809
X3.7717Y-2.5809
X3.9094Y-2.5809
T14
X5.237Y-2.8189
X5.8469Y-2.8189
X7.3988Y-2.813
X8.0087Y-2.813
X8.1055Y-2.8136
X8.7154Y-2.8136
T5
G00X3.6882Y-4.5244
M15
G01X3.6882Y-4.5677
M16
G05
G00X3.6882Y-4.6988
M15
G01X3.6882Y-4.7224
M16
G05
G00X4.0283Y-4.5244
M15
G01X4.0283Y-4.5677
M16
G05
G00X4.0283Y-4.6988
M15
G01X4.0283Y-4.7224
M16
G05
G00X4.6134Y-4.5244
M15
G01X4.6134Y-4.5677
M16
G05
G00X4.6134Y-4.6988
M15
G01X4.6134Y-4.7224
M16
G05
G00X4.9535Y-4.5244
M15
G01X4.9535Y-4.5677
M16
G05
G00X4.9535Y-4.6988
M15
G01X4.9535Y-4.7224
M16
G05
T10
G00X4.0503Y-4.439
M15
G01X4.0503Y-4.3602
M16
G05
G00X4.1959Y-4.2815
M15
G01X4.2747Y-4.2815
M16
G05
G00X4.1959Y-4.5177
M15
G01X4.2747Y-4.5177
M16
G05
M30
