%TF.GenerationSoftware,KiCad,Pcbnew,10.0.0*%
%TF.CreationDate,2026-05-15T17:00:53+02:00*%
%TF.ProjectId,pcb_control_unit_ethernet,7063625f-636f-46e7-9472-6f6c5f756e69,rev?*%
%TF.SameCoordinates,Original*%
%TF.FileFunction,Paste,Top*%
%TF.FilePolarity,Positive*%
%FSLAX46Y46*%
G04 Gerber Fmt 4.6, Leading zero omitted, Abs format (unit mm)*
G04 Created by KiCad (PCBNEW 10.0.0) date 2026-05-15 17:00:53*
%MOMM*%
%LPD*%
G01*
G04 APERTURE LIST*
G04 Aperture macros list*
%AMRoundRect*
0 Rectangle with rounded corners*
0 $1 Rounding radius*
0 $2 $3 $4 $5 $6 $7 $8 $9 X,Y pos of 4 corners*
0 Add a 4 corners polygon primitive as box body*
4,1,4,$2,$3,$4,$5,$6,$7,$8,$9,$2,$3,0*
0 Add four circle primitives for the rounded corners*
1,1,$1+$1,$2,$3*
1,1,$1+$1,$4,$5*
1,1,$1+$1,$6,$7*
1,1,$1+$1,$8,$9*
0 Add four rect primitives between the rounded corners*
20,1,$1+$1,$2,$3,$4,$5,0*
20,1,$1+$1,$4,$5,$6,$7,0*
20,1,$1+$1,$6,$7,$8,$9,0*
20,1,$1+$1,$8,$9,$2,$3,0*%
%AMRotRect*
0 Rectangle, with rotation*
0 The origin of the aperture is its center*
0 $1 length*
0 $2 width*
0 $3 Rotation angle, in degrees counterclockwise*
0 Add horizontal line*
21,1,$1,$2,0,0,$3*%
G04 Aperture macros list end*
%ADD10RoundRect,0.140000X-0.140000X-0.170000X0.140000X-0.170000X0.140000X0.170000X-0.140000X0.170000X0*%
%ADD11RoundRect,0.135000X-0.135000X-0.185000X0.135000X-0.185000X0.135000X0.185000X-0.135000X0.185000X0*%
%ADD12RoundRect,0.250000X0.255000X0.255000X-0.255000X0.255000X-0.255000X-0.255000X0.255000X-0.255000X0*%
%ADD13RoundRect,0.062500X0.325000X0.062500X-0.325000X0.062500X-0.325000X-0.062500X0.325000X-0.062500X0*%
%ADD14RoundRect,0.062500X0.062500X0.325000X-0.062500X0.325000X-0.062500X-0.325000X0.062500X-0.325000X0*%
%ADD15RoundRect,0.075000X0.650000X0.075000X-0.650000X0.075000X-0.650000X-0.075000X0.650000X-0.075000X0*%
%ADD16RoundRect,0.140000X-0.170000X0.140000X-0.170000X-0.140000X0.170000X-0.140000X0.170000X0.140000X0*%
%ADD17RoundRect,0.175000X-0.175000X-0.625000X0.175000X-0.625000X0.175000X0.625000X-0.175000X0.625000X0*%
%ADD18R,1.200000X1.500000*%
%ADD19R,1.200000X2.200000*%
%ADD20R,1.600000X1.500000*%
%ADD21RoundRect,0.140000X0.170000X-0.140000X0.170000X0.140000X-0.170000X0.140000X-0.170000X-0.140000X0*%
%ADD22RoundRect,0.135000X0.185000X-0.135000X0.185000X0.135000X-0.185000X0.135000X-0.185000X-0.135000X0*%
%ADD23RoundRect,0.150000X-0.150000X0.825000X-0.150000X-0.825000X0.150000X-0.825000X0.150000X0.825000X0*%
%ADD24RoundRect,0.150000X0.600000X0.650000X-0.600000X0.650000X-0.600000X-0.650000X0.600000X-0.650000X0*%
%ADD25RoundRect,0.250000X0.475000X-0.250000X0.475000X0.250000X-0.475000X0.250000X-0.475000X-0.250000X0*%
%ADD26RoundRect,0.135000X0.226274X0.035355X0.035355X0.226274X-0.226274X-0.035355X-0.035355X-0.226274X0*%
%ADD27RoundRect,0.140000X0.219203X0.021213X0.021213X0.219203X-0.219203X-0.021213X-0.021213X-0.219203X0*%
%ADD28RoundRect,0.135000X0.135000X0.185000X-0.135000X0.185000X-0.135000X-0.185000X0.135000X-0.185000X0*%
%ADD29RoundRect,0.135000X-0.185000X0.135000X-0.185000X-0.135000X0.185000X-0.135000X0.185000X0.135000X0*%
%ADD30RoundRect,0.250000X0.312500X0.625000X-0.312500X0.625000X-0.312500X-0.625000X0.312500X-0.625000X0*%
%ADD31RoundRect,0.150000X-0.150000X0.587500X-0.150000X-0.587500X0.150000X-0.587500X0.150000X0.587500X0*%
%ADD32RotRect,0.600000X1.000000X315.000000*%
%ADD33RotRect,0.650000X0.350000X315.000000*%
%ADD34RoundRect,0.150000X0.587500X0.150000X-0.587500X0.150000X-0.587500X-0.150000X0.587500X-0.150000X0*%
%ADD35RoundRect,0.140000X0.140000X0.170000X-0.140000X0.170000X-0.140000X-0.170000X0.140000X-0.170000X0*%
%ADD36RoundRect,0.250000X0.250000X0.475000X-0.250000X0.475000X-0.250000X-0.475000X0.250000X-0.475000X0*%
%ADD37RoundRect,0.218750X-0.256250X0.218750X-0.256250X-0.218750X0.256250X-0.218750X0.256250X0.218750X0*%
%ADD38RoundRect,0.075000X0.725000X0.075000X-0.725000X0.075000X-0.725000X-0.075000X0.725000X-0.075000X0*%
%ADD39RoundRect,0.075000X0.075000X0.725000X-0.075000X0.725000X-0.075000X-0.725000X0.075000X-0.725000X0*%
%ADD40RoundRect,0.250000X0.550000X-1.500000X0.550000X1.500000X-0.550000X1.500000X-0.550000X-1.500000X0*%
%ADD41RoundRect,0.250001X-0.354999X-0.354999X0.354999X-0.354999X0.354999X0.354999X-0.354999X0.354999X0*%
%ADD42RoundRect,0.062500X-0.375000X-0.062500X0.375000X-0.062500X0.375000X0.062500X-0.375000X0.062500X0*%
%ADD43RoundRect,0.062500X-0.062500X-0.375000X0.062500X-0.375000X0.062500X0.375000X-0.062500X0.375000X0*%
%ADD44RoundRect,0.200000X-0.035355X-0.318198X0.318198X0.035355X0.035355X0.318198X-0.318198X-0.035355X0*%
%ADD45RoundRect,0.250000X-0.250000X-0.475000X0.250000X-0.475000X0.250000X0.475000X-0.250000X0.475000X0*%
%ADD46RoundRect,0.250000X-0.475000X0.250000X-0.475000X-0.250000X0.475000X-0.250000X0.475000X0.250000X0*%
%ADD47RoundRect,0.235000X0.940000X1.465000X-0.940000X1.465000X-0.940000X-1.465000X0.940000X-1.465000X0*%
%ADD48RoundRect,0.218750X-0.218750X-0.256250X0.218750X-0.256250X0.218750X0.256250X-0.218750X0.256250X0*%
%ADD49RoundRect,0.150000X-0.600000X-0.650000X0.600000X-0.650000X0.600000X0.650000X-0.600000X0.650000X0*%
%ADD50RoundRect,0.375000X-0.625000X-0.375000X0.625000X-0.375000X0.625000X0.375000X-0.625000X0.375000X0*%
%ADD51RoundRect,0.500000X-0.500000X-1.400000X0.500000X-1.400000X0.500000X1.400000X-0.500000X1.400000X0*%
%ADD52RoundRect,0.140000X0.021213X-0.219203X0.219203X-0.021213X-0.021213X0.219203X-0.219203X0.021213X0*%
%ADD53RoundRect,0.162500X0.162500X-0.617500X0.162500X0.617500X-0.162500X0.617500X-0.162500X-0.617500X0*%
%ADD54RoundRect,0.218750X0.256250X-0.218750X0.256250X0.218750X-0.256250X0.218750X-0.256250X-0.218750X0*%
%ADD55R,1.000000X1.700000*%
%ADD56RoundRect,0.218750X0.218750X0.381250X-0.218750X0.381250X-0.218750X-0.381250X0.218750X-0.381250X0*%
%ADD57RoundRect,0.218750X0.218750X0.256250X-0.218750X0.256250X-0.218750X-0.256250X0.218750X-0.256250X0*%
%ADD58R,0.600000X1.450000*%
%ADD59R,0.300000X1.450000*%
%ADD60RoundRect,0.232500X-0.232500X0.232500X-0.232500X-0.232500X0.232500X-0.232500X0.232500X0.232500X0*%
%ADD61RoundRect,0.062500X-0.062500X0.375000X-0.062500X-0.375000X0.062500X-0.375000X0.062500X0.375000X0*%
%ADD62RoundRect,0.062500X-0.375000X0.062500X-0.375000X-0.062500X0.375000X-0.062500X0.375000X0.062500X0*%
%ADD63RoundRect,0.175000X0.275000X0.175000X-0.275000X0.175000X-0.275000X-0.175000X0.275000X-0.175000X0*%
%ADD64R,1.700000X1.000000*%
%ADD65RoundRect,0.162500X0.617500X0.162500X-0.617500X0.162500X-0.617500X-0.162500X0.617500X-0.162500X0*%
%ADD66RoundRect,0.200000X-0.318198X0.035355X0.035355X-0.318198X0.318198X-0.035355X-0.035355X0.318198X0*%
%ADD67RoundRect,0.111000X-1.139000X0.259000X-1.139000X-0.259000X1.139000X-0.259000X1.139000X0.259000X0*%
%ADD68RoundRect,0.235000X1.465000X-0.940000X1.465000X0.940000X-1.465000X0.940000X-1.465000X-0.940000X0*%
G04 APERTURE END LIST*
D10*
%TO.C,C29*%
X78095000Y-98650000D03*
X79055000Y-98650000D03*
%TD*%
D11*
%TO.C,R45*%
X100465000Y-67900000D03*
X101485000Y-67900000D03*
%TD*%
D12*
%TO.C,U7*%
X154114042Y-112487500D03*
X154114042Y-111237500D03*
X154114042Y-109987500D03*
X152864042Y-112487500D03*
X152864042Y-111237500D03*
X152864042Y-109987500D03*
X151614042Y-112487500D03*
X151614042Y-111237500D03*
X151614042Y-109987500D03*
D13*
X155326542Y-112737500D03*
X155326542Y-112237500D03*
X155326542Y-111737500D03*
X155326542Y-111237500D03*
X155326542Y-110737500D03*
X155326542Y-110237500D03*
X155326542Y-109737500D03*
D14*
X154364042Y-108775000D03*
X153864042Y-108775000D03*
X153364042Y-108775000D03*
X152864042Y-108775000D03*
X152364042Y-108775000D03*
X151864042Y-108775000D03*
X151364042Y-108775000D03*
D13*
X150401542Y-109737500D03*
X150401542Y-110237500D03*
X150401542Y-110737500D03*
X150401542Y-111237500D03*
X150401542Y-111737500D03*
X150401542Y-112237500D03*
X150401542Y-112737500D03*
D14*
X151364042Y-113700000D03*
X151864042Y-113700000D03*
X152364042Y-113700000D03*
X152864042Y-113700000D03*
X153364042Y-113700000D03*
X153864042Y-113700000D03*
X154364042Y-113700000D03*
%TD*%
D15*
%TO.C,U6*%
X103750000Y-106600000D03*
X103750000Y-106100000D03*
X103750000Y-105600000D03*
X103750000Y-105100000D03*
X103750000Y-104600000D03*
X99450000Y-104600000D03*
X99450000Y-105100000D03*
X99450000Y-105600000D03*
X99450000Y-106100000D03*
X99450000Y-106600000D03*
%TD*%
D16*
%TO.C,C8*%
X106900000Y-95660000D03*
X106900000Y-96620000D03*
%TD*%
D17*
%TO.C,J2*%
X136876542Y-107525000D03*
X135776542Y-107525000D03*
X134676542Y-107525000D03*
X133576542Y-107525000D03*
X132476542Y-107525000D03*
X131376542Y-107525000D03*
X130276542Y-107525000D03*
X129176542Y-107525000D03*
X128076542Y-107525000D03*
D18*
X126876542Y-108525000D03*
D19*
X126876542Y-118125000D03*
D20*
X141476542Y-108525000D03*
D19*
X142376542Y-118125000D03*
%TD*%
D21*
%TO.C,C73*%
X214275000Y-73755000D03*
X214275000Y-72795000D03*
%TD*%
D11*
%TO.C,R93*%
X82940000Y-111000000D03*
X83960000Y-111000000D03*
%TD*%
D22*
%TO.C,R57*%
X148335000Y-76495000D03*
X148335000Y-75475000D03*
%TD*%
D23*
%TO.C,U11*%
X171370500Y-70810914D03*
X170100500Y-70810914D03*
X168830500Y-70810914D03*
X167560500Y-70810914D03*
X166290500Y-70810914D03*
X165020500Y-70810914D03*
X163750500Y-70810914D03*
X163750500Y-75760914D03*
X165020500Y-75760914D03*
X166290500Y-75760914D03*
X167560500Y-75760914D03*
X168830500Y-75760914D03*
X170100500Y-75760914D03*
X171370500Y-75760914D03*
%TD*%
D24*
%TO.C,D1*%
X111675000Y-74525000D03*
X108275000Y-74525000D03*
%TD*%
D25*
%TO.C,C50*%
X147164042Y-117987500D03*
X147164042Y-116087500D03*
%TD*%
D11*
%TO.C,R6*%
X115765000Y-67800000D03*
X116785000Y-67800000D03*
%TD*%
D26*
%TO.C,R62*%
X113210624Y-99510624D03*
X112489376Y-98789376D03*
%TD*%
D27*
%TO.C,C78*%
X194589506Y-86939411D03*
X193910684Y-86260589D03*
%TD*%
D28*
%TO.C,R69*%
X205710000Y-74400000D03*
X204690000Y-74400000D03*
%TD*%
D21*
%TO.C,C94*%
X196625000Y-81630000D03*
X196625000Y-80670000D03*
%TD*%
%TO.C,C81*%
X203924489Y-83155000D03*
X203924489Y-82195000D03*
%TD*%
%TO.C,C83*%
X202999489Y-83555000D03*
X202999489Y-82595000D03*
%TD*%
D29*
%TO.C,R47*%
X100900000Y-64890000D03*
X100900000Y-65910000D03*
%TD*%
D28*
%TO.C,R32*%
X91060000Y-88975000D03*
X90040000Y-88975000D03*
%TD*%
D21*
%TO.C,C13*%
X110760000Y-79600000D03*
X110760000Y-78640000D03*
%TD*%
%TO.C,C75*%
X141375000Y-73630000D03*
X141375000Y-72670000D03*
%TD*%
D11*
%TO.C,R61*%
X154755000Y-65550000D03*
X155775000Y-65550000D03*
%TD*%
D10*
%TO.C,C63*%
X209594489Y-85775000D03*
X210554489Y-85775000D03*
%TD*%
D16*
%TO.C,C16*%
X133300000Y-105045000D03*
X133300000Y-106005000D03*
%TD*%
%TO.C,C86*%
X203225095Y-94770000D03*
X203225095Y-95730000D03*
%TD*%
D11*
%TO.C,R68*%
X205065000Y-77950000D03*
X206085000Y-77950000D03*
%TD*%
D30*
%TO.C,R34*%
X99887500Y-110800000D03*
X96962500Y-110800000D03*
%TD*%
D31*
%TO.C,Q2*%
X83150000Y-61537500D03*
X81250000Y-61537500D03*
X82200000Y-63412500D03*
%TD*%
D10*
%TO.C,C12*%
X124920000Y-85010000D03*
X125880000Y-85010000D03*
%TD*%
D22*
%TO.C,R26*%
X133350000Y-78460000D03*
X133350000Y-77440000D03*
%TD*%
D29*
%TO.C,R1*%
X124175000Y-112260000D03*
X124175000Y-113280000D03*
%TD*%
D11*
%TO.C,R94*%
X81865000Y-118325000D03*
X82885000Y-118325000D03*
%TD*%
D32*
%TO.C,U10*%
X114350260Y-101467976D03*
X113501732Y-102316504D03*
X114898268Y-102015984D03*
X114049740Y-102864512D03*
D33*
X113793414Y-100380799D03*
X113333794Y-100840419D03*
X112874175Y-101300038D03*
X112414555Y-101759658D03*
X114606586Y-103951689D03*
X115066206Y-103492069D03*
X115525825Y-103032450D03*
X115985445Y-102572830D03*
%TD*%
D22*
%TO.C,R91*%
X90775000Y-117910000D03*
X90775000Y-116890000D03*
%TD*%
D34*
%TO.C,Q5*%
X88287500Y-118300000D03*
X88287500Y-116400000D03*
X86412500Y-117350000D03*
%TD*%
D11*
%TO.C,R37*%
X124175000Y-71675000D03*
X125195000Y-71675000D03*
%TD*%
D35*
%TO.C,C68*%
X197680095Y-88075000D03*
X196720095Y-88075000D03*
%TD*%
D25*
%TO.C,C60*%
X160300000Y-75800000D03*
X160300000Y-73900000D03*
%TD*%
D28*
%TO.C,R25*%
X136460000Y-76150000D03*
X135440000Y-76150000D03*
%TD*%
D36*
%TO.C,C37*%
X171476542Y-108650000D03*
X169576542Y-108650000D03*
%TD*%
D28*
%TO.C,R30*%
X143010000Y-63600000D03*
X141990000Y-63600000D03*
%TD*%
%TO.C,R78*%
X218384489Y-84450000D03*
X217364489Y-84450000D03*
%TD*%
D35*
%TO.C,C90*%
X206080000Y-77000000D03*
X205120000Y-77000000D03*
%TD*%
D27*
%TO.C,C19*%
X130439411Y-70439411D03*
X129760589Y-69760589D03*
%TD*%
D10*
%TO.C,C84*%
X178246542Y-103200000D03*
X179206542Y-103200000D03*
%TD*%
D21*
%TO.C,C82*%
X201149489Y-82255000D03*
X201149489Y-81295000D03*
%TD*%
D11*
%TO.C,R8*%
X177065000Y-68900000D03*
X178085000Y-68900000D03*
%TD*%
D29*
%TO.C,R79*%
X188725095Y-83440000D03*
X188725095Y-84460000D03*
%TD*%
D11*
%TO.C,R73*%
X197915000Y-79650000D03*
X198935000Y-79650000D03*
%TD*%
D21*
%TO.C,C5*%
X109460000Y-79570000D03*
X109460000Y-78610000D03*
%TD*%
D30*
%TO.C,R40*%
X162789042Y-119950000D03*
X159864042Y-119950000D03*
%TD*%
D28*
%TO.C,R12*%
X132410000Y-105975000D03*
X131390000Y-105975000D03*
%TD*%
D29*
%TO.C,R7*%
X108500000Y-80090000D03*
X108500000Y-81110000D03*
%TD*%
%TO.C,R31*%
X89100000Y-86090000D03*
X89100000Y-87110000D03*
%TD*%
D16*
%TO.C,C15*%
X126800000Y-83170000D03*
X126800000Y-84130000D03*
%TD*%
D29*
%TO.C,R96*%
X181326542Y-103900000D03*
X181326542Y-104920000D03*
%TD*%
D10*
%TO.C,C4*%
X121970000Y-79450000D03*
X122930000Y-79450000D03*
%TD*%
D29*
%TO.C,R77*%
X216424489Y-83465000D03*
X216424489Y-84485000D03*
%TD*%
D37*
%TO.C,L5*%
X201050000Y-78562500D03*
X201050000Y-80137500D03*
%TD*%
D10*
%TO.C,C72*%
X207644489Y-83400000D03*
X208604489Y-83400000D03*
%TD*%
D29*
%TO.C,R14*%
X135825000Y-104165000D03*
X135825000Y-105185000D03*
%TD*%
D25*
%TO.C,C51*%
X171226542Y-112350000D03*
X171226542Y-110450000D03*
%TD*%
D10*
%TO.C,C11*%
X120720000Y-98000000D03*
X121680000Y-98000000D03*
%TD*%
%TO.C,C57*%
X153995000Y-68975000D03*
X154955000Y-68975000D03*
%TD*%
D29*
%TO.C,R4*%
X105325000Y-104190000D03*
X105325000Y-105210000D03*
%TD*%
D11*
%TO.C,R80*%
X186765095Y-84450000D03*
X187785095Y-84450000D03*
%TD*%
D10*
%TO.C,C66*%
X201249489Y-94900000D03*
X202209489Y-94900000D03*
%TD*%
D38*
%TO.C,U1*%
X123275000Y-94800000D03*
X123275000Y-94300000D03*
X123275000Y-93800000D03*
X123275000Y-93300000D03*
X123275000Y-92800000D03*
X123275000Y-92300000D03*
X123275000Y-91800000D03*
X123275000Y-91300000D03*
X123275000Y-90800000D03*
X123275000Y-90300000D03*
X123275000Y-89800000D03*
X123275000Y-89300000D03*
X123275000Y-88800000D03*
X123275000Y-88300000D03*
X123275000Y-87800000D03*
X123275000Y-87300000D03*
X123275000Y-86800000D03*
X123275000Y-86300000D03*
X123275000Y-85800000D03*
X123275000Y-85300000D03*
X123275000Y-84800000D03*
X123275000Y-84300000D03*
X123275000Y-83800000D03*
X123275000Y-83300000D03*
X123275000Y-82800000D03*
D39*
X121600000Y-81125000D03*
X121100000Y-81125000D03*
X120600000Y-81125000D03*
X120100000Y-81125000D03*
X119600000Y-81125000D03*
X119100000Y-81125000D03*
X118600000Y-81125000D03*
X118100000Y-81125000D03*
X117600000Y-81125000D03*
X117100000Y-81125000D03*
X116600000Y-81125000D03*
X116100000Y-81125000D03*
X115600000Y-81125000D03*
X115100000Y-81125000D03*
X114600000Y-81125000D03*
X114100000Y-81125000D03*
X113600000Y-81125000D03*
X113100000Y-81125000D03*
X112600000Y-81125000D03*
X112100000Y-81125000D03*
X111600000Y-81125000D03*
X111100000Y-81125000D03*
X110600000Y-81125000D03*
X110100000Y-81125000D03*
X109600000Y-81125000D03*
D38*
X107925000Y-82800000D03*
X107925000Y-83300000D03*
X107925000Y-83800000D03*
X107925000Y-84300000D03*
X107925000Y-84800000D03*
X107925000Y-85300000D03*
X107925000Y-85800000D03*
X107925000Y-86300000D03*
X107925000Y-86800000D03*
X107925000Y-87300000D03*
X107925000Y-87800000D03*
X107925000Y-88300000D03*
X107925000Y-88800000D03*
X107925000Y-89300000D03*
X107925000Y-89800000D03*
X107925000Y-90300000D03*
X107925000Y-90800000D03*
X107925000Y-91300000D03*
X107925000Y-91800000D03*
X107925000Y-92300000D03*
X107925000Y-92800000D03*
X107925000Y-93300000D03*
X107925000Y-93800000D03*
X107925000Y-94300000D03*
X107925000Y-94800000D03*
D39*
X109600000Y-96475000D03*
X110100000Y-96475000D03*
X110600000Y-96475000D03*
X111100000Y-96475000D03*
X111600000Y-96475000D03*
X112100000Y-96475000D03*
X112600000Y-96475000D03*
X113100000Y-96475000D03*
X113600000Y-96475000D03*
X114100000Y-96475000D03*
X114600000Y-96475000D03*
X115100000Y-96475000D03*
X115600000Y-96475000D03*
X116100000Y-96475000D03*
X116600000Y-96475000D03*
X117100000Y-96475000D03*
X117600000Y-96475000D03*
X118100000Y-96475000D03*
X118600000Y-96475000D03*
X119100000Y-96475000D03*
X119600000Y-96475000D03*
X120100000Y-96475000D03*
X120600000Y-96475000D03*
X121100000Y-96475000D03*
X121600000Y-96475000D03*
%TD*%
D16*
%TO.C,C35*%
X97950000Y-104320000D03*
X97950000Y-105280000D03*
%TD*%
D40*
%TO.C,C52*%
X146026542Y-109750000D03*
X146026542Y-104350000D03*
%TD*%
D22*
%TO.C,R2*%
X125125000Y-113285000D03*
X125125000Y-112265000D03*
%TD*%
D29*
%TO.C,R67*%
X195575095Y-88040000D03*
X195575095Y-89060000D03*
%TD*%
D12*
%TO.C,U8*%
X166914042Y-112487500D03*
X166914042Y-111237500D03*
X166914042Y-109987500D03*
X165664042Y-112487500D03*
X165664042Y-111237500D03*
X165664042Y-109987500D03*
X164414042Y-112487500D03*
X164414042Y-111237500D03*
X164414042Y-109987500D03*
D13*
X168126542Y-112737500D03*
X168126542Y-112237500D03*
X168126542Y-111737500D03*
X168126542Y-111237500D03*
X168126542Y-110737500D03*
X168126542Y-110237500D03*
X168126542Y-109737500D03*
D14*
X167164042Y-108775000D03*
X166664042Y-108775000D03*
X166164042Y-108775000D03*
X165664042Y-108775000D03*
X165164042Y-108775000D03*
X164664042Y-108775000D03*
X164164042Y-108775000D03*
D13*
X163201542Y-109737500D03*
X163201542Y-110237500D03*
X163201542Y-110737500D03*
X163201542Y-111237500D03*
X163201542Y-111737500D03*
X163201542Y-112237500D03*
X163201542Y-112737500D03*
D14*
X164164042Y-113700000D03*
X164664042Y-113700000D03*
X165164042Y-113700000D03*
X165664042Y-113700000D03*
X166164042Y-113700000D03*
X166664042Y-113700000D03*
X167164042Y-113700000D03*
%TD*%
D35*
%TO.C,C44*%
X154544042Y-107637500D03*
X153584042Y-107637500D03*
%TD*%
D31*
%TO.C,Q3*%
X91650000Y-61562500D03*
X89750000Y-61562500D03*
X90700000Y-63437500D03*
%TD*%
D11*
%TO.C,R38*%
X122175000Y-71675000D03*
X123195000Y-71675000D03*
%TD*%
D29*
%TO.C,R43*%
X117725000Y-97965001D03*
X117725000Y-98984999D03*
%TD*%
D21*
%TO.C,C39*%
X162364042Y-108817500D03*
X162364042Y-107857500D03*
%TD*%
D11*
%TO.C,R11*%
X129266542Y-106000000D03*
X130286542Y-106000000D03*
%TD*%
D10*
%TO.C,C91*%
X204720000Y-75375000D03*
X205680000Y-75375000D03*
%TD*%
D11*
%TO.C,R16*%
X126015000Y-75575000D03*
X127035000Y-75575000D03*
%TD*%
D41*
%TO.C,U13*%
X201250095Y-86900000D03*
X201250095Y-88400000D03*
X201250095Y-89900000D03*
X201250095Y-91400000D03*
X202750095Y-86900000D03*
X202750095Y-88400000D03*
X202750095Y-89900000D03*
X202750095Y-91400000D03*
X204250095Y-86900000D03*
X204250095Y-88400000D03*
X204250095Y-89900000D03*
X204250095Y-91400000D03*
X205750095Y-86900000D03*
X205750095Y-88400000D03*
X205750095Y-89900000D03*
X205750095Y-91400000D03*
D42*
X199062595Y-85400000D03*
X199062595Y-85900000D03*
X199062595Y-86400000D03*
X199062595Y-86900000D03*
X199062595Y-87400000D03*
X199062595Y-87900000D03*
X199062595Y-88400000D03*
X199062595Y-88900000D03*
X199062595Y-89400000D03*
X199062595Y-89900000D03*
X199062595Y-90400000D03*
X199062595Y-90900000D03*
X199062595Y-91400000D03*
X199062595Y-91900000D03*
X199062595Y-92400000D03*
X199062595Y-92900000D03*
D43*
X199750095Y-93587500D03*
X200250095Y-93587500D03*
X200750095Y-93587500D03*
X201250095Y-93587500D03*
X201750095Y-93587500D03*
X202250095Y-93587500D03*
X202750095Y-93587500D03*
X203250095Y-93587500D03*
X203750095Y-93587500D03*
X204250095Y-93587500D03*
X204750095Y-93587500D03*
X205250095Y-93587500D03*
X205750095Y-93587500D03*
X206250095Y-93587500D03*
X206750095Y-93587500D03*
X207250095Y-93587500D03*
D42*
X207937595Y-92900000D03*
X207937595Y-92400000D03*
X207937595Y-91900000D03*
X207937595Y-91400000D03*
X207937595Y-90900000D03*
X207937595Y-90400000D03*
X207937595Y-89900000D03*
X207937595Y-89400000D03*
X207937595Y-88900000D03*
X207937595Y-88400000D03*
X207937595Y-87900000D03*
X207937595Y-87400000D03*
X207937595Y-86900000D03*
X207937595Y-86400000D03*
X207937595Y-85900000D03*
X207937595Y-85400000D03*
D43*
X207250095Y-84712500D03*
X206750095Y-84712500D03*
X206250095Y-84712500D03*
X205750095Y-84712500D03*
X205250095Y-84712500D03*
X204750095Y-84712500D03*
X204250095Y-84712500D03*
X203750095Y-84712500D03*
X203250095Y-84712500D03*
X202750095Y-84712500D03*
X202250095Y-84712500D03*
X201750095Y-84712500D03*
X201250095Y-84712500D03*
X200750095Y-84712500D03*
X200250095Y-84712500D03*
X199750095Y-84712500D03*
%TD*%
D11*
%TO.C,R49*%
X83445067Y-67846912D03*
X84465067Y-67846912D03*
%TD*%
D21*
%TO.C,C21*%
X127450000Y-74100000D03*
X127450000Y-73140000D03*
%TD*%
D44*
%TO.C,Y2*%
X195519029Y-86083883D03*
X196508978Y-85093934D03*
X195731161Y-84316117D03*
X194741212Y-85306066D03*
%TD*%
D45*
%TO.C,C42*%
X156414042Y-114137500D03*
X158314042Y-114137500D03*
%TD*%
D21*
%TO.C,C38*%
X150514042Y-108042500D03*
X150514042Y-107082500D03*
%TD*%
D45*
%TO.C,C43*%
X169214042Y-114137500D03*
X171114042Y-114137500D03*
%TD*%
D46*
%TO.C,C28*%
X80075000Y-91850000D03*
X80075000Y-93750000D03*
%TD*%
D11*
%TO.C,R27*%
X138615000Y-73125000D03*
X139635000Y-73125000D03*
%TD*%
%TO.C,R18*%
X126015000Y-77475000D03*
X127035000Y-77475000D03*
%TD*%
D47*
%TO.C,L3*%
X89950000Y-96450000D03*
X83900000Y-96450000D03*
%TD*%
D29*
%TO.C,R33*%
X89100000Y-87965000D03*
X89100000Y-88985000D03*
%TD*%
D48*
%TO.C,L8*%
X211512500Y-73100000D03*
X213087500Y-73100000D03*
%TD*%
D45*
%TO.C,C55*%
X161700000Y-65000000D03*
X163600000Y-65000000D03*
%TD*%
D16*
%TO.C,C88*%
X183451542Y-115045000D03*
X183451542Y-116005000D03*
%TD*%
D45*
%TO.C,C49*%
X158414042Y-111737500D03*
X160314042Y-111737500D03*
%TD*%
D29*
%TO.C,R82*%
X189075000Y-64765000D03*
X189075000Y-65785000D03*
%TD*%
D45*
%TO.C,C98*%
X181626542Y-118050000D03*
X183526542Y-118050000D03*
%TD*%
D35*
%TO.C,C62*%
X171100500Y-77488414D03*
X170140500Y-77488414D03*
%TD*%
D36*
%TO.C,C40*%
X149314042Y-114137500D03*
X147414042Y-114137500D03*
%TD*%
D10*
%TO.C,C1*%
X124770000Y-92300000D03*
X125730000Y-92300000D03*
%TD*%
D49*
%TO.C,D8*%
X77875000Y-111000000D03*
X81275000Y-111000000D03*
%TD*%
D34*
%TO.C,Q6*%
X80337500Y-118300000D03*
X80337500Y-116400000D03*
X78462500Y-117350000D03*
%TD*%
D22*
%TO.C,R51*%
X84850000Y-65910000D03*
X84850000Y-64890000D03*
%TD*%
D28*
%TO.C,R5*%
X106660000Y-70800000D03*
X105640000Y-70800000D03*
%TD*%
D10*
%TO.C,C10*%
X124920000Y-84040000D03*
X125880000Y-84040000D03*
%TD*%
D22*
%TO.C,R76*%
X129200000Y-80660000D03*
X129200000Y-79640000D03*
%TD*%
D21*
%TO.C,C71*%
X204849489Y-82180000D03*
X204849489Y-81220000D03*
%TD*%
D11*
%TO.C,R3*%
X132640000Y-100500000D03*
X133660000Y-100500000D03*
%TD*%
D36*
%TO.C,C41*%
X162114042Y-114137500D03*
X160214042Y-114137500D03*
%TD*%
D50*
%TO.C,U5*%
X91375000Y-79025000D03*
X91375000Y-81325000D03*
D51*
X97675000Y-81325000D03*
D50*
X91375000Y-83625000D03*
%TD*%
D29*
%TO.C,R13*%
X134850000Y-104165000D03*
X134850000Y-105185000D03*
%TD*%
D35*
%TO.C,C69*%
X197480095Y-89000000D03*
X196520095Y-89000000D03*
%TD*%
D29*
%TO.C,R65*%
X203800000Y-78390000D03*
X203800000Y-79410000D03*
%TD*%
D16*
%TO.C,C85*%
X210199489Y-96370000D03*
X210199489Y-97330000D03*
%TD*%
D28*
%TO.C,R70*%
X209985000Y-79975000D03*
X208965000Y-79975000D03*
%TD*%
D52*
%TO.C,C23*%
X133210589Y-74639411D03*
X133889411Y-73960589D03*
%TD*%
D10*
%TO.C,C93*%
X206919489Y-80925000D03*
X207879489Y-80925000D03*
%TD*%
D28*
%TO.C,R59*%
X156835000Y-68975000D03*
X155815000Y-68975000D03*
%TD*%
D24*
%TO.C,D7*%
X188700095Y-82000000D03*
X185300095Y-82000000D03*
%TD*%
D29*
%TO.C,R55*%
X92400000Y-64890000D03*
X92400000Y-65910000D03*
%TD*%
D28*
%TO.C,R85*%
X212609489Y-98700000D03*
X211589489Y-98700000D03*
%TD*%
D53*
%TO.C,U12*%
X178076542Y-107700000D03*
X179026542Y-107700000D03*
X179976542Y-107700000D03*
X179976542Y-105000000D03*
X179026542Y-105000000D03*
X178076542Y-105000000D03*
%TD*%
D11*
%TO.C,R74*%
X190139180Y-79775000D03*
X191159180Y-79775000D03*
%TD*%
D29*
%TO.C,R10*%
X108275000Y-75865000D03*
X108275000Y-76885000D03*
%TD*%
D46*
%TO.C,C27*%
X82075000Y-91850000D03*
X82075000Y-93750000D03*
%TD*%
D35*
%TO.C,C97*%
X193380000Y-80000000D03*
X192420000Y-80000000D03*
%TD*%
D36*
%TO.C,C76*%
X183476542Y-106350000D03*
X181576542Y-106350000D03*
%TD*%
D29*
%TO.C,R72*%
X197900000Y-80615000D03*
X197900000Y-81635000D03*
%TD*%
D28*
%TO.C,R81*%
X205660000Y-63525000D03*
X204640000Y-63525000D03*
%TD*%
D10*
%TO.C,C30*%
X90095000Y-89975000D03*
X91055000Y-89975000D03*
%TD*%
D54*
%TO.C,L6*%
X163550000Y-79312500D03*
X163550000Y-77737500D03*
%TD*%
D11*
%TO.C,R75*%
X192340000Y-78700000D03*
X193360000Y-78700000D03*
%TD*%
%TO.C,R15*%
X149190000Y-63650000D03*
X150210000Y-63650000D03*
%TD*%
%TO.C,R46*%
X150416542Y-106100000D03*
X151436542Y-106100000D03*
%TD*%
D35*
%TO.C,C96*%
X191129180Y-78825000D03*
X190169180Y-78825000D03*
%TD*%
D55*
%TO.C,SW1*%
X110470000Y-99325000D03*
X110470000Y-105625000D03*
X106670000Y-99325000D03*
X106670000Y-105625000D03*
%TD*%
D29*
%TO.C,R28*%
X137600000Y-73040000D03*
X137600000Y-74060000D03*
%TD*%
D35*
%TO.C,C14*%
X128680000Y-84600000D03*
X127720000Y-84600000D03*
%TD*%
D48*
%TO.C,L9*%
X193537500Y-73175000D03*
X195112500Y-73175000D03*
%TD*%
D11*
%TO.C,R52*%
X114980000Y-79600000D03*
X116000000Y-79600000D03*
%TD*%
D30*
%TO.C,R42*%
X168189042Y-119950000D03*
X165264042Y-119950000D03*
%TD*%
D11*
%TO.C,R54*%
X114980000Y-78660000D03*
X116000000Y-78660000D03*
%TD*%
D21*
%TO.C,C74*%
X198275095Y-84280000D03*
X198275095Y-83320000D03*
%TD*%
D36*
%TO.C,C80*%
X183476542Y-108350000D03*
X181576542Y-108350000D03*
%TD*%
D11*
%TO.C,R58*%
X152115000Y-68975000D03*
X153135000Y-68975000D03*
%TD*%
D56*
%TO.C,L4*%
X159762500Y-64975000D03*
X157637500Y-64975000D03*
%TD*%
D23*
%TO.C,U9*%
X158557500Y-76375000D03*
X157287500Y-76375000D03*
X156017500Y-76375000D03*
X154747500Y-76375000D03*
X153477500Y-76375000D03*
X152207500Y-76375000D03*
X150937500Y-76375000D03*
X149667500Y-76375000D03*
X149667500Y-81325000D03*
X150937500Y-81325000D03*
X152207500Y-81325000D03*
X153477500Y-81325000D03*
X154747500Y-81325000D03*
X156017500Y-81325000D03*
X157287500Y-81325000D03*
X158557500Y-81325000D03*
%TD*%
D28*
%TO.C,R9*%
X176160000Y-68900000D03*
X175140000Y-68900000D03*
%TD*%
D57*
%TO.C,L1*%
X129587500Y-83350000D03*
X128012500Y-83350000D03*
%TD*%
D30*
%TO.C,R39*%
X150139042Y-119950000D03*
X147214042Y-119950000D03*
%TD*%
D46*
%TO.C,C24*%
X135375000Y-79200000D03*
X135375000Y-81100000D03*
%TD*%
D21*
%TO.C,C45*%
X156464042Y-111517500D03*
X156464042Y-110557500D03*
%TD*%
D28*
%TO.C,R48*%
X102835000Y-64950000D03*
X101815000Y-64950000D03*
%TD*%
D52*
%TO.C,C61*%
X111860589Y-100814411D03*
X112539411Y-100135589D03*
%TD*%
%TO.C,C17*%
X127760589Y-70739411D03*
X128439411Y-70060589D03*
%TD*%
D10*
%TO.C,C92*%
X208995000Y-80925000D03*
X209955000Y-80925000D03*
%TD*%
D36*
%TO.C,C33*%
X89375000Y-83625000D03*
X87475000Y-83625000D03*
%TD*%
D29*
%TO.C,R92*%
X89800000Y-116880000D03*
X89800000Y-117900000D03*
%TD*%
D49*
%TO.C,D6*%
X216425095Y-82000000D03*
X219825095Y-82000000D03*
%TD*%
D37*
%TO.C,L7*%
X202525000Y-77737500D03*
X202525000Y-79312500D03*
%TD*%
D35*
%TO.C,C18*%
X127005000Y-76500000D03*
X126045000Y-76500000D03*
%TD*%
D22*
%TO.C,R84*%
X210175000Y-93310000D03*
X210175000Y-92290000D03*
%TD*%
D21*
%TO.C,C47*%
X169264042Y-111417500D03*
X169264042Y-110457500D03*
%TD*%
D49*
%TO.C,D3*%
X78876747Y-67996585D03*
X82276747Y-67996585D03*
%TD*%
D22*
%TO.C,R35*%
X119825000Y-113285000D03*
X119825000Y-112265000D03*
%TD*%
D49*
%TO.C,D5*%
X86375000Y-111000000D03*
X89775000Y-111000000D03*
%TD*%
D10*
%TO.C,C64*%
X209219489Y-91400000D03*
X210179489Y-91400000D03*
%TD*%
%TO.C,C7*%
X122540000Y-96600000D03*
X123500000Y-96600000D03*
%TD*%
D29*
%TO.C,R66*%
X209525000Y-64915000D03*
X209525000Y-65935000D03*
%TD*%
D10*
%TO.C,C54*%
X160795000Y-67925000D03*
X161755000Y-67925000D03*
%TD*%
D28*
%TO.C,R20*%
X127960000Y-79300000D03*
X126940000Y-79300000D03*
%TD*%
D26*
%TO.C,R63*%
X117535624Y-103885624D03*
X116814376Y-103164376D03*
%TD*%
D52*
%TO.C,C77*%
X193985684Y-84264411D03*
X194664506Y-83585589D03*
%TD*%
D28*
%TO.C,R71*%
X207934489Y-79975000D03*
X206914489Y-79975000D03*
%TD*%
D45*
%TO.C,C31*%
X91575000Y-93500000D03*
X93475000Y-93500000D03*
%TD*%
D29*
%TO.C,R86*%
X191625000Y-64765000D03*
X191625000Y-65785000D03*
%TD*%
D22*
%TO.C,R88*%
X184401542Y-116035000D03*
X184401542Y-115015000D03*
%TD*%
D58*
%TO.C,J5*%
X94750000Y-114555000D03*
X95550000Y-114555000D03*
D59*
X96750000Y-114555000D03*
X97750000Y-114555000D03*
X98250000Y-114555000D03*
X99250000Y-114555000D03*
D58*
X100450000Y-114555000D03*
X101250000Y-114555000D03*
X101250000Y-114555000D03*
X100450000Y-114555000D03*
D59*
X99750000Y-114555000D03*
X98750000Y-114555000D03*
X97250000Y-114555000D03*
X96250000Y-114555000D03*
D58*
X95550000Y-114555000D03*
X94750000Y-114555000D03*
%TD*%
D30*
%TO.C,R41*%
X155476542Y-119950000D03*
X152551542Y-119950000D03*
%TD*%
D16*
%TO.C,C56*%
X148360000Y-77430000D03*
X148360000Y-78390000D03*
%TD*%
D60*
%TO.C,U2*%
X130825000Y-75925000D03*
X129575000Y-75925000D03*
X130825000Y-77175000D03*
X129575000Y-77175000D03*
D61*
X131450000Y-74612500D03*
X130950000Y-74612500D03*
X130450000Y-74612500D03*
X129950000Y-74612500D03*
X129450000Y-74612500D03*
X128950000Y-74612500D03*
D62*
X128262500Y-75300000D03*
X128262500Y-75800000D03*
X128262500Y-76300000D03*
X128262500Y-76800000D03*
X128262500Y-77300000D03*
X128262500Y-77800000D03*
D61*
X128950000Y-78487500D03*
X129450000Y-78487500D03*
X129950000Y-78487500D03*
X130450000Y-78487500D03*
X130950000Y-78487500D03*
X131450000Y-78487500D03*
D62*
X132137500Y-77800000D03*
X132137500Y-77300000D03*
X132137500Y-76800000D03*
X132137500Y-76300000D03*
X132137500Y-75800000D03*
X132137500Y-75300000D03*
%TD*%
D63*
%TO.C,Q4*%
X161910000Y-79225000D03*
X161910000Y-77325000D03*
X159910000Y-78275000D03*
%TD*%
D58*
%TO.C,J6*%
X118250000Y-114555000D03*
X119050000Y-114555000D03*
D59*
X120250000Y-114555000D03*
X121250000Y-114555000D03*
X121750000Y-114555000D03*
X122750000Y-114555000D03*
D58*
X123950000Y-114555000D03*
X124750000Y-114555000D03*
X124750000Y-114555000D03*
X123950000Y-114555000D03*
D59*
X123250000Y-114555000D03*
X122250000Y-114555000D03*
X120750000Y-114555000D03*
X119750000Y-114555000D03*
D58*
X119050000Y-114555000D03*
X118250000Y-114555000D03*
%TD*%
D21*
%TO.C,C20*%
X126500000Y-74100000D03*
X126500000Y-73140000D03*
%TD*%
D45*
%TO.C,C32*%
X91575000Y-91500000D03*
X93475000Y-91500000D03*
%TD*%
D22*
%TO.C,R24*%
X136200000Y-72110000D03*
X136200000Y-71090000D03*
%TD*%
D21*
%TO.C,C87*%
X209085095Y-89930000D03*
X209085095Y-88970000D03*
%TD*%
D64*
%TO.C,SW2*%
X131250000Y-100325000D03*
X124950000Y-100325000D03*
X131250000Y-96525000D03*
X124950000Y-96525000D03*
%TD*%
D54*
%TO.C,L2*%
X133625000Y-81162500D03*
X133625000Y-79587500D03*
%TD*%
D11*
%TO.C,R17*%
X124065000Y-75075000D03*
X125085000Y-75075000D03*
%TD*%
D36*
%TO.C,C89*%
X176176542Y-118050000D03*
X174276542Y-118050000D03*
%TD*%
D29*
%TO.C,R64*%
X194125095Y-89465000D03*
X194125095Y-90485000D03*
%TD*%
D35*
%TO.C,C46*%
X166944042Y-107437500D03*
X165984042Y-107437500D03*
%TD*%
D10*
%TO.C,C2*%
X124970000Y-89650000D03*
X125930000Y-89650000D03*
%TD*%
D16*
%TO.C,C6*%
X107860000Y-95650000D03*
X107860000Y-96610000D03*
%TD*%
D35*
%TO.C,C95*%
X198905000Y-78700000D03*
X197945000Y-78700000D03*
%TD*%
D49*
%TO.C,D4*%
X87300000Y-68000000D03*
X90700000Y-68000000D03*
%TD*%
D11*
%TO.C,R44*%
X155640000Y-106750000D03*
X156660000Y-106750000D03*
%TD*%
D21*
%TO.C,C9*%
X108500000Y-79180000D03*
X108500000Y-78220000D03*
%TD*%
D35*
%TO.C,C65*%
X207355095Y-94800000D03*
X206395095Y-94800000D03*
%TD*%
D65*
%TO.C,U4*%
X81410000Y-97300000D03*
X81410000Y-96350000D03*
X81410000Y-95400000D03*
X78710000Y-95400000D03*
X78710000Y-96350000D03*
X78710000Y-97300000D03*
%TD*%
D28*
%TO.C,R95*%
X82885000Y-119325000D03*
X81865000Y-119325000D03*
%TD*%
D22*
%TO.C,R56*%
X93375000Y-65910000D03*
X93375000Y-64890000D03*
%TD*%
D49*
%TO.C,D2*%
X95860000Y-68050000D03*
X99260000Y-68050000D03*
%TD*%
D35*
%TO.C,C59*%
X158450000Y-83050000D03*
X157490000Y-83050000D03*
%TD*%
D22*
%TO.C,R83*%
X210149489Y-89610000D03*
X210149489Y-88590000D03*
%TD*%
D29*
%TO.C,R87*%
X181326542Y-102025000D03*
X181326542Y-103045000D03*
%TD*%
D66*
%TO.C,Y1*%
X128516117Y-71793934D03*
X129506066Y-72783883D03*
X130283883Y-72006066D03*
X129293934Y-71016117D03*
%TD*%
D10*
%TO.C,C3*%
X108020000Y-105800000D03*
X108980000Y-105800000D03*
%TD*%
D11*
%TO.C,R29*%
X138240000Y-63650000D03*
X139260000Y-63650000D03*
%TD*%
D36*
%TO.C,C34*%
X89375000Y-81325000D03*
X87475000Y-81325000D03*
%TD*%
D29*
%TO.C,R50*%
X83900000Y-64890000D03*
X83900000Y-65910000D03*
%TD*%
D31*
%TO.C,Q1*%
X100150000Y-61662500D03*
X98250000Y-61662500D03*
X99200000Y-63537500D03*
%TD*%
D29*
%TO.C,R90*%
X91725000Y-115865000D03*
X91725000Y-116885000D03*
%TD*%
D16*
%TO.C,C67*%
X197774489Y-91975000D03*
X197774489Y-92935000D03*
%TD*%
D35*
%TO.C,C70*%
X197680095Y-87150000D03*
X196720095Y-87150000D03*
%TD*%
D22*
%TO.C,R36*%
X123225000Y-113285000D03*
X123225000Y-112265000D03*
%TD*%
D36*
%TO.C,C36*%
X158614042Y-109137500D03*
X156714042Y-109137500D03*
%TD*%
D40*
%TO.C,C53*%
X173676542Y-106750000D03*
X173676542Y-101350000D03*
%TD*%
D67*
%TO.C,J1*%
X100300000Y-92390000D03*
X104300000Y-92390000D03*
X100300000Y-93660000D03*
X104300000Y-93660000D03*
X100300000Y-94930000D03*
X104300000Y-94930000D03*
X100300000Y-96200000D03*
X104300000Y-96200000D03*
X100300000Y-97470000D03*
X104300000Y-97470000D03*
X100300000Y-98740000D03*
X104300000Y-98740000D03*
X100300000Y-100010000D03*
X104300000Y-100010000D03*
%TD*%
D11*
%TO.C,R53*%
X91800000Y-67850000D03*
X92820000Y-67850000D03*
%TD*%
D21*
%TO.C,C58*%
X196275606Y-73480000D03*
X196275606Y-72520000D03*
%TD*%
D68*
%TO.C,L10*%
X178876542Y-116225000D03*
X178876542Y-110175000D03*
%TD*%
D16*
%TO.C,C22*%
X132425000Y-79295000D03*
X132425000Y-80255000D03*
%TD*%
D36*
%TO.C,C48*%
X160225000Y-116300000D03*
X158325000Y-116300000D03*
%TD*%
D21*
%TO.C,C79*%
X202074489Y-83155000D03*
X202074489Y-82195000D03*
%TD*%
D28*
%TO.C,R60*%
X155785000Y-64550000D03*
X154765000Y-64550000D03*
%TD*%
M02*
