%TF.GenerationSoftware,KiCad,Pcbnew,10.0.0*%
%TF.CreationDate,2026-05-15T17:00:53+02:00*%
%TF.ProjectId,pcb_control_unit_ethernet,7063625f-636f-46e7-9472-6f6c5f756e69,rev?*%
%TF.SameCoordinates,Original*%
%TF.FileFunction,Soldermask,Bot*%
%TF.FilePolarity,Negative*%
%FSLAX46Y46*%
G04 Gerber Fmt 4.6, Leading zero omitted, Abs format (unit mm)*
G04 Created by KiCad (PCBNEW 10.0.0) date 2026-05-15 17:00:53*
%MOMM*%
%LPD*%
G01*
G04 APERTURE LIST*
G04 Aperture macros list*
%AMRoundRect*
0 Rectangle with rounded corners*
0 $1 Rounding radius*
0 $2 $3 $4 $5 $6 $7 $8 $9 X,Y pos of 4 corners*
0 Add a 4 corners polygon primitive as box body*
4,1,4,$2,$3,$4,$5,$6,$7,$8,$9,$2,$3,0*
0 Add four circle primitives for the rounded corners*
1,1,$1+$1,$2,$3*
1,1,$1+$1,$4,$5*
1,1,$1+$1,$6,$7*
1,1,$1+$1,$8,$9*
0 Add four rect primitives between the rounded corners*
20,1,$1+$1,$2,$3,$4,$5,0*
20,1,$1+$1,$4,$5,$6,$7,0*
20,1,$1+$1,$6,$7,$8,$9,0*
20,1,$1+$1,$8,$9,$2,$3,0*%
G04 Aperture macros list end*
%ADD10C,1.000000*%
%ADD11C,4.300000*%
%ADD12RoundRect,0.250000X0.950000X0.550000X-0.950000X0.550000X-0.950000X-0.550000X0.950000X-0.550000X0*%
%ADD13O,2.400000X1.600000*%
%ADD14C,0.650000*%
%ADD15O,1.000000X2.100000*%
%ADD16O,1.000000X1.600000*%
%ADD17RoundRect,0.250000X-0.600000X-0.750000X0.600000X-0.750000X0.600000X0.750000X-0.600000X0.750000X0*%
%ADD18O,1.700000X2.000000*%
%ADD19RoundRect,0.250000X0.600000X0.725000X-0.600000X0.725000X-0.600000X-0.725000X0.600000X-0.725000X0*%
%ADD20O,1.700000X1.950000*%
%ADD21R,1.700000X1.700000*%
%ADD22C,1.700000*%
%ADD23RoundRect,0.250000X-0.600000X-0.725000X0.600000X-0.725000X0.600000X0.725000X-0.600000X0.725000X0*%
%ADD24RoundRect,0.450000X0.450000X0.750000X-0.450000X0.750000X-0.450000X-0.750000X0.450000X-0.750000X0*%
%ADD25RoundRect,0.450000X-0.450000X-0.750000X0.450000X-0.750000X0.450000X0.750000X-0.450000X0.750000X0*%
%ADD26RoundRect,0.250000X0.600000X0.675000X-0.600000X0.675000X-0.600000X-0.675000X0.600000X-0.675000X0*%
%ADD27O,1.700000X1.850000*%
%ADD28C,3.250000*%
%ADD29C,1.450000*%
%ADD30C,1.500000*%
%ADD31C,2.500000*%
%ADD32R,3.500000X3.500000*%
%ADD33RoundRect,0.750000X1.000000X-0.750000X1.000000X0.750000X-1.000000X0.750000X-1.000000X-0.750000X0*%
%ADD34RoundRect,0.875000X0.875000X-0.875000X0.875000X0.875000X-0.875000X0.875000X-0.875000X-0.875000X0*%
%ADD35RoundRect,0.300000X-0.700000X1.200000X-0.700000X-1.200000X0.700000X-1.200000X0.700000X1.200000X0*%
G04 APERTURE END LIST*
D10*
%TO.C,J2*%
X129676542Y-118525000D03*
X137676542Y-118525000D03*
%TD*%
D11*
%TO.C,H3*%
X65000000Y-115000000D03*
%TD*%
%TO.C,H2*%
X235000000Y-115000000D03*
%TD*%
%TO.C,H1*%
X235000000Y-65000000D03*
%TD*%
D12*
%TO.C,U16*%
X219799489Y-96650000D03*
D13*
X219799489Y-94110000D03*
X219799489Y-91570000D03*
X219799489Y-89030000D03*
X212179489Y-89030000D03*
X212179489Y-91570000D03*
X212179489Y-94110000D03*
X212179489Y-96650000D03*
%TD*%
D14*
%TO.C,J5*%
X95110000Y-116000000D03*
X100890000Y-116000000D03*
D15*
X93680000Y-115470000D03*
D16*
X93680000Y-119650000D03*
D15*
X102320000Y-115470000D03*
D16*
X102320000Y-119650000D03*
%TD*%
D14*
%TO.C,J6*%
X118610000Y-116000000D03*
X124390000Y-116000000D03*
D15*
X117180000Y-115470000D03*
D16*
X117180000Y-119650000D03*
D15*
X125820000Y-115470000D03*
D16*
X125820000Y-119650000D03*
%TD*%
D11*
%TO.C,H4*%
X65000000Y-65000000D03*
%TD*%
D17*
%TO.C,J3*%
X152300000Y-73750000D03*
D18*
X154800000Y-73750000D03*
%TD*%
D19*
%TO.C,LB3*%
X129800000Y-60000000D03*
D20*
X127300000Y-60000000D03*
X124800000Y-60000000D03*
%TD*%
D21*
%TO.C,UEXT1*%
X192066542Y-116500000D03*
D22*
X192066542Y-119040000D03*
X194606542Y-116500000D03*
X194606542Y-119040000D03*
X197146542Y-116500000D03*
X197146542Y-119040000D03*
X199686542Y-116500000D03*
X199686542Y-119040000D03*
X202226542Y-116500000D03*
X202226542Y-119040000D03*
%TD*%
D19*
%TO.C,CanBus1*%
X120200000Y-106175000D03*
D20*
X117700000Y-106175000D03*
X115200000Y-106175000D03*
%TD*%
D23*
%TO.C,I2C1A1*%
X174900000Y-61100000D03*
D20*
X177400000Y-61100000D03*
X179900000Y-61100000D03*
X182400000Y-61100000D03*
X184900000Y-61100000D03*
%TD*%
D23*
%TO.C,I2C4*%
X104500000Y-67250000D03*
D20*
X107000000Y-67250000D03*
X109500000Y-67250000D03*
X112000000Y-67250000D03*
X114500000Y-67250000D03*
%TD*%
D23*
%TO.C,I2C1B1*%
X174900000Y-67250000D03*
D20*
X177400000Y-67250000D03*
X179900000Y-67250000D03*
X182400000Y-67250000D03*
X184900000Y-67250000D03*
%TD*%
D24*
%TO.C,J30*%
X81250000Y-114400000D03*
X77750000Y-114400000D03*
%TD*%
D25*
%TO.C,Conv1*%
X95800000Y-65555000D03*
X99300000Y-65555000D03*
%TD*%
D19*
%TO.C,J17*%
X156626542Y-117000000D03*
D20*
X154126542Y-117000000D03*
X151626542Y-117000000D03*
X149126542Y-117000000D03*
%TD*%
D26*
%TO.C,Robot1*%
X183576542Y-120100000D03*
D27*
X181076542Y-120100000D03*
X178576542Y-120100000D03*
%TD*%
D23*
%TO.C,Malibotti1*%
X151850000Y-61100000D03*
D20*
X154350000Y-61100000D03*
X156850000Y-61100000D03*
X159350000Y-61100000D03*
%TD*%
D23*
%TO.C,J23*%
X151850000Y-67250000D03*
D20*
X154350000Y-67250000D03*
X156850000Y-67250000D03*
X159350000Y-67250000D03*
%TD*%
D10*
%TO.C,TP1*%
X148850000Y-101900000D03*
%TD*%
D24*
%TO.C,Valve2*%
X89750000Y-114395000D03*
X86250000Y-114395000D03*
%TD*%
D28*
%TO.C,ETHERNET1*%
X135050000Y-68550000D03*
X146480000Y-68550000D03*
D29*
X136325000Y-74910000D03*
X137585000Y-77450000D03*
X138865000Y-74910000D03*
X140125000Y-77450000D03*
X141405000Y-74910000D03*
X142665000Y-77450000D03*
X143945000Y-74910000D03*
X145205000Y-77450000D03*
D30*
X134140000Y-63650000D03*
X136680000Y-63650000D03*
X144850000Y-63650000D03*
X147390000Y-63650000D03*
D31*
X133020000Y-71600000D03*
X148510000Y-71600000D03*
%TD*%
D23*
%TO.C,I2C2*%
X119800000Y-67250000D03*
D20*
X122300000Y-67250000D03*
X124800000Y-67250000D03*
X127300000Y-67250000D03*
X129800000Y-67250000D03*
%TD*%
D32*
%TO.C,J4*%
X107576542Y-108750000D03*
D33*
X107576542Y-114750000D03*
D34*
X102876542Y-111750000D03*
%TD*%
D23*
%TO.C,Pressure1*%
X119800000Y-73443232D03*
D20*
X122300000Y-73443232D03*
X124800000Y-73443232D03*
%TD*%
D23*
%TO.C,Leds1*%
X164600000Y-67250000D03*
D20*
X167100000Y-67250000D03*
X169600000Y-67250000D03*
%TD*%
D28*
%TO.C,EthercatA1*%
X207910606Y-68415000D03*
X219340606Y-68415000D03*
D29*
X209185606Y-74775000D03*
X210445606Y-77315000D03*
X211725606Y-74775000D03*
X212985606Y-77315000D03*
X214265606Y-74775000D03*
X215525606Y-77315000D03*
X216805606Y-74775000D03*
X218065606Y-77315000D03*
D30*
X207000606Y-63515000D03*
X209540606Y-63515000D03*
X217710606Y-63515000D03*
X220250606Y-63515000D03*
D31*
X205880606Y-71465000D03*
X221370606Y-71465000D03*
%TD*%
D28*
%TO.C,EthercatB1*%
X189960606Y-68400000D03*
X201390606Y-68400000D03*
D29*
X191235606Y-74760000D03*
X192495606Y-77300000D03*
X193775606Y-74760000D03*
X195035606Y-77300000D03*
X196315606Y-74760000D03*
X197575606Y-77300000D03*
X198855606Y-74760000D03*
X200115606Y-77300000D03*
D30*
X189050606Y-63500000D03*
X191590606Y-63500000D03*
X199760606Y-63500000D03*
X202300606Y-63500000D03*
D31*
X187930606Y-71450000D03*
X203420606Y-71450000D03*
%TD*%
D10*
%TO.C,TP4*%
X113600000Y-94900000D03*
%TD*%
D23*
%TO.C,Leds2*%
X164600000Y-61100000D03*
D20*
X167100000Y-61100000D03*
X169600000Y-61100000D03*
%TD*%
D25*
%TO.C,Comp1*%
X87250000Y-65555000D03*
X90750000Y-65555000D03*
%TD*%
D10*
%TO.C,TP5*%
X119850000Y-94800000D03*
%TD*%
D35*
%TO.C,X1*%
X81499621Y-105250000D03*
X88499621Y-105250000D03*
X88499621Y-74750000D03*
X81499621Y-74750000D03*
%TD*%
D19*
%TO.C,J18*%
X169426542Y-117000000D03*
D20*
X166926542Y-117000000D03*
X164426542Y-117000000D03*
X161926542Y-117000000D03*
%TD*%
D19*
%TO.C,LB2*%
X119600000Y-60000000D03*
D20*
X117100000Y-60000000D03*
X114600000Y-60000000D03*
%TD*%
D10*
%TO.C,TP3*%
X109350000Y-90750000D03*
%TD*%
D19*
%TO.C,LB1*%
X109400000Y-60000000D03*
D20*
X106900000Y-60000000D03*
X104400000Y-60000000D03*
%TD*%
D25*
%TO.C,Valve1*%
X78750000Y-65555000D03*
X82250000Y-65555000D03*
%TD*%
M02*
