%TF.GenerationSoftware,KiCad,Pcbnew,10.0.0*%
%TF.CreationDate,2026-05-14T11:48:18+02:00*%
%TF.ProjectId,pcb_control_unit_ethernet,7063625f-636f-46e7-9472-6f6c5f756e69,rev?*%
%TF.SameCoordinates,Original*%
%TF.FileFunction,Legend,Top*%
%TF.FilePolarity,Positive*%
%FSLAX46Y46*%
G04 Gerber Fmt 4.6, Leading zero omitted, Abs format (unit mm)*
G04 Created by KiCad (PCBNEW 10.0.0) date 2026-05-14 11:48:18*
%MOMM*%
%LPD*%
G01*
G04 APERTURE LIST*
G04 Aperture macros list*
%AMRoundRect*
0 Rectangle with rounded corners*
0 $1 Rounding radius*
0 $2 $3 $4 $5 $6 $7 $8 $9 X,Y pos of 4 corners*
0 Add a 4 corners polygon primitive as box body*
4,1,4,$2,$3,$4,$5,$6,$7,$8,$9,$2,$3,0*
0 Add four circle primitives for the rounded corners*
1,1,$1+$1,$2,$3*
1,1,$1+$1,$4,$5*
1,1,$1+$1,$6,$7*
1,1,$1+$1,$8,$9*
0 Add four rect primitives between the rounded corners*
20,1,$1+$1,$2,$3,$4,$5,0*
20,1,$1+$1,$4,$5,$6,$7,0*
20,1,$1+$1,$6,$7,$8,$9,0*
20,1,$1+$1,$8,$9,$2,$3,0*%
%AMFreePoly0*
4,1,23,0.550000,-0.750000,0.000000,-0.750000,0.000000,-0.745722,-0.065263,-0.745722,-0.191342,-0.711940,-0.304381,-0.646677,-0.396677,-0.554381,-0.461940,-0.441342,-0.495722,-0.315263,-0.495722,-0.250000,-0.500000,-0.250000,-0.500000,0.250000,-0.495722,0.250000,-0.495722,0.315263,-0.461940,0.441342,-0.396677,0.554381,-0.304381,0.646677,-0.191342,0.711940,-0.065263,0.745722,0.000000,0.745722,
0.000000,0.750000,0.550000,0.750000,0.550000,-0.750000,0.550000,-0.750000,$1*%
%AMFreePoly1*
4,1,23,0.000000,0.745722,0.065263,0.745722,0.191342,0.711940,0.304381,0.646677,0.396677,0.554381,0.461940,0.441342,0.495722,0.315263,0.495722,0.250000,0.500000,0.250000,0.500000,-0.250000,0.495722,-0.250000,0.495722,-0.315263,0.461940,-0.441342,0.396677,-0.554381,0.304381,-0.646677,0.191342,-0.711940,0.065263,-0.745722,0.000000,-0.745722,0.000000,-0.750000,-0.550000,-0.750000,
-0.550000,0.750000,0.000000,0.750000,0.000000,0.745722,0.000000,0.745722,$1*%
G04 Aperture macros list end*
%ADD10C,0.150000*%
%ADD11C,0.100000*%
%ADD12C,0.120000*%
%ADD13RoundRect,0.140000X-0.170000X0.140000X-0.170000X-0.140000X0.170000X-0.140000X0.170000X0.140000X0*%
%ADD14RoundRect,0.135000X-0.135000X-0.185000X0.135000X-0.185000X0.135000X0.185000X-0.135000X0.185000X0*%
%ADD15RoundRect,0.062500X0.325000X0.062500X-0.325000X0.062500X-0.325000X-0.062500X0.325000X-0.062500X0*%
%ADD16RoundRect,0.062500X0.062500X0.325000X-0.062500X0.325000X-0.062500X-0.325000X0.062500X-0.325000X0*%
%ADD17R,3.750000X3.750000*%
%ADD18RoundRect,0.075000X0.650000X0.075000X-0.650000X0.075000X-0.650000X-0.075000X0.650000X-0.075000X0*%
%ADD19C,1.000000*%
%ADD20RoundRect,0.175000X-0.175000X-0.625000X0.175000X-0.625000X0.175000X0.625000X-0.175000X0.625000X0*%
%ADD21R,1.200000X1.500000*%
%ADD22R,1.200000X2.200000*%
%ADD23R,1.600000X1.500000*%
%ADD24RoundRect,0.135000X-0.185000X0.135000X-0.185000X-0.135000X0.185000X-0.135000X0.185000X0.135000X0*%
%ADD25RoundRect,0.135000X0.185000X-0.135000X0.185000X0.135000X-0.185000X0.135000X-0.185000X-0.135000X0*%
%ADD26RoundRect,0.150000X-0.150000X0.825000X-0.150000X-0.825000X0.150000X-0.825000X0.150000X0.825000X0*%
%ADD27RoundRect,0.150000X0.600000X0.650000X-0.600000X0.650000X-0.600000X-0.650000X0.600000X-0.650000X0*%
%ADD28RoundRect,0.250000X0.475000X-0.250000X0.475000X0.250000X-0.475000X0.250000X-0.475000X-0.250000X0*%
%ADD29RoundRect,0.140000X0.219203X0.021213X0.021213X0.219203X-0.219203X-0.021213X-0.021213X-0.219203X0*%
%ADD30RoundRect,0.140000X0.140000X0.170000X-0.140000X0.170000X-0.140000X-0.170000X0.140000X-0.170000X0*%
%ADD31RoundRect,0.140000X0.170000X-0.140000X0.170000X0.140000X-0.170000X0.140000X-0.170000X-0.140000X0*%
%ADD32RoundRect,0.135000X0.135000X0.185000X-0.135000X0.185000X-0.135000X-0.185000X0.135000X-0.185000X0*%
%ADD33RoundRect,0.140000X-0.140000X-0.170000X0.140000X-0.170000X0.140000X0.170000X-0.140000X0.170000X0*%
%ADD34RoundRect,0.250000X0.312500X0.625000X-0.312500X0.625000X-0.312500X-0.625000X0.312500X-0.625000X0*%
%ADD35RoundRect,0.150000X-0.150000X0.587500X-0.150000X-0.587500X0.150000X-0.587500X0.150000X0.587500X0*%
%ADD36R,0.350000X0.650000*%
%ADD37R,2.400000X1.550000*%
%ADD38RoundRect,0.150000X0.150000X-0.587500X0.150000X0.587500X-0.150000X0.587500X-0.150000X-0.587500X0*%
%ADD39RoundRect,0.250000X0.250000X0.475000X-0.250000X0.475000X-0.250000X-0.475000X0.250000X-0.475000X0*%
%ADD40RoundRect,0.218750X-0.218750X-0.256250X0.218750X-0.256250X0.218750X0.256250X-0.218750X0.256250X0*%
%ADD41RoundRect,0.075000X0.725000X0.075000X-0.725000X0.075000X-0.725000X-0.075000X0.725000X-0.075000X0*%
%ADD42RoundRect,0.075000X0.075000X0.725000X-0.075000X0.725000X-0.075000X-0.725000X0.075000X-0.725000X0*%
%ADD43FreePoly0,90.000000*%
%ADD44R,1.500000X1.000000*%
%ADD45FreePoly1,90.000000*%
%ADD46RoundRect,0.250000X0.550000X-1.500000X0.550000X1.500000X-0.550000X1.500000X-0.550000X-1.500000X0*%
%ADD47RoundRect,0.062500X-0.375000X-0.062500X0.375000X-0.062500X0.375000X0.062500X-0.375000X0.062500X0*%
%ADD48RoundRect,0.062500X-0.062500X-0.375000X0.062500X-0.375000X0.062500X0.375000X-0.062500X0.375000X0*%
%ADD49R,6.000000X6.000000*%
%ADD50RoundRect,0.200000X-0.035355X-0.318198X0.318198X0.035355X0.035355X0.318198X-0.318198X-0.035355X0*%
%ADD51RoundRect,0.250000X-0.250000X-0.475000X0.250000X-0.475000X0.250000X0.475000X-0.250000X0.475000X0*%
%ADD52RoundRect,0.250000X-0.475000X0.250000X-0.475000X-0.250000X0.475000X-0.250000X0.475000X0.250000X0*%
%ADD53RoundRect,0.235000X0.940000X1.465000X-0.940000X1.465000X-0.940000X-1.465000X0.940000X-1.465000X0*%
%ADD54RoundRect,0.218750X0.218750X0.256250X-0.218750X0.256250X-0.218750X-0.256250X0.218750X-0.256250X0*%
%ADD55RoundRect,0.150000X-0.600000X-0.650000X0.600000X-0.650000X0.600000X0.650000X-0.600000X0.650000X0*%
%ADD56RoundRect,0.375000X0.375000X-0.625000X0.375000X0.625000X-0.375000X0.625000X-0.375000X-0.625000X0*%
%ADD57RoundRect,0.500000X1.400000X-0.500000X1.400000X0.500000X-1.400000X0.500000X-1.400000X-0.500000X0*%
%ADD58RoundRect,0.162500X0.162500X-0.617500X0.162500X0.617500X-0.162500X0.617500X-0.162500X-0.617500X0*%
%ADD59RoundRect,0.250000X0.950000X0.550000X-0.950000X0.550000X-0.950000X-0.550000X0.950000X-0.550000X0*%
%ADD60O,2.400000X1.600000*%
%ADD61RoundRect,0.218750X0.256250X-0.218750X0.256250X0.218750X-0.256250X0.218750X-0.256250X-0.218750X0*%
%ADD62R,1.700000X1.000000*%
%ADD63RoundRect,0.218750X-0.256250X0.218750X-0.256250X-0.218750X0.256250X-0.218750X0.256250X0.218750X0*%
%ADD64RoundRect,0.218750X0.218750X0.381250X-0.218750X0.381250X-0.218750X-0.381250X0.218750X-0.381250X0*%
%ADD65RoundRect,0.140000X0.021213X-0.219203X0.219203X-0.021213X-0.021213X0.219203X-0.219203X0.021213X0*%
%ADD66C,0.650000*%
%ADD67R,0.600000X1.450000*%
%ADD68R,0.300000X1.450000*%
%ADD69O,1.000000X2.100000*%
%ADD70O,1.000000X1.600000*%
%ADD71RoundRect,0.062500X-0.062500X0.375000X-0.062500X-0.375000X0.062500X-0.375000X0.062500X0.375000X0*%
%ADD72RoundRect,0.062500X-0.375000X0.062500X-0.375000X-0.062500X0.375000X-0.062500X0.375000X0.062500X0*%
%ADD73R,2.500000X2.500000*%
%ADD74RoundRect,0.175000X0.275000X0.175000X-0.275000X0.175000X-0.275000X-0.175000X0.275000X-0.175000X0*%
%ADD75RoundRect,0.162500X0.617500X0.162500X-0.617500X0.162500X-0.617500X-0.162500X0.617500X-0.162500X0*%
%ADD76RoundRect,0.200000X-0.318198X0.035355X0.035355X-0.318198X0.318198X-0.035355X-0.035355X0.318198X0*%
%ADD77RoundRect,0.111000X-1.139000X0.259000X-1.139000X-0.259000X1.139000X-0.259000X1.139000X0.259000X0*%
%ADD78RoundRect,0.235000X1.465000X-0.940000X1.465000X0.940000X-1.465000X0.940000X-1.465000X-0.940000X0*%
%ADD79RoundRect,0.250000X-0.600000X-0.750000X0.600000X-0.750000X0.600000X0.750000X-0.600000X0.750000X0*%
%ADD80O,1.700000X2.000000*%
%ADD81RoundRect,0.250000X0.600000X0.725000X-0.600000X0.725000X-0.600000X-0.725000X0.600000X-0.725000X0*%
%ADD82O,1.700000X1.950000*%
%ADD83R,1.700000X1.700000*%
%ADD84C,1.700000*%
%ADD85RoundRect,0.250000X-0.600000X-0.725000X0.600000X-0.725000X0.600000X0.725000X-0.600000X0.725000X0*%
%ADD86RoundRect,0.450000X0.450000X0.750000X-0.450000X0.750000X-0.450000X-0.750000X0.450000X-0.750000X0*%
%ADD87RoundRect,0.450000X-0.450000X-0.750000X0.450000X-0.750000X0.450000X0.750000X-0.450000X0.750000X0*%
%ADD88RoundRect,0.250000X0.600000X0.675000X-0.600000X0.675000X-0.600000X-0.675000X0.600000X-0.675000X0*%
%ADD89O,1.700000X1.850000*%
%ADD90C,3.250000*%
%ADD91C,1.450000*%
%ADD92C,1.500000*%
%ADD93C,2.500000*%
%ADD94R,3.500000X3.500000*%
%ADD95RoundRect,0.750000X1.000000X-0.750000X1.000000X0.750000X-1.000000X0.750000X-1.000000X-0.750000X0*%
%ADD96RoundRect,0.875000X0.875000X-0.875000X0.875000X0.875000X-0.875000X0.875000X-0.875000X-0.875000X0*%
%ADD97RoundRect,0.300000X-0.700000X1.200000X-0.700000X-1.200000X0.700000X-1.200000X0.700000X1.200000X0*%
G04 APERTURE END LIST*
D10*
X69066666Y-69599847D02*
X69300000Y-70599847D01*
X69300000Y-70599847D02*
X69533333Y-69599847D01*
X69733333Y-70314132D02*
X70066666Y-70314132D01*
X69666666Y-70599847D02*
X69900000Y-69599847D01*
X69900000Y-69599847D02*
X70133333Y-70599847D01*
X70700000Y-70599847D02*
X70366666Y-70599847D01*
X70366666Y-70599847D02*
X70366666Y-69599847D01*
X70833333Y-69599847D02*
X71066667Y-70599847D01*
X71066667Y-70599847D02*
X71300000Y-69599847D01*
X71533333Y-70076037D02*
X71766667Y-70076037D01*
X71866667Y-70599847D02*
X71533333Y-70599847D01*
X71533333Y-70599847D02*
X71533333Y-69599847D01*
X71533333Y-69599847D02*
X71866667Y-69599847D01*
X77900000Y-70559580D02*
X77866667Y-70607200D01*
X77866667Y-70607200D02*
X77766667Y-70654819D01*
X77766667Y-70654819D02*
X77700000Y-70654819D01*
X77700000Y-70654819D02*
X77600000Y-70607200D01*
X77600000Y-70607200D02*
X77533334Y-70511961D01*
X77533334Y-70511961D02*
X77500000Y-70416723D01*
X77500000Y-70416723D02*
X77466667Y-70226247D01*
X77466667Y-70226247D02*
X77466667Y-70083390D01*
X77466667Y-70083390D02*
X77500000Y-69892914D01*
X77500000Y-69892914D02*
X77533334Y-69797676D01*
X77533334Y-69797676D02*
X77600000Y-69702438D01*
X77600000Y-69702438D02*
X77700000Y-69654819D01*
X77700000Y-69654819D02*
X77766667Y-69654819D01*
X77766667Y-69654819D02*
X77866667Y-69702438D01*
X77866667Y-69702438D02*
X77900000Y-69750057D01*
X78333334Y-69654819D02*
X78466667Y-69654819D01*
X78466667Y-69654819D02*
X78533334Y-69702438D01*
X78533334Y-69702438D02*
X78600000Y-69797676D01*
X78600000Y-69797676D02*
X78633334Y-69988152D01*
X78633334Y-69988152D02*
X78633334Y-70321485D01*
X78633334Y-70321485D02*
X78600000Y-70511961D01*
X78600000Y-70511961D02*
X78533334Y-70607200D01*
X78533334Y-70607200D02*
X78466667Y-70654819D01*
X78466667Y-70654819D02*
X78333334Y-70654819D01*
X78333334Y-70654819D02*
X78266667Y-70607200D01*
X78266667Y-70607200D02*
X78200000Y-70511961D01*
X78200000Y-70511961D02*
X78166667Y-70321485D01*
X78166667Y-70321485D02*
X78166667Y-69988152D01*
X78166667Y-69988152D02*
X78200000Y-69797676D01*
X78200000Y-69797676D02*
X78266667Y-69702438D01*
X78266667Y-69702438D02*
X78333334Y-69654819D01*
X78933333Y-70654819D02*
X78933333Y-69654819D01*
X78933333Y-69654819D02*
X79166667Y-70369104D01*
X79166667Y-70369104D02*
X79400000Y-69654819D01*
X79400000Y-69654819D02*
X79400000Y-70654819D01*
X79733333Y-70654819D02*
X79733333Y-69654819D01*
X79733333Y-69654819D02*
X80000000Y-69654819D01*
X80000000Y-69654819D02*
X80066667Y-69702438D01*
X80066667Y-69702438D02*
X80100000Y-69750057D01*
X80100000Y-69750057D02*
X80133333Y-69845295D01*
X80133333Y-69845295D02*
X80133333Y-69988152D01*
X80133333Y-69988152D02*
X80100000Y-70083390D01*
X80100000Y-70083390D02*
X80066667Y-70131009D01*
X80066667Y-70131009D02*
X80000000Y-70178628D01*
X80000000Y-70178628D02*
X79733333Y-70178628D01*
X86433333Y-70459580D02*
X86400000Y-70507200D01*
X86400000Y-70507200D02*
X86300000Y-70554819D01*
X86300000Y-70554819D02*
X86233333Y-70554819D01*
X86233333Y-70554819D02*
X86133333Y-70507200D01*
X86133333Y-70507200D02*
X86066667Y-70411961D01*
X86066667Y-70411961D02*
X86033333Y-70316723D01*
X86033333Y-70316723D02*
X86000000Y-70126247D01*
X86000000Y-70126247D02*
X86000000Y-69983390D01*
X86000000Y-69983390D02*
X86033333Y-69792914D01*
X86033333Y-69792914D02*
X86066667Y-69697676D01*
X86066667Y-69697676D02*
X86133333Y-69602438D01*
X86133333Y-69602438D02*
X86233333Y-69554819D01*
X86233333Y-69554819D02*
X86300000Y-69554819D01*
X86300000Y-69554819D02*
X86400000Y-69602438D01*
X86400000Y-69602438D02*
X86433333Y-69650057D01*
X86866667Y-69554819D02*
X87000000Y-69554819D01*
X87000000Y-69554819D02*
X87066667Y-69602438D01*
X87066667Y-69602438D02*
X87133333Y-69697676D01*
X87133333Y-69697676D02*
X87166667Y-69888152D01*
X87166667Y-69888152D02*
X87166667Y-70221485D01*
X87166667Y-70221485D02*
X87133333Y-70411961D01*
X87133333Y-70411961D02*
X87066667Y-70507200D01*
X87066667Y-70507200D02*
X87000000Y-70554819D01*
X87000000Y-70554819D02*
X86866667Y-70554819D01*
X86866667Y-70554819D02*
X86800000Y-70507200D01*
X86800000Y-70507200D02*
X86733333Y-70411961D01*
X86733333Y-70411961D02*
X86700000Y-70221485D01*
X86700000Y-70221485D02*
X86700000Y-69888152D01*
X86700000Y-69888152D02*
X86733333Y-69697676D01*
X86733333Y-69697676D02*
X86800000Y-69602438D01*
X86800000Y-69602438D02*
X86866667Y-69554819D01*
X87466666Y-70554819D02*
X87466666Y-69554819D01*
X87466666Y-69554819D02*
X87866666Y-70554819D01*
X87866666Y-70554819D02*
X87866666Y-69554819D01*
X88099999Y-69554819D02*
X88333333Y-70554819D01*
X88333333Y-70554819D02*
X88566666Y-69554819D01*
X85950000Y-112154819D02*
X85950000Y-112964342D01*
X85950000Y-112964342D02*
X85983334Y-113059580D01*
X85983334Y-113059580D02*
X86016667Y-113107200D01*
X86016667Y-113107200D02*
X86083334Y-113154819D01*
X86083334Y-113154819D02*
X86216667Y-113154819D01*
X86216667Y-113154819D02*
X86283334Y-113107200D01*
X86283334Y-113107200D02*
X86316667Y-113059580D01*
X86316667Y-113059580D02*
X86350000Y-112964342D01*
X86350000Y-112964342D02*
X86350000Y-112154819D01*
X86650000Y-113107200D02*
X86750000Y-113154819D01*
X86750000Y-113154819D02*
X86916667Y-113154819D01*
X86916667Y-113154819D02*
X86983333Y-113107200D01*
X86983333Y-113107200D02*
X87016667Y-113059580D01*
X87016667Y-113059580D02*
X87050000Y-112964342D01*
X87050000Y-112964342D02*
X87050000Y-112869104D01*
X87050000Y-112869104D02*
X87016667Y-112773866D01*
X87016667Y-112773866D02*
X86983333Y-112726247D01*
X86983333Y-112726247D02*
X86916667Y-112678628D01*
X86916667Y-112678628D02*
X86783333Y-112631009D01*
X86783333Y-112631009D02*
X86716667Y-112583390D01*
X86716667Y-112583390D02*
X86683333Y-112535771D01*
X86683333Y-112535771D02*
X86650000Y-112440533D01*
X86650000Y-112440533D02*
X86650000Y-112345295D01*
X86650000Y-112345295D02*
X86683333Y-112250057D01*
X86683333Y-112250057D02*
X86716667Y-112202438D01*
X86716667Y-112202438D02*
X86783333Y-112154819D01*
X86783333Y-112154819D02*
X86950000Y-112154819D01*
X86950000Y-112154819D02*
X87050000Y-112202438D01*
X87583334Y-112631009D02*
X87683334Y-112678628D01*
X87683334Y-112678628D02*
X87716667Y-112726247D01*
X87716667Y-112726247D02*
X87750000Y-112821485D01*
X87750000Y-112821485D02*
X87750000Y-112964342D01*
X87750000Y-112964342D02*
X87716667Y-113059580D01*
X87716667Y-113059580D02*
X87683334Y-113107200D01*
X87683334Y-113107200D02*
X87616667Y-113154819D01*
X87616667Y-113154819D02*
X87350000Y-113154819D01*
X87350000Y-113154819D02*
X87350000Y-112154819D01*
X87350000Y-112154819D02*
X87583334Y-112154819D01*
X87583334Y-112154819D02*
X87650000Y-112202438D01*
X87650000Y-112202438D02*
X87683334Y-112250057D01*
X87683334Y-112250057D02*
X87716667Y-112345295D01*
X87716667Y-112345295D02*
X87716667Y-112440533D01*
X87716667Y-112440533D02*
X87683334Y-112535771D01*
X87683334Y-112535771D02*
X87650000Y-112583390D01*
X87650000Y-112583390D02*
X87583334Y-112631009D01*
X87583334Y-112631009D02*
X87350000Y-112631009D01*
X88583333Y-113154819D02*
X88583333Y-112154819D01*
X88583333Y-112154819D02*
X88850000Y-112154819D01*
X88850000Y-112154819D02*
X88916667Y-112202438D01*
X88916667Y-112202438D02*
X88950000Y-112250057D01*
X88950000Y-112250057D02*
X88983333Y-112345295D01*
X88983333Y-112345295D02*
X88983333Y-112488152D01*
X88983333Y-112488152D02*
X88950000Y-112583390D01*
X88950000Y-112583390D02*
X88916667Y-112631009D01*
X88916667Y-112631009D02*
X88850000Y-112678628D01*
X88850000Y-112678628D02*
X88583333Y-112678628D01*
X89283333Y-113154819D02*
X89283333Y-112154819D01*
X89283333Y-112154819D02*
X89450000Y-112154819D01*
X89450000Y-112154819D02*
X89550000Y-112202438D01*
X89550000Y-112202438D02*
X89616667Y-112297676D01*
X89616667Y-112297676D02*
X89650000Y-112392914D01*
X89650000Y-112392914D02*
X89683333Y-112583390D01*
X89683333Y-112583390D02*
X89683333Y-112726247D01*
X89683333Y-112726247D02*
X89650000Y-112916723D01*
X89650000Y-112916723D02*
X89616667Y-113011961D01*
X89616667Y-113011961D02*
X89550000Y-113107200D01*
X89550000Y-113107200D02*
X89450000Y-113154819D01*
X89450000Y-113154819D02*
X89283333Y-113154819D01*
X220116667Y-98281009D02*
X220350001Y-98281009D01*
X220450001Y-98804819D02*
X220116667Y-98804819D01*
X220116667Y-98804819D02*
X220116667Y-97804819D01*
X220116667Y-97804819D02*
X220450001Y-97804819D01*
X220750000Y-98281009D02*
X220983334Y-98281009D01*
X221083334Y-98804819D02*
X220750000Y-98804819D01*
X220750000Y-98804819D02*
X220750000Y-97804819D01*
X220750000Y-97804819D02*
X221083334Y-97804819D01*
X221383333Y-98804819D02*
X221383333Y-97804819D01*
X221383333Y-97804819D02*
X221650000Y-97804819D01*
X221650000Y-97804819D02*
X221716667Y-97852438D01*
X221716667Y-97852438D02*
X221750000Y-97900057D01*
X221750000Y-97900057D02*
X221783333Y-97995295D01*
X221783333Y-97995295D02*
X221783333Y-98138152D01*
X221783333Y-98138152D02*
X221750000Y-98233390D01*
X221750000Y-98233390D02*
X221716667Y-98281009D01*
X221716667Y-98281009D02*
X221650000Y-98328628D01*
X221650000Y-98328628D02*
X221383333Y-98328628D01*
X222483333Y-98804819D02*
X222250000Y-98328628D01*
X222083333Y-98804819D02*
X222083333Y-97804819D01*
X222083333Y-97804819D02*
X222350000Y-97804819D01*
X222350000Y-97804819D02*
X222416667Y-97852438D01*
X222416667Y-97852438D02*
X222450000Y-97900057D01*
X222450000Y-97900057D02*
X222483333Y-97995295D01*
X222483333Y-97995295D02*
X222483333Y-98138152D01*
X222483333Y-98138152D02*
X222450000Y-98233390D01*
X222450000Y-98233390D02*
X222416667Y-98281009D01*
X222416667Y-98281009D02*
X222350000Y-98328628D01*
X222350000Y-98328628D02*
X222083333Y-98328628D01*
X222916667Y-97804819D02*
X223050000Y-97804819D01*
X223050000Y-97804819D02*
X223116667Y-97852438D01*
X223116667Y-97852438D02*
X223183333Y-97947676D01*
X223183333Y-97947676D02*
X223216667Y-98138152D01*
X223216667Y-98138152D02*
X223216667Y-98471485D01*
X223216667Y-98471485D02*
X223183333Y-98661961D01*
X223183333Y-98661961D02*
X223116667Y-98757200D01*
X223116667Y-98757200D02*
X223050000Y-98804819D01*
X223050000Y-98804819D02*
X222916667Y-98804819D01*
X222916667Y-98804819D02*
X222850000Y-98757200D01*
X222850000Y-98757200D02*
X222783333Y-98661961D01*
X222783333Y-98661961D02*
X222750000Y-98471485D01*
X222750000Y-98471485D02*
X222750000Y-98138152D01*
X222750000Y-98138152D02*
X222783333Y-97947676D01*
X222783333Y-97947676D02*
X222850000Y-97852438D01*
X222850000Y-97852438D02*
X222916667Y-97804819D01*
X223516666Y-98804819D02*
X223516666Y-97804819D01*
X223516666Y-97804819D02*
X223750000Y-98519104D01*
X223750000Y-98519104D02*
X223983333Y-97804819D01*
X223983333Y-97804819D02*
X223983333Y-98804819D01*
X104304819Y-121366666D02*
X105114342Y-121366666D01*
X105114342Y-121366666D02*
X105209580Y-121333333D01*
X105209580Y-121333333D02*
X105257200Y-121299999D01*
X105257200Y-121299999D02*
X105304819Y-121233333D01*
X105304819Y-121233333D02*
X105304819Y-121099999D01*
X105304819Y-121099999D02*
X105257200Y-121033333D01*
X105257200Y-121033333D02*
X105209580Y-120999999D01*
X105209580Y-120999999D02*
X105114342Y-120966666D01*
X105114342Y-120966666D02*
X104304819Y-120966666D01*
X105257200Y-120666666D02*
X105304819Y-120566666D01*
X105304819Y-120566666D02*
X105304819Y-120400000D01*
X105304819Y-120400000D02*
X105257200Y-120333333D01*
X105257200Y-120333333D02*
X105209580Y-120300000D01*
X105209580Y-120300000D02*
X105114342Y-120266666D01*
X105114342Y-120266666D02*
X105019104Y-120266666D01*
X105019104Y-120266666D02*
X104923866Y-120300000D01*
X104923866Y-120300000D02*
X104876247Y-120333333D01*
X104876247Y-120333333D02*
X104828628Y-120400000D01*
X104828628Y-120400000D02*
X104781009Y-120533333D01*
X104781009Y-120533333D02*
X104733390Y-120600000D01*
X104733390Y-120600000D02*
X104685771Y-120633333D01*
X104685771Y-120633333D02*
X104590533Y-120666666D01*
X104590533Y-120666666D02*
X104495295Y-120666666D01*
X104495295Y-120666666D02*
X104400057Y-120633333D01*
X104400057Y-120633333D02*
X104352438Y-120600000D01*
X104352438Y-120600000D02*
X104304819Y-120533333D01*
X104304819Y-120533333D02*
X104304819Y-120366666D01*
X104304819Y-120366666D02*
X104352438Y-120266666D01*
X104781009Y-119733333D02*
X104828628Y-119633333D01*
X104828628Y-119633333D02*
X104876247Y-119599999D01*
X104876247Y-119599999D02*
X104971485Y-119566666D01*
X104971485Y-119566666D02*
X105114342Y-119566666D01*
X105114342Y-119566666D02*
X105209580Y-119599999D01*
X105209580Y-119599999D02*
X105257200Y-119633333D01*
X105257200Y-119633333D02*
X105304819Y-119699999D01*
X105304819Y-119699999D02*
X105304819Y-119966666D01*
X105304819Y-119966666D02*
X104304819Y-119966666D01*
X104304819Y-119966666D02*
X104304819Y-119733333D01*
X104304819Y-119733333D02*
X104352438Y-119666666D01*
X104352438Y-119666666D02*
X104400057Y-119633333D01*
X104400057Y-119633333D02*
X104495295Y-119599999D01*
X104495295Y-119599999D02*
X104590533Y-119599999D01*
X104590533Y-119599999D02*
X104685771Y-119633333D01*
X104685771Y-119633333D02*
X104733390Y-119666666D01*
X104733390Y-119666666D02*
X104781009Y-119733333D01*
X104781009Y-119733333D02*
X104781009Y-119966666D01*
X105304819Y-118733333D02*
X104304819Y-118733333D01*
X104304819Y-118733333D02*
X104304819Y-118566666D01*
X104304819Y-118566666D02*
X104352438Y-118466666D01*
X104352438Y-118466666D02*
X104447676Y-118400000D01*
X104447676Y-118400000D02*
X104542914Y-118366666D01*
X104542914Y-118366666D02*
X104733390Y-118333333D01*
X104733390Y-118333333D02*
X104876247Y-118333333D01*
X104876247Y-118333333D02*
X105066723Y-118366666D01*
X105066723Y-118366666D02*
X105161961Y-118400000D01*
X105161961Y-118400000D02*
X105257200Y-118466666D01*
X105257200Y-118466666D02*
X105304819Y-118566666D01*
X105304819Y-118566666D02*
X105304819Y-118733333D01*
X105019104Y-118066666D02*
X105019104Y-117733333D01*
X105304819Y-118133333D02*
X104304819Y-117900000D01*
X104304819Y-117900000D02*
X105304819Y-117666666D01*
X104304819Y-117533333D02*
X104304819Y-117133333D01*
X105304819Y-117333333D02*
X104304819Y-117333333D01*
X105019104Y-116933333D02*
X105019104Y-116600000D01*
X105304819Y-117000000D02*
X104304819Y-116766667D01*
X104304819Y-116766667D02*
X105304819Y-116533333D01*
X107004819Y-110316666D02*
X106528628Y-110549999D01*
X107004819Y-110716666D02*
X106004819Y-110716666D01*
X106004819Y-110716666D02*
X106004819Y-110449999D01*
X106004819Y-110449999D02*
X106052438Y-110383333D01*
X106052438Y-110383333D02*
X106100057Y-110349999D01*
X106100057Y-110349999D02*
X106195295Y-110316666D01*
X106195295Y-110316666D02*
X106338152Y-110316666D01*
X106338152Y-110316666D02*
X106433390Y-110349999D01*
X106433390Y-110349999D02*
X106481009Y-110383333D01*
X106481009Y-110383333D02*
X106528628Y-110449999D01*
X106528628Y-110449999D02*
X106528628Y-110716666D01*
X106481009Y-110016666D02*
X106481009Y-109783333D01*
X107004819Y-109683333D02*
X107004819Y-110016666D01*
X107004819Y-110016666D02*
X106004819Y-110016666D01*
X106004819Y-110016666D02*
X106004819Y-109683333D01*
X106957200Y-109416666D02*
X107004819Y-109316666D01*
X107004819Y-109316666D02*
X107004819Y-109150000D01*
X107004819Y-109150000D02*
X106957200Y-109083333D01*
X106957200Y-109083333D02*
X106909580Y-109050000D01*
X106909580Y-109050000D02*
X106814342Y-109016666D01*
X106814342Y-109016666D02*
X106719104Y-109016666D01*
X106719104Y-109016666D02*
X106623866Y-109050000D01*
X106623866Y-109050000D02*
X106576247Y-109083333D01*
X106576247Y-109083333D02*
X106528628Y-109150000D01*
X106528628Y-109150000D02*
X106481009Y-109283333D01*
X106481009Y-109283333D02*
X106433390Y-109350000D01*
X106433390Y-109350000D02*
X106385771Y-109383333D01*
X106385771Y-109383333D02*
X106290533Y-109416666D01*
X106290533Y-109416666D02*
X106195295Y-109416666D01*
X106195295Y-109416666D02*
X106100057Y-109383333D01*
X106100057Y-109383333D02*
X106052438Y-109350000D01*
X106052438Y-109350000D02*
X106004819Y-109283333D01*
X106004819Y-109283333D02*
X106004819Y-109116666D01*
X106004819Y-109116666D02*
X106052438Y-109016666D01*
X106481009Y-108716666D02*
X106481009Y-108483333D01*
X107004819Y-108383333D02*
X107004819Y-108716666D01*
X107004819Y-108716666D02*
X106004819Y-108716666D01*
X106004819Y-108716666D02*
X106004819Y-108383333D01*
X106004819Y-108183333D02*
X106004819Y-107783333D01*
X107004819Y-107983333D02*
X106004819Y-107983333D01*
D11*
X113059524Y-73307419D02*
X113059524Y-72307419D01*
X113535714Y-72640752D02*
X113535714Y-73307419D01*
X113535714Y-72735990D02*
X113583333Y-72688371D01*
X113583333Y-72688371D02*
X113678571Y-72640752D01*
X113678571Y-72640752D02*
X113821428Y-72640752D01*
X113821428Y-72640752D02*
X113916666Y-72688371D01*
X113916666Y-72688371D02*
X113964285Y-72783609D01*
X113964285Y-72783609D02*
X113964285Y-73307419D01*
X114297619Y-72640752D02*
X114678571Y-72640752D01*
X114440476Y-73307419D02*
X114440476Y-72450276D01*
X114440476Y-72450276D02*
X114488095Y-72355038D01*
X114488095Y-72355038D02*
X114583333Y-72307419D01*
X114583333Y-72307419D02*
X114678571Y-72307419D01*
X115154762Y-73307419D02*
X115059524Y-73259800D01*
X115059524Y-73259800D02*
X115011905Y-73212180D01*
X115011905Y-73212180D02*
X114964286Y-73116942D01*
X114964286Y-73116942D02*
X114964286Y-72831228D01*
X114964286Y-72831228D02*
X115011905Y-72735990D01*
X115011905Y-72735990D02*
X115059524Y-72688371D01*
X115059524Y-72688371D02*
X115154762Y-72640752D01*
X115154762Y-72640752D02*
X115297619Y-72640752D01*
X115297619Y-72640752D02*
X115392857Y-72688371D01*
X115392857Y-72688371D02*
X115440476Y-72735990D01*
X115440476Y-72735990D02*
X115488095Y-72831228D01*
X115488095Y-72831228D02*
X115488095Y-73116942D01*
X115488095Y-73116942D02*
X115440476Y-73212180D01*
X115440476Y-73212180D02*
X115392857Y-73259800D01*
X115392857Y-73259800D02*
X115297619Y-73307419D01*
X115297619Y-73307419D02*
X115154762Y-73307419D01*
D10*
X69252381Y-107449847D02*
X69585714Y-108449847D01*
X69585714Y-108449847D02*
X69919047Y-107449847D01*
X70204762Y-108164132D02*
X70680952Y-108164132D01*
X70109524Y-108449847D02*
X70442857Y-107449847D01*
X70442857Y-107449847D02*
X70776190Y-108449847D01*
X71585714Y-108449847D02*
X71109524Y-108449847D01*
X71109524Y-108449847D02*
X71109524Y-107449847D01*
X71776191Y-107449847D02*
X72109524Y-108449847D01*
X72109524Y-108449847D02*
X72442857Y-107449847D01*
X72776191Y-107926037D02*
X73109524Y-107926037D01*
X73252381Y-108449847D02*
X72776191Y-108449847D01*
X72776191Y-108449847D02*
X72776191Y-107449847D01*
X72776191Y-107449847D02*
X73252381Y-107449847D01*
X69466666Y-109964552D02*
X69419047Y-110012172D01*
X69419047Y-110012172D02*
X69276190Y-110059791D01*
X69276190Y-110059791D02*
X69180952Y-110059791D01*
X69180952Y-110059791D02*
X69038095Y-110012172D01*
X69038095Y-110012172D02*
X68942857Y-109916933D01*
X68942857Y-109916933D02*
X68895238Y-109821695D01*
X68895238Y-109821695D02*
X68847619Y-109631219D01*
X68847619Y-109631219D02*
X68847619Y-109488362D01*
X68847619Y-109488362D02*
X68895238Y-109297886D01*
X68895238Y-109297886D02*
X68942857Y-109202648D01*
X68942857Y-109202648D02*
X69038095Y-109107410D01*
X69038095Y-109107410D02*
X69180952Y-109059791D01*
X69180952Y-109059791D02*
X69276190Y-109059791D01*
X69276190Y-109059791D02*
X69419047Y-109107410D01*
X69419047Y-109107410D02*
X69466666Y-109155029D01*
X69752381Y-109059791D02*
X70323809Y-109059791D01*
X70038095Y-110059791D02*
X70038095Y-109059791D01*
X71228571Y-110059791D02*
X70895238Y-109583600D01*
X70657143Y-110059791D02*
X70657143Y-109059791D01*
X70657143Y-109059791D02*
X71038095Y-109059791D01*
X71038095Y-109059791D02*
X71133333Y-109107410D01*
X71133333Y-109107410D02*
X71180952Y-109155029D01*
X71180952Y-109155029D02*
X71228571Y-109250267D01*
X71228571Y-109250267D02*
X71228571Y-109393124D01*
X71228571Y-109393124D02*
X71180952Y-109488362D01*
X71180952Y-109488362D02*
X71133333Y-109535981D01*
X71133333Y-109535981D02*
X71038095Y-109583600D01*
X71038095Y-109583600D02*
X70657143Y-109583600D01*
X72133333Y-110059791D02*
X71657143Y-110059791D01*
X71657143Y-110059791D02*
X71657143Y-109059791D01*
X73180953Y-109155029D02*
X73228572Y-109107410D01*
X73228572Y-109107410D02*
X73323810Y-109059791D01*
X73323810Y-109059791D02*
X73561905Y-109059791D01*
X73561905Y-109059791D02*
X73657143Y-109107410D01*
X73657143Y-109107410D02*
X73704762Y-109155029D01*
X73704762Y-109155029D02*
X73752381Y-109250267D01*
X73752381Y-109250267D02*
X73752381Y-109345505D01*
X73752381Y-109345505D02*
X73704762Y-109488362D01*
X73704762Y-109488362D02*
X73133334Y-110059791D01*
X73133334Y-110059791D02*
X73752381Y-110059791D01*
X77752381Y-107449847D02*
X78085714Y-108449847D01*
X78085714Y-108449847D02*
X78419047Y-107449847D01*
X78704762Y-108164132D02*
X79180952Y-108164132D01*
X78609524Y-108449847D02*
X78942857Y-107449847D01*
X78942857Y-107449847D02*
X79276190Y-108449847D01*
X80085714Y-108449847D02*
X79609524Y-108449847D01*
X79609524Y-108449847D02*
X79609524Y-107449847D01*
X80276191Y-107449847D02*
X80609524Y-108449847D01*
X80609524Y-108449847D02*
X80942857Y-107449847D01*
X81276191Y-107926037D02*
X81609524Y-107926037D01*
X81752381Y-108449847D02*
X81276191Y-108449847D01*
X81276191Y-108449847D02*
X81276191Y-107449847D01*
X81276191Y-107449847D02*
X81752381Y-107449847D01*
X77966666Y-109964552D02*
X77919047Y-110012172D01*
X77919047Y-110012172D02*
X77776190Y-110059791D01*
X77776190Y-110059791D02*
X77680952Y-110059791D01*
X77680952Y-110059791D02*
X77538095Y-110012172D01*
X77538095Y-110012172D02*
X77442857Y-109916933D01*
X77442857Y-109916933D02*
X77395238Y-109821695D01*
X77395238Y-109821695D02*
X77347619Y-109631219D01*
X77347619Y-109631219D02*
X77347619Y-109488362D01*
X77347619Y-109488362D02*
X77395238Y-109297886D01*
X77395238Y-109297886D02*
X77442857Y-109202648D01*
X77442857Y-109202648D02*
X77538095Y-109107410D01*
X77538095Y-109107410D02*
X77680952Y-109059791D01*
X77680952Y-109059791D02*
X77776190Y-109059791D01*
X77776190Y-109059791D02*
X77919047Y-109107410D01*
X77919047Y-109107410D02*
X77966666Y-109155029D01*
X78252381Y-109059791D02*
X78823809Y-109059791D01*
X78538095Y-110059791D02*
X78538095Y-109059791D01*
X79728571Y-110059791D02*
X79395238Y-109583600D01*
X79157143Y-110059791D02*
X79157143Y-109059791D01*
X79157143Y-109059791D02*
X79538095Y-109059791D01*
X79538095Y-109059791D02*
X79633333Y-109107410D01*
X79633333Y-109107410D02*
X79680952Y-109155029D01*
X79680952Y-109155029D02*
X79728571Y-109250267D01*
X79728571Y-109250267D02*
X79728571Y-109393124D01*
X79728571Y-109393124D02*
X79680952Y-109488362D01*
X79680952Y-109488362D02*
X79633333Y-109535981D01*
X79633333Y-109535981D02*
X79538095Y-109583600D01*
X79538095Y-109583600D02*
X79157143Y-109583600D01*
X80633333Y-110059791D02*
X80157143Y-110059791D01*
X80157143Y-110059791D02*
X80157143Y-109059791D01*
X82252381Y-110059791D02*
X81680953Y-110059791D01*
X81966667Y-110059791D02*
X81966667Y-109059791D01*
X81966667Y-109059791D02*
X81871429Y-109202648D01*
X81871429Y-109202648D02*
X81776191Y-109297886D01*
X81776191Y-109297886D02*
X81680953Y-109345505D01*
X100361905Y-89254819D02*
X100361905Y-88254819D01*
X100361905Y-88254819D02*
X100600000Y-88254819D01*
X100600000Y-88254819D02*
X100742857Y-88302438D01*
X100742857Y-88302438D02*
X100838095Y-88397676D01*
X100838095Y-88397676D02*
X100885714Y-88492914D01*
X100885714Y-88492914D02*
X100933333Y-88683390D01*
X100933333Y-88683390D02*
X100933333Y-88826247D01*
X100933333Y-88826247D02*
X100885714Y-89016723D01*
X100885714Y-89016723D02*
X100838095Y-89111961D01*
X100838095Y-89111961D02*
X100742857Y-89207200D01*
X100742857Y-89207200D02*
X100600000Y-89254819D01*
X100600000Y-89254819D02*
X100361905Y-89254819D01*
X101361905Y-88731009D02*
X101695238Y-88731009D01*
X101838095Y-89254819D02*
X101361905Y-89254819D01*
X101361905Y-89254819D02*
X101361905Y-88254819D01*
X101361905Y-88254819D02*
X101838095Y-88254819D01*
X102600000Y-88731009D02*
X102742857Y-88778628D01*
X102742857Y-88778628D02*
X102790476Y-88826247D01*
X102790476Y-88826247D02*
X102838095Y-88921485D01*
X102838095Y-88921485D02*
X102838095Y-89064342D01*
X102838095Y-89064342D02*
X102790476Y-89159580D01*
X102790476Y-89159580D02*
X102742857Y-89207200D01*
X102742857Y-89207200D02*
X102647619Y-89254819D01*
X102647619Y-89254819D02*
X102266667Y-89254819D01*
X102266667Y-89254819D02*
X102266667Y-88254819D01*
X102266667Y-88254819D02*
X102600000Y-88254819D01*
X102600000Y-88254819D02*
X102695238Y-88302438D01*
X102695238Y-88302438D02*
X102742857Y-88350057D01*
X102742857Y-88350057D02*
X102790476Y-88445295D01*
X102790476Y-88445295D02*
X102790476Y-88540533D01*
X102790476Y-88540533D02*
X102742857Y-88635771D01*
X102742857Y-88635771D02*
X102695238Y-88683390D01*
X102695238Y-88683390D02*
X102600000Y-88731009D01*
X102600000Y-88731009D02*
X102266667Y-88731009D01*
X103266667Y-88254819D02*
X103266667Y-89064342D01*
X103266667Y-89064342D02*
X103314286Y-89159580D01*
X103314286Y-89159580D02*
X103361905Y-89207200D01*
X103361905Y-89207200D02*
X103457143Y-89254819D01*
X103457143Y-89254819D02*
X103647619Y-89254819D01*
X103647619Y-89254819D02*
X103742857Y-89207200D01*
X103742857Y-89207200D02*
X103790476Y-89159580D01*
X103790476Y-89159580D02*
X103838095Y-89064342D01*
X103838095Y-89064342D02*
X103838095Y-88254819D01*
X104838095Y-88302438D02*
X104742857Y-88254819D01*
X104742857Y-88254819D02*
X104600000Y-88254819D01*
X104600000Y-88254819D02*
X104457143Y-88302438D01*
X104457143Y-88302438D02*
X104361905Y-88397676D01*
X104361905Y-88397676D02*
X104314286Y-88492914D01*
X104314286Y-88492914D02*
X104266667Y-88683390D01*
X104266667Y-88683390D02*
X104266667Y-88826247D01*
X104266667Y-88826247D02*
X104314286Y-89016723D01*
X104314286Y-89016723D02*
X104361905Y-89111961D01*
X104361905Y-89111961D02*
X104457143Y-89207200D01*
X104457143Y-89207200D02*
X104600000Y-89254819D01*
X104600000Y-89254819D02*
X104695238Y-89254819D01*
X104695238Y-89254819D02*
X104838095Y-89207200D01*
X104838095Y-89207200D02*
X104885714Y-89159580D01*
X104885714Y-89159580D02*
X104885714Y-88826247D01*
X104885714Y-88826247D02*
X104695238Y-88826247D01*
X132366666Y-98431009D02*
X132509523Y-98478628D01*
X132509523Y-98478628D02*
X132557142Y-98526247D01*
X132557142Y-98526247D02*
X132604761Y-98621485D01*
X132604761Y-98621485D02*
X132604761Y-98764342D01*
X132604761Y-98764342D02*
X132557142Y-98859580D01*
X132557142Y-98859580D02*
X132509523Y-98907200D01*
X132509523Y-98907200D02*
X132414285Y-98954819D01*
X132414285Y-98954819D02*
X132033333Y-98954819D01*
X132033333Y-98954819D02*
X132033333Y-97954819D01*
X132033333Y-97954819D02*
X132366666Y-97954819D01*
X132366666Y-97954819D02*
X132461904Y-98002438D01*
X132461904Y-98002438D02*
X132509523Y-98050057D01*
X132509523Y-98050057D02*
X132557142Y-98145295D01*
X132557142Y-98145295D02*
X132557142Y-98240533D01*
X132557142Y-98240533D02*
X132509523Y-98335771D01*
X132509523Y-98335771D02*
X132461904Y-98383390D01*
X132461904Y-98383390D02*
X132366666Y-98431009D01*
X132366666Y-98431009D02*
X132033333Y-98431009D01*
X133223809Y-97954819D02*
X133414285Y-97954819D01*
X133414285Y-97954819D02*
X133509523Y-98002438D01*
X133509523Y-98002438D02*
X133604761Y-98097676D01*
X133604761Y-98097676D02*
X133652380Y-98288152D01*
X133652380Y-98288152D02*
X133652380Y-98621485D01*
X133652380Y-98621485D02*
X133604761Y-98811961D01*
X133604761Y-98811961D02*
X133509523Y-98907200D01*
X133509523Y-98907200D02*
X133414285Y-98954819D01*
X133414285Y-98954819D02*
X133223809Y-98954819D01*
X133223809Y-98954819D02*
X133128571Y-98907200D01*
X133128571Y-98907200D02*
X133033333Y-98811961D01*
X133033333Y-98811961D02*
X132985714Y-98621485D01*
X132985714Y-98621485D02*
X132985714Y-98288152D01*
X132985714Y-98288152D02*
X133033333Y-98097676D01*
X133033333Y-98097676D02*
X133128571Y-98002438D01*
X133128571Y-98002438D02*
X133223809Y-97954819D01*
X134271428Y-97954819D02*
X134461904Y-97954819D01*
X134461904Y-97954819D02*
X134557142Y-98002438D01*
X134557142Y-98002438D02*
X134652380Y-98097676D01*
X134652380Y-98097676D02*
X134699999Y-98288152D01*
X134699999Y-98288152D02*
X134699999Y-98621485D01*
X134699999Y-98621485D02*
X134652380Y-98811961D01*
X134652380Y-98811961D02*
X134557142Y-98907200D01*
X134557142Y-98907200D02*
X134461904Y-98954819D01*
X134461904Y-98954819D02*
X134271428Y-98954819D01*
X134271428Y-98954819D02*
X134176190Y-98907200D01*
X134176190Y-98907200D02*
X134080952Y-98811961D01*
X134080952Y-98811961D02*
X134033333Y-98621485D01*
X134033333Y-98621485D02*
X134033333Y-98288152D01*
X134033333Y-98288152D02*
X134080952Y-98097676D01*
X134080952Y-98097676D02*
X134176190Y-98002438D01*
X134176190Y-98002438D02*
X134271428Y-97954819D01*
X134985714Y-97954819D02*
X135557142Y-97954819D01*
X135271428Y-98954819D02*
X135271428Y-97954819D01*
X136080952Y-97954819D02*
X136176190Y-97954819D01*
X136176190Y-97954819D02*
X136271428Y-98002438D01*
X136271428Y-98002438D02*
X136319047Y-98050057D01*
X136319047Y-98050057D02*
X136366666Y-98145295D01*
X136366666Y-98145295D02*
X136414285Y-98335771D01*
X136414285Y-98335771D02*
X136414285Y-98573866D01*
X136414285Y-98573866D02*
X136366666Y-98764342D01*
X136366666Y-98764342D02*
X136319047Y-98859580D01*
X136319047Y-98859580D02*
X136271428Y-98907200D01*
X136271428Y-98907200D02*
X136176190Y-98954819D01*
X136176190Y-98954819D02*
X136080952Y-98954819D01*
X136080952Y-98954819D02*
X135985714Y-98907200D01*
X135985714Y-98907200D02*
X135938095Y-98859580D01*
X135938095Y-98859580D02*
X135890476Y-98764342D01*
X135890476Y-98764342D02*
X135842857Y-98573866D01*
X135842857Y-98573866D02*
X135842857Y-98335771D01*
X135842857Y-98335771D02*
X135890476Y-98145295D01*
X135890476Y-98145295D02*
X135938095Y-98050057D01*
X135938095Y-98050057D02*
X135985714Y-98002438D01*
X135985714Y-98002438D02*
X136080952Y-97954819D01*
X141639285Y-106156009D02*
X141972618Y-106156009D01*
X142115475Y-106679819D02*
X141639285Y-106679819D01*
X141639285Y-106679819D02*
X141639285Y-105679819D01*
X141639285Y-105679819D02*
X142115475Y-105679819D01*
X142686904Y-106679819D02*
X142591666Y-106632200D01*
X142591666Y-106632200D02*
X142544047Y-106536961D01*
X142544047Y-106536961D02*
X142544047Y-105679819D01*
X143448809Y-106632200D02*
X143353571Y-106679819D01*
X143353571Y-106679819D02*
X143163095Y-106679819D01*
X143163095Y-106679819D02*
X143067857Y-106632200D01*
X143067857Y-106632200D02*
X143020238Y-106536961D01*
X143020238Y-106536961D02*
X143020238Y-106156009D01*
X143020238Y-106156009D02*
X143067857Y-106060771D01*
X143067857Y-106060771D02*
X143163095Y-106013152D01*
X143163095Y-106013152D02*
X143353571Y-106013152D01*
X143353571Y-106013152D02*
X143448809Y-106060771D01*
X143448809Y-106060771D02*
X143496428Y-106156009D01*
X143496428Y-106156009D02*
X143496428Y-106251247D01*
X143496428Y-106251247D02*
X143020238Y-106346485D01*
X143829762Y-106013152D02*
X144067857Y-106679819D01*
X144067857Y-106679819D02*
X144305952Y-106013152D01*
X145115476Y-106679819D02*
X145115476Y-106156009D01*
X145115476Y-106156009D02*
X145067857Y-106060771D01*
X145067857Y-106060771D02*
X144972619Y-106013152D01*
X144972619Y-106013152D02*
X144782143Y-106013152D01*
X144782143Y-106013152D02*
X144686905Y-106060771D01*
X145115476Y-106632200D02*
X145020238Y-106679819D01*
X145020238Y-106679819D02*
X144782143Y-106679819D01*
X144782143Y-106679819D02*
X144686905Y-106632200D01*
X144686905Y-106632200D02*
X144639286Y-106536961D01*
X144639286Y-106536961D02*
X144639286Y-106441723D01*
X144639286Y-106441723D02*
X144686905Y-106346485D01*
X144686905Y-106346485D02*
X144782143Y-106298866D01*
X144782143Y-106298866D02*
X145020238Y-106298866D01*
X145020238Y-106298866D02*
X145115476Y-106251247D01*
X145448810Y-106013152D02*
X145829762Y-106013152D01*
X145591667Y-105679819D02*
X145591667Y-106536961D01*
X145591667Y-106536961D02*
X145639286Y-106632200D01*
X145639286Y-106632200D02*
X145734524Y-106679819D01*
X145734524Y-106679819D02*
X145829762Y-106679819D01*
X146305953Y-106679819D02*
X146210715Y-106632200D01*
X146210715Y-106632200D02*
X146163096Y-106584580D01*
X146163096Y-106584580D02*
X146115477Y-106489342D01*
X146115477Y-106489342D02*
X146115477Y-106203628D01*
X146115477Y-106203628D02*
X146163096Y-106108390D01*
X146163096Y-106108390D02*
X146210715Y-106060771D01*
X146210715Y-106060771D02*
X146305953Y-106013152D01*
X146305953Y-106013152D02*
X146448810Y-106013152D01*
X146448810Y-106013152D02*
X146544048Y-106060771D01*
X146544048Y-106060771D02*
X146591667Y-106108390D01*
X146591667Y-106108390D02*
X146639286Y-106203628D01*
X146639286Y-106203628D02*
X146639286Y-106489342D01*
X146639286Y-106489342D02*
X146591667Y-106584580D01*
X146591667Y-106584580D02*
X146544048Y-106632200D01*
X146544048Y-106632200D02*
X146448810Y-106679819D01*
X146448810Y-106679819D02*
X146305953Y-106679819D01*
X147067858Y-106679819D02*
X147067858Y-106013152D01*
X147067858Y-106203628D02*
X147115477Y-106108390D01*
X147115477Y-106108390D02*
X147163096Y-106060771D01*
X147163096Y-106060771D02*
X147258334Y-106013152D01*
X147258334Y-106013152D02*
X147353572Y-106013152D01*
X153428571Y-106707200D02*
X153571428Y-106754819D01*
X153571428Y-106754819D02*
X153809523Y-106754819D01*
X153809523Y-106754819D02*
X153904761Y-106707200D01*
X153904761Y-106707200D02*
X153952380Y-106659580D01*
X153952380Y-106659580D02*
X153999999Y-106564342D01*
X153999999Y-106564342D02*
X153999999Y-106469104D01*
X153999999Y-106469104D02*
X153952380Y-106373866D01*
X153952380Y-106373866D02*
X153904761Y-106326247D01*
X153904761Y-106326247D02*
X153809523Y-106278628D01*
X153809523Y-106278628D02*
X153619047Y-106231009D01*
X153619047Y-106231009D02*
X153523809Y-106183390D01*
X153523809Y-106183390D02*
X153476190Y-106135771D01*
X153476190Y-106135771D02*
X153428571Y-106040533D01*
X153428571Y-106040533D02*
X153428571Y-105945295D01*
X153428571Y-105945295D02*
X153476190Y-105850057D01*
X153476190Y-105850057D02*
X153523809Y-105802438D01*
X153523809Y-105802438D02*
X153619047Y-105754819D01*
X153619047Y-105754819D02*
X153857142Y-105754819D01*
X153857142Y-105754819D02*
X153999999Y-105802438D01*
X154571428Y-106754819D02*
X154476190Y-106707200D01*
X154476190Y-106707200D02*
X154428571Y-106659580D01*
X154428571Y-106659580D02*
X154380952Y-106564342D01*
X154380952Y-106564342D02*
X154380952Y-106278628D01*
X154380952Y-106278628D02*
X154428571Y-106183390D01*
X154428571Y-106183390D02*
X154476190Y-106135771D01*
X154476190Y-106135771D02*
X154571428Y-106088152D01*
X154571428Y-106088152D02*
X154714285Y-106088152D01*
X154714285Y-106088152D02*
X154809523Y-106135771D01*
X154809523Y-106135771D02*
X154857142Y-106183390D01*
X154857142Y-106183390D02*
X154904761Y-106278628D01*
X154904761Y-106278628D02*
X154904761Y-106564342D01*
X154904761Y-106564342D02*
X154857142Y-106659580D01*
X154857142Y-106659580D02*
X154809523Y-106707200D01*
X154809523Y-106707200D02*
X154714285Y-106754819D01*
X154714285Y-106754819D02*
X154571428Y-106754819D01*
X155333333Y-106754819D02*
X155333333Y-106088152D01*
X155333333Y-106278628D02*
X155380952Y-106183390D01*
X155380952Y-106183390D02*
X155428571Y-106135771D01*
X155428571Y-106135771D02*
X155523809Y-106088152D01*
X155523809Y-106088152D02*
X155619047Y-106088152D01*
X155809524Y-106088152D02*
X156190476Y-106088152D01*
X155952381Y-105754819D02*
X155952381Y-106611961D01*
X155952381Y-106611961D02*
X156000000Y-106707200D01*
X156000000Y-106707200D02*
X156095238Y-106754819D01*
X156095238Y-106754819D02*
X156190476Y-106754819D01*
X156904762Y-106707200D02*
X156809524Y-106754819D01*
X156809524Y-106754819D02*
X156619048Y-106754819D01*
X156619048Y-106754819D02*
X156523810Y-106707200D01*
X156523810Y-106707200D02*
X156476191Y-106611961D01*
X156476191Y-106611961D02*
X156476191Y-106231009D01*
X156476191Y-106231009D02*
X156523810Y-106135771D01*
X156523810Y-106135771D02*
X156619048Y-106088152D01*
X156619048Y-106088152D02*
X156809524Y-106088152D01*
X156809524Y-106088152D02*
X156904762Y-106135771D01*
X156904762Y-106135771D02*
X156952381Y-106231009D01*
X156952381Y-106231009D02*
X156952381Y-106326247D01*
X156952381Y-106326247D02*
X156476191Y-106421485D01*
X157380953Y-106754819D02*
X157380953Y-106088152D01*
X157380953Y-106278628D02*
X157428572Y-106183390D01*
X157428572Y-106183390D02*
X157476191Y-106135771D01*
X157476191Y-106135771D02*
X157571429Y-106088152D01*
X157571429Y-106088152D02*
X157666667Y-106088152D01*
G36*
X193284144Y-80122410D02*
G01*
X193314551Y-80152817D01*
X193348809Y-80221333D01*
X193348809Y-80471637D01*
X193314550Y-80540153D01*
X193284143Y-80570561D01*
X193215628Y-80604819D01*
X193108181Y-80604819D01*
X193039665Y-80570561D01*
X193009258Y-80540153D01*
X192975000Y-80471637D01*
X192975000Y-80221333D01*
X193009258Y-80152817D01*
X193039665Y-80122410D01*
X193108181Y-80088152D01*
X193215628Y-80088152D01*
X193284144Y-80122410D01*
G37*
G36*
X194322765Y-80865930D02*
G01*
X190618650Y-80865930D01*
X190618650Y-79679819D01*
X190729761Y-79679819D01*
X190729761Y-80679819D01*
X190731202Y-80694451D01*
X190742401Y-80721487D01*
X190763093Y-80742179D01*
X190790129Y-80753378D01*
X190804761Y-80754819D01*
X191280951Y-80754819D01*
X191295583Y-80753378D01*
X191322619Y-80742179D01*
X191343311Y-80721487D01*
X191354510Y-80694451D01*
X191354510Y-80665187D01*
X191343311Y-80638151D01*
X191322619Y-80617459D01*
X191295583Y-80606260D01*
X191280951Y-80604819D01*
X190879761Y-80604819D01*
X190879761Y-80231009D01*
X191138094Y-80231009D01*
X191152726Y-80229568D01*
X191179762Y-80218369D01*
X191200454Y-80197677D01*
X191211653Y-80170641D01*
X191211653Y-80141377D01*
X191200454Y-80114341D01*
X191179762Y-80093649D01*
X191152726Y-80082450D01*
X191138094Y-80081009D01*
X190879761Y-80081009D01*
X190879761Y-80013152D01*
X191634523Y-80013152D01*
X191634523Y-80679819D01*
X191635964Y-80694451D01*
X191647163Y-80721487D01*
X191667855Y-80742179D01*
X191694891Y-80753378D01*
X191724155Y-80753378D01*
X191751191Y-80742179D01*
X191771883Y-80721487D01*
X191783082Y-80694451D01*
X191784523Y-80679819D01*
X191784523Y-80221333D01*
X191818781Y-80152817D01*
X191849188Y-80122410D01*
X191917704Y-80088152D01*
X191995237Y-80088152D01*
X192009869Y-80086711D01*
X192036905Y-80075512D01*
X192057597Y-80054820D01*
X192068796Y-80027784D01*
X192068796Y-80013152D01*
X192253571Y-80013152D01*
X192253571Y-80679819D01*
X192255012Y-80694451D01*
X192266211Y-80721487D01*
X192286903Y-80742179D01*
X192313939Y-80753378D01*
X192343203Y-80753378D01*
X192370239Y-80742179D01*
X192390931Y-80721487D01*
X192402130Y-80694451D01*
X192403571Y-80679819D01*
X192403571Y-80221333D01*
X192412424Y-80203628D01*
X192825000Y-80203628D01*
X192825000Y-80489342D01*
X192826441Y-80503974D01*
X192827472Y-80506463D01*
X192827663Y-80509151D01*
X192832918Y-80522883D01*
X192880537Y-80618121D01*
X192884500Y-80624417D01*
X192885258Y-80626247D01*
X192886947Y-80628305D01*
X192888369Y-80630564D01*
X192889867Y-80631863D01*
X192894585Y-80637612D01*
X192942204Y-80685232D01*
X192947953Y-80689950D01*
X192949254Y-80691450D01*
X192951513Y-80692872D01*
X192953570Y-80694560D01*
X192955397Y-80695317D01*
X192961697Y-80699282D01*
X193056935Y-80746901D01*
X193070666Y-80752156D01*
X193073355Y-80752347D01*
X193075844Y-80753378D01*
X193090476Y-80754819D01*
X193233333Y-80754819D01*
X193247965Y-80753378D01*
X193250454Y-80752346D01*
X193253142Y-80752156D01*
X193266874Y-80746901D01*
X193362112Y-80699282D01*
X193368411Y-80695317D01*
X193370239Y-80694560D01*
X193372295Y-80692872D01*
X193374555Y-80691450D01*
X193375855Y-80689950D01*
X193381605Y-80685232D01*
X193429223Y-80637613D01*
X193433941Y-80631863D01*
X193435440Y-80630564D01*
X193436861Y-80628305D01*
X193438551Y-80626247D01*
X193439308Y-80624417D01*
X193443272Y-80618121D01*
X193490891Y-80522883D01*
X193496146Y-80509152D01*
X193496337Y-80506462D01*
X193497368Y-80503974D01*
X193498809Y-80489342D01*
X193498809Y-80203628D01*
X193497368Y-80188996D01*
X193496337Y-80186507D01*
X193496146Y-80183818D01*
X193490891Y-80170087D01*
X193443272Y-80074849D01*
X193439307Y-80068549D01*
X193438550Y-80066722D01*
X193436861Y-80064665D01*
X193435440Y-80062406D01*
X193433941Y-80061106D01*
X193429223Y-80055357D01*
X193387018Y-80013152D01*
X193777381Y-80013152D01*
X193777381Y-80679819D01*
X193778822Y-80694451D01*
X193790021Y-80721487D01*
X193810713Y-80742179D01*
X193837749Y-80753378D01*
X193867013Y-80753378D01*
X193894049Y-80742179D01*
X193914741Y-80721487D01*
X193925940Y-80694451D01*
X193927381Y-80679819D01*
X193927381Y-80221333D01*
X193961639Y-80152817D01*
X193992046Y-80122410D01*
X194060562Y-80088152D01*
X194138095Y-80088152D01*
X194152727Y-80086711D01*
X194179763Y-80075512D01*
X194200455Y-80054820D01*
X194211654Y-80027784D01*
X194211654Y-79998520D01*
X194200455Y-79971484D01*
X194179763Y-79950792D01*
X194152727Y-79939593D01*
X194138095Y-79938152D01*
X194042857Y-79938152D01*
X194028225Y-79939593D01*
X194025736Y-79940623D01*
X194023047Y-79940815D01*
X194009316Y-79946070D01*
X193922246Y-79989604D01*
X193914741Y-79971484D01*
X193894049Y-79950792D01*
X193867013Y-79939593D01*
X193837749Y-79939593D01*
X193810713Y-79950792D01*
X193790021Y-79971484D01*
X193778822Y-79998520D01*
X193777381Y-80013152D01*
X193387018Y-80013152D01*
X193381604Y-80007738D01*
X193375854Y-80003019D01*
X193374555Y-80001521D01*
X193372295Y-80000099D01*
X193370239Y-79998411D01*
X193368411Y-79997653D01*
X193362112Y-79993689D01*
X193266874Y-79946070D01*
X193253142Y-79940815D01*
X193250454Y-79940624D01*
X193247965Y-79939593D01*
X193233333Y-79938152D01*
X193090476Y-79938152D01*
X193075844Y-79939593D01*
X193073355Y-79940623D01*
X193070666Y-79940815D01*
X193056935Y-79946070D01*
X192961697Y-79993689D01*
X192955397Y-79997653D01*
X192953570Y-79998411D01*
X192951513Y-80000099D01*
X192949254Y-80001521D01*
X192947954Y-80003019D01*
X192942205Y-80007738D01*
X192894586Y-80055357D01*
X192889867Y-80061106D01*
X192888369Y-80062406D01*
X192886947Y-80064665D01*
X192885259Y-80066722D01*
X192884501Y-80068549D01*
X192880537Y-80074849D01*
X192832918Y-80170087D01*
X192827663Y-80183819D01*
X192827472Y-80186506D01*
X192826441Y-80188996D01*
X192825000Y-80203628D01*
X192412424Y-80203628D01*
X192437829Y-80152817D01*
X192468236Y-80122410D01*
X192536752Y-80088152D01*
X192614285Y-80088152D01*
X192628917Y-80086711D01*
X192655953Y-80075512D01*
X192676645Y-80054820D01*
X192687844Y-80027784D01*
X192687844Y-79998520D01*
X192676645Y-79971484D01*
X192655953Y-79950792D01*
X192628917Y-79939593D01*
X192614285Y-79938152D01*
X192519047Y-79938152D01*
X192504415Y-79939593D01*
X192501926Y-79940623D01*
X192499237Y-79940815D01*
X192485506Y-79946070D01*
X192398436Y-79989604D01*
X192390931Y-79971484D01*
X192370239Y-79950792D01*
X192343203Y-79939593D01*
X192313939Y-79939593D01*
X192286903Y-79950792D01*
X192266211Y-79971484D01*
X192255012Y-79998520D01*
X192253571Y-80013152D01*
X192068796Y-80013152D01*
X192068796Y-79998520D01*
X192057597Y-79971484D01*
X192036905Y-79950792D01*
X192009869Y-79939593D01*
X191995237Y-79938152D01*
X191899999Y-79938152D01*
X191885367Y-79939593D01*
X191882878Y-79940623D01*
X191880189Y-79940815D01*
X191866458Y-79946070D01*
X191779388Y-79989604D01*
X191771883Y-79971484D01*
X191751191Y-79950792D01*
X191724155Y-79939593D01*
X191694891Y-79939593D01*
X191667855Y-79950792D01*
X191647163Y-79971484D01*
X191635964Y-79998520D01*
X191634523Y-80013152D01*
X190879761Y-80013152D01*
X190879761Y-79754819D01*
X191280951Y-79754819D01*
X191295583Y-79753378D01*
X191322619Y-79742179D01*
X191343311Y-79721487D01*
X191354510Y-79694451D01*
X191354510Y-79665187D01*
X191343311Y-79638151D01*
X191322619Y-79617459D01*
X191295583Y-79606260D01*
X191280951Y-79604819D01*
X190804761Y-79604819D01*
X190790129Y-79606260D01*
X190763093Y-79617459D01*
X190742401Y-79638151D01*
X190731202Y-79665187D01*
X190729761Y-79679819D01*
X190618650Y-79679819D01*
X190618650Y-79493708D01*
X194322765Y-79493708D01*
X194322765Y-80865930D01*
G37*
G36*
X222765096Y-79789077D02*
G01*
X222795503Y-79819484D01*
X222829761Y-79888000D01*
X222829761Y-79995447D01*
X222795503Y-80063963D01*
X222765096Y-80094370D01*
X222696580Y-80128628D01*
X222408333Y-80128628D01*
X222408333Y-79754819D01*
X222696580Y-79754819D01*
X222765096Y-79789077D01*
G37*
G36*
X224852777Y-80865930D02*
G01*
X222147222Y-80865930D01*
X222147222Y-79679819D01*
X222258333Y-79679819D01*
X222258333Y-80679819D01*
X222259774Y-80694451D01*
X222270973Y-80721487D01*
X222291665Y-80742179D01*
X222318701Y-80753378D01*
X222347965Y-80753378D01*
X222375001Y-80742179D01*
X222395693Y-80721487D01*
X222406892Y-80694451D01*
X222408333Y-80679819D01*
X222408333Y-80278628D01*
X222532379Y-80278628D01*
X222843319Y-80722829D01*
X222852890Y-80733989D01*
X222877569Y-80749716D01*
X222906386Y-80754802D01*
X222934957Y-80748472D01*
X222958931Y-80731690D01*
X222974658Y-80707012D01*
X222979743Y-80678194D01*
X222973414Y-80649623D01*
X222966204Y-80636810D01*
X222715400Y-80278518D01*
X222728917Y-80277187D01*
X222731406Y-80276155D01*
X222734094Y-80275965D01*
X222747826Y-80270710D01*
X222843064Y-80223091D01*
X222849363Y-80219126D01*
X222851191Y-80218369D01*
X222853247Y-80216680D01*
X222855507Y-80215259D01*
X222856806Y-80213760D01*
X222862556Y-80209042D01*
X222910175Y-80161423D01*
X222914893Y-80155673D01*
X222916392Y-80154374D01*
X222917813Y-80152114D01*
X222919502Y-80150058D01*
X222920259Y-80148230D01*
X222924224Y-80141931D01*
X222971843Y-80046693D01*
X222977098Y-80032962D01*
X222977289Y-80030272D01*
X222978320Y-80027784D01*
X222979761Y-80013152D01*
X223258333Y-80013152D01*
X223258333Y-80536961D01*
X223259774Y-80551593D01*
X223260805Y-80554082D01*
X223260996Y-80556770D01*
X223266251Y-80570502D01*
X223313870Y-80665741D01*
X223315410Y-80668187D01*
X223315795Y-80669342D01*
X223317041Y-80670779D01*
X223321702Y-80678183D01*
X223328804Y-80684342D01*
X223334968Y-80691450D01*
X223342373Y-80696111D01*
X223343810Y-80697357D01*
X223344963Y-80697741D01*
X223347411Y-80699282D01*
X223442649Y-80746901D01*
X223456380Y-80752156D01*
X223459069Y-80752347D01*
X223461558Y-80753378D01*
X223476190Y-80754819D01*
X223619047Y-80754819D01*
X223633679Y-80753378D01*
X223636168Y-80752346D01*
X223638856Y-80752156D01*
X223652588Y-80746901D01*
X223700834Y-80722777D01*
X223720236Y-80742179D01*
X223747272Y-80753378D01*
X223776536Y-80753378D01*
X223803572Y-80742179D01*
X223824264Y-80721487D01*
X223835463Y-80694451D01*
X223836904Y-80679819D01*
X223836904Y-80013152D01*
X224163095Y-80013152D01*
X224163095Y-80679819D01*
X224164536Y-80694451D01*
X224175735Y-80721487D01*
X224196427Y-80742179D01*
X224223463Y-80753378D01*
X224252727Y-80753378D01*
X224279763Y-80742179D01*
X224300455Y-80721487D01*
X224311654Y-80694451D01*
X224313095Y-80679819D01*
X224313095Y-80139456D01*
X224330141Y-80122410D01*
X224398657Y-80088152D01*
X224506104Y-80088152D01*
X224563145Y-80116672D01*
X224591666Y-80173714D01*
X224591666Y-80679819D01*
X224593107Y-80694451D01*
X224604306Y-80721487D01*
X224624998Y-80742179D01*
X224652034Y-80753378D01*
X224681298Y-80753378D01*
X224708334Y-80742179D01*
X224729026Y-80721487D01*
X224740225Y-80694451D01*
X224741666Y-80679819D01*
X224741666Y-80156009D01*
X224740225Y-80141377D01*
X224739194Y-80138888D01*
X224739003Y-80136199D01*
X224733748Y-80122468D01*
X224686129Y-80027230D01*
X224684588Y-80024782D01*
X224684204Y-80023629D01*
X224682958Y-80022192D01*
X224678297Y-80014787D01*
X224671192Y-80008625D01*
X224665031Y-80001521D01*
X224657625Y-79996859D01*
X224656189Y-79995614D01*
X224655035Y-79995229D01*
X224652588Y-79993689D01*
X224557350Y-79946070D01*
X224543618Y-79940815D01*
X224540930Y-79940624D01*
X224538441Y-79939593D01*
X224523809Y-79938152D01*
X224380952Y-79938152D01*
X224366320Y-79939593D01*
X224363831Y-79940623D01*
X224361142Y-79940815D01*
X224347411Y-79946070D01*
X224299164Y-79970193D01*
X224279763Y-79950792D01*
X224252727Y-79939593D01*
X224223463Y-79939593D01*
X224196427Y-79950792D01*
X224175735Y-79971484D01*
X224164536Y-79998520D01*
X224163095Y-80013152D01*
X223836904Y-80013152D01*
X223835463Y-79998520D01*
X223824264Y-79971484D01*
X223803572Y-79950792D01*
X223776536Y-79939593D01*
X223747272Y-79939593D01*
X223720236Y-79950792D01*
X223699544Y-79971484D01*
X223688345Y-79998520D01*
X223686904Y-80013152D01*
X223686904Y-80553514D01*
X223669857Y-80570561D01*
X223601342Y-80604819D01*
X223493895Y-80604819D01*
X223436853Y-80576298D01*
X223408333Y-80519256D01*
X223408333Y-80013152D01*
X223406892Y-79998520D01*
X223395693Y-79971484D01*
X223375001Y-79950792D01*
X223347965Y-79939593D01*
X223318701Y-79939593D01*
X223291665Y-79950792D01*
X223270973Y-79971484D01*
X223259774Y-79998520D01*
X223258333Y-80013152D01*
X222979761Y-80013152D01*
X222979761Y-79870295D01*
X222978320Y-79855663D01*
X222977289Y-79853174D01*
X222977098Y-79850485D01*
X222971843Y-79836754D01*
X222924224Y-79741516D01*
X222920259Y-79735216D01*
X222919502Y-79733389D01*
X222917813Y-79731332D01*
X222916392Y-79729073D01*
X222914893Y-79727773D01*
X222910175Y-79722024D01*
X222862556Y-79674405D01*
X222856806Y-79669686D01*
X222855507Y-79668188D01*
X222853247Y-79666766D01*
X222851191Y-79665078D01*
X222849363Y-79664320D01*
X222843064Y-79660356D01*
X222747826Y-79612737D01*
X222734094Y-79607482D01*
X222731406Y-79607291D01*
X222728917Y-79606260D01*
X222714285Y-79604819D01*
X222333333Y-79604819D01*
X222318701Y-79606260D01*
X222291665Y-79617459D01*
X222270973Y-79638151D01*
X222259774Y-79665187D01*
X222258333Y-79679819D01*
X222147222Y-79679819D01*
X222147222Y-79493708D01*
X224852777Y-79493708D01*
X224852777Y-80865930D01*
G37*
X227721428Y-121181009D02*
X228054761Y-121181009D01*
X228197618Y-121704819D02*
X227721428Y-121704819D01*
X227721428Y-121704819D02*
X227721428Y-120704819D01*
X227721428Y-120704819D02*
X228197618Y-120704819D01*
X228816666Y-121228628D02*
X228816666Y-121704819D01*
X228483333Y-120704819D02*
X228816666Y-121228628D01*
X228816666Y-121228628D02*
X229149999Y-120704819D01*
X230721428Y-120704819D02*
X230245238Y-120704819D01*
X230245238Y-120704819D02*
X230197619Y-121181009D01*
X230197619Y-121181009D02*
X230245238Y-121133390D01*
X230245238Y-121133390D02*
X230340476Y-121085771D01*
X230340476Y-121085771D02*
X230578571Y-121085771D01*
X230578571Y-121085771D02*
X230673809Y-121133390D01*
X230673809Y-121133390D02*
X230721428Y-121181009D01*
X230721428Y-121181009D02*
X230769047Y-121276247D01*
X230769047Y-121276247D02*
X230769047Y-121514342D01*
X230769047Y-121514342D02*
X230721428Y-121609580D01*
X230721428Y-121609580D02*
X230673809Y-121657200D01*
X230673809Y-121657200D02*
X230578571Y-121704819D01*
X230578571Y-121704819D02*
X230340476Y-121704819D01*
X230340476Y-121704819D02*
X230245238Y-121657200D01*
X230245238Y-121657200D02*
X230197619Y-121609580D01*
X231102381Y-120704819D02*
X231769047Y-120704819D01*
X231769047Y-120704819D02*
X231340476Y-121704819D01*
X232578571Y-120704819D02*
X232388095Y-120704819D01*
X232388095Y-120704819D02*
X232292857Y-120752438D01*
X232292857Y-120752438D02*
X232245238Y-120800057D01*
X232245238Y-120800057D02*
X232150000Y-120942914D01*
X232150000Y-120942914D02*
X232102381Y-121133390D01*
X232102381Y-121133390D02*
X232102381Y-121514342D01*
X232102381Y-121514342D02*
X232150000Y-121609580D01*
X232150000Y-121609580D02*
X232197619Y-121657200D01*
X232197619Y-121657200D02*
X232292857Y-121704819D01*
X232292857Y-121704819D02*
X232483333Y-121704819D01*
X232483333Y-121704819D02*
X232578571Y-121657200D01*
X232578571Y-121657200D02*
X232626190Y-121609580D01*
X232626190Y-121609580D02*
X232673809Y-121514342D01*
X232673809Y-121514342D02*
X232673809Y-121276247D01*
X232673809Y-121276247D02*
X232626190Y-121181009D01*
X232626190Y-121181009D02*
X232578571Y-121133390D01*
X232578571Y-121133390D02*
X232483333Y-121085771D01*
X232483333Y-121085771D02*
X232292857Y-121085771D01*
X232292857Y-121085771D02*
X232197619Y-121133390D01*
X232197619Y-121133390D02*
X232150000Y-121181009D01*
X232150000Y-121181009D02*
X232102381Y-121276247D01*
X233150000Y-121704819D02*
X233340476Y-121704819D01*
X233340476Y-121704819D02*
X233435714Y-121657200D01*
X233435714Y-121657200D02*
X233483333Y-121609580D01*
X233483333Y-121609580D02*
X233578571Y-121466723D01*
X233578571Y-121466723D02*
X233626190Y-121276247D01*
X233626190Y-121276247D02*
X233626190Y-120895295D01*
X233626190Y-120895295D02*
X233578571Y-120800057D01*
X233578571Y-120800057D02*
X233530952Y-120752438D01*
X233530952Y-120752438D02*
X233435714Y-120704819D01*
X233435714Y-120704819D02*
X233245238Y-120704819D01*
X233245238Y-120704819D02*
X233150000Y-120752438D01*
X233150000Y-120752438D02*
X233102381Y-120800057D01*
X233102381Y-120800057D02*
X233054762Y-120895295D01*
X233054762Y-120895295D02*
X233054762Y-121133390D01*
X233054762Y-121133390D02*
X233102381Y-121228628D01*
X233102381Y-121228628D02*
X233150000Y-121276247D01*
X233150000Y-121276247D02*
X233245238Y-121323866D01*
X233245238Y-121323866D02*
X233435714Y-121323866D01*
X233435714Y-121323866D02*
X233530952Y-121276247D01*
X233530952Y-121276247D02*
X233578571Y-121228628D01*
X233578571Y-121228628D02*
X233626190Y-121133390D01*
%TO.C,C29*%
D12*
X69740000Y-96292164D02*
X69740000Y-96507836D01*
X70460000Y-96292164D02*
X70460000Y-96507836D01*
%TO.C,R45*%
X90506359Y-67520000D02*
X90813641Y-67520000D01*
X90506359Y-68280000D02*
X90813641Y-68280000D01*
%TO.C,U7*%
X139877500Y-108627500D02*
X140602500Y-108627500D01*
X139877500Y-109352500D02*
X139877500Y-108627500D01*
X139877500Y-113847500D02*
X139877500Y-113122500D01*
X140602500Y-113847500D02*
X139877500Y-113847500D01*
X144372500Y-108627500D02*
X145097500Y-108627500D01*
X145097500Y-108627500D02*
X145097500Y-109352500D01*
X145097500Y-113122500D02*
X145097500Y-113847500D01*
X145097500Y-113847500D02*
X144372500Y-113847500D01*
X145927500Y-112977500D02*
X145597500Y-112737500D01*
X145927500Y-112497500D01*
X145927500Y-112977500D01*
G36*
X145927500Y-112977500D02*
G01*
X145597500Y-112737500D01*
X145927500Y-112497500D01*
X145927500Y-112977500D01*
G37*
%TO.C,U6*%
X85590000Y-103990000D02*
X88810000Y-103990000D01*
X85590000Y-104190000D02*
X85590000Y-103990000D01*
X85590000Y-107210000D02*
X85590000Y-107010000D01*
X88810000Y-103990000D02*
X88810000Y-104190000D01*
X88810000Y-107010000D02*
X88810000Y-107210000D01*
X88810000Y-107210000D02*
X85590000Y-107210000D01*
X89600000Y-107340000D02*
X89120000Y-107340000D01*
X89360000Y-107010000D01*
X89600000Y-107340000D01*
G36*
X89600000Y-107340000D02*
G01*
X89120000Y-107340000D01*
X89360000Y-107010000D01*
X89600000Y-107340000D01*
G37*
%TO.C,C8*%
X106450000Y-96032164D02*
X106450000Y-96247836D01*
X107170000Y-96032164D02*
X107170000Y-96247836D01*
%TO.C,J2*%
D11*
X116750000Y-108025000D02*
X131750000Y-108025000D01*
X131750000Y-122525000D01*
X116750000Y-122525000D01*
X116750000Y-108025000D01*
%TO.C,R89*%
D12*
X93145000Y-104771359D02*
X93145000Y-105078641D01*
X93905000Y-104771359D02*
X93905000Y-105078641D01*
%TO.C,C73*%
X216440000Y-78892164D02*
X216440000Y-79107836D01*
X217160000Y-78892164D02*
X217160000Y-79107836D01*
%TO.C,R93*%
X69936359Y-117970000D02*
X70243641Y-117970000D01*
X69936359Y-118730000D02*
X70243641Y-118730000D01*
%TO.C,R57*%
X148455000Y-76138641D02*
X148455000Y-75831359D01*
X149215000Y-76138641D02*
X149215000Y-75831359D01*
%TO.C,U11*%
X165325500Y-71225914D02*
X165390500Y-71225914D01*
X165325500Y-75345914D02*
X165325500Y-71225914D01*
X165390500Y-75345914D02*
X165325500Y-75345914D01*
X174130500Y-71225914D02*
X174195500Y-71225914D01*
X174195500Y-71225914D02*
X174195500Y-75345914D01*
X174195500Y-75345914D02*
X174130500Y-75345914D01*
X174460500Y-70925914D02*
X174130500Y-70685914D01*
X174460500Y-70445914D01*
X174460500Y-70925914D01*
G36*
X174460500Y-70925914D02*
G01*
X174130500Y-70685914D01*
X174460500Y-70445914D01*
X174460500Y-70925914D01*
G37*
%TO.C,D1*%
D11*
X111125000Y-75425000D02*
X112525000Y-75425000D01*
X112525000Y-73625000D02*
X111125000Y-73625000D01*
X112525000Y-75425000D02*
X112525000Y-73625000D01*
%TO.C,C50*%
D12*
X136052500Y-117298752D02*
X136052500Y-116776248D01*
X137522500Y-117298752D02*
X137522500Y-116776248D01*
%TO.C,R6*%
X107320000Y-65746359D02*
X107320000Y-66053641D01*
X108080000Y-65746359D02*
X108080000Y-66053641D01*
%TO.C,R62*%
X114170000Y-100703641D02*
X114170000Y-100396359D01*
X114930000Y-100703641D02*
X114930000Y-100396359D01*
%TO.C,C78*%
X199446693Y-86930810D02*
X199294190Y-86778307D01*
X199955810Y-86421693D02*
X199803307Y-86269190D01*
%TO.C,R69*%
X211950000Y-72336359D02*
X211950000Y-72643641D01*
X212710000Y-72336359D02*
X212710000Y-72643641D01*
%TO.C,C94*%
X201982836Y-78765000D02*
X201767164Y-78765000D01*
X201982836Y-79485000D02*
X201767164Y-79485000D01*
%TO.C,C81*%
X208340000Y-82807836D02*
X208340000Y-82592164D01*
X209060000Y-82807836D02*
X209060000Y-82592164D01*
%TO.C,C83*%
X207390000Y-82807836D02*
X207390000Y-82592164D01*
X208110000Y-82807836D02*
X208110000Y-82592164D01*
%TO.C,R47*%
X90420000Y-65246359D02*
X90420000Y-65553641D01*
X91180000Y-65246359D02*
X91180000Y-65553641D01*
%TO.C,R32*%
X77438641Y-88045000D02*
X77131359Y-88045000D01*
X77438641Y-88805000D02*
X77131359Y-88805000D01*
%TO.C,C13*%
X110400000Y-79227836D02*
X110400000Y-79012164D01*
X111120000Y-79227836D02*
X111120000Y-79012164D01*
%TO.C,C75*%
X141015000Y-73257836D02*
X141015000Y-73042164D01*
X141735000Y-73257836D02*
X141735000Y-73042164D01*
%TO.C,R61*%
X155611359Y-65170000D02*
X155918641Y-65170000D01*
X155611359Y-65930000D02*
X155918641Y-65930000D01*
%TO.C,C63*%
X214862164Y-85240000D02*
X215077836Y-85240000D01*
X214862164Y-85960000D02*
X215077836Y-85960000D01*
%TO.C,C16*%
X122990000Y-105642164D02*
X122990000Y-105857836D01*
X123710000Y-105642164D02*
X123710000Y-105857836D01*
%TO.C,C86*%
X208240000Y-95142164D02*
X208240000Y-95357836D01*
X208960000Y-95142164D02*
X208960000Y-95357836D01*
%TO.C,R68*%
X210940000Y-74603641D02*
X210940000Y-74296359D01*
X211700000Y-74603641D02*
X211700000Y-74296359D01*
%TO.C,R34*%
X87427064Y-108290000D02*
X85972936Y-108290000D01*
X87427064Y-110110000D02*
X85972936Y-110110000D01*
%TO.C,Q2*%
X70540000Y-61715000D02*
X70590000Y-61715000D01*
X70540000Y-63235000D02*
X70540000Y-61715000D01*
X71540000Y-63235000D02*
X70540000Y-63235000D01*
X71710000Y-61715000D02*
X72490000Y-61715000D01*
X73610000Y-61715000D02*
X73660000Y-61715000D01*
X73660000Y-61715000D02*
X73660000Y-63235000D01*
X73660000Y-63235000D02*
X72660000Y-63235000D01*
X72480000Y-61175000D02*
X72150000Y-61415000D01*
X72150000Y-60935000D01*
X72480000Y-61175000D01*
G36*
X72480000Y-61175000D02*
G01*
X72150000Y-61415000D01*
X72150000Y-60935000D01*
X72480000Y-61175000D01*
G37*
%TO.C,C12*%
X125172164Y-84650000D02*
X125387836Y-84650000D01*
X125172164Y-85370000D02*
X125387836Y-85370000D01*
%TO.C,R26*%
X133020000Y-77803641D02*
X133020000Y-77496359D01*
X133780000Y-77803641D02*
X133780000Y-77496359D01*
%TO.C,R1*%
X114570000Y-112696359D02*
X114570000Y-113003641D01*
X115330000Y-112696359D02*
X115330000Y-113003641D01*
%TO.C,R94*%
X69936359Y-118970000D02*
X70243641Y-118970000D01*
X69936359Y-119730000D02*
X70243641Y-119730000D01*
%TO.C,U10*%
X110590000Y-100600000D02*
X110590000Y-103600000D01*
X113760000Y-103660000D02*
X113610000Y-103660000D01*
X113810000Y-100600000D02*
X113810000Y-103600000D01*
X114020000Y-100040000D02*
X113540000Y-100040000D01*
X113540000Y-99560000D01*
X114020000Y-100040000D01*
G36*
X114020000Y-100040000D02*
G01*
X113540000Y-100040000D01*
X113540000Y-99560000D01*
X114020000Y-100040000D01*
G37*
%TO.C,R91*%
X78596359Y-119320000D02*
X78903641Y-119320000D01*
X78596359Y-120080000D02*
X78903641Y-120080000D01*
%TO.C,Q5*%
X74290000Y-116440000D02*
X75290000Y-116440000D01*
X74290000Y-117960000D02*
X74290000Y-116440000D01*
X74340000Y-117960000D02*
X74290000Y-117960000D01*
X76240000Y-117960000D02*
X75460000Y-117960000D01*
X76410000Y-116440000D02*
X77410000Y-116440000D01*
X77410000Y-116440000D02*
X77410000Y-117960000D01*
X77410000Y-117960000D02*
X77360000Y-117960000D01*
X75800000Y-118740000D02*
X75470000Y-118500000D01*
X75800000Y-118260000D01*
X75800000Y-118740000D01*
G36*
X75800000Y-118740000D02*
G01*
X75470000Y-118500000D01*
X75800000Y-118260000D01*
X75800000Y-118740000D01*
G37*
%TO.C,R37*%
X124545000Y-62403641D02*
X124545000Y-62096359D01*
X125305000Y-62403641D02*
X125305000Y-62096359D01*
%TO.C,C68*%
X202682836Y-87715000D02*
X202467164Y-87715000D01*
X202682836Y-88435000D02*
X202467164Y-88435000D01*
%TO.C,C60*%
X160065000Y-75111252D02*
X160065000Y-74588748D01*
X161535000Y-75111252D02*
X161535000Y-74588748D01*
%TO.C,R25*%
X134921359Y-75545000D02*
X135228641Y-75545000D01*
X134921359Y-76305000D02*
X135228641Y-76305000D01*
%TO.C,C37*%
X160411252Y-107915000D02*
X159888748Y-107915000D01*
X160411252Y-109385000D02*
X159888748Y-109385000D01*
%TO.C,R30*%
X142653641Y-63220000D02*
X142346359Y-63220000D01*
X142653641Y-63980000D02*
X142346359Y-63980000D01*
%TO.C,R78*%
X217870000Y-81346359D02*
X217870000Y-81653641D01*
X218630000Y-81346359D02*
X218630000Y-81653641D01*
%TO.C,C90*%
X211900000Y-74322164D02*
X211900000Y-74537836D01*
X212620000Y-74322164D02*
X212620000Y-74537836D01*
%TO.C,C19*%
X130021693Y-69930810D02*
X129869190Y-69778307D01*
X130530810Y-69421693D02*
X130378307Y-69269190D01*
%TO.C,C84*%
X168242164Y-102840000D02*
X168457836Y-102840000D01*
X168242164Y-103560000D02*
X168457836Y-103560000D01*
%TO.C,C82*%
X206742164Y-80640000D02*
X206957836Y-80640000D01*
X206742164Y-81360000D02*
X206957836Y-81360000D01*
%TO.C,R8*%
X176356359Y-80245000D02*
X176663641Y-80245000D01*
X176356359Y-81005000D02*
X176663641Y-81005000D01*
%TO.C,R79*%
X193720000Y-83796359D02*
X193720000Y-84103641D01*
X194480000Y-83796359D02*
X194480000Y-84103641D01*
%TO.C,R73*%
X203973641Y-79600000D02*
X203666359Y-79600000D01*
X203973641Y-80360000D02*
X203666359Y-80360000D01*
%TO.C,C5*%
X109100000Y-79197836D02*
X109100000Y-78982164D01*
X109820000Y-79197836D02*
X109820000Y-78982164D01*
%TO.C,R40*%
X151677064Y-119040000D02*
X150222936Y-119040000D01*
X151677064Y-120860000D02*
X150222936Y-120860000D01*
%TO.C,R12*%
X122103641Y-105820000D02*
X121796359Y-105820000D01*
X122103641Y-106580000D02*
X121796359Y-106580000D01*
%TO.C,R7*%
X108120000Y-80446359D02*
X108120000Y-80753641D01*
X108880000Y-80446359D02*
X108880000Y-80753641D01*
%TO.C,R31*%
X77453641Y-87020000D02*
X77146359Y-87020000D01*
X77453641Y-87780000D02*
X77146359Y-87780000D01*
%TO.C,C15*%
X126310000Y-83722164D02*
X126310000Y-83937836D01*
X127030000Y-83722164D02*
X127030000Y-83937836D01*
%TO.C,R96*%
X170570000Y-104256359D02*
X170570000Y-104563641D01*
X171330000Y-104256359D02*
X171330000Y-104563641D01*
%TO.C,C4*%
X122342164Y-79090000D02*
X122557836Y-79090000D01*
X122342164Y-79810000D02*
X122557836Y-79810000D01*
%TO.C,R77*%
X219903641Y-81620000D02*
X219596359Y-81620000D01*
X219903641Y-82380000D02*
X219596359Y-82380000D01*
%TO.C,L5*%
X206358471Y-78771250D02*
X206684029Y-78771250D01*
X206358471Y-79791250D02*
X206684029Y-79791250D01*
%TO.C,C72*%
X212092164Y-83140000D02*
X212307836Y-83140000D01*
X212092164Y-83860000D02*
X212307836Y-83860000D01*
%TO.C,R14*%
X125020000Y-105621359D02*
X125020000Y-105928641D01*
X125780000Y-105621359D02*
X125780000Y-105928641D01*
%TO.C,C51*%
X160115000Y-111661252D02*
X160115000Y-111138748D01*
X161585000Y-111661252D02*
X161585000Y-111138748D01*
%TO.C,C11*%
X121092164Y-97640000D02*
X121307836Y-97640000D01*
X121092164Y-98360000D02*
X121307836Y-98360000D01*
%TO.C,C57*%
X154867164Y-68615000D02*
X155082836Y-68615000D01*
X154867164Y-69335000D02*
X155082836Y-69335000D01*
%TO.C,R4*%
X103046359Y-85420000D02*
X103353641Y-85420000D01*
X103046359Y-86180000D02*
X103353641Y-86180000D01*
%TO.C,R80*%
X192496359Y-84070000D02*
X192803641Y-84070000D01*
X192496359Y-84830000D02*
X192803641Y-84830000D01*
%TO.C,C66*%
X207092164Y-94440000D02*
X207307836Y-94440000D01*
X207092164Y-95160000D02*
X207307836Y-95160000D01*
%TO.C,U1*%
X108490000Y-81690000D02*
X109190000Y-81690000D01*
X108490000Y-82390000D02*
X108490000Y-81690000D01*
X108490000Y-95910000D02*
X108490000Y-95210000D01*
X109190000Y-95910000D02*
X108490000Y-95910000D01*
X122010000Y-81690000D02*
X122710000Y-81690000D01*
X122710000Y-81690000D02*
X122710000Y-82390000D01*
X122710000Y-95210000D02*
X122710000Y-95910000D01*
X122710000Y-95910000D02*
X122010000Y-95910000D01*
X123690000Y-95680000D02*
X123010000Y-95680000D01*
X123350000Y-95210000D01*
X123690000Y-95680000D01*
G36*
X123690000Y-95680000D02*
G01*
X123010000Y-95680000D01*
X123350000Y-95210000D01*
X123690000Y-95680000D01*
G37*
%TO.C,JP1*%
X110500000Y-61400000D02*
X110500000Y-58600000D01*
X111200000Y-57950000D02*
X111800000Y-57950000D01*
X111800000Y-62050000D02*
X111200000Y-62050000D01*
X112500000Y-58600000D02*
X112500000Y-61400000D01*
X110500000Y-58650000D02*
G75*
G02*
X111200000Y-57950000I700000J0D01*
G01*
X111200000Y-62050000D02*
G75*
G02*
X110500000Y-61350000I-1J699999D01*
G01*
X111800000Y-57950000D02*
G75*
G02*
X112500000Y-58650000I0J-700000D01*
G01*
X112500000Y-61350000D02*
G75*
G02*
X111800000Y-62050000I-699999J-1D01*
G01*
%TO.C,C35*%
X82940000Y-104742164D02*
X82940000Y-104957836D01*
X83660000Y-104742164D02*
X83660000Y-104957836D01*
%TO.C,C52*%
X132240000Y-103640000D02*
X134590000Y-103640000D01*
X132240000Y-109395563D02*
X132240000Y-103640000D01*
X133304437Y-110460000D02*
X132240000Y-109395563D01*
X133304437Y-110460000D02*
X134590000Y-110460000D01*
X133408750Y-111093750D02*
X134196250Y-111093750D01*
X133802500Y-111487500D02*
X133802500Y-110700000D01*
X137995563Y-110460000D02*
X136710000Y-110460000D01*
X137995563Y-110460000D02*
X139060000Y-109395563D01*
X139060000Y-103640000D02*
X136710000Y-103640000D01*
X139060000Y-109395563D02*
X139060000Y-103640000D01*
%TO.C,R2*%
X115670000Y-112953641D02*
X115670000Y-112646359D01*
X116430000Y-112953641D02*
X116430000Y-112646359D01*
%TO.C,R67*%
X200570000Y-88396359D02*
X200570000Y-88703641D01*
X201330000Y-88396359D02*
X201330000Y-88703641D01*
%TO.C,U8*%
X152677500Y-108627500D02*
X153402500Y-108627500D01*
X152677500Y-109352500D02*
X152677500Y-108627500D01*
X152677500Y-113847500D02*
X152677500Y-113122500D01*
X153402500Y-113847500D02*
X152677500Y-113847500D01*
X157172500Y-108627500D02*
X157897500Y-108627500D01*
X157897500Y-108627500D02*
X157897500Y-109352500D01*
X157897500Y-113122500D02*
X157897500Y-113847500D01*
X157897500Y-113847500D02*
X157172500Y-113847500D01*
X158727500Y-112977500D02*
X158397500Y-112737500D01*
X158727500Y-112497500D01*
X158727500Y-112977500D01*
G36*
X158727500Y-112977500D02*
G01*
X158397500Y-112737500D01*
X158727500Y-112497500D01*
X158727500Y-112977500D01*
G37*
%TO.C,C44*%
X143795336Y-107277500D02*
X143579664Y-107277500D01*
X143795336Y-107997500D02*
X143579664Y-107997500D01*
%TO.C,Q3*%
X79040000Y-61740000D02*
X79090000Y-61740000D01*
X79040000Y-63260000D02*
X79040000Y-61740000D01*
X80040000Y-63260000D02*
X79040000Y-63260000D01*
X80210000Y-61740000D02*
X80990000Y-61740000D01*
X82110000Y-61740000D02*
X82160000Y-61740000D01*
X82160000Y-61740000D02*
X82160000Y-63260000D01*
X82160000Y-63260000D02*
X81160000Y-63260000D01*
X80980000Y-61200000D02*
X80650000Y-61440000D01*
X80650000Y-60960000D01*
X80980000Y-61200000D01*
G36*
X80980000Y-61200000D02*
G01*
X80650000Y-61440000D01*
X80650000Y-60960000D01*
X80980000Y-61200000D01*
G37*
%TO.C,R38*%
X124545000Y-64403641D02*
X124545000Y-64096359D01*
X125305000Y-64403641D02*
X125305000Y-64096359D01*
%TO.C,R43*%
X117420000Y-99546359D02*
X117420000Y-99853641D01*
X118180000Y-99546359D02*
X118180000Y-99853641D01*
%TO.C,C39*%
X151627500Y-108445336D02*
X151627500Y-108229664D01*
X152347500Y-108445336D02*
X152347500Y-108229664D01*
%TO.C,R11*%
X119246359Y-105620000D02*
X119553641Y-105620000D01*
X119246359Y-106380000D02*
X119553641Y-106380000D01*
%TO.C,C91*%
X212950000Y-72577836D02*
X212950000Y-72362164D01*
X213670000Y-72577836D02*
X213670000Y-72362164D01*
%TO.C,R16*%
X126371359Y-74870000D02*
X126678641Y-74870000D01*
X126371359Y-75630000D02*
X126678641Y-75630000D01*
%TO.C,U13*%
X204265000Y-84540000D02*
X204740000Y-84540000D01*
X204265000Y-85015000D02*
X204265000Y-84540000D01*
X204265000Y-93760000D02*
X204265000Y-93285000D01*
X204740000Y-93760000D02*
X204265000Y-93760000D01*
X213010000Y-84540000D02*
X213485000Y-84540000D01*
X213485000Y-84540000D02*
X213485000Y-85015000D01*
X213485000Y-93285000D02*
X213485000Y-93760000D01*
X213485000Y-93760000D02*
X213010000Y-93760000D01*
X203735000Y-85400000D02*
X203405000Y-85640000D01*
X203405000Y-85160000D01*
X203735000Y-85400000D01*
G36*
X203735000Y-85400000D02*
G01*
X203405000Y-85640000D01*
X203405000Y-85160000D01*
X203735000Y-85400000D01*
G37*
%TO.C,R49*%
X73546359Y-67470000D02*
X73853641Y-67470000D01*
X73546359Y-68230000D02*
X73853641Y-68230000D01*
%TO.C,C21*%
X127090000Y-73477836D02*
X127090000Y-73262164D01*
X127810000Y-73477836D02*
X127810000Y-73262164D01*
%TO.C,Y2*%
X199147380Y-85341421D02*
X200858579Y-87052620D01*
X200858579Y-87052620D02*
X202852620Y-85058579D01*
%TO.C,C42*%
X146726248Y-113402500D02*
X147248752Y-113402500D01*
X146726248Y-114872500D02*
X147248752Y-114872500D01*
%TO.C,C38*%
X139777500Y-107670336D02*
X139777500Y-107454664D01*
X140497500Y-107670336D02*
X140497500Y-107454664D01*
%TO.C,C43*%
X159526248Y-113402500D02*
X160048752Y-113402500D01*
X159526248Y-114872500D02*
X160048752Y-114872500D01*
%TO.C,C28*%
X72515000Y-90938748D02*
X72515000Y-91461252D01*
X73985000Y-90938748D02*
X73985000Y-91461252D01*
%TO.C,R27*%
X138971359Y-72745000D02*
X139278641Y-72745000D01*
X138971359Y-73505000D02*
X139278641Y-73505000D01*
%TO.C,R18*%
X126371359Y-76720000D02*
X126678641Y-76720000D01*
X126371359Y-77480000D02*
X126678641Y-77480000D01*
%TO.C,L3*%
X76400000Y-91450000D02*
X76400000Y-92950000D01*
X76400000Y-98250000D02*
X76400000Y-96750000D01*
X76400000Y-98250000D02*
X83800000Y-98250000D01*
X83800000Y-91450000D02*
X76400000Y-91450000D01*
X83800000Y-91450000D02*
X83800000Y-92950000D01*
X83800000Y-98250000D02*
X83800000Y-96750000D01*
%TO.C,R33*%
X75420000Y-87746359D02*
X75420000Y-88053641D01*
X76180000Y-87746359D02*
X76180000Y-88053641D01*
%TO.C,L8*%
X212862779Y-81790000D02*
X212537221Y-81790000D01*
X212862779Y-82810000D02*
X212537221Y-82810000D01*
%TO.C,C55*%
X162888748Y-64265000D02*
X163411252Y-64265000D01*
X162888748Y-65735000D02*
X163411252Y-65735000D01*
%TO.C,C88*%
X172715000Y-115417164D02*
X172715000Y-115632836D01*
X173435000Y-115417164D02*
X173435000Y-115632836D01*
%TO.C,C49*%
X148726248Y-111002500D02*
X149248752Y-111002500D01*
X148726248Y-112472500D02*
X149248752Y-112472500D01*
%TO.C,R82*%
X192695000Y-61778641D02*
X192695000Y-61471359D01*
X193455000Y-61778641D02*
X193455000Y-61471359D01*
%TO.C,C98*%
X171938748Y-117315000D02*
X172461252Y-117315000D01*
X171938748Y-118785000D02*
X172461252Y-118785000D01*
%TO.C,C62*%
X172928336Y-77128414D02*
X172712664Y-77128414D01*
X172928336Y-77848414D02*
X172712664Y-77848414D01*
%TO.C,C40*%
X138248752Y-113402500D02*
X137726248Y-113402500D01*
X138248752Y-114872500D02*
X137726248Y-114872500D01*
%TO.C,C1*%
X125172164Y-91840000D02*
X125387836Y-91840000D01*
X125172164Y-92560000D02*
X125387836Y-92560000D01*
%TO.C,D8*%
D11*
X68750000Y-110500000D02*
X68750000Y-112300000D01*
X68750000Y-112300000D02*
X70150000Y-112300000D01*
X70150000Y-110500000D02*
X68750000Y-110500000D01*
%TO.C,Q6*%
D12*
X65790000Y-116440000D02*
X66790000Y-116440000D01*
X65790000Y-117960000D02*
X65790000Y-116440000D01*
X65840000Y-117960000D02*
X65790000Y-117960000D01*
X67740000Y-117960000D02*
X66960000Y-117960000D01*
X67910000Y-116440000D02*
X68910000Y-116440000D01*
X68910000Y-116440000D02*
X68910000Y-117960000D01*
X68910000Y-117960000D02*
X68860000Y-117960000D01*
X67300000Y-118740000D02*
X66970000Y-118500000D01*
X67300000Y-118260000D01*
X67300000Y-118740000D01*
G36*
X67300000Y-118740000D02*
G01*
X66970000Y-118500000D01*
X67300000Y-118260000D01*
X67300000Y-118740000D01*
G37*
%TO.C,JP3*%
X120700000Y-61400000D02*
X120700000Y-58600000D01*
X121400000Y-57950000D02*
X122000000Y-57950000D01*
X122000000Y-62050000D02*
X121400000Y-62050000D01*
X122700000Y-58600000D02*
X122700000Y-61400000D01*
X120700000Y-58650000D02*
G75*
G02*
X121400000Y-57950000I700000J0D01*
G01*
X121400000Y-62050000D02*
G75*
G02*
X120700000Y-61350000I-1J699999D01*
G01*
X122000000Y-57950000D02*
G75*
G02*
X122700000Y-58650000I0J-700000D01*
G01*
X122700000Y-61350000D02*
G75*
G02*
X122000000Y-62050000I-699999J-1D01*
G01*
%TO.C,R51*%
X71946359Y-59620000D02*
X72253641Y-59620000D01*
X71946359Y-60380000D02*
X72253641Y-60380000D01*
%TO.C,R5*%
X106253641Y-81520000D02*
X105946359Y-81520000D01*
X106253641Y-82280000D02*
X105946359Y-82280000D01*
%TO.C,C10*%
X125172164Y-83680000D02*
X125387836Y-83680000D01*
X125172164Y-84400000D02*
X125387836Y-84400000D01*
%TO.C,R76*%
X128970000Y-81478641D02*
X128970000Y-81171359D01*
X129730000Y-81478641D02*
X129730000Y-81171359D01*
%TO.C,C71*%
X208807836Y-80940000D02*
X208592164Y-80940000D01*
X208807836Y-81660000D02*
X208592164Y-81660000D01*
%TO.C,R3*%
X132996359Y-100120000D02*
X133303641Y-100120000D01*
X132996359Y-100880000D02*
X133303641Y-100880000D01*
%TO.C,C41*%
X151048752Y-113402500D02*
X150526248Y-113402500D01*
X151048752Y-114872500D02*
X150526248Y-114872500D01*
%TO.C,U5*%
X93490000Y-75990000D02*
X94750000Y-75990000D01*
X93490000Y-79750000D02*
X93490000Y-75990000D01*
X100310000Y-75990000D02*
X99050000Y-75990000D01*
X100310000Y-79750000D02*
X100310000Y-75990000D01*
X93590000Y-81030000D02*
X93260000Y-81270000D01*
X93260000Y-80790000D01*
X93590000Y-81030000D01*
G36*
X93590000Y-81030000D02*
G01*
X93260000Y-81270000D01*
X93260000Y-80790000D01*
X93590000Y-81030000D01*
G37*
%TO.C,R13*%
X123895000Y-105396359D02*
X123895000Y-105703641D01*
X124655000Y-105396359D02*
X124655000Y-105703641D01*
%TO.C,C69*%
X202482836Y-88640000D02*
X202267164Y-88640000D01*
X202482836Y-89360000D02*
X202267164Y-89360000D01*
%TO.C,R65*%
X208220000Y-78296359D02*
X208220000Y-78603641D01*
X208980000Y-78296359D02*
X208980000Y-78603641D01*
%TO.C,C85*%
X215990000Y-96842164D02*
X215990000Y-97057836D01*
X216710000Y-96842164D02*
X216710000Y-97057836D01*
%TO.C,R70*%
X211250000Y-78563641D02*
X211250000Y-78256359D01*
X212010000Y-78563641D02*
X212010000Y-78256359D01*
%TO.C,C23*%
X132742164Y-73190000D02*
X132957836Y-73190000D01*
X132742164Y-73910000D02*
X132957836Y-73910000D01*
%TO.C,C93*%
X211990000Y-76577836D02*
X211990000Y-76362164D01*
X212710000Y-76577836D02*
X212710000Y-76362164D01*
%TO.C,R59*%
X156978641Y-68595000D02*
X156671359Y-68595000D01*
X156978641Y-69355000D02*
X156671359Y-69355000D01*
%TO.C,D7*%
D11*
X193525000Y-82900000D02*
X194925000Y-82900000D01*
X194925000Y-81100000D02*
X193525000Y-81100000D01*
X194925000Y-82900000D02*
X194925000Y-81100000D01*
%TO.C,R55*%
D12*
X81920000Y-65246359D02*
X81920000Y-65553641D01*
X82680000Y-65246359D02*
X82680000Y-65553641D01*
%TO.C,R85*%
X215995000Y-93771359D02*
X215995000Y-94078641D01*
X216755000Y-93771359D02*
X216755000Y-94078641D01*
%TO.C,U12*%
X167040000Y-106250000D02*
X167040000Y-105450000D01*
X167040000Y-106250000D02*
X167040000Y-107050000D01*
X170260000Y-107250000D02*
X170260000Y-105450000D01*
X167090000Y-107550000D02*
X166760000Y-107790000D01*
X166760000Y-107310000D01*
X167090000Y-107550000D01*
G36*
X167090000Y-107550000D02*
G01*
X166760000Y-107790000D01*
X166760000Y-107310000D01*
X167090000Y-107550000D01*
G37*
%TO.C,R74*%
X196566359Y-79720000D02*
X196873641Y-79720000D01*
X196566359Y-80480000D02*
X196873641Y-80480000D01*
%TO.C,R10*%
X107895000Y-76221359D02*
X107895000Y-76528641D01*
X108655000Y-76221359D02*
X108655000Y-76528641D01*
%TO.C,C27*%
X74515000Y-90938748D02*
X74515000Y-91461252D01*
X75985000Y-90938748D02*
X75985000Y-91461252D01*
%TO.C,C97*%
X198632164Y-78760000D02*
X198847836Y-78760000D01*
X198632164Y-79480000D02*
X198847836Y-79480000D01*
%TO.C,C76*%
X172411252Y-105615000D02*
X171888748Y-105615000D01*
X172411252Y-107085000D02*
X171888748Y-107085000D01*
%TO.C,U16*%
X219985000Y-86995000D02*
X219985000Y-97275000D01*
X219985000Y-97275000D02*
X221235000Y-97275000D01*
X223235000Y-97275000D02*
X224485000Y-97275000D01*
X224485000Y-86995000D02*
X219985000Y-86995000D01*
X224485000Y-97275000D02*
X224485000Y-86995000D01*
X216985000Y-86935000D02*
X227485000Y-86935000D01*
X227485000Y-97335000D01*
X216985000Y-97335000D01*
X216985000Y-86935000D01*
X221235000Y-97275000D02*
G75*
G02*
X223235000Y-97275000I1000000J0D01*
G01*
%TO.C,R72*%
X201696359Y-79720000D02*
X202003641Y-79720000D01*
X201696359Y-80480000D02*
X202003641Y-80480000D01*
%TO.C,R81*%
X211295000Y-61778641D02*
X211295000Y-61471359D01*
X212055000Y-61778641D02*
X212055000Y-61471359D01*
%TO.C,C30*%
X77152164Y-89065000D02*
X77367836Y-89065000D01*
X77152164Y-89785000D02*
X77367836Y-89785000D01*
%TO.C,L6*%
X163590000Y-78405279D02*
X163590000Y-78079721D01*
X164610000Y-78405279D02*
X164610000Y-78079721D01*
%TO.C,R75*%
X198903641Y-79710000D02*
X198596359Y-79710000D01*
X198903641Y-80470000D02*
X198596359Y-80470000D01*
%TO.C,R15*%
X149546359Y-63270000D02*
X149853641Y-63270000D01*
X149546359Y-64030000D02*
X149853641Y-64030000D01*
%TO.C,R46*%
X140396359Y-105720000D02*
X140703641Y-105720000D01*
X140396359Y-106480000D02*
X140703641Y-106480000D01*
%TO.C,JP2*%
X100300000Y-61400000D02*
X100300000Y-58600000D01*
X101000000Y-57950000D02*
X101600000Y-57950000D01*
X101600000Y-62050000D02*
X101000000Y-62050000D01*
X102300000Y-58600000D02*
X102300000Y-61400000D01*
X100300000Y-58650000D02*
G75*
G02*
X101000000Y-57950000I700000J0D01*
G01*
X101000000Y-62050000D02*
G75*
G02*
X100300000Y-61350000I-1J699999D01*
G01*
X101600000Y-57950000D02*
G75*
G02*
X102300000Y-58650000I0J-700000D01*
G01*
X102300000Y-61350000D02*
G75*
G02*
X101600000Y-62050000I-699999J-1D01*
G01*
%TO.C,C96*%
X196857836Y-78770000D02*
X196642164Y-78770000D01*
X196857836Y-79490000D02*
X196642164Y-79490000D01*
%TO.C,SW1*%
X108400000Y-108450000D02*
X108400000Y-110450000D01*
X109450000Y-107150000D02*
X109900000Y-106700000D01*
X109450000Y-111750000D02*
X109900000Y-112200000D01*
X109900000Y-106700000D02*
X112400000Y-106700000D01*
X109900000Y-112200000D02*
X112400000Y-112200000D01*
X112850000Y-107150000D02*
X112400000Y-106700000D01*
X112850000Y-111750000D02*
X112400000Y-112200000D01*
X113900000Y-108450000D02*
X113900000Y-110450000D01*
%TO.C,R28*%
X137220000Y-73396359D02*
X137220000Y-73703641D01*
X137980000Y-73396359D02*
X137980000Y-73703641D01*
%TO.C,C14*%
X128147836Y-84470000D02*
X127932164Y-84470000D01*
X128147836Y-85190000D02*
X127932164Y-85190000D01*
%TO.C,L9*%
X198490000Y-72262221D02*
X198490000Y-72587779D01*
X199510000Y-72262221D02*
X199510000Y-72587779D01*
%TO.C,R52*%
X115996359Y-78070000D02*
X116303641Y-78070000D01*
X115996359Y-78830000D02*
X116303641Y-78830000D01*
%TO.C,R42*%
X157077064Y-119040000D02*
X155622936Y-119040000D01*
X157077064Y-120860000D02*
X155622936Y-120860000D01*
%TO.C,R54*%
X115946359Y-76870000D02*
X116253641Y-76870000D01*
X115946359Y-77630000D02*
X116253641Y-77630000D01*
%TO.C,C74*%
X203290000Y-83907836D02*
X203290000Y-83692164D01*
X204010000Y-83907836D02*
X204010000Y-83692164D01*
%TO.C,C80*%
X172411252Y-107615000D02*
X171888748Y-107615000D01*
X172411252Y-109085000D02*
X171888748Y-109085000D01*
%TO.C,R58*%
X152971359Y-68595000D02*
X153278641Y-68595000D01*
X152971359Y-69355000D02*
X153278641Y-69355000D01*
%TO.C,L4*%
X159599622Y-64415000D02*
X158800378Y-64415000D01*
X159599622Y-65535000D02*
X158800378Y-65535000D01*
%TO.C,U9*%
X149552500Y-76790000D02*
X149607500Y-76790000D01*
X149552500Y-80910000D02*
X149552500Y-76790000D01*
X149607500Y-80910000D02*
X149552500Y-80910000D01*
X159617500Y-76790000D02*
X159672500Y-76790000D01*
X159672500Y-76790000D02*
X159672500Y-80910000D01*
X159672500Y-80910000D02*
X159617500Y-80910000D01*
X159952500Y-76490000D02*
X159622500Y-76250000D01*
X159952500Y-76010000D01*
X159952500Y-76490000D01*
G36*
X159952500Y-76490000D02*
G01*
X159622500Y-76250000D01*
X159952500Y-76010000D01*
X159952500Y-76490000D01*
G37*
%TO.C,R9*%
X178603641Y-76795000D02*
X178296359Y-76795000D01*
X178603641Y-77555000D02*
X178296359Y-77555000D01*
%TO.C,L1*%
X128802779Y-82840000D02*
X128477221Y-82840000D01*
X128802779Y-83860000D02*
X128477221Y-83860000D01*
%TO.C,R39*%
X139027064Y-119040000D02*
X137572936Y-119040000D01*
X139027064Y-120860000D02*
X137572936Y-120860000D01*
%TO.C,C24*%
X135615000Y-79688748D02*
X135615000Y-80211252D01*
X137085000Y-79688748D02*
X137085000Y-80211252D01*
%TO.C,C45*%
X145727500Y-111145336D02*
X145727500Y-110929664D01*
X146447500Y-111145336D02*
X146447500Y-110929664D01*
%TO.C,R48*%
X88946359Y-59620000D02*
X89253641Y-59620000D01*
X88946359Y-60380000D02*
X89253641Y-60380000D01*
%TO.C,C61*%
X112572164Y-99120000D02*
X112787836Y-99120000D01*
X112572164Y-99840000D02*
X112787836Y-99840000D01*
%TO.C,C17*%
X127619190Y-69521693D02*
X127771693Y-69369190D01*
X128128307Y-70030810D02*
X128280810Y-69878307D01*
%TO.C,C92*%
X212230000Y-78332164D02*
X212230000Y-78547836D01*
X212950000Y-78332164D02*
X212950000Y-78547836D01*
%TO.C,C33*%
X99938748Y-82565000D02*
X100461252Y-82565000D01*
X99938748Y-84035000D02*
X100461252Y-84035000D01*
%TO.C,R92*%
X75963641Y-119270000D02*
X75656359Y-119270000D01*
X75963641Y-120030000D02*
X75656359Y-120030000D01*
%TO.C,D6*%
D11*
X220950000Y-81100000D02*
X220950000Y-82900000D01*
X220950000Y-82900000D02*
X222350000Y-82900000D01*
X222350000Y-81100000D02*
X220950000Y-81100000D01*
%TO.C,L7*%
D12*
X207347221Y-75470000D02*
X207672779Y-75470000D01*
X207347221Y-76490000D02*
X207672779Y-76490000D01*
%TO.C,C18*%
X126607836Y-75815000D02*
X126392164Y-75815000D01*
X126607836Y-76535000D02*
X126392164Y-76535000D01*
%TO.C,R84*%
X215568641Y-87195000D02*
X215261359Y-87195000D01*
X215568641Y-87955000D02*
X215261359Y-87955000D01*
%TO.C,C47*%
X158527500Y-111045336D02*
X158527500Y-110829664D01*
X159247500Y-111045336D02*
X159247500Y-110829664D01*
%TO.C,D3*%
D11*
X67850000Y-67100000D02*
X67850000Y-68900000D01*
X67850000Y-68900000D02*
X69250000Y-68900000D01*
X69250000Y-67100000D02*
X67850000Y-67100000D01*
%TO.C,R35*%
D12*
X105603641Y-112820000D02*
X105296359Y-112820000D01*
X105603641Y-113580000D02*
X105296359Y-113580000D01*
%TO.C,D5*%
D11*
X77250000Y-110450000D02*
X77250000Y-112250000D01*
X77250000Y-112250000D02*
X78650000Y-112250000D01*
X78650000Y-110450000D02*
X77250000Y-110450000D01*
%TO.C,C64*%
D12*
X214822164Y-91100000D02*
X215037836Y-91100000D01*
X214822164Y-91820000D02*
X215037836Y-91820000D01*
%TO.C,C7*%
X122912164Y-96240000D02*
X123127836Y-96240000D01*
X122912164Y-96960000D02*
X123127836Y-96960000D01*
%TO.C,R66*%
X213845000Y-61778641D02*
X213845000Y-61471359D01*
X214605000Y-61778641D02*
X214605000Y-61471359D01*
%TO.C,C54*%
X161667164Y-67565000D02*
X161882836Y-67565000D01*
X161667164Y-68285000D02*
X161882836Y-68285000D01*
%TO.C,R20*%
X127903641Y-79370000D02*
X127596359Y-79370000D01*
X127903641Y-80130000D02*
X127596359Y-80130000D01*
%TO.C,R63*%
X114070000Y-103096359D02*
X114070000Y-103403641D01*
X114830000Y-103096359D02*
X114830000Y-103403641D01*
%TO.C,C77*%
X199369190Y-83746693D02*
X199521693Y-83594190D01*
X199878307Y-84255810D02*
X200030810Y-84103307D01*
%TO.C,R71*%
X210960000Y-76336359D02*
X210960000Y-76643641D01*
X211720000Y-76336359D02*
X211720000Y-76643641D01*
%TO.C,C31*%
X85438748Y-91165000D02*
X85961252Y-91165000D01*
X85438748Y-92635000D02*
X85961252Y-92635000D01*
%TO.C,R86*%
X195245000Y-61778641D02*
X195245000Y-61471359D01*
X196005000Y-61778641D02*
X196005000Y-61471359D01*
%TO.C,R88*%
X173645000Y-115678641D02*
X173645000Y-115371359D01*
X174405000Y-115678641D02*
X174405000Y-115371359D01*
%TO.C,J5*%
X83100000Y-116707500D02*
X83100000Y-118707500D01*
X83100000Y-120607500D02*
X83100000Y-122507500D01*
X83100000Y-122507500D02*
X92500000Y-122507500D01*
X92500000Y-116707500D02*
X92500000Y-118707500D01*
X92500000Y-120607500D02*
X92500000Y-122507500D01*
%TO.C,R41*%
X144364564Y-119040000D02*
X142910436Y-119040000D01*
X144364564Y-120860000D02*
X142910436Y-120860000D01*
%TO.C,C56*%
X148500000Y-77802164D02*
X148500000Y-78017836D01*
X149220000Y-77802164D02*
X149220000Y-78017836D01*
%TO.C,U2*%
X128090000Y-74190000D02*
X128565000Y-74190000D01*
X128090000Y-74665000D02*
X128090000Y-74190000D01*
X128090000Y-78410000D02*
X128090000Y-77935000D01*
X128565000Y-78410000D02*
X128090000Y-78410000D01*
X131835000Y-74190000D02*
X132310000Y-74190000D01*
X132310000Y-74190000D02*
X132310000Y-74665000D01*
X132310000Y-77935000D02*
X132310000Y-78410000D01*
X132310000Y-78410000D02*
X131835000Y-78410000D01*
X131450000Y-73660000D02*
X131210000Y-73330000D01*
X131690000Y-73330000D01*
X131450000Y-73660000D01*
G36*
X131450000Y-73660000D02*
G01*
X131210000Y-73330000D01*
X131690000Y-73330000D01*
X131450000Y-73660000D01*
G37*
%TO.C,Q4*%
X161410000Y-76715000D02*
X160760000Y-76715000D01*
X161410000Y-76715000D02*
X162060000Y-76715000D01*
X161410000Y-79835000D02*
X160760000Y-79835000D01*
X161410000Y-79835000D02*
X163085000Y-79835000D01*
%TO.C,J6*%
X106000000Y-116657500D02*
X106000000Y-118657500D01*
X106000000Y-120557500D02*
X106000000Y-122457500D01*
X106000000Y-122457500D02*
X115400000Y-122457500D01*
X115400000Y-116657500D02*
X115400000Y-118657500D01*
X115400000Y-120557500D02*
X115400000Y-122457500D01*
%TO.C,C20*%
X126140000Y-73477836D02*
X126140000Y-73262164D01*
X126860000Y-73477836D02*
X126860000Y-73262164D01*
%TO.C,C32*%
X85438748Y-89165000D02*
X85961252Y-89165000D01*
X85438748Y-90635000D02*
X85961252Y-90635000D01*
%TO.C,R24*%
X134670000Y-72253641D02*
X134670000Y-71946359D01*
X135430000Y-72253641D02*
X135430000Y-71946359D01*
%TO.C,C87*%
X214100000Y-89827836D02*
X214100000Y-89612164D01*
X214820000Y-89827836D02*
X214820000Y-89612164D01*
%TO.C,SW2*%
X125350000Y-99425000D02*
X125350000Y-97425000D01*
X126400000Y-96125000D02*
X126850000Y-95675000D01*
X126400000Y-100725000D02*
X126850000Y-101175000D01*
X129350000Y-95675000D02*
X126850000Y-95675000D01*
X129350000Y-101175000D02*
X126850000Y-101175000D01*
X129800000Y-96125000D02*
X129350000Y-95675000D01*
X129800000Y-100725000D02*
X129350000Y-101175000D01*
X130850000Y-99425000D02*
X130850000Y-97425000D01*
%TO.C,L2*%
X134090000Y-79362779D02*
X134090000Y-79037221D01*
X135110000Y-79362779D02*
X135110000Y-79037221D01*
%TO.C,R17*%
X124196359Y-73645000D02*
X124503641Y-73645000D01*
X124196359Y-74405000D02*
X124503641Y-74405000D01*
%TO.C,C89*%
X165111252Y-117315000D02*
X164588748Y-117315000D01*
X165111252Y-118785000D02*
X164588748Y-118785000D01*
%TO.C,R64*%
X199120000Y-89821359D02*
X199120000Y-90128641D01*
X199880000Y-89821359D02*
X199880000Y-90128641D01*
%TO.C,C46*%
X156195336Y-107077500D02*
X155979664Y-107077500D01*
X156195336Y-107797500D02*
X155979664Y-107797500D01*
%TO.C,C2*%
X125467164Y-88940000D02*
X125682836Y-88940000D01*
X125467164Y-89660000D02*
X125682836Y-89660000D01*
%TO.C,C6*%
X107500000Y-96022164D02*
X107500000Y-96237836D01*
X108220000Y-96022164D02*
X108220000Y-96237836D01*
%TO.C,C95*%
X203692164Y-78660000D02*
X203907836Y-78660000D01*
X203692164Y-79380000D02*
X203907836Y-79380000D01*
%TO.C,D4*%
D11*
X76350000Y-67100000D02*
X76350000Y-68900000D01*
X76350000Y-68900000D02*
X77750000Y-68900000D01*
X77750000Y-67100000D02*
X76350000Y-67100000D01*
%TO.C,R44*%
D12*
X152670000Y-104623641D02*
X152670000Y-104316359D01*
X153430000Y-104623641D02*
X153430000Y-104316359D01*
%TO.C,C9*%
X108140000Y-78807836D02*
X108140000Y-78592164D01*
X108860000Y-78807836D02*
X108860000Y-78592164D01*
%TO.C,C65*%
X212357836Y-94440000D02*
X212142164Y-94440000D01*
X212357836Y-95160000D02*
X212142164Y-95160000D01*
%TO.C,U4*%
X73135000Y-96360000D02*
X72335000Y-96360000D01*
X73135000Y-96360000D02*
X73935000Y-96360000D01*
X74135000Y-93140000D02*
X72335000Y-93140000D01*
X74675000Y-96640000D02*
X74195000Y-96640000D01*
X74435000Y-96310000D01*
X74675000Y-96640000D01*
G36*
X74675000Y-96640000D02*
G01*
X74195000Y-96640000D01*
X74435000Y-96310000D01*
X74675000Y-96640000D01*
G37*
%TO.C,R95*%
X67603641Y-119320000D02*
X67296359Y-119320000D01*
X67603641Y-120080000D02*
X67296359Y-120080000D01*
%TO.C,R56*%
X80446359Y-59620000D02*
X80753641Y-59620000D01*
X80446359Y-60380000D02*
X80753641Y-60380000D01*
%TO.C,D2*%
D11*
X84810000Y-67150000D02*
X84810000Y-68950000D01*
X84810000Y-68950000D02*
X86210000Y-68950000D01*
X86210000Y-67150000D02*
X84810000Y-67150000D01*
%TO.C,C59*%
D12*
X158577836Y-82690000D02*
X158362164Y-82690000D01*
X158577836Y-83410000D02*
X158362164Y-83410000D01*
%TO.C,R83*%
X216033641Y-88970000D02*
X215726359Y-88970000D01*
X216033641Y-89730000D02*
X215726359Y-89730000D01*
%TO.C,R87*%
X170570000Y-102381359D02*
X170570000Y-102688641D01*
X171330000Y-102381359D02*
X171330000Y-102688641D01*
%TO.C,Y1*%
X127447380Y-71058579D02*
X129441421Y-73052620D01*
X129158579Y-69347380D02*
X127447380Y-71058579D01*
%TO.C,C3*%
X115390000Y-110907836D02*
X115390000Y-110692164D01*
X116110000Y-110907836D02*
X116110000Y-110692164D01*
%TO.C,R29*%
X138596359Y-63270000D02*
X138903641Y-63270000D01*
X138596359Y-64030000D02*
X138903641Y-64030000D01*
%TO.C,C34*%
X96065000Y-69161252D02*
X96065000Y-68638748D01*
X97535000Y-69161252D02*
X97535000Y-68638748D01*
%TO.C,R50*%
X73420000Y-65246359D02*
X73420000Y-65553641D01*
X74180000Y-65246359D02*
X74180000Y-65553641D01*
%TO.C,Q1*%
X87540000Y-61840000D02*
X87590000Y-61840000D01*
X87540000Y-63360000D02*
X87540000Y-61840000D01*
X88540000Y-63360000D02*
X87540000Y-63360000D01*
X88710000Y-61840000D02*
X89490000Y-61840000D01*
X90610000Y-61840000D02*
X90660000Y-61840000D01*
X90660000Y-61840000D02*
X90660000Y-63360000D01*
X90660000Y-63360000D02*
X89660000Y-63360000D01*
X89480000Y-61300000D02*
X89150000Y-61540000D01*
X89150000Y-61060000D01*
X89480000Y-61300000D01*
G36*
X89480000Y-61300000D02*
G01*
X89150000Y-61540000D01*
X89150000Y-61060000D01*
X89480000Y-61300000D01*
G37*
%TO.C,R90*%
X78596359Y-118320000D02*
X78903641Y-118320000D01*
X78596359Y-119080000D02*
X78903641Y-119080000D01*
%TO.C,C67*%
X202915000Y-92367164D02*
X202915000Y-92582836D01*
X203635000Y-92367164D02*
X203635000Y-92582836D01*
%TO.C,C70*%
X202682836Y-86790000D02*
X202467164Y-86790000D01*
X202682836Y-87510000D02*
X202467164Y-87510000D01*
%TO.C,R36*%
X112543641Y-112370000D02*
X112236359Y-112370000D01*
X112543641Y-113130000D02*
X112236359Y-113130000D01*
%TO.C,C36*%
X147548752Y-108402500D02*
X147026248Y-108402500D01*
X147548752Y-109872500D02*
X147026248Y-109872500D01*
%TO.C,C53*%
X159890000Y-100640000D02*
X162240000Y-100640000D01*
X159890000Y-106395563D02*
X159890000Y-100640000D01*
X160954437Y-107460000D02*
X159890000Y-106395563D01*
X160954437Y-107460000D02*
X162240000Y-107460000D01*
X161058750Y-108093750D02*
X161846250Y-108093750D01*
X161452500Y-108487500D02*
X161452500Y-107700000D01*
X165645563Y-107460000D02*
X164360000Y-107460000D01*
X165645563Y-107460000D02*
X166710000Y-106395563D01*
X166710000Y-100640000D02*
X164360000Y-100640000D01*
X166710000Y-106395563D02*
X166710000Y-100640000D01*
%TO.C,J1*%
D11*
X99300000Y-96050000D02*
X99300000Y-98550000D01*
X100100000Y-89700000D02*
X100100000Y-93000000D01*
X100100000Y-89700000D02*
X105100000Y-89700000D01*
X100100000Y-104900000D02*
X100100000Y-101600000D01*
X100100000Y-104900000D02*
X105100000Y-104900000D01*
X105100000Y-89700000D02*
X105100000Y-93000000D01*
X105100000Y-104900000D02*
X105100000Y-101600000D01*
X98790000Y-93490000D02*
G75*
G02*
X97520000Y-93490000I-635000J0D01*
G01*
X97520000Y-93490000D02*
G75*
G02*
X98790000Y-93490000I635000J0D01*
G01*
%TO.C,R53*%
D12*
X82056359Y-67470000D02*
X82363641Y-67470000D01*
X82056359Y-68230000D02*
X82363641Y-68230000D01*
%TO.C,C58*%
X199940000Y-73107836D02*
X199940000Y-72892164D01*
X200660000Y-73107836D02*
X200660000Y-72892164D01*
%TO.C,L10*%
X165100000Y-109500000D02*
X165100000Y-116900000D01*
X165100000Y-109500000D02*
X166600000Y-109500000D01*
X165100000Y-116900000D02*
X166600000Y-116900000D01*
X171900000Y-109500000D02*
X170400000Y-109500000D01*
X171900000Y-116900000D02*
X170400000Y-116900000D01*
X171900000Y-116900000D02*
X171900000Y-109500000D01*
%TO.C,C22*%
X132090000Y-79367164D02*
X132090000Y-79582836D01*
X132810000Y-79367164D02*
X132810000Y-79582836D01*
%TO.C,C48*%
X149148752Y-115802500D02*
X148626248Y-115802500D01*
X149148752Y-117272500D02*
X148626248Y-117272500D01*
%TO.C,C79*%
X206440000Y-82507836D02*
X206440000Y-82292164D01*
X207160000Y-82507836D02*
X207160000Y-82292164D01*
%TO.C,R60*%
X155928641Y-64170000D02*
X155621359Y-64170000D01*
X155928641Y-64930000D02*
X155621359Y-64930000D01*
%TD*%
%LPC*%
%TO.C,JP1*%
G36*
X110750000Y-59250000D02*
G01*
X112250000Y-59250000D01*
X112250000Y-60750000D01*
X110750000Y-60750000D01*
X110750000Y-59250000D01*
G37*
%TO.C,JP3*%
G36*
X120950000Y-59250000D02*
G01*
X122450000Y-59250000D01*
X122450000Y-60750000D01*
X120950000Y-60750000D01*
X120950000Y-59250000D01*
G37*
%TO.C,JP2*%
G36*
X100550000Y-59250000D02*
G01*
X102050000Y-59250000D01*
X102050000Y-60750000D01*
X100550000Y-60750000D01*
X100550000Y-59250000D01*
G37*
%TD*%
D13*
%TO.C,C29*%
X70100000Y-95920000D03*
X70100000Y-96880000D03*
%TD*%
D14*
%TO.C,R45*%
X90150000Y-67900000D03*
X91170000Y-67900000D03*
%TD*%
D15*
%TO.C,U7*%
X144950000Y-112737500D03*
X144950000Y-112237500D03*
X144950000Y-111737500D03*
X144950000Y-111237500D03*
X144950000Y-110737500D03*
X144950000Y-110237500D03*
X144950000Y-109737500D03*
D16*
X143987500Y-108775000D03*
X143487500Y-108775000D03*
X142987500Y-108775000D03*
X142487500Y-108775000D03*
X141987500Y-108775000D03*
X141487500Y-108775000D03*
X140987500Y-108775000D03*
D15*
X140025000Y-109737500D03*
X140025000Y-110237500D03*
X140025000Y-110737500D03*
X140025000Y-111237500D03*
X140025000Y-111737500D03*
X140025000Y-112237500D03*
X140025000Y-112737500D03*
D16*
X140987500Y-113700000D03*
X141487500Y-113700000D03*
X141987500Y-113700000D03*
X142487500Y-113700000D03*
X142987500Y-113700000D03*
X143487500Y-113700000D03*
X143987500Y-113700000D03*
D17*
X142487500Y-111237500D03*
%TD*%
D18*
%TO.C,U6*%
X89350000Y-106600000D03*
X89350000Y-106100000D03*
X89350000Y-105600000D03*
X89350000Y-105100000D03*
X89350000Y-104600000D03*
X85050000Y-104600000D03*
X85050000Y-105100000D03*
X85050000Y-105600000D03*
X85050000Y-106100000D03*
X85050000Y-106600000D03*
%TD*%
D13*
%TO.C,C8*%
X106810000Y-95660000D03*
X106810000Y-96620000D03*
%TD*%
D19*
%TO.C,J2*%
X119300000Y-118525000D03*
X127300000Y-118525000D03*
D20*
X126500000Y-107525000D03*
X125400000Y-107525000D03*
X124300000Y-107525000D03*
X123200000Y-107525000D03*
X122100000Y-107525000D03*
X121000000Y-107525000D03*
X119900000Y-107525000D03*
X118800000Y-107525000D03*
X117700000Y-107525000D03*
D21*
X116500000Y-108525000D03*
D22*
X116500000Y-118125000D03*
D23*
X131100000Y-108525000D03*
D22*
X132000000Y-118125000D03*
%TD*%
D24*
%TO.C,R89*%
X93525000Y-104415000D03*
X93525000Y-105435000D03*
%TD*%
D13*
%TO.C,C73*%
X216800000Y-78520000D03*
X216800000Y-79480000D03*
%TD*%
D14*
%TO.C,R93*%
X69580000Y-118350000D03*
X70600000Y-118350000D03*
%TD*%
D25*
%TO.C,R57*%
X148835000Y-76495000D03*
X148835000Y-75475000D03*
%TD*%
D26*
%TO.C,U11*%
X173570500Y-70810914D03*
X172300500Y-70810914D03*
X171030500Y-70810914D03*
X169760500Y-70810914D03*
X168490500Y-70810914D03*
X167220500Y-70810914D03*
X165950500Y-70810914D03*
X165950500Y-75760914D03*
X167220500Y-75760914D03*
X168490500Y-75760914D03*
X169760500Y-75760914D03*
X171030500Y-75760914D03*
X172300500Y-75760914D03*
X173570500Y-75760914D03*
%TD*%
D27*
%TO.C,D1*%
X111675000Y-74525000D03*
X108275000Y-74525000D03*
%TD*%
D28*
%TO.C,C50*%
X136787500Y-117987500D03*
X136787500Y-116087500D03*
%TD*%
D24*
%TO.C,R6*%
X107700000Y-65390000D03*
X107700000Y-66410000D03*
%TD*%
D25*
%TO.C,R62*%
X114550000Y-101060000D03*
X114550000Y-100040000D03*
%TD*%
D29*
%TO.C,C78*%
X199964411Y-86939411D03*
X199285589Y-86260589D03*
%TD*%
D24*
%TO.C,R69*%
X212330000Y-71980000D03*
X212330000Y-73000000D03*
%TD*%
D30*
%TO.C,C94*%
X202355000Y-79125000D03*
X201395000Y-79125000D03*
%TD*%
D31*
%TO.C,C81*%
X208700000Y-83180000D03*
X208700000Y-82220000D03*
%TD*%
%TO.C,C83*%
X207750000Y-83180000D03*
X207750000Y-82220000D03*
%TD*%
D24*
%TO.C,R47*%
X90800000Y-64890000D03*
X90800000Y-65910000D03*
%TD*%
D32*
%TO.C,R32*%
X77795000Y-88425000D03*
X76775000Y-88425000D03*
%TD*%
D31*
%TO.C,C13*%
X110760000Y-79600000D03*
X110760000Y-78640000D03*
%TD*%
%TO.C,C75*%
X141375000Y-73630000D03*
X141375000Y-72670000D03*
%TD*%
D14*
%TO.C,R61*%
X155255000Y-65550000D03*
X156275000Y-65550000D03*
%TD*%
D33*
%TO.C,C63*%
X214490000Y-85600000D03*
X215450000Y-85600000D03*
%TD*%
D13*
%TO.C,C16*%
X123350000Y-105270000D03*
X123350000Y-106230000D03*
%TD*%
%TO.C,C86*%
X208600000Y-94770000D03*
X208600000Y-95730000D03*
%TD*%
D25*
%TO.C,R68*%
X211320000Y-74960000D03*
X211320000Y-73940000D03*
%TD*%
D34*
%TO.C,R34*%
X88162500Y-109200000D03*
X85237500Y-109200000D03*
%TD*%
D35*
%TO.C,Q2*%
X73050000Y-61537500D03*
X71150000Y-61537500D03*
X72100000Y-63412500D03*
%TD*%
D33*
%TO.C,C12*%
X124800000Y-85010000D03*
X125760000Y-85010000D03*
%TD*%
D25*
%TO.C,R26*%
X133400000Y-78160000D03*
X133400000Y-77140000D03*
%TD*%
D24*
%TO.C,R1*%
X114950000Y-112340000D03*
X114950000Y-113360000D03*
%TD*%
D14*
%TO.C,R94*%
X69580000Y-119350000D03*
X70600000Y-119350000D03*
%TD*%
D36*
%TO.C,U10*%
X113175000Y-100550000D03*
X112525000Y-100550000D03*
X111875000Y-100550000D03*
X111225000Y-100550000D03*
X111225000Y-103650000D03*
X111875000Y-103650000D03*
X112525000Y-103650000D03*
X113175000Y-103650000D03*
D37*
X112200000Y-102100000D03*
%TD*%
D14*
%TO.C,R91*%
X78240000Y-119700000D03*
X79260000Y-119700000D03*
%TD*%
D38*
%TO.C,Q5*%
X74900000Y-118137500D03*
X76800000Y-118137500D03*
X75850000Y-116262500D03*
%TD*%
D25*
%TO.C,R37*%
X124925000Y-62760000D03*
X124925000Y-61740000D03*
%TD*%
D30*
%TO.C,C68*%
X203055000Y-88075000D03*
X202095000Y-88075000D03*
%TD*%
D28*
%TO.C,C60*%
X160800000Y-75800000D03*
X160800000Y-73900000D03*
%TD*%
D14*
%TO.C,R25*%
X134565000Y-75925000D03*
X135585000Y-75925000D03*
%TD*%
D39*
%TO.C,C37*%
X161100000Y-108650000D03*
X159200000Y-108650000D03*
%TD*%
D32*
%TO.C,R30*%
X143010000Y-63600000D03*
X141990000Y-63600000D03*
%TD*%
D24*
%TO.C,R78*%
X218250000Y-80990000D03*
X218250000Y-82010000D03*
%TD*%
D13*
%TO.C,C90*%
X212260000Y-73950000D03*
X212260000Y-74910000D03*
%TD*%
D29*
%TO.C,C19*%
X130539411Y-69939411D03*
X129860589Y-69260589D03*
%TD*%
D33*
%TO.C,C84*%
X167870000Y-103200000D03*
X168830000Y-103200000D03*
%TD*%
%TO.C,C82*%
X206370000Y-81000000D03*
X207330000Y-81000000D03*
%TD*%
D14*
%TO.C,R8*%
X176000000Y-80625000D03*
X177020000Y-80625000D03*
%TD*%
D24*
%TO.C,R79*%
X194100000Y-83440000D03*
X194100000Y-84460000D03*
%TD*%
D32*
%TO.C,R73*%
X204330000Y-79980000D03*
X203310000Y-79980000D03*
%TD*%
D31*
%TO.C,C5*%
X109460000Y-79570000D03*
X109460000Y-78610000D03*
%TD*%
D34*
%TO.C,R40*%
X152412500Y-119950000D03*
X149487500Y-119950000D03*
%TD*%
D32*
%TO.C,R12*%
X122460000Y-106200000D03*
X121440000Y-106200000D03*
%TD*%
D24*
%TO.C,R7*%
X108500000Y-80090000D03*
X108500000Y-81110000D03*
%TD*%
D32*
%TO.C,R31*%
X77810000Y-87400000D03*
X76790000Y-87400000D03*
%TD*%
D13*
%TO.C,C15*%
X126670000Y-83350000D03*
X126670000Y-84310000D03*
%TD*%
D24*
%TO.C,R96*%
X170950000Y-103900000D03*
X170950000Y-104920000D03*
%TD*%
D33*
%TO.C,C4*%
X121970000Y-79450000D03*
X122930000Y-79450000D03*
%TD*%
D32*
%TO.C,R77*%
X220260000Y-82000000D03*
X219240000Y-82000000D03*
%TD*%
D40*
%TO.C,L5*%
X205733750Y-79281250D03*
X207308750Y-79281250D03*
%TD*%
D33*
%TO.C,C72*%
X211720000Y-83500000D03*
X212680000Y-83500000D03*
%TD*%
D24*
%TO.C,R14*%
X125400000Y-105265000D03*
X125400000Y-106285000D03*
%TD*%
D28*
%TO.C,C51*%
X160850000Y-112350000D03*
X160850000Y-110450000D03*
%TD*%
D33*
%TO.C,C11*%
X120720000Y-98000000D03*
X121680000Y-98000000D03*
%TD*%
%TO.C,C57*%
X154495000Y-68975000D03*
X155455000Y-68975000D03*
%TD*%
D14*
%TO.C,R4*%
X102690000Y-85800000D03*
X103710000Y-85800000D03*
%TD*%
%TO.C,R80*%
X192140000Y-84450000D03*
X193160000Y-84450000D03*
%TD*%
D33*
%TO.C,C66*%
X206720000Y-94800000D03*
X207680000Y-94800000D03*
%TD*%
D41*
%TO.C,U1*%
X123275000Y-94800000D03*
X123275000Y-94300000D03*
X123275000Y-93800000D03*
X123275000Y-93300000D03*
X123275000Y-92800000D03*
X123275000Y-92300000D03*
X123275000Y-91800000D03*
X123275000Y-91300000D03*
X123275000Y-90800000D03*
X123275000Y-90300000D03*
X123275000Y-89800000D03*
X123275000Y-89300000D03*
X123275000Y-88800000D03*
X123275000Y-88300000D03*
X123275000Y-87800000D03*
X123275000Y-87300000D03*
X123275000Y-86800000D03*
X123275000Y-86300000D03*
X123275000Y-85800000D03*
X123275000Y-85300000D03*
X123275000Y-84800000D03*
X123275000Y-84300000D03*
X123275000Y-83800000D03*
X123275000Y-83300000D03*
X123275000Y-82800000D03*
D42*
X121600000Y-81125000D03*
X121100000Y-81125000D03*
X120600000Y-81125000D03*
X120100000Y-81125000D03*
X119600000Y-81125000D03*
X119100000Y-81125000D03*
X118600000Y-81125000D03*
X118100000Y-81125000D03*
X117600000Y-81125000D03*
X117100000Y-81125000D03*
X116600000Y-81125000D03*
X116100000Y-81125000D03*
X115600000Y-81125000D03*
X115100000Y-81125000D03*
X114600000Y-81125000D03*
X114100000Y-81125000D03*
X113600000Y-81125000D03*
X113100000Y-81125000D03*
X112600000Y-81125000D03*
X112100000Y-81125000D03*
X111600000Y-81125000D03*
X111100000Y-81125000D03*
X110600000Y-81125000D03*
X110100000Y-81125000D03*
X109600000Y-81125000D03*
D41*
X107925000Y-82800000D03*
X107925000Y-83300000D03*
X107925000Y-83800000D03*
X107925000Y-84300000D03*
X107925000Y-84800000D03*
X107925000Y-85300000D03*
X107925000Y-85800000D03*
X107925000Y-86300000D03*
X107925000Y-86800000D03*
X107925000Y-87300000D03*
X107925000Y-87800000D03*
X107925000Y-88300000D03*
X107925000Y-88800000D03*
X107925000Y-89300000D03*
X107925000Y-89800000D03*
X107925000Y-90300000D03*
X107925000Y-90800000D03*
X107925000Y-91300000D03*
X107925000Y-91800000D03*
X107925000Y-92300000D03*
X107925000Y-92800000D03*
X107925000Y-93300000D03*
X107925000Y-93800000D03*
X107925000Y-94300000D03*
X107925000Y-94800000D03*
D42*
X109600000Y-96475000D03*
X110100000Y-96475000D03*
X110600000Y-96475000D03*
X111100000Y-96475000D03*
X111600000Y-96475000D03*
X112100000Y-96475000D03*
X112600000Y-96475000D03*
X113100000Y-96475000D03*
X113600000Y-96475000D03*
X114100000Y-96475000D03*
X114600000Y-96475000D03*
X115100000Y-96475000D03*
X115600000Y-96475000D03*
X116100000Y-96475000D03*
X116600000Y-96475000D03*
X117100000Y-96475000D03*
X117600000Y-96475000D03*
X118100000Y-96475000D03*
X118600000Y-96475000D03*
X119100000Y-96475000D03*
X119600000Y-96475000D03*
X120100000Y-96475000D03*
X120600000Y-96475000D03*
X121100000Y-96475000D03*
X121600000Y-96475000D03*
%TD*%
D43*
%TO.C,JP1*%
X111500000Y-61300000D03*
D44*
X111500000Y-60000000D03*
D45*
X111500000Y-58700000D03*
%TD*%
D13*
%TO.C,C35*%
X83300000Y-104370000D03*
X83300000Y-105330000D03*
%TD*%
D46*
%TO.C,C52*%
X135650000Y-109750000D03*
X135650000Y-104350000D03*
%TD*%
D25*
%TO.C,R2*%
X116050000Y-113310000D03*
X116050000Y-112290000D03*
%TD*%
D24*
%TO.C,R67*%
X200950000Y-88040000D03*
X200950000Y-89060000D03*
%TD*%
D15*
%TO.C,U8*%
X157750000Y-112737500D03*
X157750000Y-112237500D03*
X157750000Y-111737500D03*
X157750000Y-111237500D03*
X157750000Y-110737500D03*
X157750000Y-110237500D03*
X157750000Y-109737500D03*
D16*
X156787500Y-108775000D03*
X156287500Y-108775000D03*
X155787500Y-108775000D03*
X155287500Y-108775000D03*
X154787500Y-108775000D03*
X154287500Y-108775000D03*
X153787500Y-108775000D03*
D15*
X152825000Y-109737500D03*
X152825000Y-110237500D03*
X152825000Y-110737500D03*
X152825000Y-111237500D03*
X152825000Y-111737500D03*
X152825000Y-112237500D03*
X152825000Y-112737500D03*
D16*
X153787500Y-113700000D03*
X154287500Y-113700000D03*
X154787500Y-113700000D03*
X155287500Y-113700000D03*
X155787500Y-113700000D03*
X156287500Y-113700000D03*
X156787500Y-113700000D03*
D17*
X155287500Y-111237500D03*
%TD*%
D30*
%TO.C,C44*%
X144167500Y-107637500D03*
X143207500Y-107637500D03*
%TD*%
D35*
%TO.C,Q3*%
X81550000Y-61562500D03*
X79650000Y-61562500D03*
X80600000Y-63437500D03*
%TD*%
D25*
%TO.C,R38*%
X124925000Y-64760000D03*
X124925000Y-63740000D03*
%TD*%
D24*
%TO.C,R43*%
X117800000Y-99190001D03*
X117800000Y-100209999D03*
%TD*%
D31*
%TO.C,C39*%
X151987500Y-108817500D03*
X151987500Y-107857500D03*
%TD*%
D14*
%TO.C,R11*%
X118890000Y-106000000D03*
X119910000Y-106000000D03*
%TD*%
D31*
%TO.C,C91*%
X213310000Y-72950000D03*
X213310000Y-71990000D03*
%TD*%
D14*
%TO.C,R16*%
X126015000Y-75250000D03*
X127035000Y-75250000D03*
%TD*%
D47*
%TO.C,U13*%
X204437500Y-85400000D03*
X204437500Y-85900000D03*
X204437500Y-86400000D03*
X204437500Y-86900000D03*
X204437500Y-87400000D03*
X204437500Y-87900000D03*
X204437500Y-88400000D03*
X204437500Y-88900000D03*
X204437500Y-89400000D03*
X204437500Y-89900000D03*
X204437500Y-90400000D03*
X204437500Y-90900000D03*
X204437500Y-91400000D03*
X204437500Y-91900000D03*
X204437500Y-92400000D03*
X204437500Y-92900000D03*
D48*
X205125000Y-93587500D03*
X205625000Y-93587500D03*
X206125000Y-93587500D03*
X206625000Y-93587500D03*
X207125000Y-93587500D03*
X207625000Y-93587500D03*
X208125000Y-93587500D03*
X208625000Y-93587500D03*
X209125000Y-93587500D03*
X209625000Y-93587500D03*
X210125000Y-93587500D03*
X210625000Y-93587500D03*
X211125000Y-93587500D03*
X211625000Y-93587500D03*
X212125000Y-93587500D03*
X212625000Y-93587500D03*
D47*
X213312500Y-92900000D03*
X213312500Y-92400000D03*
X213312500Y-91900000D03*
X213312500Y-91400000D03*
X213312500Y-90900000D03*
X213312500Y-90400000D03*
X213312500Y-89900000D03*
X213312500Y-89400000D03*
X213312500Y-88900000D03*
X213312500Y-88400000D03*
X213312500Y-87900000D03*
X213312500Y-87400000D03*
X213312500Y-86900000D03*
X213312500Y-86400000D03*
X213312500Y-85900000D03*
X213312500Y-85400000D03*
D48*
X212625000Y-84712500D03*
X212125000Y-84712500D03*
X211625000Y-84712500D03*
X211125000Y-84712500D03*
X210625000Y-84712500D03*
X210125000Y-84712500D03*
X209625000Y-84712500D03*
X209125000Y-84712500D03*
X208625000Y-84712500D03*
X208125000Y-84712500D03*
X207625000Y-84712500D03*
X207125000Y-84712500D03*
X206625000Y-84712500D03*
X206125000Y-84712500D03*
X205625000Y-84712500D03*
X205125000Y-84712500D03*
D49*
X208875000Y-89150000D03*
%TD*%
D14*
%TO.C,R49*%
X73190000Y-67850000D03*
X74210000Y-67850000D03*
%TD*%
D31*
%TO.C,C21*%
X127450000Y-73850000D03*
X127450000Y-72890000D03*
%TD*%
D50*
%TO.C,Y2*%
X200893934Y-86083883D03*
X201883883Y-85093934D03*
X201106066Y-84316117D03*
X200116117Y-85306066D03*
%TD*%
D51*
%TO.C,C42*%
X146037500Y-114137500D03*
X147937500Y-114137500D03*
%TD*%
D31*
%TO.C,C38*%
X140137500Y-108042500D03*
X140137500Y-107082500D03*
%TD*%
D51*
%TO.C,C43*%
X158837500Y-114137500D03*
X160737500Y-114137500D03*
%TD*%
D52*
%TO.C,C28*%
X73250000Y-90250000D03*
X73250000Y-92150000D03*
%TD*%
D14*
%TO.C,R27*%
X138615000Y-73125000D03*
X139635000Y-73125000D03*
%TD*%
%TO.C,R18*%
X126015000Y-77100000D03*
X127035000Y-77100000D03*
%TD*%
D53*
%TO.C,L3*%
X83125000Y-94850000D03*
X77075000Y-94850000D03*
%TD*%
D24*
%TO.C,R33*%
X75800000Y-87390000D03*
X75800000Y-88410000D03*
%TD*%
D54*
%TO.C,L8*%
X213487500Y-82300000D03*
X211912500Y-82300000D03*
%TD*%
D51*
%TO.C,C55*%
X162200000Y-65000000D03*
X164100000Y-65000000D03*
%TD*%
D13*
%TO.C,C88*%
X173075000Y-115045000D03*
X173075000Y-116005000D03*
%TD*%
D51*
%TO.C,C49*%
X148037500Y-111737500D03*
X149937500Y-111737500D03*
%TD*%
D25*
%TO.C,R82*%
X193075000Y-62135000D03*
X193075000Y-61115000D03*
%TD*%
D51*
%TO.C,C98*%
X171250000Y-118050000D03*
X173150000Y-118050000D03*
%TD*%
D30*
%TO.C,C62*%
X173300500Y-77488414D03*
X172340500Y-77488414D03*
%TD*%
D39*
%TO.C,C40*%
X138937500Y-114137500D03*
X137037500Y-114137500D03*
%TD*%
D33*
%TO.C,C1*%
X124800000Y-92200000D03*
X125760000Y-92200000D03*
%TD*%
D55*
%TO.C,D8*%
X69600000Y-111400000D03*
X73000000Y-111400000D03*
%TD*%
D38*
%TO.C,Q6*%
X66400000Y-118137500D03*
X68300000Y-118137500D03*
X67350000Y-116262500D03*
%TD*%
D43*
%TO.C,JP3*%
X121700000Y-61300000D03*
D44*
X121700000Y-60000000D03*
D45*
X121700000Y-58700000D03*
%TD*%
D14*
%TO.C,R51*%
X71590000Y-60000000D03*
X72610000Y-60000000D03*
%TD*%
D32*
%TO.C,R5*%
X106610000Y-81900000D03*
X105590000Y-81900000D03*
%TD*%
D33*
%TO.C,C10*%
X124800000Y-84040000D03*
X125760000Y-84040000D03*
%TD*%
D25*
%TO.C,R76*%
X129350000Y-81835000D03*
X129350000Y-80815000D03*
%TD*%
D30*
%TO.C,C71*%
X209180000Y-81300000D03*
X208220000Y-81300000D03*
%TD*%
D14*
%TO.C,R3*%
X132640000Y-100500000D03*
X133660000Y-100500000D03*
%TD*%
D39*
%TO.C,C41*%
X151737500Y-114137500D03*
X149837500Y-114137500D03*
%TD*%
D56*
%TO.C,U5*%
X94600000Y-81050000D03*
X96900000Y-81050000D03*
D57*
X96900000Y-74750000D03*
D56*
X99200000Y-81050000D03*
%TD*%
D24*
%TO.C,R13*%
X124275000Y-105040000D03*
X124275000Y-106060000D03*
%TD*%
D30*
%TO.C,C69*%
X202855000Y-89000000D03*
X201895000Y-89000000D03*
%TD*%
D24*
%TO.C,R65*%
X208600000Y-77940000D03*
X208600000Y-78960000D03*
%TD*%
D13*
%TO.C,C85*%
X216350000Y-96470000D03*
X216350000Y-97430000D03*
%TD*%
D25*
%TO.C,R70*%
X211630000Y-78920000D03*
X211630000Y-77900000D03*
%TD*%
D33*
%TO.C,C23*%
X132370000Y-73550000D03*
X133330000Y-73550000D03*
%TD*%
D31*
%TO.C,C93*%
X212350000Y-76950000D03*
X212350000Y-75990000D03*
%TD*%
D32*
%TO.C,R59*%
X157335000Y-68975000D03*
X156315000Y-68975000D03*
%TD*%
D27*
%TO.C,D7*%
X194075000Y-82000000D03*
X190675000Y-82000000D03*
%TD*%
D24*
%TO.C,R55*%
X82300000Y-64890000D03*
X82300000Y-65910000D03*
%TD*%
%TO.C,R85*%
X216375000Y-93415000D03*
X216375000Y-94435000D03*
%TD*%
D58*
%TO.C,U12*%
X167700000Y-107700000D03*
X168650000Y-107700000D03*
X169600000Y-107700000D03*
X169600000Y-105000000D03*
X168650000Y-105000000D03*
X167700000Y-105000000D03*
%TD*%
D14*
%TO.C,R74*%
X196210000Y-80100000D03*
X197230000Y-80100000D03*
%TD*%
D24*
%TO.C,R10*%
X108275000Y-75865000D03*
X108275000Y-76885000D03*
%TD*%
D52*
%TO.C,C27*%
X75250000Y-90250000D03*
X75250000Y-92150000D03*
%TD*%
D33*
%TO.C,C97*%
X198260000Y-79120000D03*
X199220000Y-79120000D03*
%TD*%
D39*
%TO.C,C76*%
X173100000Y-106350000D03*
X171200000Y-106350000D03*
%TD*%
D59*
%TO.C,U16*%
X226045000Y-95945000D03*
D60*
X226045000Y-93405000D03*
X226045000Y-90865000D03*
X226045000Y-88325000D03*
X218425000Y-88325000D03*
X218425000Y-90865000D03*
X218425000Y-93405000D03*
X218425000Y-95945000D03*
%TD*%
D14*
%TO.C,R72*%
X201340000Y-80100000D03*
X202360000Y-80100000D03*
%TD*%
D25*
%TO.C,R81*%
X211675000Y-62135000D03*
X211675000Y-61115000D03*
%TD*%
D33*
%TO.C,C30*%
X76780000Y-89425000D03*
X77740000Y-89425000D03*
%TD*%
D61*
%TO.C,L6*%
X164100000Y-79030000D03*
X164100000Y-77455000D03*
%TD*%
D32*
%TO.C,R75*%
X199260000Y-80090000D03*
X198240000Y-80090000D03*
%TD*%
D14*
%TO.C,R15*%
X149190000Y-63650000D03*
X150210000Y-63650000D03*
%TD*%
%TO.C,R46*%
X140040000Y-106100000D03*
X141060000Y-106100000D03*
%TD*%
D43*
%TO.C,JP2*%
X101300000Y-61300000D03*
D44*
X101300000Y-60000000D03*
D45*
X101300000Y-58700000D03*
%TD*%
D30*
%TO.C,C96*%
X197230000Y-79130000D03*
X196270000Y-79130000D03*
%TD*%
D62*
%TO.C,SW1*%
X108000000Y-107550000D03*
X114300000Y-107550000D03*
X108000000Y-111350000D03*
X114300000Y-111350000D03*
%TD*%
D24*
%TO.C,R28*%
X137600000Y-73040000D03*
X137600000Y-74060000D03*
%TD*%
D30*
%TO.C,C14*%
X128520000Y-84830000D03*
X127560000Y-84830000D03*
%TD*%
D63*
%TO.C,L9*%
X199000000Y-71637500D03*
X199000000Y-73212500D03*
%TD*%
D14*
%TO.C,R52*%
X115640000Y-78450000D03*
X116660000Y-78450000D03*
%TD*%
D34*
%TO.C,R42*%
X157812500Y-119950000D03*
X154887500Y-119950000D03*
%TD*%
D14*
%TO.C,R54*%
X115590000Y-77250000D03*
X116610000Y-77250000D03*
%TD*%
D31*
%TO.C,C74*%
X203650000Y-84280000D03*
X203650000Y-83320000D03*
%TD*%
D39*
%TO.C,C80*%
X173100000Y-108350000D03*
X171200000Y-108350000D03*
%TD*%
D14*
%TO.C,R58*%
X152615000Y-68975000D03*
X153635000Y-68975000D03*
%TD*%
D64*
%TO.C,L4*%
X160262500Y-64975000D03*
X158137500Y-64975000D03*
%TD*%
D26*
%TO.C,U9*%
X159057500Y-76375000D03*
X157787500Y-76375000D03*
X156517500Y-76375000D03*
X155247500Y-76375000D03*
X153977500Y-76375000D03*
X152707500Y-76375000D03*
X151437500Y-76375000D03*
X150167500Y-76375000D03*
X150167500Y-81325000D03*
X151437500Y-81325000D03*
X152707500Y-81325000D03*
X153977500Y-81325000D03*
X155247500Y-81325000D03*
X156517500Y-81325000D03*
X157787500Y-81325000D03*
X159057500Y-81325000D03*
%TD*%
D32*
%TO.C,R9*%
X178960000Y-77175000D03*
X177940000Y-77175000D03*
%TD*%
D54*
%TO.C,L1*%
X129427500Y-83350000D03*
X127852500Y-83350000D03*
%TD*%
D34*
%TO.C,R39*%
X139762500Y-119950000D03*
X136837500Y-119950000D03*
%TD*%
D52*
%TO.C,C24*%
X136350000Y-79000000D03*
X136350000Y-80900000D03*
%TD*%
D31*
%TO.C,C45*%
X146087500Y-111517500D03*
X146087500Y-110557500D03*
%TD*%
D14*
%TO.C,R48*%
X88590000Y-60000000D03*
X89610000Y-60000000D03*
%TD*%
D33*
%TO.C,C61*%
X112200000Y-99480000D03*
X113160000Y-99480000D03*
%TD*%
D65*
%TO.C,C17*%
X127610589Y-70039411D03*
X128289411Y-69360589D03*
%TD*%
D13*
%TO.C,C92*%
X212590000Y-77960000D03*
X212590000Y-78920000D03*
%TD*%
D51*
%TO.C,C33*%
X99250000Y-83300000D03*
X101150000Y-83300000D03*
%TD*%
D32*
%TO.C,R92*%
X76320000Y-119650000D03*
X75300000Y-119650000D03*
%TD*%
D55*
%TO.C,D6*%
X221800000Y-82000000D03*
X225200000Y-82000000D03*
%TD*%
D40*
%TO.C,L7*%
X206722500Y-75980000D03*
X208297500Y-75980000D03*
%TD*%
D30*
%TO.C,C18*%
X126980000Y-76175000D03*
X126020000Y-76175000D03*
%TD*%
D32*
%TO.C,R84*%
X215925000Y-87575000D03*
X214905000Y-87575000D03*
%TD*%
D31*
%TO.C,C47*%
X158887500Y-111417500D03*
X158887500Y-110457500D03*
%TD*%
D55*
%TO.C,D3*%
X68700000Y-68000000D03*
X72100000Y-68000000D03*
%TD*%
D32*
%TO.C,R35*%
X105960000Y-113200000D03*
X104940000Y-113200000D03*
%TD*%
D55*
%TO.C,D5*%
X78100000Y-111350000D03*
X81500000Y-111350000D03*
%TD*%
D33*
%TO.C,C64*%
X214450000Y-91460000D03*
X215410000Y-91460000D03*
%TD*%
%TO.C,C7*%
X122540000Y-96600000D03*
X123500000Y-96600000D03*
%TD*%
D25*
%TO.C,R66*%
X214225000Y-62135000D03*
X214225000Y-61115000D03*
%TD*%
D33*
%TO.C,C54*%
X161295000Y-67925000D03*
X162255000Y-67925000D03*
%TD*%
D32*
%TO.C,R20*%
X128260000Y-79750000D03*
X127240000Y-79750000D03*
%TD*%
D24*
%TO.C,R63*%
X114450000Y-102740000D03*
X114450000Y-103760000D03*
%TD*%
D65*
%TO.C,C77*%
X199360589Y-84264411D03*
X200039411Y-83585589D03*
%TD*%
D24*
%TO.C,R71*%
X211340000Y-75980000D03*
X211340000Y-77000000D03*
%TD*%
D51*
%TO.C,C31*%
X84750000Y-91900000D03*
X86650000Y-91900000D03*
%TD*%
D25*
%TO.C,R86*%
X195625000Y-62135000D03*
X195625000Y-61115000D03*
%TD*%
%TO.C,R88*%
X174025000Y-116035000D03*
X174025000Y-115015000D03*
%TD*%
D66*
%TO.C,J5*%
X84910000Y-116007500D03*
X90690000Y-116007500D03*
D67*
X84550000Y-114562500D03*
X85350000Y-114562500D03*
D68*
X86550000Y-114562500D03*
X87550000Y-114562500D03*
X88050000Y-114562500D03*
X89050000Y-114562500D03*
D67*
X90250000Y-114562500D03*
X91050000Y-114562500D03*
X91050000Y-114562500D03*
X90250000Y-114562500D03*
D68*
X89550000Y-114562500D03*
X88550000Y-114562500D03*
X87050000Y-114562500D03*
X86050000Y-114562500D03*
D67*
X85350000Y-114562500D03*
X84550000Y-114562500D03*
D69*
X83480000Y-115477500D03*
D70*
X83480000Y-119657500D03*
D69*
X92120000Y-115477500D03*
D70*
X92120000Y-119657500D03*
%TD*%
D34*
%TO.C,R41*%
X145100000Y-119950000D03*
X142175000Y-119950000D03*
%TD*%
D13*
%TO.C,C56*%
X148860000Y-77430000D03*
X148860000Y-78390000D03*
%TD*%
D71*
%TO.C,U2*%
X131450000Y-74362500D03*
X130950000Y-74362500D03*
X130450000Y-74362500D03*
X129950000Y-74362500D03*
X129450000Y-74362500D03*
X128950000Y-74362500D03*
D72*
X128262500Y-75050000D03*
X128262500Y-75550000D03*
X128262500Y-76050000D03*
X128262500Y-76550000D03*
X128262500Y-77050000D03*
X128262500Y-77550000D03*
D71*
X128950000Y-78237500D03*
X129450000Y-78237500D03*
X129950000Y-78237500D03*
X130450000Y-78237500D03*
X130950000Y-78237500D03*
X131450000Y-78237500D03*
D72*
X132137500Y-77550000D03*
X132137500Y-77050000D03*
X132137500Y-76550000D03*
X132137500Y-76050000D03*
X132137500Y-75550000D03*
X132137500Y-75050000D03*
D73*
X130200000Y-76300000D03*
%TD*%
D74*
%TO.C,Q4*%
X162410000Y-79225000D03*
X162410000Y-77325000D03*
X160410000Y-78275000D03*
%TD*%
D66*
%TO.C,J6*%
X107810000Y-115957500D03*
X113590000Y-115957500D03*
D67*
X107450000Y-114512500D03*
X108250000Y-114512500D03*
D68*
X109450000Y-114512500D03*
X110450000Y-114512500D03*
X110950000Y-114512500D03*
X111950000Y-114512500D03*
D67*
X113150000Y-114512500D03*
X113950000Y-114512500D03*
X113950000Y-114512500D03*
X113150000Y-114512500D03*
D68*
X112450000Y-114512500D03*
X111450000Y-114512500D03*
X109950000Y-114512500D03*
X108950000Y-114512500D03*
D67*
X108250000Y-114512500D03*
X107450000Y-114512500D03*
D69*
X106380000Y-115427500D03*
D70*
X106380000Y-119607500D03*
D69*
X115020000Y-115427500D03*
D70*
X115020000Y-119607500D03*
%TD*%
D31*
%TO.C,C20*%
X126500000Y-73850000D03*
X126500000Y-72890000D03*
%TD*%
D51*
%TO.C,C32*%
X84750000Y-89900000D03*
X86650000Y-89900000D03*
%TD*%
D25*
%TO.C,R24*%
X135050000Y-72610000D03*
X135050000Y-71590000D03*
%TD*%
D31*
%TO.C,C87*%
X214460000Y-90200000D03*
X214460000Y-89240000D03*
%TD*%
D62*
%TO.C,SW2*%
X131250000Y-100325000D03*
X124950000Y-100325000D03*
X131250000Y-96525000D03*
X124950000Y-96525000D03*
%TD*%
D61*
%TO.C,L2*%
X134600000Y-79987500D03*
X134600000Y-78412500D03*
%TD*%
D14*
%TO.C,R17*%
X123840000Y-74025000D03*
X124860000Y-74025000D03*
%TD*%
D39*
%TO.C,C89*%
X165800000Y-118050000D03*
X163900000Y-118050000D03*
%TD*%
D24*
%TO.C,R64*%
X199500000Y-89465000D03*
X199500000Y-90485000D03*
%TD*%
D30*
%TO.C,C46*%
X156567500Y-107437500D03*
X155607500Y-107437500D03*
%TD*%
D33*
%TO.C,C2*%
X125095000Y-89300000D03*
X126055000Y-89300000D03*
%TD*%
D13*
%TO.C,C6*%
X107860000Y-95650000D03*
X107860000Y-96610000D03*
%TD*%
D33*
%TO.C,C95*%
X203320000Y-79020000D03*
X204280000Y-79020000D03*
%TD*%
D55*
%TO.C,D4*%
X77200000Y-68000000D03*
X80600000Y-68000000D03*
%TD*%
D25*
%TO.C,R44*%
X153050000Y-104980000D03*
X153050000Y-103960000D03*
%TD*%
D31*
%TO.C,C9*%
X108500000Y-79180000D03*
X108500000Y-78220000D03*
%TD*%
D30*
%TO.C,C65*%
X212730000Y-94800000D03*
X211770000Y-94800000D03*
%TD*%
D75*
%TO.C,U4*%
X74585000Y-95700000D03*
X74585000Y-94750000D03*
X74585000Y-93800000D03*
X71885000Y-93800000D03*
X71885000Y-94750000D03*
X71885000Y-95700000D03*
%TD*%
D32*
%TO.C,R95*%
X67960000Y-119700000D03*
X66940000Y-119700000D03*
%TD*%
D14*
%TO.C,R56*%
X80090000Y-60000000D03*
X81110000Y-60000000D03*
%TD*%
D55*
%TO.C,D2*%
X85660000Y-68050000D03*
X89060000Y-68050000D03*
%TD*%
D30*
%TO.C,C59*%
X158950000Y-83050000D03*
X157990000Y-83050000D03*
%TD*%
D32*
%TO.C,R83*%
X216390000Y-89350000D03*
X215370000Y-89350000D03*
%TD*%
D24*
%TO.C,R87*%
X170950000Y-102025000D03*
X170950000Y-103045000D03*
%TD*%
D76*
%TO.C,Y1*%
X128416117Y-71093934D03*
X129406066Y-72083883D03*
X130183883Y-71306066D03*
X129193934Y-70316117D03*
%TD*%
D31*
%TO.C,C3*%
X115750000Y-111280000D03*
X115750000Y-110320000D03*
%TD*%
D14*
%TO.C,R29*%
X138240000Y-63650000D03*
X139260000Y-63650000D03*
%TD*%
D28*
%TO.C,C34*%
X96800000Y-69850000D03*
X96800000Y-67950000D03*
%TD*%
D24*
%TO.C,R50*%
X73800000Y-64890000D03*
X73800000Y-65910000D03*
%TD*%
D35*
%TO.C,Q1*%
X90050000Y-61662500D03*
X88150000Y-61662500D03*
X89100000Y-63537500D03*
%TD*%
D14*
%TO.C,R90*%
X78240000Y-118700000D03*
X79260000Y-118700000D03*
%TD*%
D13*
%TO.C,C67*%
X203275000Y-91995000D03*
X203275000Y-92955000D03*
%TD*%
D30*
%TO.C,C70*%
X203055000Y-87150000D03*
X202095000Y-87150000D03*
%TD*%
D32*
%TO.C,R36*%
X112900000Y-112750000D03*
X111880000Y-112750000D03*
%TD*%
D39*
%TO.C,C36*%
X148237500Y-109137500D03*
X146337500Y-109137500D03*
%TD*%
D46*
%TO.C,C53*%
X163300000Y-106750000D03*
X163300000Y-101350000D03*
%TD*%
D77*
%TO.C,J1*%
X100600000Y-93490000D03*
X104600000Y-93490000D03*
X100600000Y-94760000D03*
X104600000Y-94760000D03*
X100600000Y-96030000D03*
X104600000Y-96030000D03*
X100600000Y-97300000D03*
X104600000Y-97300000D03*
X100600000Y-98570000D03*
X104600000Y-98570000D03*
X100600000Y-99840000D03*
X104600000Y-99840000D03*
X100600000Y-101110000D03*
X104600000Y-101110000D03*
%TD*%
D14*
%TO.C,R53*%
X81700000Y-67850000D03*
X82720000Y-67850000D03*
%TD*%
D31*
%TO.C,C58*%
X200300000Y-73480000D03*
X200300000Y-72520000D03*
%TD*%
D78*
%TO.C,L10*%
X168500000Y-116225000D03*
X168500000Y-110175000D03*
%TD*%
D13*
%TO.C,C22*%
X132450000Y-78995000D03*
X132450000Y-79955000D03*
%TD*%
D39*
%TO.C,C48*%
X149837500Y-116537500D03*
X147937500Y-116537500D03*
%TD*%
D31*
%TO.C,C79*%
X206800000Y-82880000D03*
X206800000Y-81920000D03*
%TD*%
D32*
%TO.C,R60*%
X156285000Y-64550000D03*
X155265000Y-64550000D03*
%TD*%
D79*
%TO.C,J3*%
X152800000Y-73750000D03*
D80*
X155300000Y-73750000D03*
%TD*%
D81*
%TO.C,LB3*%
X119700000Y-60000000D03*
D82*
X117200000Y-60000000D03*
X114700000Y-60000000D03*
%TD*%
D83*
%TO.C,UEXT1*%
X185090000Y-116500000D03*
D84*
X185090000Y-119040000D03*
X187630000Y-116500000D03*
X187630000Y-119040000D03*
X190170000Y-116500000D03*
X190170000Y-119040000D03*
X192710000Y-116500000D03*
X192710000Y-119040000D03*
X195250000Y-116500000D03*
X195250000Y-119040000D03*
%TD*%
D81*
%TO.C,CanBus1*%
X114700000Y-105450000D03*
D82*
X112200000Y-105450000D03*
X109700000Y-105450000D03*
%TD*%
D85*
%TO.C,I2C1A1*%
X177700000Y-61100000D03*
D82*
X180200000Y-61100000D03*
X182700000Y-61100000D03*
X185200000Y-61100000D03*
X187700000Y-61100000D03*
%TD*%
D81*
%TO.C,I2C4*%
X104300000Y-66200000D03*
D82*
X101800000Y-66200000D03*
X99300000Y-66200000D03*
X96800000Y-66200000D03*
X94300000Y-66200000D03*
%TD*%
D85*
%TO.C,I2C1B1*%
X177700000Y-67200000D03*
D82*
X180200000Y-67200000D03*
X182700000Y-67200000D03*
X185200000Y-67200000D03*
X187700000Y-67200000D03*
%TD*%
D86*
%TO.C,J30*%
X70850000Y-114395000D03*
X67350000Y-114395000D03*
%TD*%
D87*
%TO.C,Conv1*%
X85700000Y-65555000D03*
X89200000Y-65555000D03*
%TD*%
D81*
%TO.C,J17*%
X146250000Y-117000000D03*
D82*
X143750000Y-117000000D03*
X141250000Y-117000000D03*
X138750000Y-117000000D03*
%TD*%
D88*
%TO.C,Robot1*%
X173200000Y-120100000D03*
D89*
X170700000Y-120100000D03*
X168200000Y-120100000D03*
%TD*%
D85*
%TO.C,Malibotti1*%
X152450000Y-61100000D03*
D82*
X154950000Y-61100000D03*
X157450000Y-61100000D03*
X159950000Y-61100000D03*
%TD*%
D85*
%TO.C,J23*%
X152450000Y-67200000D03*
D82*
X154950000Y-67200000D03*
X157450000Y-67200000D03*
X159950000Y-67200000D03*
%TD*%
D19*
%TO.C,TP1*%
X119250000Y-101125000D03*
%TD*%
D86*
%TO.C,Valve2*%
X79400000Y-114395000D03*
X75900000Y-114395000D03*
%TD*%
D90*
%TO.C,ETHERNET1*%
X135050000Y-68550000D03*
X146480000Y-68550000D03*
D91*
X136325000Y-74910000D03*
X137585000Y-77450000D03*
X138865000Y-74910000D03*
X140125000Y-77450000D03*
X141405000Y-74910000D03*
X142665000Y-77450000D03*
X143945000Y-74910000D03*
X145205000Y-77450000D03*
D92*
X134140000Y-63650000D03*
X136680000Y-63650000D03*
X144850000Y-63650000D03*
X147390000Y-63650000D03*
D93*
X133020000Y-71600000D03*
X148510000Y-71600000D03*
%TD*%
D85*
%TO.C,I2C2*%
X109500000Y-67300000D03*
D82*
X112000000Y-67300000D03*
X114500000Y-67300000D03*
X117000000Y-67300000D03*
X119500000Y-67300000D03*
%TD*%
D94*
%TO.C,J4*%
X101200000Y-108450000D03*
D95*
X101200000Y-114450000D03*
D96*
X96500000Y-111450000D03*
%TD*%
D81*
%TO.C,Pressure1*%
X129900000Y-60000000D03*
D82*
X127400000Y-60000000D03*
X124900000Y-60000000D03*
%TD*%
D85*
%TO.C,Leds1*%
X166900000Y-67200000D03*
D82*
X169400000Y-67200000D03*
X171900000Y-67200000D03*
%TD*%
D90*
%TO.C,EthercatA1*%
X212635000Y-68415000D03*
X224065000Y-68415000D03*
D91*
X213910000Y-74775000D03*
X215170000Y-77315000D03*
X216450000Y-74775000D03*
X217710000Y-77315000D03*
X218990000Y-74775000D03*
X220250000Y-77315000D03*
X221530000Y-74775000D03*
X222790000Y-77315000D03*
D92*
X211725000Y-63515000D03*
X214265000Y-63515000D03*
X222435000Y-63515000D03*
X224975000Y-63515000D03*
D93*
X210605000Y-71465000D03*
X226095000Y-71465000D03*
%TD*%
D90*
%TO.C,EthercatB1*%
X193985000Y-68400000D03*
X205415000Y-68400000D03*
D91*
X195260000Y-74760000D03*
X196520000Y-77300000D03*
X197800000Y-74760000D03*
X199060000Y-77300000D03*
X200340000Y-74760000D03*
X201600000Y-77300000D03*
X202880000Y-74760000D03*
X204140000Y-77300000D03*
D92*
X193075000Y-63500000D03*
X195615000Y-63500000D03*
X203785000Y-63500000D03*
X206325000Y-63500000D03*
D93*
X191955000Y-71450000D03*
X207445000Y-71450000D03*
%TD*%
D19*
%TO.C,TP4*%
X113750000Y-95000000D03*
%TD*%
D85*
%TO.C,Leds2*%
X166900000Y-61100000D03*
D82*
X169400000Y-61100000D03*
X171900000Y-61100000D03*
%TD*%
D87*
%TO.C,Comp1*%
X77150000Y-65555000D03*
X80650000Y-65555000D03*
%TD*%
D19*
%TO.C,TP5*%
X118900000Y-95000000D03*
%TD*%
D97*
%TO.C,X1*%
X70700000Y-103900000D03*
X77700000Y-103900000D03*
X77700000Y-73400000D03*
X70700000Y-73400000D03*
%TD*%
D81*
%TO.C,J18*%
X159050000Y-117000000D03*
D82*
X156550000Y-117000000D03*
X154050000Y-117000000D03*
X151550000Y-117000000D03*
%TD*%
D81*
%TO.C,LB2*%
X109500000Y-60000000D03*
D82*
X107000000Y-60000000D03*
X104500000Y-60000000D03*
%TD*%
D19*
%TO.C,TP3*%
X94400000Y-92650000D03*
%TD*%
D81*
%TO.C,LB1*%
X99300000Y-60000000D03*
D82*
X96800000Y-60000000D03*
X94300000Y-60000000D03*
%TD*%
D87*
%TO.C,Valve1*%
X68650000Y-65555000D03*
X72150000Y-65555000D03*
%TD*%
%LPD*%
M02*
