%TF.GenerationSoftware,KiCad,Pcbnew,10.0.0*%
%TF.CreationDate,2026-05-14T11:48:18+02:00*%
%TF.ProjectId,pcb_control_unit_ethernet,7063625f-636f-46e7-9472-6f6c5f756e69,rev?*%
%TF.SameCoordinates,Original*%
%TF.FileFunction,Profile,NP*%
%FSLAX46Y46*%
G04 Gerber Fmt 4.6, Leading zero omitted, Abs format (unit mm)*
G04 Created by KiCad (PCBNEW 10.0.0) date 2026-05-14 11:48:18*
%MOMM*%
%LPD*%
G01*
G04 APERTURE LIST*
%TA.AperFunction,Profile*%
%ADD10C,0.050000*%
%TD*%
G04 APERTURE END LIST*
D10*
X56000000Y-57500000D02*
X244000000Y-57500000D01*
X244000000Y-122500000D01*
X56000000Y-122500000D01*
X56000000Y-57500000D01*
%TO.C,D1*%
X109175000Y-73725000D02*
X109175000Y-75325000D01*
X109275000Y-75425000D02*
X110675000Y-75425000D01*
X110675000Y-73625000D02*
X109275000Y-73625000D01*
X110775000Y-75325000D02*
X110775000Y-73725000D01*
X109175000Y-73725000D02*
G75*
G02*
X109275000Y-73625000I100000J0D01*
G01*
X109275000Y-75425000D02*
G75*
G02*
X109175000Y-75325000I0J100000D01*
G01*
X110675000Y-73625000D02*
G75*
G02*
X110775000Y-73725000I1J-99999D01*
G01*
X110775000Y-75325000D02*
G75*
G02*
X110675000Y-75425000I-99999J-1D01*
G01*
%TO.C,D8*%
X70500000Y-110600000D02*
X70500000Y-112200000D01*
X70600000Y-112300000D02*
X72000000Y-112300000D01*
X72000000Y-110500000D02*
X70600000Y-110500000D01*
X72100000Y-112200000D02*
X72100000Y-110600000D01*
X70500000Y-110600000D02*
G75*
G02*
X70600000Y-110500000I99999J1D01*
G01*
X70600000Y-112300000D02*
G75*
G02*
X70500000Y-112200000I-1J99999D01*
G01*
X72000000Y-110500000D02*
G75*
G02*
X72100000Y-110600000I0J-100000D01*
G01*
X72100000Y-112200000D02*
G75*
G02*
X72000000Y-112300000I-100000J0D01*
G01*
%TO.C,D7*%
X191575000Y-81200000D02*
X191575000Y-82800000D01*
X191675000Y-82900000D02*
X193075000Y-82900000D01*
X193075000Y-81100000D02*
X191675000Y-81100000D01*
X193175000Y-82800000D02*
X193175000Y-81200000D01*
X191575000Y-81200000D02*
G75*
G02*
X191675000Y-81100000I100000J0D01*
G01*
X191675000Y-82900000D02*
G75*
G02*
X191575000Y-82800000I0J100000D01*
G01*
X193075000Y-81100000D02*
G75*
G02*
X193175000Y-81200000I1J-99999D01*
G01*
X193175000Y-82800000D02*
G75*
G02*
X193075000Y-82900000I-99999J-1D01*
G01*
%TO.C,D6*%
X222700000Y-81200000D02*
X222700000Y-82800000D01*
X222800000Y-82900000D02*
X224200000Y-82900000D01*
X224200000Y-81100000D02*
X222800000Y-81100000D01*
X224300000Y-82800000D02*
X224300000Y-81200000D01*
X222700000Y-81200000D02*
G75*
G02*
X222800000Y-81100000I99999J1D01*
G01*
X222800000Y-82900000D02*
G75*
G02*
X222700000Y-82800000I-1J99999D01*
G01*
X224200000Y-81100000D02*
G75*
G02*
X224300000Y-81200000I0J-100000D01*
G01*
X224300000Y-82800000D02*
G75*
G02*
X224200000Y-82900000I-100000J0D01*
G01*
%TO.C,D3*%
X69600000Y-67200000D02*
X69600000Y-68800000D01*
X69700000Y-68900000D02*
X71100000Y-68900000D01*
X71100000Y-67100000D02*
X69700000Y-67100000D01*
X71200000Y-68800000D02*
X71200000Y-67200000D01*
X69600000Y-67200000D02*
G75*
G02*
X69700000Y-67100000I99999J1D01*
G01*
X69700000Y-68900000D02*
G75*
G02*
X69600000Y-68800000I-1J99999D01*
G01*
X71100000Y-67100000D02*
G75*
G02*
X71200000Y-67200000I0J-100000D01*
G01*
X71200000Y-68800000D02*
G75*
G02*
X71100000Y-68900000I-100000J0D01*
G01*
%TO.C,D5*%
X79000000Y-110550000D02*
X79000000Y-112150000D01*
X79100000Y-112250000D02*
X80500000Y-112250000D01*
X80500000Y-110450000D02*
X79100000Y-110450000D01*
X80600000Y-112150000D02*
X80600000Y-110550000D01*
X79000000Y-110550000D02*
G75*
G02*
X79100000Y-110450000I99999J1D01*
G01*
X79100000Y-112250000D02*
G75*
G02*
X79000000Y-112150000I-1J99999D01*
G01*
X80500000Y-110450000D02*
G75*
G02*
X80600000Y-110550000I0J-100000D01*
G01*
X80600000Y-112150000D02*
G75*
G02*
X80500000Y-112250000I-100000J0D01*
G01*
%TO.C,D4*%
X78100000Y-67200000D02*
X78100000Y-68800000D01*
X78200000Y-68900000D02*
X79600000Y-68900000D01*
X79600000Y-67100000D02*
X78200000Y-67100000D01*
X79700000Y-68800000D02*
X79700000Y-67200000D01*
X78100000Y-67200000D02*
G75*
G02*
X78200000Y-67100000I99999J1D01*
G01*
X78200000Y-68900000D02*
G75*
G02*
X78100000Y-68800000I-1J99999D01*
G01*
X79600000Y-67100000D02*
G75*
G02*
X79700000Y-67200000I0J-100000D01*
G01*
X79700000Y-68800000D02*
G75*
G02*
X79600000Y-68900000I-100000J0D01*
G01*
%TO.C,D2*%
X86560000Y-67250000D02*
X86560000Y-68850000D01*
X86660000Y-68950000D02*
X88060000Y-68950000D01*
X88060000Y-67150000D02*
X86660000Y-67150000D01*
X88160000Y-68850000D02*
X88160000Y-67250000D01*
X86560000Y-67250000D02*
G75*
G02*
X86660000Y-67150000I99999J1D01*
G01*
X86660000Y-68950000D02*
G75*
G02*
X86560000Y-68850000I-1J99999D01*
G01*
X88060000Y-67150000D02*
G75*
G02*
X88160000Y-67250000I0J-100000D01*
G01*
X88160000Y-68850000D02*
G75*
G02*
X88060000Y-68950000I-100000J0D01*
G01*
%TD*%
M02*
