%TF.GenerationSoftware,KiCad,Pcbnew,9.0.3*%
%TF.CreationDate,2025-07-12T01:01:34+02:00*%
%TF.ProjectId,FactoryInABoxHat,46616374-6f72-4794-996e-41426f784861,rev?*%
%TF.SameCoordinates,Original*%
%TF.FileFunction,Soldermask,Top*%
%TF.FilePolarity,Negative*%
%FSLAX46Y46*%
G04 Gerber Fmt 4.6, Leading zero omitted, Abs format (unit mm)*
G04 Created by KiCad (PCBNEW 9.0.3) date 2025-07-12 01:01:34*
%MOMM*%
%LPD*%
G01*
G04 APERTURE LIST*
G04 Aperture macros list*
%AMRoundRect*
0 Rectangle with rounded corners*
0 $1 Rounding radius*
0 $2 $3 $4 $5 $6 $7 $8 $9 X,Y pos of 4 corners*
0 Add a 4 corners polygon primitive as box body*
4,1,4,$2,$3,$4,$5,$6,$7,$8,$9,$2,$3,0*
0 Add four circle primitives for the rounded corners*
1,1,$1+$1,$2,$3*
1,1,$1+$1,$4,$5*
1,1,$1+$1,$6,$7*
1,1,$1+$1,$8,$9*
0 Add four rect primitives between the rounded corners*
20,1,$1+$1,$2,$3,$4,$5,0*
20,1,$1+$1,$4,$5,$6,$7,0*
20,1,$1+$1,$6,$7,$8,$9,0*
20,1,$1+$1,$8,$9,$2,$3,0*%
G04 Aperture macros list end*
%ADD10RoundRect,0.250000X-0.600000X-0.725000X0.600000X-0.725000X0.600000X0.725000X-0.600000X0.725000X0*%
%ADD11O,1.700000X1.950000*%
%ADD12RoundRect,0.102000X0.965200X0.800000X-0.965200X0.800000X-0.965200X-0.800000X0.965200X-0.800000X0*%
%ADD13RoundRect,0.250000X-0.600000X-0.750000X0.600000X-0.750000X0.600000X0.750000X-0.600000X0.750000X0*%
%ADD14O,1.700000X2.000000*%
%ADD15RoundRect,0.250000X0.550000X0.550000X-0.550000X0.550000X-0.550000X-0.550000X0.550000X-0.550000X0*%
%ADD16C,1.600000*%
%ADD17RoundRect,0.102000X0.765000X0.765000X-0.765000X0.765000X-0.765000X-0.765000X0.765000X-0.765000X0*%
%ADD18C,1.734000*%
%ADD19RoundRect,0.250000X-0.550000X-0.550000X0.550000X-0.550000X0.550000X0.550000X-0.550000X0.550000X0*%
%ADD20RoundRect,0.250000X-1.050000X-1.050000X1.050000X-1.050000X1.050000X1.050000X-1.050000X1.050000X0*%
%ADD21C,2.600000*%
%ADD22RoundRect,0.381000X0.889000X0.889000X-0.889000X0.889000X-0.889000X-0.889000X0.889000X-0.889000X0*%
%ADD23R,1.905000X2.000000*%
%ADD24O,1.905000X2.000000*%
%ADD25RoundRect,0.102000X0.800000X-0.965200X0.800000X0.965200X-0.800000X0.965200X-0.800000X-0.965200X0*%
%ADD26RoundRect,0.250000X-0.725000X0.600000X-0.725000X-0.600000X0.725000X-0.600000X0.725000X0.600000X0*%
%ADD27O,1.950000X1.700000*%
%ADD28RoundRect,0.102000X-0.800000X0.965200X-0.800000X-0.965200X0.800000X-0.965200X0.800000X0.965200X0*%
%ADD29RoundRect,0.250000X0.325000X0.450000X-0.325000X0.450000X-0.325000X-0.450000X0.325000X-0.450000X0*%
%ADD30C,2.000000*%
%ADD31C,3.000000*%
%ADD32R,1.700000X1.700000*%
%ADD33O,1.700000X1.700000*%
G04 APERTURE END LIST*
D10*
%TO.C,J9*%
X-22000000Y9900000D03*
D11*
X-19500000Y9900000D03*
X-17000000Y9900000D03*
X-14500000Y9900000D03*
X-12000000Y9900000D03*
%TD*%
D12*
%TO.C,U5*%
X62900000Y8790000D03*
X62900000Y13870000D03*
X62900000Y11330000D03*
X62900000Y16410000D03*
%TD*%
D10*
%TO.C,J3*%
X10700000Y-10500000D03*
D11*
X13200000Y-10500000D03*
X15700000Y-10500000D03*
X18200000Y-10500000D03*
X20700000Y-10500000D03*
X23200000Y-10500000D03*
%TD*%
D10*
%TO.C,J19*%
X-22000000Y-10500000D03*
D11*
X-19500000Y-10500000D03*
X-17000000Y-10500000D03*
X-14500000Y-10500000D03*
X-12000000Y-10500000D03*
%TD*%
D13*
%TO.C,J7*%
X40250000Y-10475000D03*
D14*
X42750000Y-10475000D03*
%TD*%
D13*
%TO.C,J11*%
X48650000Y-2475000D03*
D14*
X51150000Y-2475000D03*
%TD*%
D15*
%TO.C,C4*%
X-21600000Y16200000D03*
D16*
X-24100000Y16200000D03*
%TD*%
D17*
%TO.C,U2*%
X-5050000Y36510000D03*
D18*
X-5050000Y39050000D03*
X-5050000Y41590000D03*
X-5050000Y44130000D03*
X-5050000Y46670000D03*
X-5050000Y49210000D03*
X-5050000Y51750000D03*
X-5050000Y54290000D03*
X-17750000Y54290000D03*
X-17750000Y51750000D03*
X-17750000Y49210000D03*
X-17750000Y46670000D03*
X-17750000Y44130000D03*
X-17750000Y41590000D03*
X-17750000Y39050000D03*
X-17750000Y36510000D03*
%TD*%
D19*
%TO.C,C12*%
X-1500000Y16000000D03*
D16*
X3500000Y16000000D03*
%TD*%
D10*
%TO.C,J2*%
X29200000Y-10500000D03*
D11*
X31700000Y-10500000D03*
X34200000Y-10500000D03*
%TD*%
D15*
%TO.C,C5*%
X-22517620Y37300000D03*
D16*
X-25017620Y37300000D03*
%TD*%
D20*
%TO.C,J15*%
X57200000Y-10000000D03*
D21*
X62280000Y-10000000D03*
%TD*%
D22*
%TO.C,DC-DC_PI5*%
X49200000Y32400000D03*
X52275000Y48361000D03*
X-1800000Y53400000D03*
X-1800000Y32400000D03*
%TD*%
D13*
%TO.C,J20*%
X-6100000Y-3700000D03*
D14*
X-3600000Y-3700000D03*
%TD*%
D19*
%TO.C,C1*%
X6997349Y16000000D03*
D16*
X11997349Y16000000D03*
%TD*%
D23*
%TO.C,Q3*%
X36700000Y-2600000D03*
D24*
X39240000Y-2600000D03*
X41780000Y-2600000D03*
%TD*%
D25*
%TO.C,U6*%
X55590000Y30754500D03*
X60670000Y30754500D03*
X58130000Y30754500D03*
X63210000Y30754500D03*
%TD*%
D19*
%TO.C,C6*%
X6997349Y24550000D03*
D16*
X11997349Y24550000D03*
%TD*%
D13*
%TO.C,J10*%
X48650000Y-10475000D03*
D14*
X51150000Y-10475000D03*
%TD*%
D13*
%TO.C,J12*%
X2300000Y-3675000D03*
D14*
X4800000Y-3675000D03*
%TD*%
D26*
%TO.C,J8*%
X-23500000Y30100000D03*
D27*
X-23500000Y27600000D03*
X-23500000Y25100000D03*
X-23500000Y22600000D03*
%TD*%
D10*
%TO.C,J18*%
X-22000000Y-3700000D03*
D11*
X-19500000Y-3700000D03*
X-17000000Y-3700000D03*
X-14500000Y-3700000D03*
X-12000000Y-3700000D03*
%TD*%
D28*
%TO.C,U7*%
X6010000Y47645500D03*
X930000Y47645500D03*
X3470000Y47645500D03*
X-1610000Y47645500D03*
%TD*%
D13*
%TO.C,J22*%
X2300000Y-10500000D03*
D14*
X4800000Y-10500000D03*
%TD*%
D26*
%TO.C,J13*%
X-23475000Y51350000D03*
D27*
X-23475000Y48850000D03*
X-23475000Y46350000D03*
X-23475000Y43850000D03*
%TD*%
D29*
%TO.C,D1*%
X40800000Y-5200000D03*
X38750000Y-5200000D03*
%TD*%
D30*
%TO.C,SW1*%
X25450000Y2050000D03*
X31950000Y2050000D03*
X25450000Y-2450000D03*
X31950000Y-2450000D03*
%TD*%
D31*
%TO.C,F1*%
X63150000Y23900000D03*
X40650000Y23900000D03*
%TD*%
D10*
%TO.C,J17*%
X-22000000Y3100000D03*
D11*
X-19500000Y3100000D03*
X-17000000Y3100000D03*
X-14500000Y3100000D03*
X-12000000Y3100000D03*
%TD*%
D19*
%TO.C,C2*%
X-1500000Y24550000D03*
D16*
X3500000Y24550000D03*
%TD*%
D17*
%TO.C,U1*%
X-5150000Y15010000D03*
D18*
X-5150000Y17550000D03*
X-5150000Y20090000D03*
X-5150000Y22630000D03*
X-5150000Y25170000D03*
X-5150000Y27710000D03*
X-5150000Y30250000D03*
X-5150000Y32790000D03*
X-17850000Y32790000D03*
X-17850000Y30250000D03*
X-17850000Y27710000D03*
X-17850000Y25170000D03*
X-17850000Y22630000D03*
X-17850000Y20090000D03*
X-17850000Y17550000D03*
X-17850000Y15010000D03*
%TD*%
D13*
%TO.C,J21*%
X-6100000Y-10500000D03*
D14*
X-3600000Y-10500000D03*
%TD*%
D32*
%TO.C,J1*%
X8370000Y51230000D03*
D33*
X8370000Y53770000D03*
X10910000Y51230000D03*
X10910000Y53770000D03*
X13450000Y51230000D03*
X13450000Y53770000D03*
X15990000Y51230000D03*
X15990000Y53770000D03*
X18530000Y51230000D03*
X18530000Y53770000D03*
X21070000Y51230000D03*
X21070000Y53770000D03*
X23610000Y51230000D03*
X23610000Y53770000D03*
X26150000Y51230000D03*
X26150000Y53770000D03*
X28690000Y51230000D03*
X28690000Y53770000D03*
X31230000Y51230000D03*
X31230000Y53770000D03*
X33770000Y51230000D03*
X33770000Y53770000D03*
X36310000Y51230000D03*
X36310000Y53770000D03*
X38850000Y51230000D03*
X38850000Y53770000D03*
X41390000Y51230000D03*
X41390000Y53770000D03*
X43930000Y51230000D03*
X43930000Y53770000D03*
X46470000Y51230000D03*
X46470000Y53770000D03*
X49010000Y51230000D03*
X49010000Y53770000D03*
X51550000Y51230000D03*
X51550000Y53770000D03*
X54090000Y51230000D03*
X54090000Y53770000D03*
X56630000Y51230000D03*
X56630000Y53770000D03*
%TD*%
M02*
