M48
; DRILL file {KiCad 9.0.3} date 2025-07-12T01:01:34+0200
; FORMAT={-:-/ absolute / inch / decimal}
; #@! TF.CreationDate,2025-07-12T01:01:34+02:00
; #@! TF.GenerationSoftware,Kicad,Pcbnew,9.0.3
; #@! TF.FileFunction,Plated,1,2,PTH
FMAT,2
INCH
; #@! TA.AperFunction,Plated,PTH,ViaDrill
T1C0.0157
; #@! TA.AperFunction,Plated,PTH,ViaDrill
T2C0.0236
; #@! TA.AperFunction,Plated,PTH,ComponentDrill
T3C0.0315
; #@! TA.AperFunction,Plated,PTH,ComponentDrill
T4C0.0374
; #@! TA.AperFunction,Plated,PTH,ComponentDrill
T5C0.0394
; #@! TA.AperFunction,Plated,PTH,ComponentDrill
T6C0.0402
; #@! TA.AperFunction,Plated,PTH,ComponentDrill
T7C0.0433
; #@! TA.AperFunction,Plated,PTH,ComponentDrill
T8C0.0512
%
G90
G05
T1
X-1.003Y1.9331
X-1.003Y1.7205
X-1.003Y1.563
X-1.003Y1.3307
X-0.9843Y2.0906
X-0.8819Y1.5512
X-0.878Y2.1374
X-0.7717Y0.0157
X-0.6693Y-0.063
X-0.563Y0.315
X-0.2205Y-0.0591
X-0.1614Y-0.0748
X-0.0394Y-0.063
X-0.0039Y1.7598
X-0.0039Y1.5354
X0.0039Y0.5512
X0.0118Y1.5787
X0.0276Y1.8031
X0.0315Y1.7126
X0.0354Y1.6457
X0.0354Y0.8031
X0.1024Y1.4331
X0.1063Y1.3268
X0.1063Y1.2244
X0.1339Y1.4882
X0.1417Y1.2756
X0.1457Y1.3701
X0.1868Y1.4507
X0.1969Y1.7323
X0.2495Y1.6773
X0.2805Y1.583
X0.2889Y1.6763
X0.2953Y0.5354
X0.2992Y0.1575
X0.3013Y1.5496
X0.311Y1.9055
X0.3134Y1.6219
X0.3187Y1.5143
X0.374Y1.6288
X0.3819Y1.7391
X0.3819Y0.3898
X0.4016Y1.9173
X0.4094Y1.7992
X0.4182Y1.3819
X0.4214Y1.5933
X0.4488Y1.7697
X0.4764Y1.063
X0.4803Y0.8661
X0.4843Y0.7559
X0.4921Y1.5709
X0.4921Y1.315
X0.4951Y1.4163
X0.4961Y1.1929
X0.502Y1.7717
X0.5354Y1.8071
X0.5748Y0.4331
X0.5906Y1.9173
X0.6693Y1.4921
X0.7165Y-0.5
X0.752Y-0.3386
X0.7717Y1.2913
X0.7756Y2.0709
X0.7992Y-0.2362
X0.8031Y1.6417
X0.8386Y-0.0039
X0.8425Y1.4803
X0.8504Y-0.5079
X0.8622Y-0.3268
X0.9213Y-0.1181
X0.9488Y-0.2441
X0.9528Y1.4803
X0.9528Y0.1811
X0.9764Y-0.5276
X0.9882Y-0.3071
X1.0472Y-0.4016
X1.0748Y1.752
X1.1024Y0.1654
X1.1181Y1.4764
X1.126Y1.315
X1.1496Y-0.2244
X1.1654Y1.9606
X1.1772Y-0.1417
X1.189Y-0.3346
X1.1929Y-0.5276
X1.2008Y1.2677
X1.2023Y-0.0015
X1.2717Y1.7244
X1.3071Y1.9213
X1.3189Y1.6181
X1.3189Y0.1732
X1.3386Y-0.1457
X1.3465Y-0.0551
X1.378Y-0.2638
X1.3858Y1.5
X1.437Y1.8661
X1.4685Y-0.4291
X1.4724Y1.3425
X1.4724Y-0.3268
X1.4882Y1.0197
X1.4882Y-0.2047
X1.5236Y0.1811
X1.5433Y1.937
X1.563Y0.0551
X1.6142Y0.4213
X1.6654Y1.8701
X1.7205Y-0.2323
X1.7244Y0.0118
X1.7323Y1.9449
X1.7362Y1.1102
X1.7756Y1.626
X1.7992Y-0.3819
X1.811Y1.8504
X1.811Y0.9409
X1.8701Y1.9094
X1.874Y0.7126
X1.8898Y0.1102
X1.8976Y0.5433
X1.8976Y0.3425
X1.8984Y1.7229
X1.9055Y1.0394
X1.9185Y1.689
X1.9291Y1.6496
X1.9488Y1.4646
X1.9724Y-0.2441
X1.9803Y-0.0118
X2.0Y1.7756
X2.0157Y1.1417
X2.0472Y0.0433
X2.0512Y0.6417
X2.063Y0.2559
X2.0669Y0.4606
X2.0906Y1.6693
X2.1417Y-0.4055
X2.1614Y-0.0472
X2.1693Y1.0236
X2.185Y1.5354
X2.2087Y1.8898
X2.311Y-0.1732
X2.3622Y1.6732
X2.3858Y1.3346
X2.4094Y0.7874
X2.4119Y0.2819
X2.4134Y0.7126
X2.4331Y-0.5039
X2.4449Y-0.0197
X2.4488Y1.8661
X2.4528Y-0.1063
X2.4528Y-0.2953
X2.4606Y-0.2047
X2.4685Y1.6772
X2.5079Y0.8346
X2.5118Y1.4803
X2.5157Y-0.4646
X2.5236Y-0.0315
X2.5236Y-0.1654
X2.5236Y-0.2953
X2.5276Y0.7598
X2.5276Y0.2874
X2.5315Y0.5827
X2.5354Y0.5
T2
X-0.9469Y0.5492
X-0.9429Y-0.4803
X-0.9331Y1.6654
X-0.8917Y-0.248
X-0.878Y0.0059
X-0.8563Y0.2303
X-0.8248Y0.2972
X-0.7913Y-0.5197
X-0.7874Y-0.2461
X-0.7106Y0.4547
X-0.6575Y-0.3209
X-0.5787Y-0.061
X-0.5728Y-0.3031
X-0.5394Y1.8012
X-0.5276Y1.5886
X-0.4823Y-0.5039
X-0.4252Y2.1516
X-0.4075Y0.315
X-0.4035Y-0.3701
X-0.3878Y0.3799
X-0.3701Y-0.0472
X-0.3524Y1.2146
X-0.3445Y1.6004
X-0.3366Y1.0689
X-0.3307Y0.8799
X-0.3248Y1.7165
X-0.3248Y0.689
X-0.3228Y1.4764
X-0.313Y-0.3681
X-0.2874Y2.1024
X-0.2598Y0.4094
X-0.2441Y0.2559
X-0.2441Y0.0768
X-0.0413Y-0.3701
X-0.0138Y0.2008
X-0.0118Y0.0315
X0.0138Y-0.1614
X0.0315Y-0.3661
X0.0354Y0.3465
X0.1516Y-0.061
X0.1811Y0.6929
X0.2106Y-0.2362
X0.2776Y-0.3602
X0.3209Y-0.1437
X0.3701Y-0.2657
X0.376Y0.0354
X0.378Y0.1083
X0.3976Y-0.5157
X0.3996Y-0.3366
X0.4783Y0.5039
X0.5295Y0.1063
X0.5748Y-0.5118
X0.5768Y2.0689
X0.5807Y-0.3445
X0.6437Y1.3268
X0.6654Y0.0365
X0.6732Y2.0689
X1.1811Y2.0669
X1.435Y1.7165
X1.5748Y2.0689
X1.6772Y2.0669
X1.7067Y1.4114
X1.7835Y2.0669
T3
X-0.9849Y1.4685
X-0.9488Y0.6378
X-0.8865Y1.4685
X-0.8504Y0.6378
X-0.0591Y0.9665
X-0.0591Y0.6299
X0.1378Y0.9665
X0.1378Y0.6299
X0.2755Y0.9665
X0.2755Y0.6299
X0.4723Y0.9665
X0.4723Y0.6299
T4
X-0.9252Y1.185
X-0.9252Y1.0866
X-0.9252Y0.9882
X-0.9252Y0.8898
X-0.9242Y2.0217
X-0.9242Y1.9232
X-0.9242Y1.8248
X-0.9242Y1.7264
X-0.8661Y0.3898
X-0.8661Y0.122
X-0.8661Y-0.1457
X-0.8661Y-0.4134
X-0.7677Y0.3898
X-0.7677Y0.122
X-0.7677Y-0.1457
X-0.7677Y-0.4134
X-0.6693Y0.3898
X-0.6693Y0.122
X-0.6693Y-0.1457
X-0.6693Y-0.4134
X-0.5709Y0.3898
X-0.5709Y0.122
X-0.5709Y-0.1457
X-0.5709Y-0.4134
X-0.4724Y0.3898
X-0.4724Y0.122
X-0.4724Y-0.1457
X-0.4724Y-0.4134
X0.4213Y-0.4134
X0.5197Y-0.4134
X0.6181Y-0.4134
X0.7165Y-0.4134
X0.815Y-0.4134
X0.9134Y-0.4134
X1.1496Y-0.4134
X1.248Y-0.4134
X1.3465Y-0.4134
T5
X-0.2402Y-0.1457
X-0.2402Y-0.4134
X-0.1417Y-0.1457
X-0.1417Y-0.4134
X-0.0634Y1.8758
X0.0366Y1.8758
X0.0906Y-0.1447
X0.0906Y-0.4134
X0.1366Y1.8758
X0.189Y-0.1447
X0.189Y-0.4134
X0.2366Y1.8758
X0.3295Y2.1169
X0.3295Y2.0169
X0.4295Y2.1169
X0.4295Y2.0169
X0.5295Y2.1169
X0.5295Y2.0169
X0.6295Y2.1169
X0.6295Y2.0169
X0.7295Y2.1169
X0.7295Y2.0169
X0.8295Y2.1169
X0.8295Y2.0169
X0.9295Y2.1169
X0.9295Y2.0169
X1.0295Y2.1169
X1.0295Y2.0169
X1.1295Y2.1169
X1.1295Y2.0169
X1.2295Y2.1169
X1.2295Y2.0169
X1.3295Y2.1169
X1.3295Y2.0169
X1.4295Y2.1169
X1.4295Y2.0169
X1.5295Y2.1169
X1.5295Y2.0169
X1.5846Y-0.4124
X1.6295Y2.1169
X1.6295Y2.0169
X1.6831Y-0.4124
X1.7295Y2.1169
X1.7295Y2.0169
X1.8295Y2.1169
X1.8295Y2.0169
X1.9154Y-0.0974
X1.9154Y-0.4124
X1.9295Y2.1169
X1.9295Y2.0169
X2.0138Y-0.0974
X2.0138Y-0.4124
X2.0295Y2.1169
X2.0295Y2.0169
X2.1295Y2.1169
X2.1295Y2.0169
X2.1886Y1.2108
X2.2295Y2.1169
X2.2295Y2.0169
X2.2886Y1.2108
X2.3886Y1.2108
X2.4764Y0.6461
X2.4764Y0.5461
X2.4764Y0.4461
X2.4764Y0.3461
X2.4886Y1.2108
T6
X-0.7028Y1.2909
X-0.7028Y1.1909
X-0.7028Y1.0909
X-0.7028Y0.9909
X-0.7028Y0.8909
X-0.7028Y0.7909
X-0.7028Y0.6909
X-0.7028Y0.5909
X-0.6988Y2.1374
X-0.6988Y2.0374
X-0.6988Y1.9374
X-0.6988Y1.8374
X-0.6988Y1.7374
X-0.6988Y1.6374
X-0.6988Y1.5374
X-0.6988Y1.4374
X-0.2028Y1.2909
X-0.2028Y1.1909
X-0.2028Y1.0909
X-0.2028Y0.9909
X-0.2028Y0.8909
X-0.2028Y0.7909
X-0.2028Y0.6909
X-0.2028Y0.5909
X-0.1988Y2.1374
X-0.1988Y2.0374
X-0.1988Y1.9374
X-0.1988Y1.8374
X-0.1988Y1.7374
X-0.1988Y1.6374
X-0.1988Y1.5374
X-0.1988Y1.4374
T7
X1.002Y0.0807
X1.002Y-0.0965
X1.2579Y0.0807
X1.2579Y-0.0965
X1.4449Y-0.1024
X1.5449Y-0.1024
X1.6449Y-0.1024
T8
X-0.0709Y2.1024
X-0.0709Y1.2756
X1.6004Y0.9409
X1.937Y1.2756
X2.0581Y1.904
X2.252Y-0.3937
X2.452Y-0.3937
X2.4862Y0.9409
M30
