%TF.GenerationSoftware,KiCad,Pcbnew,9.0.3*%
%TF.CreationDate,2025-07-12T01:01:34+02:00*%
%TF.ProjectId,FactoryInABoxHat,46616374-6f72-4794-996e-41426f784861,rev?*%
%TF.SameCoordinates,Original*%
%TF.FileFunction,Soldermask,Bot*%
%TF.FilePolarity,Negative*%
%FSLAX46Y46*%
G04 Gerber Fmt 4.6, Leading zero omitted, Abs format (unit mm)*
G04 Created by KiCad (PCBNEW 9.0.3) date 2025-07-12 01:01:34*
%MOMM*%
%LPD*%
G01*
G04 APERTURE LIST*
G04 Aperture macros list*
%AMRoundRect*
0 Rectangle with rounded corners*
0 $1 Rounding radius*
0 $2 $3 $4 $5 $6 $7 $8 $9 X,Y pos of 4 corners*
0 Add a 4 corners polygon primitive as box body*
4,1,4,$2,$3,$4,$5,$6,$7,$8,$9,$2,$3,0*
0 Add four circle primitives for the rounded corners*
1,1,$1+$1,$2,$3*
1,1,$1+$1,$4,$5*
1,1,$1+$1,$6,$7*
1,1,$1+$1,$8,$9*
0 Add four rect primitives between the rounded corners*
20,1,$1+$1,$2,$3,$4,$5,0*
20,1,$1+$1,$4,$5,$6,$7,0*
20,1,$1+$1,$6,$7,$8,$9,0*
20,1,$1+$1,$8,$9,$2,$3,0*%
%AMFreePoly0*
4,1,23,0.550000,-0.750000,0.000000,-0.750000,0.000000,-0.745722,-0.065263,-0.745722,-0.191342,-0.711940,-0.304381,-0.646677,-0.396677,-0.554381,-0.461940,-0.441342,-0.495722,-0.315263,-0.495722,-0.250000,-0.500000,-0.250000,-0.500000,0.250000,-0.495722,0.250000,-0.495722,0.315263,-0.461940,0.441342,-0.396677,0.554381,-0.304381,0.646677,-0.191342,0.711940,-0.065263,0.745722,0.000000,0.745722,
0.000000,0.750000,0.550000,0.750000,0.550000,-0.750000,0.550000,-0.750000,$1*%
%AMFreePoly1*
4,1,23,0.000000,0.745722,0.065263,0.745722,0.191342,0.711940,0.304381,0.646677,0.396677,0.554381,0.461940,0.441342,0.495722,0.315263,0.495722,0.250000,0.500000,0.250000,0.500000,-0.250000,0.495722,-0.250000,0.495722,-0.315263,0.461940,-0.441342,0.396677,-0.554381,0.304381,-0.646677,0.191342,-0.711940,0.065263,-0.745722,0.000000,-0.745722,0.000000,-0.750000,-0.550000,-0.750000,
-0.550000,0.750000,0.000000,0.750000,0.000000,0.745722,0.000000,0.745722,$1*%
G04 Aperture macros list end*
%ADD10RoundRect,0.250000X-0.600000X-0.725000X0.600000X-0.725000X0.600000X0.725000X-0.600000X0.725000X0*%
%ADD11O,1.700000X1.950000*%
%ADD12RoundRect,0.102000X0.965200X0.800000X-0.965200X0.800000X-0.965200X-0.800000X0.965200X-0.800000X0*%
%ADD13C,2.700000*%
%ADD14RoundRect,0.250000X-0.600000X-0.750000X0.600000X-0.750000X0.600000X0.750000X-0.600000X0.750000X0*%
%ADD15O,1.700000X2.000000*%
%ADD16RoundRect,0.250000X0.550000X0.550000X-0.550000X0.550000X-0.550000X-0.550000X0.550000X-0.550000X0*%
%ADD17C,1.600000*%
%ADD18RoundRect,0.102000X0.765000X0.765000X-0.765000X0.765000X-0.765000X-0.765000X0.765000X-0.765000X0*%
%ADD19C,1.734000*%
%ADD20RoundRect,0.250000X-0.550000X-0.550000X0.550000X-0.550000X0.550000X0.550000X-0.550000X0.550000X0*%
%ADD21RoundRect,0.250000X-1.050000X-1.050000X1.050000X-1.050000X1.050000X1.050000X-1.050000X1.050000X0*%
%ADD22C,2.600000*%
%ADD23C,3.000000*%
%ADD24RoundRect,0.381000X0.889000X0.889000X-0.889000X0.889000X-0.889000X-0.889000X0.889000X-0.889000X0*%
%ADD25R,1.905000X2.000000*%
%ADD26O,1.905000X2.000000*%
%ADD27RoundRect,0.102000X0.800000X-0.965200X0.800000X0.965200X-0.800000X0.965200X-0.800000X-0.965200X0*%
%ADD28C,2.800000*%
%ADD29RoundRect,0.250000X-0.725000X0.600000X-0.725000X-0.600000X0.725000X-0.600000X0.725000X0.600000X0*%
%ADD30O,1.950000X1.700000*%
%ADD31RoundRect,0.102000X-0.800000X0.965200X-0.800000X-0.965200X0.800000X-0.965200X0.800000X0.965200X0*%
%ADD32C,2.000000*%
%ADD33R,1.700000X1.700000*%
%ADD34O,1.700000X1.700000*%
%ADD35RoundRect,0.250000X0.350000X0.450000X-0.350000X0.450000X-0.350000X-0.450000X0.350000X-0.450000X0*%
%ADD36RoundRect,0.250000X-0.475000X0.337500X-0.475000X-0.337500X0.475000X-0.337500X0.475000X0.337500X0*%
%ADD37RoundRect,0.250000X-0.450000X0.350000X-0.450000X-0.350000X0.450000X-0.350000X0.450000X0.350000X0*%
%ADD38RoundRect,0.150000X0.150000X-0.850000X0.150000X0.850000X-0.150000X0.850000X-0.150000X-0.850000X0*%
%ADD39RoundRect,0.250000X0.450000X-0.350000X0.450000X0.350000X-0.450000X0.350000X-0.450000X-0.350000X0*%
%ADD40RoundRect,0.250000X0.337500X0.475000X-0.337500X0.475000X-0.337500X-0.475000X0.337500X-0.475000X0*%
%ADD41RoundRect,0.250000X-0.337500X-0.475000X0.337500X-0.475000X0.337500X0.475000X-0.337500X0.475000X0*%
%ADD42RoundRect,0.100000X-0.637500X-0.100000X0.637500X-0.100000X0.637500X0.100000X-0.637500X0.100000X0*%
%ADD43FreePoly0,270.000000*%
%ADD44R,1.500000X1.000000*%
%ADD45FreePoly1,270.000000*%
G04 APERTURE END LIST*
%TO.C,JP1*%
G36*
X52350000Y-1750000D02*
G01*
X53850000Y-1750000D01*
X53850000Y-3250000D01*
X52350000Y-3250000D01*
X52350000Y-1750000D01*
G37*
%TD*%
D10*
%TO.C,J9*%
X-22000000Y9900000D03*
D11*
X-19500000Y9900000D03*
X-17000000Y9900000D03*
X-14500000Y9900000D03*
X-12000000Y9900000D03*
%TD*%
D12*
%TO.C,U5*%
X62900000Y8790000D03*
X62900000Y13870000D03*
X62900000Y11330000D03*
X62900000Y16410000D03*
%TD*%
D13*
%TO.C,MH2*%
X61500000Y52500000D03*
%TD*%
D10*
%TO.C,J3*%
X10700000Y-10500000D03*
D11*
X13200000Y-10500000D03*
X15700000Y-10500000D03*
X18200000Y-10500000D03*
X20700000Y-10500000D03*
X23200000Y-10500000D03*
%TD*%
D10*
%TO.C,J19*%
X-22000000Y-10500000D03*
D11*
X-19500000Y-10500000D03*
X-17000000Y-10500000D03*
X-14500000Y-10500000D03*
X-12000000Y-10500000D03*
%TD*%
D14*
%TO.C,J7*%
X40250000Y-10475000D03*
D15*
X42750000Y-10475000D03*
%TD*%
D14*
%TO.C,J11*%
X48650000Y-2475000D03*
D15*
X51150000Y-2475000D03*
%TD*%
D16*
%TO.C,C4*%
X-21600000Y16200000D03*
D17*
X-24100000Y16200000D03*
%TD*%
D18*
%TO.C,U2*%
X-5050000Y36510000D03*
D19*
X-5050000Y39050000D03*
X-5050000Y41590000D03*
X-5050000Y44130000D03*
X-5050000Y46670000D03*
X-5050000Y49210000D03*
X-5050000Y51750000D03*
X-5050000Y54290000D03*
X-17750000Y54290000D03*
X-17750000Y51750000D03*
X-17750000Y49210000D03*
X-17750000Y46670000D03*
X-17750000Y44130000D03*
X-17750000Y41590000D03*
X-17750000Y39050000D03*
X-17750000Y36510000D03*
%TD*%
D20*
%TO.C,C12*%
X-1500000Y16000000D03*
D17*
X3500000Y16000000D03*
%TD*%
D10*
%TO.C,J2*%
X29200000Y-10500000D03*
D11*
X31700000Y-10500000D03*
X34200000Y-10500000D03*
%TD*%
D16*
%TO.C,C5*%
X-22517620Y37300000D03*
D17*
X-25017620Y37300000D03*
%TD*%
D21*
%TO.C,J15*%
X57200000Y-10000000D03*
D22*
X62280000Y-10000000D03*
%TD*%
D23*
%TO.C,DC-DC_PI5*%
X43900000Y33300000D03*
X3500000Y52500000D03*
D24*
X49200000Y32400000D03*
X52275000Y48361000D03*
X-1800000Y53400000D03*
X-1800000Y32400000D03*
%TD*%
D14*
%TO.C,J20*%
X-6100000Y-3700000D03*
D15*
X-3600000Y-3700000D03*
%TD*%
D20*
%TO.C,C1*%
X6997349Y16000000D03*
D17*
X11997349Y16000000D03*
%TD*%
D25*
%TO.C,Q3*%
X36700000Y-2600000D03*
D26*
X39240000Y-2600000D03*
X41780000Y-2600000D03*
%TD*%
D27*
%TO.C,U6*%
X55590000Y30754500D03*
X60670000Y30754500D03*
X58130000Y30754500D03*
X63210000Y30754500D03*
%TD*%
D20*
%TO.C,C6*%
X6997349Y24550000D03*
D17*
X11997349Y24550000D03*
%TD*%
D14*
%TO.C,J10*%
X48650000Y-10475000D03*
D15*
X51150000Y-10475000D03*
%TD*%
D13*
%TO.C,MH3*%
X3500000Y3500000D03*
%TD*%
%TO.C,MH1*%
X3500000Y52500000D03*
%TD*%
D28*
%TO.C,M1*%
X16400000Y8150000D03*
X36400000Y8150000D03*
X16400000Y28150000D03*
X36400000Y28150000D03*
%TD*%
D14*
%TO.C,J12*%
X2300000Y-3675000D03*
D15*
X4800000Y-3675000D03*
%TD*%
D29*
%TO.C,J8*%
X-23500000Y30100000D03*
D30*
X-23500000Y27600000D03*
X-23500000Y25100000D03*
X-23500000Y22600000D03*
%TD*%
D10*
%TO.C,J18*%
X-22000000Y-3700000D03*
D11*
X-19500000Y-3700000D03*
X-17000000Y-3700000D03*
X-14500000Y-3700000D03*
X-12000000Y-3700000D03*
%TD*%
D13*
%TO.C,MH4*%
X61500000Y3500000D03*
%TD*%
D31*
%TO.C,U7*%
X6010000Y47645500D03*
X930000Y47645500D03*
X3470000Y47645500D03*
X-1610000Y47645500D03*
%TD*%
D14*
%TO.C,J22*%
X2300000Y-10500000D03*
D15*
X4800000Y-10500000D03*
%TD*%
D29*
%TO.C,J13*%
X-23475000Y51350000D03*
D30*
X-23475000Y48850000D03*
X-23475000Y46350000D03*
X-23475000Y43850000D03*
%TD*%
D32*
%TO.C,SW1*%
X25450000Y2050000D03*
X31950000Y2050000D03*
X25450000Y-2450000D03*
X31950000Y-2450000D03*
%TD*%
D13*
%TO.C,F1*%
X51900000Y23900000D03*
D23*
X63150000Y23900000D03*
X40650000Y23900000D03*
%TD*%
D10*
%TO.C,J17*%
X-22000000Y3100000D03*
D11*
X-19500000Y3100000D03*
X-17000000Y3100000D03*
X-14500000Y3100000D03*
X-12000000Y3100000D03*
%TD*%
D20*
%TO.C,C2*%
X-1500000Y24550000D03*
D17*
X3500000Y24550000D03*
%TD*%
D18*
%TO.C,U1*%
X-5150000Y15010000D03*
D19*
X-5150000Y17550000D03*
X-5150000Y20090000D03*
X-5150000Y22630000D03*
X-5150000Y25170000D03*
X-5150000Y27710000D03*
X-5150000Y30250000D03*
X-5150000Y32790000D03*
X-17850000Y32790000D03*
X-17850000Y30250000D03*
X-17850000Y27710000D03*
X-17850000Y25170000D03*
X-17850000Y22630000D03*
X-17850000Y20090000D03*
X-17850000Y17550000D03*
X-17850000Y15010000D03*
%TD*%
D14*
%TO.C,J21*%
X-6100000Y-10500000D03*
D15*
X-3600000Y-10500000D03*
%TD*%
D33*
%TO.C,J1*%
X8370000Y51230000D03*
D34*
X8370000Y53770000D03*
X10910000Y51230000D03*
X10910000Y53770000D03*
X13450000Y51230000D03*
X13450000Y53770000D03*
X15990000Y51230000D03*
X15990000Y53770000D03*
X18530000Y51230000D03*
X18530000Y53770000D03*
X21070000Y51230000D03*
X21070000Y53770000D03*
X23610000Y51230000D03*
X23610000Y53770000D03*
X26150000Y51230000D03*
X26150000Y53770000D03*
X28690000Y51230000D03*
X28690000Y53770000D03*
X31230000Y51230000D03*
X31230000Y53770000D03*
X33770000Y51230000D03*
X33770000Y53770000D03*
X36310000Y51230000D03*
X36310000Y53770000D03*
X38850000Y51230000D03*
X38850000Y53770000D03*
X41390000Y51230000D03*
X41390000Y53770000D03*
X43930000Y51230000D03*
X43930000Y53770000D03*
X46470000Y51230000D03*
X46470000Y53770000D03*
X49010000Y51230000D03*
X49010000Y53770000D03*
X51550000Y51230000D03*
X51550000Y53770000D03*
X54090000Y51230000D03*
X54090000Y53770000D03*
X56630000Y51230000D03*
X56630000Y53770000D03*
%TD*%
D35*
%TO.C,R2*%
X36900000Y-5200000D03*
X34900000Y-5200000D03*
%TD*%
D36*
%TO.C,C16*%
X19800000Y4037500D03*
X19800000Y1962500D03*
%TD*%
%TO.C,C17*%
X21800000Y4037500D03*
X21800000Y1962500D03*
%TD*%
D37*
%TO.C,R3*%
X36800000Y1400000D03*
X36800000Y-600000D03*
%TD*%
%TO.C,R9*%
X-8800000Y-10900000D03*
X-8800000Y-12900000D03*
%TD*%
D38*
%TO.C,U3*%
X17895000Y-725000D03*
X16625000Y-725000D03*
X15355000Y-725000D03*
X14085000Y-725000D03*
X12815000Y-725000D03*
X11545000Y-725000D03*
X10275000Y-725000D03*
X9005000Y-725000D03*
X9005000Y4275000D03*
X10275000Y4275000D03*
X11545000Y4275000D03*
X12815000Y4275000D03*
X14085000Y4275000D03*
X15355000Y4275000D03*
X16625000Y4275000D03*
X17895000Y4275000D03*
%TD*%
D35*
%TO.C,R10*%
X-4000000Y-5700000D03*
X-6000000Y-5700000D03*
%TD*%
D39*
%TO.C,R4*%
X17750000Y-6925000D03*
X17750000Y-4925000D03*
%TD*%
D40*
%TO.C,C10*%
X29737500Y-2200000D03*
X27662500Y-2200000D03*
%TD*%
D35*
%TO.C,R16*%
X25900000Y-200000D03*
X23900000Y-200000D03*
%TD*%
D41*
%TO.C,C20*%
X33862500Y-7900000D03*
X35937500Y-7900000D03*
%TD*%
D40*
%TO.C,C18*%
X17687500Y-3025000D03*
X15612500Y-3025000D03*
%TD*%
D35*
%TO.C,R15*%
X29700000Y-200000D03*
X27700000Y-200000D03*
%TD*%
%TO.C,R8*%
X3600000Y-5700000D03*
X1600000Y-5700000D03*
%TD*%
D36*
%TO.C,C11*%
X100000Y-562500D03*
X100000Y-2637500D03*
%TD*%
D40*
%TO.C,C8*%
X-7762500Y-7700000D03*
X-9837500Y-7700000D03*
%TD*%
D35*
%TO.C,R14*%
X3600000Y-7700000D03*
X1600000Y-7700000D03*
%TD*%
D39*
%TO.C,R17*%
X11750000Y-6925000D03*
X11750000Y-4925000D03*
%TD*%
D37*
%TO.C,R20*%
X10200000Y8600000D03*
X10200000Y6600000D03*
%TD*%
%TO.C,R11*%
X-1900000Y-10900000D03*
X-1900000Y-12900000D03*
%TD*%
D40*
%TO.C,C19*%
X13887500Y-3025000D03*
X11812500Y-3025000D03*
%TD*%
D39*
%TO.C,R18*%
X5300000Y7504906D03*
X5300000Y9504906D03*
%TD*%
%TO.C,R19*%
X3300000Y7500000D03*
X3300000Y9500000D03*
%TD*%
D37*
%TO.C,R21*%
X12100000Y8600000D03*
X12100000Y6600000D03*
%TD*%
D35*
%TO.C,R12*%
X-4000000Y-7700000D03*
X-6000000Y-7700000D03*
%TD*%
D42*
%TO.C,U4*%
X26237500Y-8450000D03*
X26237500Y-7800000D03*
X26237500Y-7150000D03*
X26237500Y-6500000D03*
X26237500Y-5850000D03*
X26237500Y-5200000D03*
X26237500Y-4550000D03*
X31962500Y-4550000D03*
X31962500Y-5200000D03*
X31962500Y-5850000D03*
X31962500Y-6500000D03*
X31962500Y-7150000D03*
X31962500Y-7800000D03*
X31962500Y-8450000D03*
%TD*%
D36*
%TO.C,C15*%
X21750000Y-2887500D03*
X21750000Y-4962500D03*
%TD*%
D40*
%TO.C,C9*%
X-162500Y-7700000D03*
X-2237500Y-7700000D03*
%TD*%
D36*
%TO.C,C14*%
X19750000Y-2887500D03*
X19750000Y-4962500D03*
%TD*%
D39*
%TO.C,R6*%
X13750000Y-6925000D03*
X13750000Y-4925000D03*
%TD*%
D37*
%TO.C,R7*%
X0Y-10900000D03*
X0Y-12900000D03*
%TD*%
D40*
%TO.C,C3*%
X-162500Y-5700000D03*
X-2237500Y-5700000D03*
%TD*%
D42*
%TO.C,U8*%
X-7675000Y-175000D03*
X-7675000Y475000D03*
X-7675000Y1125000D03*
X-7675000Y1775000D03*
X-7675000Y2425000D03*
X-7675000Y3075000D03*
X-7675000Y3725000D03*
X-7675000Y4375000D03*
X-7675000Y5025000D03*
X-7675000Y5675000D03*
X-7675000Y6325000D03*
X-7675000Y6975000D03*
X-1950000Y6975000D03*
X-1950000Y6325000D03*
X-1950000Y5675000D03*
X-1950000Y5025000D03*
X-1950000Y4375000D03*
X-1950000Y3725000D03*
X-1950000Y3075000D03*
X-1950000Y2425000D03*
X-1950000Y1775000D03*
X-1950000Y1125000D03*
X-1950000Y475000D03*
X-1950000Y-175000D03*
%TD*%
D43*
%TO.C,JP1*%
X53100000Y-1200000D03*
D44*
X53100000Y-2500000D03*
D45*
X53100000Y-3800000D03*
%TD*%
D40*
%TO.C,C7*%
X-7762500Y-5700000D03*
X-9837500Y-5700000D03*
%TD*%
D36*
%TO.C,C13*%
X9750000Y-2887500D03*
X9750000Y-4962500D03*
%TD*%
D39*
%TO.C,R1*%
X38700000Y-600000D03*
X38700000Y1400000D03*
%TD*%
%TO.C,R5*%
X15750000Y-6925000D03*
X15750000Y-4925000D03*
%TD*%
D37*
%TO.C,R13*%
X6800000Y-10900000D03*
X6800000Y-12900000D03*
%TD*%
M02*
