%TF.GenerationSoftware,KiCad,Pcbnew,10.0.0*%
%TF.CreationDate,2026-05-15T17:00:53+02:00*%
%TF.ProjectId,pcb_control_unit_ethernet,7063625f-636f-46e7-9472-6f6c5f756e69,rev?*%
%TF.SameCoordinates,Original*%
%TF.FileFunction,Profile,NP*%
%FSLAX46Y46*%
G04 Gerber Fmt 4.6, Leading zero omitted, Abs format (unit mm)*
G04 Created by KiCad (PCBNEW 10.0.0) date 2026-05-15 17:00:53*
%MOMM*%
%LPD*%
G01*
G04 APERTURE LIST*
%TA.AperFunction,Profile*%
%ADD10C,0.050000*%
%TD*%
G04 APERTURE END LIST*
D10*
X56000000Y-57500000D02*
X244000000Y-57500000D01*
X244000000Y-122500000D01*
X56000000Y-122500000D01*
X56000000Y-57500000D01*
%TO.C,D1*%
X109175000Y-73725000D02*
X109175000Y-75325000D01*
X109275000Y-75425000D02*
X110675000Y-75425000D01*
X110675000Y-73625000D02*
X109275000Y-73625000D01*
X110775000Y-75325000D02*
X110775000Y-73725000D01*
X109175000Y-73725000D02*
G75*
G02*
X109275000Y-73625000I100000J0D01*
G01*
X109275000Y-75425000D02*
G75*
G02*
X109175000Y-75325000I0J100000D01*
G01*
X110675000Y-73625000D02*
G75*
G02*
X110775000Y-73725000I1J-99999D01*
G01*
X110775000Y-75325000D02*
G75*
G02*
X110675000Y-75425000I-99999J-1D01*
G01*
%TO.C,D8*%
X78775000Y-110200000D02*
X78775000Y-111800000D01*
X78875000Y-111900000D02*
X80275000Y-111900000D01*
X80275000Y-110100000D02*
X78875000Y-110100000D01*
X80375000Y-111800000D02*
X80375000Y-110200000D01*
X78775000Y-110200000D02*
G75*
G02*
X78875000Y-110100000I99999J1D01*
G01*
X78875000Y-111900000D02*
G75*
G02*
X78775000Y-111800000I-1J99999D01*
G01*
X80275000Y-110100000D02*
G75*
G02*
X80375000Y-110200000I0J-100000D01*
G01*
X80375000Y-111800000D02*
G75*
G02*
X80275000Y-111900000I-100000J0D01*
G01*
%TO.C,D7*%
X186200095Y-81200000D02*
X186200095Y-82800000D01*
X186300095Y-82900000D02*
X187700095Y-82900000D01*
X187700095Y-81100000D02*
X186300095Y-81100000D01*
X187800095Y-82800000D02*
X187800095Y-81200000D01*
X186200095Y-81200000D02*
G75*
G02*
X186300095Y-81100000I100000J0D01*
G01*
X186300095Y-82900000D02*
G75*
G02*
X186200095Y-82800000I0J100000D01*
G01*
X187700095Y-81100000D02*
G75*
G02*
X187800095Y-81200000I1J-99999D01*
G01*
X187800095Y-82800000D02*
G75*
G02*
X187700095Y-82900000I-99999J-1D01*
G01*
%TO.C,D6*%
X217325095Y-81200000D02*
X217325095Y-82800000D01*
X217425095Y-82900000D02*
X218825095Y-82900000D01*
X218825095Y-81100000D02*
X217425095Y-81100000D01*
X218925095Y-82800000D02*
X218925095Y-81200000D01*
X217325095Y-81200000D02*
G75*
G02*
X217425095Y-81100000I99999J1D01*
G01*
X217425095Y-82900000D02*
G75*
G02*
X217325095Y-82800000I-1J99999D01*
G01*
X218825095Y-81100000D02*
G75*
G02*
X218925095Y-81200000I0J-100000D01*
G01*
X218925095Y-82800000D02*
G75*
G02*
X218825095Y-82900000I-100000J0D01*
G01*
%TO.C,D3*%
X79776747Y-67196585D02*
X79776747Y-68796585D01*
X79876747Y-68896585D02*
X81276747Y-68896585D01*
X81276747Y-67096585D02*
X79876747Y-67096585D01*
X81376747Y-68796585D02*
X81376747Y-67196585D01*
X79776747Y-67196585D02*
G75*
G02*
X79876747Y-67096585I99999J1D01*
G01*
X79876747Y-68896585D02*
G75*
G02*
X79776747Y-68796585I-1J99999D01*
G01*
X81276747Y-67096585D02*
G75*
G02*
X81376747Y-67196585I0J-100000D01*
G01*
X81376747Y-68796585D02*
G75*
G02*
X81276747Y-68896585I-100000J0D01*
G01*
%TO.C,D5*%
X87275000Y-110200000D02*
X87275000Y-111800000D01*
X87375000Y-111900000D02*
X88775000Y-111900000D01*
X88775000Y-110100000D02*
X87375000Y-110100000D01*
X88875000Y-111800000D02*
X88875000Y-110200000D01*
X87275000Y-110200000D02*
G75*
G02*
X87375000Y-110100000I99999J1D01*
G01*
X87375000Y-111900000D02*
G75*
G02*
X87275000Y-111800000I-1J99999D01*
G01*
X88775000Y-110100000D02*
G75*
G02*
X88875000Y-110200000I0J-100000D01*
G01*
X88875000Y-111800000D02*
G75*
G02*
X88775000Y-111900000I-100000J0D01*
G01*
%TO.C,D4*%
X88200000Y-67200000D02*
X88200000Y-68800000D01*
X88300000Y-68900000D02*
X89700000Y-68900000D01*
X89700000Y-67100000D02*
X88300000Y-67100000D01*
X89800000Y-68800000D02*
X89800000Y-67200000D01*
X88200000Y-67200000D02*
G75*
G02*
X88300000Y-67100000I99999J1D01*
G01*
X88300000Y-68900000D02*
G75*
G02*
X88200000Y-68800000I-1J99999D01*
G01*
X89700000Y-67100000D02*
G75*
G02*
X89800000Y-67200000I0J-100000D01*
G01*
X89800000Y-68800000D02*
G75*
G02*
X89700000Y-68900000I-100000J0D01*
G01*
%TO.C,D2*%
X96760000Y-67250000D02*
X96760000Y-68850000D01*
X96860000Y-68950000D02*
X98260000Y-68950000D01*
X98260000Y-67150000D02*
X96860000Y-67150000D01*
X98360000Y-68850000D02*
X98360000Y-67250000D01*
X96760000Y-67250000D02*
G75*
G02*
X96860000Y-67150000I99999J1D01*
G01*
X96860000Y-68950000D02*
G75*
G02*
X96760000Y-68850000I-1J99999D01*
G01*
X98260000Y-67150000D02*
G75*
G02*
X98360000Y-67250000I0J-100000D01*
G01*
X98360000Y-68850000D02*
G75*
G02*
X98260000Y-68950000I-100000J0D01*
G01*
%TD*%
M02*
