%TF.GenerationSoftware,KiCad,Pcbnew,9.0.4*%
%TF.CreationDate,2025-12-23T11:57:38+01:00*%
%TF.ProjectId,licheerv_nano_base,6c696368-6565-4727-965f-6e616e6f5f62,rev?*%
%TF.SameCoordinates,Original*%
%TF.FileFunction,Soldermask,Top*%
%TF.FilePolarity,Negative*%
%FSLAX46Y46*%
G04 Gerber Fmt 4.6, Leading zero omitted, Abs format (unit mm)*
G04 Created by KiCad (PCBNEW 9.0.4) date 2025-12-23 11:57:38*
%MOMM*%
%LPD*%
G01*
G04 APERTURE LIST*
G04 Aperture macros list*
%AMRoundRect*
0 Rectangle with rounded corners*
0 $1 Rounding radius*
0 $2 $3 $4 $5 $6 $7 $8 $9 X,Y pos of 4 corners*
0 Add a 4 corners polygon primitive as box body*
4,1,4,$2,$3,$4,$5,$6,$7,$8,$9,$2,$3,0*
0 Add four circle primitives for the rounded corners*
1,1,$1+$1,$2,$3*
1,1,$1+$1,$4,$5*
1,1,$1+$1,$6,$7*
1,1,$1+$1,$8,$9*
0 Add four rect primitives between the rounded corners*
20,1,$1+$1,$2,$3,$4,$5,0*
20,1,$1+$1,$4,$5,$6,$7,0*
20,1,$1+$1,$6,$7,$8,$9,0*
20,1,$1+$1,$8,$9,$2,$3,0*%
G04 Aperture macros list end*
%ADD10O,2.000000X1.600000*%
%ADD11RoundRect,0.250000X-0.600000X-0.725000X0.600000X-0.725000X0.600000X0.725000X-0.600000X0.725000X0*%
%ADD12O,1.700000X1.950000*%
%ADD13O,1.600000X2.000000*%
%ADD14RoundRect,0.300000X0.200000X0.200000X-0.200000X0.200000X-0.200000X-0.200000X0.200000X-0.200000X0*%
%ADD15O,1.000000X1.000000*%
%ADD16RoundRect,0.250000X-0.600000X-0.600000X0.600000X-0.600000X0.600000X0.600000X-0.600000X0.600000X0*%
%ADD17C,1.700000*%
%ADD18RoundRect,0.425000X0.575000X0.425000X-0.575000X0.425000X-0.575000X-0.425000X0.575000X-0.425000X0*%
%ADD19O,2.000000X1.700000*%
%ADD20R,1.500000X1.500000*%
%ADD21C,1.500000*%
%ADD22C,3.000000*%
%ADD23RoundRect,0.450000X0.450000X0.750000X-0.450000X0.750000X-0.450000X-0.750000X0.450000X-0.750000X0*%
%ADD24R,3.500000X3.500000*%
%ADD25RoundRect,0.750000X-1.000000X0.750000X-1.000000X-0.750000X1.000000X-0.750000X1.000000X0.750000X0*%
%ADD26RoundRect,0.875000X-0.875000X0.875000X-0.875000X-0.875000X0.875000X-0.875000X0.875000X0.875000X0*%
%ADD27RoundRect,0.500000X0.350000X0.350000X-0.350000X0.350000X-0.350000X-0.350000X0.350000X-0.350000X0*%
%ADD28O,1.700000X1.700000*%
%ADD29RoundRect,0.250000X0.600000X0.675000X-0.600000X0.675000X-0.600000X-0.675000X0.600000X-0.675000X0*%
%ADD30O,1.700000X1.850000*%
%ADD31RoundRect,0.250000X-0.550000X0.550000X-0.550000X-0.550000X0.550000X-0.550000X0.550000X0.550000X0*%
%ADD32C,1.600000*%
%ADD33O,1.000000X1.600000*%
%ADD34O,1.000000X2.100000*%
%ADD35R,1.000000X1.000000*%
%ADD36RoundRect,0.250000X0.600000X0.600000X-0.600000X0.600000X-0.600000X-0.600000X0.600000X-0.600000X0*%
G04 APERTURE END LIST*
D10*
%TO.C,U7*%
X27800000Y-70550000D03*
X27800000Y-73100000D03*
X27800000Y-81300000D03*
X27800000Y-83850000D03*
X64800000Y-83850000D03*
X64800000Y-81300000D03*
X64800000Y-77320000D03*
X64800000Y-73100000D03*
X64800000Y-70550000D03*
%TD*%
D11*
%TO.C,J5*%
X117400000Y-106900000D03*
D12*
X119900000Y-106900000D03*
X122400000Y-106900000D03*
X124900000Y-106900000D03*
X127400000Y-106900000D03*
%TD*%
D11*
%TO.C,J4*%
X70200000Y-106900000D03*
D12*
X72700000Y-106900000D03*
X75200000Y-106900000D03*
X77700000Y-106900000D03*
X80200000Y-106900000D03*
%TD*%
D13*
%TO.C,J17*%
X44600000Y-107300000D03*
X47100000Y-107300000D03*
X49600000Y-107300000D03*
X52100000Y-107300000D03*
%TD*%
D11*
%TO.C,J6*%
X29000000Y-106927500D03*
D12*
X31500000Y-106927500D03*
X34000000Y-106927500D03*
X36500000Y-106927500D03*
X39000000Y-106927500D03*
%TD*%
D13*
%TO.C,J7*%
X123950000Y-57672500D03*
X121450000Y-57672500D03*
X118950000Y-57672500D03*
X116450000Y-57672500D03*
%TD*%
D14*
%TO.C,J21*%
X164670000Y-88880000D03*
D15*
X163400000Y-88880000D03*
X164670000Y-87610000D03*
X163400000Y-87610000D03*
X164670000Y-86340000D03*
X163400000Y-86340000D03*
X164670000Y-85070000D03*
X163400000Y-85070000D03*
X164670000Y-83800000D03*
X163400000Y-83800000D03*
X164670000Y-82530000D03*
X163400000Y-82530000D03*
X164670000Y-81260000D03*
X163400000Y-81260000D03*
%TD*%
D16*
%TO.C,J18*%
X155147500Y-80020000D03*
D17*
X157687500Y-80020000D03*
X155147500Y-82560000D03*
X157687500Y-82560000D03*
X155147500Y-85100000D03*
X157687500Y-85100000D03*
X155147500Y-87640000D03*
X157687500Y-87640000D03*
X155147500Y-90180000D03*
X157687500Y-90180000D03*
%TD*%
D18*
%TO.C,U4*%
X68467500Y-81610000D03*
D19*
X68467500Y-79070000D03*
X68467500Y-76530000D03*
X68467500Y-73990000D03*
%TD*%
D20*
%TO.C,J12*%
X55315000Y-64555000D03*
D21*
X54045000Y-67095000D03*
X52775000Y-64555000D03*
X51505000Y-67095000D03*
X50235000Y-64555000D03*
X48965000Y-67095000D03*
X47695000Y-64555000D03*
X46425000Y-67095000D03*
D22*
X58640000Y-55155000D03*
X43100000Y-55155000D03*
%TD*%
D23*
%TO.C,J10*%
X82550000Y-58000000D03*
X79050000Y-58000000D03*
%TD*%
D24*
%TO.C,J2*%
X145657500Y-64000000D03*
D25*
X145657500Y-58000000D03*
D26*
X140957500Y-61000000D03*
%TD*%
D23*
%TO.C,J9*%
X65550000Y-58000000D03*
X62050000Y-58000000D03*
%TD*%
D11*
%TO.C,J3*%
X133300000Y-106900000D03*
D12*
X135800000Y-106900000D03*
X138300000Y-106900000D03*
X140800000Y-106900000D03*
X143300000Y-106900000D03*
%TD*%
D13*
%TO.C,J8*%
X136550000Y-57672500D03*
X134050000Y-57672500D03*
X131550000Y-57672500D03*
X129050000Y-57672500D03*
%TD*%
%TO.C,J16*%
X57200000Y-107300000D03*
X59700000Y-107300000D03*
X62200000Y-107300000D03*
X64700000Y-107300000D03*
%TD*%
D11*
%TO.C,J23*%
X130100000Y-73900000D03*
D12*
X132600000Y-73900000D03*
X135100000Y-73900000D03*
X137600000Y-73900000D03*
X140100000Y-73900000D03*
X142600000Y-73900000D03*
%TD*%
D27*
%TO.C,J14*%
X83000000Y-100540000D03*
D28*
X83000000Y-98000000D03*
X83000000Y-95460000D03*
%TD*%
D11*
%TO.C,J24*%
X134600000Y-95700000D03*
D12*
X137100000Y-95700000D03*
X139600000Y-95700000D03*
X142100000Y-95700000D03*
X144600000Y-95700000D03*
X147100000Y-95700000D03*
%TD*%
D29*
%TO.C,J20*%
X50950000Y-93850000D03*
D30*
X48450000Y-93850000D03*
X45950000Y-93850000D03*
%TD*%
D20*
%TO.C,J11*%
X38715000Y-64555000D03*
D21*
X37445000Y-67095000D03*
X36175000Y-64555000D03*
X34905000Y-67095000D03*
X33635000Y-64555000D03*
X32365000Y-67095000D03*
X31095000Y-64555000D03*
X29825000Y-67095000D03*
D22*
X42040000Y-55155000D03*
X26500000Y-55155000D03*
%TD*%
D11*
%TO.C,J19*%
X149200000Y-106900000D03*
D12*
X151700000Y-106900000D03*
X154200000Y-106900000D03*
X156700000Y-106900000D03*
X159200000Y-106900000D03*
%TD*%
D13*
%TO.C,J15*%
X164700000Y-107300000D03*
X167200000Y-107300000D03*
X169700000Y-107300000D03*
X172200000Y-107300000D03*
%TD*%
D23*
%TO.C,J13*%
X74050000Y-58000000D03*
X70550000Y-58000000D03*
%TD*%
D31*
%TO.C,C23*%
X149200000Y-68017620D03*
D32*
X149200000Y-70517620D03*
%TD*%
D33*
%TO.C,J1*%
X150480000Y-52950000D03*
D34*
X150480000Y-57130000D03*
D33*
X159120000Y-52950000D03*
D34*
X159120000Y-57130000D03*
%TD*%
D33*
%TO.C,J22*%
X163680000Y-52942500D03*
D34*
X163680000Y-57122500D03*
D33*
X172320000Y-52942500D03*
D34*
X172320000Y-57122500D03*
%TD*%
D35*
%TO.C,TP1*%
X131700000Y-72100000D03*
%TD*%
D31*
%TO.C,C24*%
X142300000Y-68017620D03*
D32*
X142300000Y-70517620D03*
%TD*%
D36*
%TO.C,X1*%
X89770000Y-106630000D03*
D17*
X87230000Y-106630000D03*
X89770000Y-104090000D03*
X87230000Y-104090000D03*
X89770000Y-101550000D03*
X87230000Y-101550000D03*
X89770000Y-99010000D03*
X87230000Y-99010000D03*
X89770000Y-96470000D03*
X87230000Y-96470000D03*
X89770000Y-93930000D03*
X87230000Y-93930000D03*
X89770000Y-91390000D03*
X87230000Y-91390000D03*
X89770000Y-88850000D03*
X87230000Y-88850000D03*
X89770000Y-86310000D03*
X87230000Y-86310000D03*
X89770000Y-83770000D03*
X87230000Y-83770000D03*
X89770000Y-81230000D03*
X87230000Y-81230000D03*
X89770000Y-78690000D03*
X87230000Y-78690000D03*
X89770000Y-76150000D03*
X87230000Y-76150000D03*
X89770000Y-73610000D03*
X87230000Y-73610000D03*
X89770000Y-71070000D03*
X87230000Y-71070000D03*
X89770000Y-68530000D03*
X87230000Y-68530000D03*
X89770000Y-65990000D03*
X87230000Y-65990000D03*
X89770000Y-63450000D03*
X87230000Y-63450000D03*
X89770000Y-60910000D03*
X87230000Y-60910000D03*
X89770000Y-58370000D03*
X87230000Y-58370000D03*
%TD*%
M02*
