%TF.GenerationSoftware,KiCad,Pcbnew,9.0.4*%
%TF.CreationDate,2025-12-23T11:57:38+01:00*%
%TF.ProjectId,licheerv_nano_base,6c696368-6565-4727-965f-6e616e6f5f62,rev?*%
%TF.SameCoordinates,Original*%
%TF.FileFunction,Soldermask,Bot*%
%TF.FilePolarity,Negative*%
%FSLAX46Y46*%
G04 Gerber Fmt 4.6, Leading zero omitted, Abs format (unit mm)*
G04 Created by KiCad (PCBNEW 9.0.4) date 2025-12-23 11:57:38*
%MOMM*%
%LPD*%
G01*
G04 APERTURE LIST*
G04 Aperture macros list*
%AMRoundRect*
0 Rectangle with rounded corners*
0 $1 Rounding radius*
0 $2 $3 $4 $5 $6 $7 $8 $9 X,Y pos of 4 corners*
0 Add a 4 corners polygon primitive as box body*
4,1,4,$2,$3,$4,$5,$6,$7,$8,$9,$2,$3,0*
0 Add four circle primitives for the rounded corners*
1,1,$1+$1,$2,$3*
1,1,$1+$1,$4,$5*
1,1,$1+$1,$6,$7*
1,1,$1+$1,$8,$9*
0 Add four rect primitives between the rounded corners*
20,1,$1+$1,$2,$3,$4,$5,0*
20,1,$1+$1,$4,$5,$6,$7,0*
20,1,$1+$1,$6,$7,$8,$9,0*
20,1,$1+$1,$8,$9,$2,$3,0*%
G04 Aperture macros list end*
%ADD10RoundRect,0.150000X0.600000X0.650000X-0.600000X0.650000X-0.600000X-0.650000X0.600000X-0.650000X0*%
%ADD11RoundRect,0.135000X0.185000X-0.135000X0.185000X0.135000X-0.185000X0.135000X-0.185000X-0.135000X0*%
%ADD12RoundRect,0.100000X0.130000X0.100000X-0.130000X0.100000X-0.130000X-0.100000X0.130000X-0.100000X0*%
%ADD13O,2.000000X1.600000*%
%ADD14RoundRect,0.250000X-0.600000X-0.725000X0.600000X-0.725000X0.600000X0.725000X-0.600000X0.725000X0*%
%ADD15O,1.700000X1.950000*%
%ADD16O,1.600000X2.000000*%
%ADD17RoundRect,0.300000X0.200000X0.200000X-0.200000X0.200000X-0.200000X-0.200000X0.200000X-0.200000X0*%
%ADD18O,1.000000X1.000000*%
%ADD19RoundRect,0.250000X-0.600000X-0.600000X0.600000X-0.600000X0.600000X0.600000X-0.600000X0.600000X0*%
%ADD20C,1.700000*%
%ADD21RoundRect,0.425000X0.575000X0.425000X-0.575000X0.425000X-0.575000X-0.425000X0.575000X-0.425000X0*%
%ADD22O,2.000000X1.700000*%
%ADD23C,4.300000*%
%ADD24C,3.250000*%
%ADD25R,1.500000X1.500000*%
%ADD26C,1.500000*%
%ADD27C,3.000000*%
%ADD28RoundRect,0.450000X0.450000X0.750000X-0.450000X0.750000X-0.450000X-0.750000X0.450000X-0.750000X0*%
%ADD29C,3.200000*%
%ADD30R,3.500000X3.500000*%
%ADD31RoundRect,0.750000X-1.000000X0.750000X-1.000000X-0.750000X1.000000X-0.750000X1.000000X0.750000X0*%
%ADD32RoundRect,0.875000X-0.875000X0.875000X-0.875000X-0.875000X0.875000X-0.875000X0.875000X0.875000X0*%
%ADD33RoundRect,0.500000X0.350000X0.350000X-0.350000X0.350000X-0.350000X-0.350000X0.350000X-0.350000X0*%
%ADD34O,1.700000X1.700000*%
%ADD35RoundRect,0.250000X0.600000X0.675000X-0.600000X0.675000X-0.600000X-0.675000X0.600000X-0.675000X0*%
%ADD36O,1.700000X1.850000*%
%ADD37RoundRect,0.250000X-0.550000X0.550000X-0.550000X-0.550000X0.550000X-0.550000X0.550000X0.550000X0*%
%ADD38C,1.600000*%
%ADD39RoundRect,0.135000X-0.185000X0.135000X-0.185000X-0.135000X0.185000X-0.135000X0.185000X0.135000X0*%
%ADD40RoundRect,0.250000X0.250000X0.475000X-0.250000X0.475000X-0.250000X-0.475000X0.250000X-0.475000X0*%
%ADD41RoundRect,0.140000X-0.170000X0.140000X-0.170000X-0.140000X0.170000X-0.140000X0.170000X0.140000X0*%
%ADD42RoundRect,0.135000X-0.135000X-0.185000X0.135000X-0.185000X0.135000X0.185000X-0.135000X0.185000X0*%
%ADD43RoundRect,0.250000X-0.250000X-0.475000X0.250000X-0.475000X0.250000X0.475000X-0.250000X0.475000X0*%
%ADD44RoundRect,0.100000X-0.130000X-0.100000X0.130000X-0.100000X0.130000X0.100000X-0.130000X0.100000X0*%
%ADD45RoundRect,0.250000X0.625000X-0.312500X0.625000X0.312500X-0.625000X0.312500X-0.625000X-0.312500X0*%
%ADD46RoundRect,0.250000X0.450000X-0.350000X0.450000X0.350000X-0.450000X0.350000X-0.450000X-0.350000X0*%
%ADD47RoundRect,0.100000X-0.100000X0.130000X-0.100000X-0.130000X0.100000X-0.130000X0.100000X0.130000X0*%
%ADD48RoundRect,0.150000X-0.600000X-0.650000X0.600000X-0.650000X0.600000X0.650000X-0.600000X0.650000X0*%
%ADD49RoundRect,0.150000X0.150000X-0.587500X0.150000X0.587500X-0.150000X0.587500X-0.150000X-0.587500X0*%
%ADD50C,0.650000*%
%ADD51R,0.600000X1.450000*%
%ADD52R,0.300000X1.450000*%
%ADD53O,1.000000X1.600000*%
%ADD54O,1.000000X2.100000*%
%ADD55RoundRect,0.150000X0.150000X-0.825000X0.150000X0.825000X-0.150000X0.825000X-0.150000X-0.825000X0*%
%ADD56RoundRect,0.235000X0.940000X1.465000X-0.940000X1.465000X-0.940000X-1.465000X0.940000X-1.465000X0*%
%ADD57RoundRect,0.250000X-0.350000X-0.450000X0.350000X-0.450000X0.350000X0.450000X-0.350000X0.450000X0*%
%ADD58RoundRect,0.250000X0.450000X-0.325000X0.450000X0.325000X-0.450000X0.325000X-0.450000X-0.325000X0*%
%ADD59RoundRect,0.218750X0.256250X-0.218750X0.256250X0.218750X-0.256250X0.218750X-0.256250X-0.218750X0*%
%ADD60RoundRect,0.250000X-0.475000X0.337500X-0.475000X-0.337500X0.475000X-0.337500X0.475000X0.337500X0*%
%ADD61RoundRect,0.100000X0.100000X-0.130000X0.100000X0.130000X-0.100000X0.130000X-0.100000X-0.130000X0*%
%ADD62RoundRect,0.250000X-0.475000X0.250000X-0.475000X-0.250000X0.475000X-0.250000X0.475000X0.250000X0*%
%ADD63RoundRect,0.225000X0.250000X-0.225000X0.250000X0.225000X-0.250000X0.225000X-0.250000X-0.225000X0*%
%ADD64RoundRect,0.162500X0.617500X0.162500X-0.617500X0.162500X-0.617500X-0.162500X0.617500X-0.162500X0*%
%ADD65RoundRect,0.075000X0.075000X-0.700000X0.075000X0.700000X-0.075000X0.700000X-0.075000X-0.700000X0*%
%ADD66RoundRect,0.075000X0.700000X-0.075000X0.700000X0.075000X-0.700000X0.075000X-0.700000X-0.075000X0*%
%ADD67RoundRect,0.225000X0.225000X0.250000X-0.225000X0.250000X-0.225000X-0.250000X0.225000X-0.250000X0*%
%ADD68R,1.000000X1.000000*%
%ADD69RoundRect,0.062500X0.325000X0.062500X-0.325000X0.062500X-0.325000X-0.062500X0.325000X-0.062500X0*%
%ADD70RoundRect,0.062500X0.062500X0.325000X-0.062500X0.325000X-0.062500X-0.325000X0.062500X-0.325000X0*%
%ADD71R,3.750000X3.750000*%
%ADD72RoundRect,0.250000X0.475000X-0.250000X0.475000X0.250000X-0.475000X0.250000X-0.475000X-0.250000X0*%
%ADD73RoundRect,0.250000X0.475000X-0.337500X0.475000X0.337500X-0.475000X0.337500X-0.475000X-0.337500X0*%
%ADD74RoundRect,0.140000X0.140000X0.170000X-0.140000X0.170000X-0.140000X-0.170000X0.140000X-0.170000X0*%
%ADD75RoundRect,0.250000X0.600000X0.600000X-0.600000X0.600000X-0.600000X-0.600000X0.600000X-0.600000X0*%
%ADD76RoundRect,0.175000X-0.275000X-0.175000X0.275000X-0.175000X0.275000X0.175000X-0.275000X0.175000X0*%
G04 APERTURE END LIST*
D10*
%TO.C,D4*%
X119000000Y-74600000D03*
X122400000Y-74600000D03*
%TD*%
D11*
%TO.C,R31*%
X116800000Y-72310000D03*
X116800000Y-71290000D03*
%TD*%
D12*
%TO.C,R30*%
X172720000Y-59800000D03*
X172080000Y-59800000D03*
%TD*%
%TO.C,R29*%
X171220000Y-59800000D03*
X170580000Y-59800000D03*
%TD*%
D13*
%TO.C,U7*%
X27800000Y-70550000D03*
X27800000Y-73100000D03*
X27800000Y-81300000D03*
X27800000Y-83850000D03*
X64800000Y-83850000D03*
X64800000Y-81300000D03*
X64800000Y-77320000D03*
X64800000Y-73100000D03*
X64800000Y-70550000D03*
%TD*%
D14*
%TO.C,J5*%
X117400000Y-106900000D03*
D15*
X119900000Y-106900000D03*
X122400000Y-106900000D03*
X124900000Y-106900000D03*
X127400000Y-106900000D03*
%TD*%
D14*
%TO.C,J4*%
X70200000Y-106900000D03*
D15*
X72700000Y-106900000D03*
X75200000Y-106900000D03*
X77700000Y-106900000D03*
X80200000Y-106900000D03*
%TD*%
D16*
%TO.C,J17*%
X44600000Y-107300000D03*
X47100000Y-107300000D03*
X49600000Y-107300000D03*
X52100000Y-107300000D03*
%TD*%
D14*
%TO.C,J6*%
X29000000Y-106927500D03*
D15*
X31500000Y-106927500D03*
X34000000Y-106927500D03*
X36500000Y-106927500D03*
X39000000Y-106927500D03*
%TD*%
D16*
%TO.C,J7*%
X123950000Y-57672500D03*
X121450000Y-57672500D03*
X118950000Y-57672500D03*
X116450000Y-57672500D03*
%TD*%
D17*
%TO.C,J21*%
X164670000Y-88880000D03*
D18*
X163400000Y-88880000D03*
X164670000Y-87610000D03*
X163400000Y-87610000D03*
X164670000Y-86340000D03*
X163400000Y-86340000D03*
X164670000Y-85070000D03*
X163400000Y-85070000D03*
X164670000Y-83800000D03*
X163400000Y-83800000D03*
X164670000Y-82530000D03*
X163400000Y-82530000D03*
X164670000Y-81260000D03*
X163400000Y-81260000D03*
%TD*%
D19*
%TO.C,J18*%
X155147500Y-80020000D03*
D20*
X157687500Y-80020000D03*
X155147500Y-82560000D03*
X157687500Y-82560000D03*
X155147500Y-85100000D03*
X157687500Y-85100000D03*
X155147500Y-87640000D03*
X157687500Y-87640000D03*
X155147500Y-90180000D03*
X157687500Y-90180000D03*
%TD*%
D21*
%TO.C,U4*%
X68467500Y-81610000D03*
D22*
X68467500Y-79070000D03*
X68467500Y-76530000D03*
X68467500Y-73990000D03*
%TD*%
D23*
%TO.C,H8*%
X185000000Y-55000000D03*
%TD*%
D24*
%TO.C,J12*%
X56585000Y-58205000D03*
X45155000Y-58205000D03*
D25*
X55315000Y-64555000D03*
D26*
X54045000Y-67095000D03*
X52775000Y-64555000D03*
X51505000Y-67095000D03*
X50235000Y-64555000D03*
X48965000Y-67095000D03*
X47695000Y-64555000D03*
X46425000Y-67095000D03*
D27*
X58640000Y-55155000D03*
X43100000Y-55155000D03*
%TD*%
D28*
%TO.C,J10*%
X82550000Y-58000000D03*
X79050000Y-58000000D03*
%TD*%
D29*
%TO.C,H6*%
X100000000Y-53500000D03*
%TD*%
D30*
%TO.C,J2*%
X145657500Y-64000000D03*
D31*
X145657500Y-58000000D03*
D32*
X140957500Y-61000000D03*
%TD*%
D28*
%TO.C,J9*%
X65550000Y-58000000D03*
X62050000Y-58000000D03*
%TD*%
D14*
%TO.C,J3*%
X133300000Y-106900000D03*
D15*
X135800000Y-106900000D03*
X138300000Y-106900000D03*
X140800000Y-106900000D03*
X143300000Y-106900000D03*
%TD*%
D16*
%TO.C,J8*%
X136550000Y-57672500D03*
X134050000Y-57672500D03*
X131550000Y-57672500D03*
X129050000Y-57672500D03*
%TD*%
%TO.C,J16*%
X57200000Y-107300000D03*
X59700000Y-107300000D03*
X62200000Y-107300000D03*
X64700000Y-107300000D03*
%TD*%
D14*
%TO.C,J23*%
X130100000Y-73900000D03*
D15*
X132600000Y-73900000D03*
X135100000Y-73900000D03*
X137600000Y-73900000D03*
X140100000Y-73900000D03*
X142600000Y-73900000D03*
%TD*%
D33*
%TO.C,J14*%
X83000000Y-100540000D03*
D34*
X83000000Y-98000000D03*
X83000000Y-95460000D03*
%TD*%
D14*
%TO.C,J24*%
X134600000Y-95700000D03*
D15*
X137100000Y-95700000D03*
X139600000Y-95700000D03*
X142100000Y-95700000D03*
X144600000Y-95700000D03*
X147100000Y-95700000D03*
%TD*%
D35*
%TO.C,J20*%
X50950000Y-93850000D03*
D36*
X48450000Y-93850000D03*
X45950000Y-93850000D03*
%TD*%
D23*
%TO.C,H9*%
X185000000Y-95000000D03*
%TD*%
D24*
%TO.C,J11*%
X39985000Y-58205000D03*
X28555000Y-58205000D03*
D25*
X38715000Y-64555000D03*
D26*
X37445000Y-67095000D03*
X36175000Y-64555000D03*
X34905000Y-67095000D03*
X33635000Y-64555000D03*
X32365000Y-67095000D03*
X31095000Y-64555000D03*
X29825000Y-67095000D03*
D27*
X42040000Y-55155000D03*
X26500000Y-55155000D03*
%TD*%
D14*
%TO.C,J19*%
X149200000Y-106900000D03*
D15*
X151700000Y-106900000D03*
X154200000Y-106900000D03*
X156700000Y-106900000D03*
X159200000Y-106900000D03*
%TD*%
D23*
%TO.C,H2*%
X15000000Y-95000000D03*
%TD*%
%TO.C,H1*%
X15500000Y-55000000D03*
%TD*%
D16*
%TO.C,J15*%
X164700000Y-107300000D03*
X167200000Y-107300000D03*
X169700000Y-107300000D03*
X172200000Y-107300000D03*
%TD*%
D28*
%TO.C,J13*%
X74050000Y-58000000D03*
X70550000Y-58000000D03*
%TD*%
D37*
%TO.C,C23*%
X149200000Y-68017620D03*
D38*
X149200000Y-70517620D03*
%TD*%
D39*
%TO.C,R4*%
X66700000Y-66090000D03*
X66700000Y-67110000D03*
%TD*%
%TO.C,R7*%
X168250000Y-108762500D03*
X168250000Y-109782500D03*
%TD*%
D40*
%TO.C,C26*%
X138550000Y-66600000D03*
X136650000Y-66600000D03*
%TD*%
D41*
%TO.C,C36*%
X136400000Y-64220000D03*
X136400000Y-65180000D03*
%TD*%
D42*
%TO.C,R23*%
X82140000Y-55550000D03*
X83160000Y-55550000D03*
%TD*%
D41*
%TO.C,C34*%
X123800000Y-64220000D03*
X123800000Y-65180000D03*
%TD*%
D43*
%TO.C,C39*%
X114750000Y-59700000D03*
X116650000Y-59700000D03*
%TD*%
D44*
%TO.C,C13*%
X166830000Y-105772500D03*
X167470000Y-105772500D03*
%TD*%
D45*
%TO.C,R17*%
X122700000Y-55562500D03*
X122700000Y-52637500D03*
%TD*%
D46*
%TO.C,R76*%
X49550000Y-111200000D03*
X49550000Y-109200000D03*
%TD*%
D47*
%TO.C,C6*%
X172850000Y-108952500D03*
X172850000Y-109592500D03*
%TD*%
D42*
%TO.C,R22*%
X82640000Y-62650000D03*
X83660000Y-62650000D03*
%TD*%
D11*
%TO.C,R25*%
X75600000Y-55560000D03*
X75600000Y-54540000D03*
%TD*%
D48*
%TO.C,D3*%
X70600000Y-61100000D03*
X74000000Y-61100000D03*
%TD*%
D49*
%TO.C,Q4*%
X71500000Y-55537500D03*
X69600000Y-55537500D03*
X70550000Y-53662500D03*
%TD*%
D42*
%TO.C,R6*%
X165840000Y-109072500D03*
X166860000Y-109072500D03*
%TD*%
D43*
%TO.C,C43*%
X136350000Y-61700000D03*
X138250000Y-61700000D03*
%TD*%
D50*
%TO.C,J1*%
X151910000Y-56600000D03*
X157690000Y-56600000D03*
D51*
X151550000Y-58045000D03*
X152350000Y-58045000D03*
D52*
X153550000Y-58045000D03*
X154550000Y-58045000D03*
X155050000Y-58045000D03*
X156050000Y-58045000D03*
D51*
X157250000Y-58045000D03*
X158050000Y-58045000D03*
X158050000Y-58045000D03*
X157250000Y-58045000D03*
D52*
X156550000Y-58045000D03*
X155550000Y-58045000D03*
X154050000Y-58045000D03*
X153050000Y-58045000D03*
D51*
X152350000Y-58045000D03*
X151550000Y-58045000D03*
D53*
X150480000Y-52950000D03*
D54*
X150480000Y-57130000D03*
D53*
X159120000Y-52950000D03*
D54*
X159120000Y-57130000D03*
%TD*%
D50*
%TO.C,J22*%
X165110000Y-56592500D03*
X170890000Y-56592500D03*
D51*
X164750000Y-58037500D03*
X165550000Y-58037500D03*
D52*
X166750000Y-58037500D03*
X167750000Y-58037500D03*
X168250000Y-58037500D03*
X169250000Y-58037500D03*
D51*
X170450000Y-58037500D03*
X171250000Y-58037500D03*
X171250000Y-58037500D03*
X170450000Y-58037500D03*
D52*
X169750000Y-58037500D03*
X168750000Y-58037500D03*
X167250000Y-58037500D03*
X166250000Y-58037500D03*
D51*
X165550000Y-58037500D03*
X164750000Y-58037500D03*
D53*
X163680000Y-52942500D03*
D54*
X163680000Y-57122500D03*
D53*
X172320000Y-52942500D03*
D54*
X172320000Y-57122500D03*
%TD*%
D55*
%TO.C,U3*%
X172895000Y-104147500D03*
X171625000Y-104147500D03*
X170355000Y-104147500D03*
X169085000Y-104147500D03*
X167815000Y-104147500D03*
X166545000Y-104147500D03*
X165275000Y-104147500D03*
X164005000Y-104147500D03*
X164005000Y-99197500D03*
X165275000Y-99197500D03*
X166545000Y-99197500D03*
X167815000Y-99197500D03*
X169085000Y-99197500D03*
X170355000Y-99197500D03*
X171625000Y-99197500D03*
X172895000Y-99197500D03*
%TD*%
D41*
%TO.C,C4*%
X68200000Y-69620000D03*
X68200000Y-70580000D03*
%TD*%
D45*
%TO.C,R18*%
X135300000Y-55562500D03*
X135300000Y-52637500D03*
%TD*%
D43*
%TO.C,C29*%
X123750000Y-61700000D03*
X125650000Y-61700000D03*
%TD*%
D56*
%TO.C,L1*%
X81050000Y-69200000D03*
X75000000Y-69200000D03*
%TD*%
D57*
%TO.C,R77*%
X52350000Y-104550000D03*
X54350000Y-104550000D03*
%TD*%
D58*
%TO.C,L2*%
X175750000Y-108997500D03*
X175750000Y-106947500D03*
%TD*%
D49*
%TO.C,Q2*%
X63000000Y-55537500D03*
X61100000Y-55537500D03*
X62050000Y-53662500D03*
%TD*%
D59*
%TO.C,FB1*%
X132400000Y-79787500D03*
X132400000Y-78212500D03*
%TD*%
D12*
%TO.C,R21*%
X65970000Y-55600000D03*
X65330000Y-55600000D03*
%TD*%
D47*
%TO.C,C27*%
X117100000Y-66930000D03*
X117100000Y-67570000D03*
%TD*%
D12*
%TO.C,R8*%
X170570000Y-105772500D03*
X169930000Y-105772500D03*
%TD*%
D44*
%TO.C,C16*%
X136830000Y-90900000D03*
X137470000Y-90900000D03*
%TD*%
D41*
%TO.C,C35*%
X134300000Y-68220000D03*
X134300000Y-69180000D03*
%TD*%
D60*
%TO.C,C10*%
X171350000Y-109435000D03*
X171350000Y-111510000D03*
%TD*%
D47*
%TO.C,R28*%
X169750000Y-59380000D03*
X169750000Y-60020000D03*
%TD*%
D40*
%TO.C,C25*%
X125950000Y-66600000D03*
X124050000Y-66600000D03*
%TD*%
D61*
%TO.C,C19*%
X147700000Y-87820000D03*
X147700000Y-87180000D03*
%TD*%
D11*
%TO.C,R1*%
X135950000Y-77960000D03*
X135950000Y-76940000D03*
%TD*%
D62*
%TO.C,C5*%
X83400000Y-72050000D03*
X83400000Y-73950000D03*
%TD*%
D63*
%TO.C,C3*%
X67900000Y-67975000D03*
X67900000Y-66425000D03*
%TD*%
D47*
%TO.C,C17*%
X133500000Y-79430000D03*
X133500000Y-80070000D03*
%TD*%
D44*
%TO.C,R10*%
X130735000Y-68100000D03*
X131375000Y-68100000D03*
%TD*%
D11*
%TO.C,R2*%
X67200000Y-70610000D03*
X67200000Y-69590000D03*
%TD*%
D61*
%TO.C,C20*%
X174050000Y-102392500D03*
X174050000Y-101752500D03*
%TD*%
D40*
%TO.C,C30*%
X129250000Y-61700000D03*
X127350000Y-61700000D03*
%TD*%
D64*
%TO.C,U1*%
X72450000Y-68250000D03*
X72450000Y-69200000D03*
X72450000Y-70150000D03*
X69750000Y-70150000D03*
X69750000Y-69200000D03*
X69750000Y-68250000D03*
%TD*%
D40*
%TO.C,C37*%
X125650000Y-59700000D03*
X123750000Y-59700000D03*
%TD*%
D65*
%TO.C,U2*%
X144350000Y-89475000D03*
X143850000Y-89475000D03*
X143350000Y-89475000D03*
X142850000Y-89475000D03*
X142350000Y-89475000D03*
X141850000Y-89475000D03*
X141350000Y-89475000D03*
X140850000Y-89475000D03*
X140350000Y-89475000D03*
X139850000Y-89475000D03*
X139350000Y-89475000D03*
X138850000Y-89475000D03*
X138350000Y-89475000D03*
X137850000Y-89475000D03*
X137350000Y-89475000D03*
X136850000Y-89475000D03*
D66*
X134925000Y-87550000D03*
X134925000Y-87050000D03*
X134925000Y-86550000D03*
X134925000Y-86050000D03*
X134925000Y-85550000D03*
X134925000Y-85050000D03*
X134925000Y-84550000D03*
X134925000Y-84050000D03*
X134925000Y-83550000D03*
X134925000Y-83050000D03*
X134925000Y-82550000D03*
X134925000Y-82050000D03*
X134925000Y-81550000D03*
X134925000Y-81050000D03*
X134925000Y-80550000D03*
X134925000Y-80050000D03*
D65*
X136850000Y-78125000D03*
X137350000Y-78125000D03*
X137850000Y-78125000D03*
X138350000Y-78125000D03*
X138850000Y-78125000D03*
X139350000Y-78125000D03*
X139850000Y-78125000D03*
X140350000Y-78125000D03*
X140850000Y-78125000D03*
X141350000Y-78125000D03*
X141850000Y-78125000D03*
X142350000Y-78125000D03*
X142850000Y-78125000D03*
X143350000Y-78125000D03*
X143850000Y-78125000D03*
X144350000Y-78125000D03*
D66*
X146275000Y-80050000D03*
X146275000Y-80550000D03*
X146275000Y-81050000D03*
X146275000Y-81550000D03*
X146275000Y-82050000D03*
X146275000Y-82550000D03*
X146275000Y-83050000D03*
X146275000Y-83550000D03*
X146275000Y-84050000D03*
X146275000Y-84550000D03*
X146275000Y-85050000D03*
X146275000Y-85550000D03*
X146275000Y-86050000D03*
X146275000Y-86550000D03*
X146275000Y-87050000D03*
X146275000Y-87550000D03*
%TD*%
D11*
%TO.C,R19*%
X67000000Y-55560000D03*
X67000000Y-54540000D03*
%TD*%
D49*
%TO.C,Q3*%
X79962500Y-55537500D03*
X78062500Y-55537500D03*
X79012500Y-53662500D03*
%TD*%
D67*
%TO.C,C1*%
X73375000Y-71900000D03*
X71825000Y-71900000D03*
%TD*%
D68*
%TO.C,TP1*%
X131700000Y-72100000D03*
%TD*%
D42*
%TO.C,R5*%
X163540000Y-109072500D03*
X164560000Y-109072500D03*
%TD*%
D47*
%TO.C,C12*%
X141400000Y-90880000D03*
X141400000Y-91520000D03*
%TD*%
D69*
%TO.C,U5*%
X122662500Y-63100000D03*
X122662500Y-63600000D03*
X122662500Y-64100000D03*
X122662500Y-64600000D03*
X122662500Y-65100000D03*
X122662500Y-65600000D03*
X122662500Y-66100000D03*
D70*
X121700000Y-67062500D03*
X121200000Y-67062500D03*
X120700000Y-67062500D03*
X120200000Y-67062500D03*
X119700000Y-67062500D03*
X119200000Y-67062500D03*
X118700000Y-67062500D03*
D69*
X117737500Y-66100000D03*
X117737500Y-65600000D03*
X117737500Y-65100000D03*
X117737500Y-64600000D03*
X117737500Y-64100000D03*
X117737500Y-63600000D03*
X117737500Y-63100000D03*
D70*
X118700000Y-62137500D03*
X119200000Y-62137500D03*
X119700000Y-62137500D03*
X120200000Y-62137500D03*
X120700000Y-62137500D03*
X121200000Y-62137500D03*
X121700000Y-62137500D03*
D71*
X120200000Y-64600000D03*
%TD*%
D48*
%TO.C,D2*%
X79100000Y-61100000D03*
X82500000Y-61100000D03*
%TD*%
D44*
%TO.C,C21*%
X173930000Y-98372500D03*
X174570000Y-98372500D03*
%TD*%
D41*
%TO.C,C33*%
X121700000Y-68220000D03*
X121700000Y-69180000D03*
%TD*%
D72*
%TO.C,C7*%
X82900000Y-66450000D03*
X82900000Y-64550000D03*
%TD*%
D47*
%TO.C,R24*%
X81200000Y-54880000D03*
X81200000Y-55520000D03*
%TD*%
D48*
%TO.C,D1*%
X62100000Y-61100000D03*
X65500000Y-61100000D03*
%TD*%
D47*
%TO.C,R27*%
X73050000Y-54880000D03*
X73050000Y-55520000D03*
%TD*%
D73*
%TO.C,C22*%
X175450000Y-101810000D03*
X175450000Y-99735000D03*
%TD*%
D11*
%TO.C,R26*%
X74600000Y-55560000D03*
X74600000Y-54540000D03*
%TD*%
D12*
%TO.C,R11*%
X169170000Y-105772500D03*
X168530000Y-105772500D03*
%TD*%
%TO.C,R9*%
X125820000Y-65200000D03*
X125180000Y-65200000D03*
%TD*%
D74*
%TO.C,C8*%
X133430000Y-80950000D03*
X132470000Y-80950000D03*
%TD*%
D47*
%TO.C,C28*%
X129300000Y-66380000D03*
X129300000Y-67020000D03*
%TD*%
D44*
%TO.C,C11*%
X164330000Y-105772500D03*
X164970000Y-105772500D03*
%TD*%
D74*
%TO.C,C14*%
X147280000Y-88700000D03*
X146320000Y-88700000D03*
%TD*%
D11*
%TO.C,R20*%
X64350000Y-55560000D03*
X64350000Y-54540000D03*
%TD*%
D40*
%TO.C,C42*%
X116650000Y-61700000D03*
X114750000Y-61700000D03*
%TD*%
%TO.C,C40*%
X138250000Y-59700000D03*
X136350000Y-59700000D03*
%TD*%
D47*
%TO.C,R3*%
X66700000Y-67980000D03*
X66700000Y-68620000D03*
%TD*%
D43*
%TO.C,C38*%
X127350000Y-59700000D03*
X129250000Y-59700000D03*
%TD*%
D69*
%TO.C,U6*%
X135262500Y-63100000D03*
X135262500Y-63600000D03*
X135262500Y-64100000D03*
X135262500Y-64600000D03*
X135262500Y-65100000D03*
X135262500Y-65600000D03*
X135262500Y-66100000D03*
D70*
X134300000Y-67062500D03*
X133800000Y-67062500D03*
X133300000Y-67062500D03*
X132800000Y-67062500D03*
X132300000Y-67062500D03*
X131800000Y-67062500D03*
X131300000Y-67062500D03*
D69*
X130337500Y-66100000D03*
X130337500Y-65600000D03*
X130337500Y-65100000D03*
X130337500Y-64600000D03*
X130337500Y-64100000D03*
X130337500Y-63600000D03*
X130337500Y-63100000D03*
D70*
X131300000Y-62137500D03*
X131800000Y-62137500D03*
X132300000Y-62137500D03*
X132800000Y-62137500D03*
X133300000Y-62137500D03*
X133800000Y-62137500D03*
X134300000Y-62137500D03*
D71*
X132800000Y-64600000D03*
%TD*%
D61*
%TO.C,C15*%
X145200000Y-90120000D03*
X145200000Y-89480000D03*
%TD*%
D45*
%TO.C,R15*%
X117700000Y-55562500D03*
X117700000Y-52637500D03*
%TD*%
D47*
%TO.C,R13*%
X166600000Y-59180000D03*
X166600000Y-59820000D03*
%TD*%
D37*
%TO.C,C24*%
X142300000Y-68017620D03*
D38*
X142300000Y-70517620D03*
%TD*%
D47*
%TO.C,C9*%
X133500000Y-81855000D03*
X133500000Y-82495000D03*
%TD*%
D75*
%TO.C,X1*%
X89770000Y-106630000D03*
D20*
X87230000Y-106630000D03*
X89770000Y-104090000D03*
X87230000Y-104090000D03*
X89770000Y-101550000D03*
X87230000Y-101550000D03*
X89770000Y-99010000D03*
X87230000Y-99010000D03*
X89770000Y-96470000D03*
X87230000Y-96470000D03*
X89770000Y-93930000D03*
X87230000Y-93930000D03*
X89770000Y-91390000D03*
X87230000Y-91390000D03*
X89770000Y-88850000D03*
X87230000Y-88850000D03*
X89770000Y-86310000D03*
X87230000Y-86310000D03*
X89770000Y-83770000D03*
X87230000Y-83770000D03*
X89770000Y-81230000D03*
X87230000Y-81230000D03*
X89770000Y-78690000D03*
X87230000Y-78690000D03*
X89770000Y-76150000D03*
X87230000Y-76150000D03*
X89770000Y-73610000D03*
X87230000Y-73610000D03*
X89770000Y-71070000D03*
X87230000Y-71070000D03*
X89770000Y-68530000D03*
X87230000Y-68530000D03*
X89770000Y-65990000D03*
X87230000Y-65990000D03*
X89770000Y-63450000D03*
X87230000Y-63450000D03*
X89770000Y-60910000D03*
X87230000Y-60910000D03*
X89770000Y-58370000D03*
X87230000Y-58370000D03*
%TD*%
D45*
%TO.C,R16*%
X130200000Y-55562500D03*
X130200000Y-52637500D03*
%TD*%
D61*
%TO.C,C18*%
X145200000Y-78020000D03*
X145200000Y-77380000D03*
%TD*%
D43*
%TO.C,C2*%
X68450000Y-72100000D03*
X70350000Y-72100000D03*
%TD*%
D76*
%TO.C,Q1*%
X174650000Y-105222500D03*
X174650000Y-103322500D03*
X176650000Y-104272500D03*
%TD*%
M02*
