%TF.GenerationSoftware,KiCad,Pcbnew,9.0.4*%
%TF.CreationDate,2025-12-23T11:57:38+01:00*%
%TF.ProjectId,licheerv_nano_base,6c696368-6565-4727-965f-6e616e6f5f62,rev?*%
%TF.SameCoordinates,Original*%
%TF.FileFunction,Profile,NP*%
%FSLAX46Y46*%
G04 Gerber Fmt 4.6, Leading zero omitted, Abs format (unit mm)*
G04 Created by KiCad (PCBNEW 9.0.4) date 2025-12-23 11:57:38*
%MOMM*%
%LPD*%
G01*
G04 APERTURE LIST*
%TA.AperFunction,Profile*%
%ADD10C,0.050000*%
%TD*%
G04 APERTURE END LIST*
D10*
X7000000Y-50000000D02*
X193000000Y-50000000D01*
X193000000Y-115000000D01*
X7000000Y-115000000D01*
X7000000Y-50000000D01*
%TO.C,D4*%
X120000000Y-75500000D02*
G75*
G02*
X119900000Y-75400000I0J100000D01*
G01*
X119900000Y-73800000D02*
G75*
G02*
X120000000Y-73700000I100000J0D01*
G01*
X121500000Y-75400000D02*
G75*
G02*
X121400000Y-75500000I-99999J-1D01*
G01*
X121400000Y-73700000D02*
G75*
G02*
X121500000Y-73800000I1J-99999D01*
G01*
X119900000Y-75400000D02*
X119900000Y-73800000D01*
X120000000Y-73700000D02*
X121400000Y-73700000D01*
X121400000Y-75500000D02*
X120000000Y-75500000D01*
X121500000Y-73800000D02*
X121500000Y-75400000D01*
%TO.C,D3*%
X71500000Y-61900000D02*
X71500000Y-60300000D01*
X71600000Y-60200000D02*
X73000000Y-60200000D01*
X73000000Y-62000000D02*
X71600000Y-62000000D01*
X73100000Y-60300000D02*
X73100000Y-61900000D01*
X71500000Y-60300000D02*
G75*
G02*
X71600000Y-60200000I99999J1D01*
G01*
X71600000Y-62000000D02*
G75*
G02*
X71500000Y-61900000I-1J99999D01*
G01*
X73000000Y-60200000D02*
G75*
G02*
X73100000Y-60300000I0J-100000D01*
G01*
X73100000Y-61900000D02*
G75*
G02*
X73000000Y-62000000I-100000J0D01*
G01*
%TO.C,D2*%
X80000000Y-61900000D02*
X80000000Y-60300000D01*
X80100000Y-60200000D02*
X81500000Y-60200000D01*
X81500000Y-62000000D02*
X80100000Y-62000000D01*
X81600000Y-60300000D02*
X81600000Y-61900000D01*
X80000000Y-60300000D02*
G75*
G02*
X80100000Y-60200000I99999J1D01*
G01*
X80100000Y-62000000D02*
G75*
G02*
X80000000Y-61900000I-1J99999D01*
G01*
X81500000Y-60200000D02*
G75*
G02*
X81600000Y-60300000I0J-100000D01*
G01*
X81600000Y-61900000D02*
G75*
G02*
X81500000Y-62000000I-100000J0D01*
G01*
%TO.C,D1*%
X63000000Y-61900000D02*
X63000000Y-60300000D01*
X63100000Y-60200000D02*
X64500000Y-60200000D01*
X64500000Y-62000000D02*
X63100000Y-62000000D01*
X64600000Y-60300000D02*
X64600000Y-61900000D01*
X63000000Y-60300000D02*
G75*
G02*
X63100000Y-60200000I99999J1D01*
G01*
X63100000Y-62000000D02*
G75*
G02*
X63000000Y-61900000I-1J99999D01*
G01*
X64500000Y-60200000D02*
G75*
G02*
X64600000Y-60300000I0J-100000D01*
G01*
X64600000Y-61900000D02*
G75*
G02*
X64500000Y-62000000I-100000J0D01*
G01*
%TD*%
M02*
