M48
; DRILL file {KiCad 9.0.4} date 2025-12-23T11:57:38+0100
; FORMAT={-:-/ absolute / inch / decimal}
; #@! TF.CreationDate,2025-12-23T11:57:38+01:00
; #@! TF.GenerationSoftware,Kicad,Pcbnew,9.0.4
; #@! TF.FileFunction,Plated,1,2,PTH
FMAT,2
INCH
; #@! TA.AperFunction,Plated,PTH,ComponentDrill
T1C0.0079
; #@! TA.AperFunction,Plated,PTH,ViaDrill
T2C0.0118
; #@! TA.AperFunction,Plated,PTH,ComponentDrill
T3C0.0197
; #@! TA.AperFunction,Plated,PTH,ViaDrill
T4C0.0236
; #@! TA.AperFunction,Plated,PTH,ComponentDrill
T5C0.0236
; #@! TA.AperFunction,Plated,PTH,ComponentDrill
T6C0.0256
; #@! TA.AperFunction,Plated,PTH,ComponentDrill
T7C0.0315
; #@! TA.AperFunction,Plated,PTH,ComponentDrill
T8C0.0335
; #@! TA.AperFunction,Plated,PTH,ComponentDrill
T9C0.0354
; #@! TA.AperFunction,Plated,PTH,ComponentDrill
T10C0.0374
; #@! TA.AperFunction,Plated,PTH,ComponentDrill
T11C0.0394
; #@! TA.AperFunction,Plated,PTH,ComponentDrill
T12C0.0472
; #@! TA.AperFunction,Plated,PTH,ComponentDrill
T13C0.0630
%
G90
G05
T1
X4.6772Y-2.4882
X4.6772Y-2.5157
X4.6772Y-2.5433
X4.6772Y-2.5709
X4.6772Y-2.5984
X4.7047Y-2.4882
X4.7047Y-2.5157
X4.7047Y-2.5433
X4.7047Y-2.5709
X4.7047Y-2.5984
X4.7323Y-2.4882
X4.7323Y-2.5157
X4.7323Y-2.5433
X4.7323Y-2.5709
X4.7323Y-2.5984
X4.7598Y-2.4882
X4.7598Y-2.5157
X4.7598Y-2.5433
X4.7598Y-2.5709
X4.7598Y-2.5984
X4.7874Y-2.4882
X4.7874Y-2.5157
X4.7874Y-2.5433
X4.7874Y-2.5709
X4.7874Y-2.5984
X5.1732Y-2.4882
X5.1732Y-2.5157
X5.1732Y-2.5433
X5.1732Y-2.5709
X5.1732Y-2.5984
X5.2008Y-2.4882
X5.2008Y-2.5157
X5.2008Y-2.5433
X5.2008Y-2.5709
X5.2008Y-2.5984
X5.2283Y-2.4882
X5.2283Y-2.5157
X5.2283Y-2.5433
X5.2283Y-2.5709
X5.2283Y-2.5984
X5.2559Y-2.4882
X5.2559Y-2.5157
X5.2559Y-2.5433
X5.2559Y-2.5709
X5.2559Y-2.5984
X5.2835Y-2.4882
X5.2835Y-2.5157
X5.2835Y-2.5433
X5.2835Y-2.5709
X5.2835Y-2.5984
T2
X0.9173Y-4.4843
X1.0512Y-3.9843
X1.0748Y-4.2874
X1.0827Y-3.6417
X1.126Y-4.4606
X1.2835Y-3.437
X1.3425Y-4.3031
X1.3583Y-2.8701
X1.3898Y-4.4528
X1.4961Y-3.6457
X1.4961Y-3.8898
X1.5236Y-4.3504
X1.6535Y-4.4764
X1.6693Y-3.1181
X1.6969Y-3.9646
X1.7598Y-3.5709
X1.7874Y-4.3701
X1.9524Y-4.3417
X1.9606Y-4.4724
X1.9724Y-2.3386
X2.0Y-2.9331
X2.0669Y-4.3622
X2.1732Y-4.4646
X2.185Y-3.2795
X2.2047Y-2.4213
X2.2087Y-3.8701
X2.2205Y-3.1181
X2.2244Y-4.3701
X2.252Y-3.685
X2.2559Y-2.685
X2.2638Y-2.5591
X2.3425Y-2.2874
X2.3819Y-3.6614
X2.3976Y-2.6811
X2.4016Y-4.4724
X2.4252Y-3.9488
X2.4291Y-3.0748
X2.4449Y-2.3661
X2.4921Y-2.5591
X2.5157Y-2.2953
X2.5295Y-3.9764
X2.5807Y-3.7933
X2.5945Y-2.0217
X2.622Y-4.3819
X2.626Y-2.5748
X2.6299Y-2.0945
X2.6339Y-2.8701
X2.6378Y-2.811
X2.6398Y-3.8484
X2.6614Y-2.563
X2.6614Y-2.8386
X2.6663Y-2.7805
X2.687Y-2.1535
X2.689Y-2.4173
X2.7008Y-2.6181
X2.7087Y-2.3228
X2.7224Y-3.624
X2.7244Y-2.1181
X2.7283Y-2.8661
X2.7323Y-2.8031
X2.7402Y-4.4724
X2.752Y-3.7539
X2.7795Y-2.3661
X2.7795Y-3.1693
X2.7953Y-4.0177
X2.7992Y-2.6457
X2.7992Y-2.7244
X2.815Y-2.685
X2.8307Y-3.4213
X2.8327Y-2.0433
X2.8465Y-2.2835
X2.8504Y-2.6654
X2.8524Y-3.8701
X2.8819Y-3.0197
X2.8898Y-2.8071
X2.8898Y-2.8543
X2.8937Y-2.7244
X2.8996Y-2.1083
X2.9094Y-2.8819
X2.9291Y-4.3858
X2.9311Y-3.5591
X2.9508Y-3.7894
X2.9547Y-3.6398
X2.9606Y-3.9469
X2.9685Y-3.2717
X2.9862Y-4.0236
X3.0059Y-2.5315
X3.0118Y-2.2776
X3.0118Y-2.4173
X3.0197Y-2.0315
X3.0354Y-2.3661
X3.0512Y-2.126
X3.0945Y-2.9646
X3.0945Y-4.4606
X3.1142Y-2.3661
X3.1555Y-4.0079
X3.1614Y-3.2402
X3.1713Y-2.061
X3.1713Y-3.8996
X3.1791Y-3.815
X3.1811Y-2.3031
X3.2067Y-3.1024
X3.2165Y-3.5945
X3.2244Y-3.4252
X3.2323Y-2.5551
X3.2323Y-4.1811
X3.2795Y-2.7165
X3.2835Y-2.7874
X3.2835Y-2.9488
X3.2835Y-4.315
X3.2874Y-3.2598
X3.2953Y-4.2047
X3.2992Y-2.5394
X3.2992Y-3.6535
X3.3189Y-2.9134
X3.3228Y-2.8366
X3.3504Y-2.6102
X3.3543Y-2.2953
X3.3622Y-2.4528
X3.3622Y-2.7638
X3.3681Y-3.5728
X3.3701Y-3.1339
X3.378Y-4.1535
X3.3819Y-2.1043
X3.5669Y-4.4803
X3.5689Y-2.1516
X3.5787Y-4.0472
X3.5837Y-2.7431
X3.5886Y-3.1953
X3.5945Y-2.5827
X3.5984Y-2.3386
X3.5984Y-3.0591
X3.6102Y-4.2087
X3.6201Y-3.1083
X3.6388Y-2.6675
X3.6457Y-3.2677
X3.6496Y-4.3465
X3.6732Y-3.2933
X3.685Y-4.4528
X3.7039Y-3.0535
X3.7264Y-2.0177
X3.7638Y-2.1693
X3.7953Y-4.374
X3.8307Y-2.9567
X3.8346Y-3.6535
X3.8366Y-3.3937
X3.8583Y-2.3976
X3.8622Y-3.9803
X3.9094Y-4.1083
X3.937Y-3.2559
X3.9409Y-4.4724
X3.9606Y-2.622
X4.0197Y-3.7638
X4.0984Y-2.9921
X4.1142Y-4.3307
X4.1161Y-4.0709
X4.189Y-2.3819
X4.1988Y-3.4114
X4.2323Y-4.4685
X4.2441Y-3.5315
X4.25Y-4.2213
X4.25Y-4.3087
X4.2677Y-2.7283
X4.2815Y-3.2657
X4.378Y-4.0433
X4.4035Y-3.7736
X4.4409Y-2.9685
X4.4744Y-4.187
X4.5079Y-2.4882
X4.5079Y-2.5866
X4.5276Y-2.2008
X4.5295Y-3.4213
X4.5472Y-2.5157
X4.5591Y-2.0709
X4.5925Y-2.3898
X4.6019Y-2.555
X4.622Y-2.3898
X4.622Y-2.4291
X4.6299Y-2.7441
X4.6339Y-3.2697
X4.6353Y-2.6142
X4.6417Y-2.3504
X4.6417Y-2.6654
X4.6417Y-2.811
X4.6417Y-3.063
X4.6457Y-4.4646
X4.7008Y-2.7795
X4.7047Y-2.0866
X4.7047Y-2.185
X4.7323Y-2.1024
X4.7323Y-3.4075
X4.7343Y-3.5335
X4.7402Y-2.689
X4.7598Y-2.0866
X4.7598Y-2.185
X4.7598Y-3.9213
X4.7598Y-4.3583
X4.8189Y-2.3504
X4.8307Y-2.1299
X4.8425Y-2.3898
X4.8425Y-2.4291
X4.8425Y-2.7362
X4.8583Y-3.063
X4.872Y-2.3898
X4.9016Y-2.7205
X4.9094Y-2.0984
X4.9134Y-2.185
X4.9134Y-2.7756
X4.9134Y-3.1496
X4.9291Y-2.9134
X4.9291Y-2.9567
X4.9409Y-2.2205
X4.9429Y-4.1201
X4.9449Y-2.1299
X4.9488Y-2.4803
X4.9528Y-2.5472
X4.9528Y-2.6929
X4.9685Y-4.4567
X4.9803Y-2.3941
X5.0079Y-2.563
X5.0079Y-3.1496
X5.0157Y-2.2677
X5.0157Y-3.2677
X5.0189Y-2.9173
X5.0197Y-2.0866
X5.0236Y-2.5
X5.0354Y-2.1693
X5.0435Y-2.9379
X5.0514Y-2.7047
X5.0528Y-2.737
X5.0602Y-3.3433
X5.0886Y-2.3898
X5.0906Y-2.5591
X5.0906Y-2.7795
X5.0984Y-3.2402
X5.1024Y-3.452
X5.1024Y-4.3504
X5.1102Y-4.1024
X5.1181Y-2.3898
X5.1181Y-2.4291
X5.122Y-2.7283
X5.1299Y-2.1339
X5.1319Y-3.9646
X5.1339Y-2.4567
X5.1378Y-2.3504
X5.1425Y-2.6535
X5.1457Y-2.9882
X5.1693Y-2.7598
X5.1969Y-2.1811
X5.2008Y-2.1024
X5.2024Y-3.3428
X5.2165Y-3.0157
X5.2283Y-2.0354
X5.2283Y-2.685
X5.2402Y-4.4685
X5.2421Y-3.7795
X5.2426Y-3.1078
X5.2542Y-2.9546
X5.2559Y-2.1772
X5.2638Y-2.0984
X5.2717Y-3.9409
X5.2795Y-3.5197
X5.2956Y-3.472
X5.3031Y-3.0669
X5.304Y-3.1252
X5.3071Y-3.6535
X5.3169Y-4.0768
X5.3189Y-2.3504
X5.3251Y-3.4803
X5.3268Y-2.1339
X5.3386Y-2.3898
X5.3386Y-2.4291
X5.3504Y-2.8425
X5.3518Y-3.6431
X5.3563Y-3.5906
X5.3622Y-3.25
X5.3622Y-3.3898
X5.3681Y-2.3898
X5.3819Y-2.7756
X5.3819Y-4.374
X5.4016Y-2.1063
X5.4016Y-2.1929
X5.4055Y-3.1319
X5.4272Y-3.4567
X5.4387Y-3.1611
X5.4488Y-2.7244
X5.4528Y-2.4921
X5.4528Y-2.5276
X5.4528Y-2.563
X5.4567Y-3.7087
X5.4606Y-3.1299
X5.4665Y-3.4567
X5.4742Y-2.6557
X5.4764Y-4.0157
X5.4882Y-3.372
X5.5036Y-3.1931
X5.5098Y-3.3051
X5.5177Y-3.4626
X5.5295Y-3.2382
X5.5354Y-3.0157
X5.5512Y-3.9685
X5.5598Y-3.4735
X5.5689Y-3.3524
X5.5709Y-3.2795
X5.5709Y-3.6457
X5.5709Y-3.689
X5.5787Y-4.4449
X5.5906Y-2.9685
X5.5945Y-3.313
X5.6298Y-3.125
X5.6314Y-3.1572
X5.6339Y-2.6024
X5.6496Y-3.1929
X5.6496Y-3.3996
X5.6535Y-3.4606
X5.6591Y-3.3173
X5.6654Y-3.8858
X5.6808Y-3.339
X5.6811Y-4.3543
X5.685Y-3.185
X5.687Y-3.2362
X5.6969Y-3.378
X5.7087Y-3.4252
X5.7094Y-3.2707
X5.7165Y-3.4843
X5.7326Y-3.0745
X5.748Y-3.6772
X5.7835Y-3.0366
X5.7835Y-4.0394
X5.8Y-3.5126
X5.8226Y-3.1961
X5.8228Y-3.3443
X5.8425Y-3.4961
X5.8465Y-3.5236
X5.8583Y-3.0669
X5.8612Y-2.2994
X5.8763Y-4.0344
X5.9016Y-2.5827
X5.9173Y-4.4528
X5.9508Y-2.435
X5.9646Y-3.1457
X5.9876Y-3.4297
X5.9921Y-4.3228
X5.998Y-2.3504
X6.0394Y-3.2362
X6.0512Y-3.126
X6.0551Y-3.7205
X6.0827Y-2.9803
X6.1004Y-2.7165
X6.1024Y-2.4193
X6.1142Y-2.5531
X6.1535Y-4.4488
X6.1614Y-3.9213
X6.1949Y-2.3504
X6.2047Y-3.0591
X6.248Y-2.3307
X6.2559Y-2.6102
X6.2638Y-2.4921
X6.2717Y-3.1969
X6.2717Y-3.3346
X6.2756Y-2.8346
X6.2992Y-3.0709
X6.3179Y-3.4441
X6.3189Y-3.5157
X6.3504Y-3.252
X6.3504Y-4.311
X6.3701Y-3.3661
X6.3976Y-3.5591
X6.4154Y-4.1643
X6.4291Y-2.9213
X6.4311Y-4.4753
X6.4488Y-2.626
X6.4587Y-4.0265
X6.4862Y-2.3268
X6.4961Y-2.7244
X6.5138Y-4.3611
X6.5157Y-3.0787
X6.5531Y-4.4792
X6.5866Y-2.4606
X6.5984Y-2.7677
X6.628Y-4.0304
X6.6319Y-4.3887
X6.6417Y-2.4567
X6.6417Y-3.4803
X6.6772Y-2.4055
X6.6929Y-2.8976
X6.6949Y-4.491
X6.7343Y-4.0304
X6.7421Y-2.3268
X6.748Y-2.6772
X6.7835Y-2.4882
X6.7913Y-3.2677
X6.7992Y-3.0709
X6.8069Y-3.9595
X6.815Y-3.7047
X6.8287Y-4.4832
X6.8425Y-2.7205
X6.8445Y-4.2312
X6.8484Y-4.3926
X6.8996Y-4.1052
T3
X5.185Y-2.8386
T4
X4.2717Y-2.5866
X4.5157Y-2.1063
X4.6339Y-2.0276
X4.8307Y-2.0276
X4.9409Y-2.0433
X5.0197Y-2.0118
X5.0945Y-2.689
X5.126Y-2.0315
X5.2402Y-2.748
X5.3268Y-2.0315
X5.3386Y-2.7087
X5.437Y-2.0354
T6
X6.4331Y-3.1992
X6.4331Y-3.2492
X6.4331Y-3.2992
X6.4331Y-3.3492
X6.4331Y-3.3992
X6.4331Y-3.4492
X6.4331Y-3.4992
X6.4831Y-3.1992
X6.4831Y-3.2492
X6.4831Y-3.2992
X6.4831Y-3.3492
X6.4831Y-3.3992
X6.4831Y-3.4492
X6.4831Y-3.4992
T7
X5.6024Y-2.6779
X5.6024Y-2.7763
X5.874Y-2.6779
X5.874Y-2.7763
T8
X1.8091Y-3.6949
X1.9075Y-3.6949
X2.0059Y-3.6949
T9
X1.1742Y-2.6415
X1.2242Y-2.5415
X1.2742Y-2.6415
X1.3242Y-2.5415
X1.3742Y-2.6415
X1.4242Y-2.5415
X1.4742Y-2.6415
X1.5242Y-2.5415
X1.8278Y-2.6415
X1.8778Y-2.5415
X1.9278Y-2.6415
X1.9778Y-2.5415
X2.0278Y-2.6415
X2.0778Y-2.5415
X2.1278Y-2.6415
X2.1778Y-2.5415
T10
X1.1417Y-4.2097
X1.2402Y-4.2097
X1.3386Y-4.2097
X1.437Y-4.2097
X1.5354Y-4.2097
X1.7559Y-4.2244
X1.8543Y-4.2244
X1.9528Y-4.2244
X2.0512Y-4.2244
X2.252Y-4.2244
X2.3504Y-4.2244
X2.4488Y-4.2244
X2.5472Y-4.2244
X2.7638Y-4.2087
X2.8622Y-4.2087
X2.9606Y-4.2087
X3.0591Y-4.2087
X3.1575Y-4.2087
X4.5846Y-2.2706
X4.622Y-4.2087
X4.6831Y-2.2706
X4.7205Y-4.2087
X4.7815Y-2.2706
X4.8189Y-4.2087
X4.8799Y-2.2706
X4.9173Y-4.2087
X5.0157Y-4.2087
X5.0807Y-2.2706
X5.122Y-2.9094
X5.1791Y-2.2706
X5.2205Y-2.9094
X5.248Y-4.2087
X5.2776Y-2.2706
X5.2992Y-3.7677
X5.3189Y-2.9094
X5.3465Y-4.2087
X5.376Y-2.2706
X5.3976Y-3.7677
X5.4173Y-2.9094
X5.4449Y-4.2087
X5.4961Y-3.7677
X5.5157Y-2.9094
X5.5433Y-4.2087
X5.5945Y-3.7677
X5.6142Y-2.9094
X5.6417Y-4.2087
X5.6929Y-3.7677
X5.7913Y-3.7677
X5.874Y-4.2087
X5.9724Y-4.2087
X6.0709Y-4.2087
X6.1693Y-4.2087
X6.2677Y-4.2087
X6.4843Y-4.2244
X6.5827Y-4.2244
X6.6811Y-4.2244
X6.7795Y-4.2244
T11
X1.0945Y-2.7776
X1.0945Y-2.878
X1.0945Y-3.2008
X1.0945Y-3.3012
X2.5512Y-2.7776
X2.5512Y-2.878
X2.5512Y-3.0441
X2.5512Y-3.2008
X2.5512Y-3.3012
X2.6956Y-2.913
X2.6956Y-3.013
X2.6956Y-3.113
X2.6956Y-3.213
X3.2677Y-3.7583
X3.2677Y-3.8583
X3.2677Y-3.9583
X3.4343Y-2.298
X3.4343Y-2.398
X3.4343Y-2.498
X3.4343Y-2.598
X3.4343Y-2.698
X3.4343Y-2.798
X3.4343Y-2.898
X3.4343Y-2.998
X3.4343Y-3.098
X3.4343Y-3.198
X3.4343Y-3.298
X3.4343Y-3.398
X3.4343Y-3.498
X3.4343Y-3.598
X3.4343Y-3.698
X3.4343Y-3.798
X3.4343Y-3.898
X3.4343Y-3.998
X3.4343Y-4.098
X3.4343Y-4.198
X3.5343Y-2.298
X3.5343Y-2.398
X3.5343Y-2.498
X3.5343Y-2.598
X3.5343Y-2.698
X3.5343Y-2.798
X3.5343Y-2.898
X3.5343Y-2.998
X3.5343Y-3.098
X3.5343Y-3.198
X3.5343Y-3.298
X3.5343Y-3.398
X3.5343Y-3.498
X3.5343Y-3.598
X3.5343Y-3.698
X3.5343Y-3.798
X3.5343Y-3.898
X3.5343Y-3.998
X3.5343Y-4.098
X3.5343Y-4.198
X6.1082Y-3.1504
X6.1082Y-3.2504
X6.1082Y-3.3504
X6.1082Y-3.4504
X6.1082Y-3.5504
X6.2082Y-3.1504
X6.2082Y-3.2504
X6.2082Y-3.3504
X6.2082Y-3.4504
X6.2082Y-3.5504
T12
X2.4429Y-2.2835
X2.5807Y-2.2835
X2.7776Y-2.2835
X2.9154Y-2.2835
X3.1122Y-2.2835
X3.25Y-2.2835
T13
X1.0433Y-2.1715
X1.6551Y-2.1715
X1.6969Y-2.1715
X2.3087Y-2.1715
T5
G00X5.9244Y-2.0728
M15
G01X5.9244Y-2.0965
M16
G05
G00X5.9244Y-2.2276
M15
G01X5.9244Y-2.2709
M16
G05
G00X6.2646Y-2.0728
M15
G01X6.2646Y-2.0965
M16
G05
G00X6.2646Y-2.2276
M15
G01X6.2646Y-2.2709
M16
G05
G00X6.4441Y-2.0725
M15
G01X6.4441Y-2.0962
M16
G05
G00X6.4441Y-2.2273
M15
G01X6.4441Y-2.2706
M16
G05
G00X6.7843Y-2.0725
M15
G01X6.7843Y-2.0962
M16
G05
G00X6.7843Y-2.2273
M15
G01X6.7843Y-2.2706
M16
G05
T11
G00X5.5495Y-2.3622
M15
G01X5.5495Y-2.4409
M16
G05
G00X5.7739Y-2.2835
M15
G01X5.6952Y-2.2835
M16
G05
G00X5.7739Y-2.5197
M15
G01X5.6952Y-2.5197
M16
G05
M30
