%TF.GenerationSoftware,KiCad,Pcbnew,9.0.4*%
%TF.CreationDate,2025-12-23T11:57:38+01:00*%
%TF.ProjectId,licheerv_nano_base,6c696368-6565-4727-965f-6e616e6f5f62,rev?*%
%TF.SameCoordinates,Original*%
%TF.FileFunction,Legend,Bot*%
%TF.FilePolarity,Positive*%
%FSLAX46Y46*%
G04 Gerber Fmt 4.6, Leading zero omitted, Abs format (unit mm)*
G04 Created by KiCad (PCBNEW 9.0.4) date 2025-12-23 11:57:38*
%MOMM*%
%LPD*%
G01*
G04 APERTURE LIST*
G04 Aperture macros list*
%AMRoundRect*
0 Rectangle with rounded corners*
0 $1 Rounding radius*
0 $2 $3 $4 $5 $6 $7 $8 $9 X,Y pos of 4 corners*
0 Add a 4 corners polygon primitive as box body*
4,1,4,$2,$3,$4,$5,$6,$7,$8,$9,$2,$3,0*
0 Add four circle primitives for the rounded corners*
1,1,$1+$1,$2,$3*
1,1,$1+$1,$4,$5*
1,1,$1+$1,$6,$7*
1,1,$1+$1,$8,$9*
0 Add four rect primitives between the rounded corners*
20,1,$1+$1,$2,$3,$4,$5,0*
20,1,$1+$1,$4,$5,$6,$7,0*
20,1,$1+$1,$6,$7,$8,$9,0*
20,1,$1+$1,$8,$9,$2,$3,0*%
G04 Aperture macros list end*
%ADD10C,0.150000*%
%ADD11C,0.100000*%
%ADD12C,0.120000*%
%ADD13RoundRect,0.150000X0.600000X0.650000X-0.600000X0.650000X-0.600000X-0.650000X0.600000X-0.650000X0*%
%ADD14RoundRect,0.135000X0.185000X-0.135000X0.185000X0.135000X-0.185000X0.135000X-0.185000X-0.135000X0*%
%ADD15RoundRect,0.100000X0.130000X0.100000X-0.130000X0.100000X-0.130000X-0.100000X0.130000X-0.100000X0*%
%ADD16O,2.000000X1.600000*%
%ADD17RoundRect,0.250000X-0.600000X-0.725000X0.600000X-0.725000X0.600000X0.725000X-0.600000X0.725000X0*%
%ADD18O,1.700000X1.950000*%
%ADD19O,1.600000X2.000000*%
%ADD20RoundRect,0.300000X0.200000X0.200000X-0.200000X0.200000X-0.200000X-0.200000X0.200000X-0.200000X0*%
%ADD21O,1.000000X1.000000*%
%ADD22RoundRect,0.250000X-0.600000X-0.600000X0.600000X-0.600000X0.600000X0.600000X-0.600000X0.600000X0*%
%ADD23C,1.700000*%
%ADD24RoundRect,0.425000X0.575000X0.425000X-0.575000X0.425000X-0.575000X-0.425000X0.575000X-0.425000X0*%
%ADD25O,2.000000X1.700000*%
%ADD26C,4.300000*%
%ADD27C,3.250000*%
%ADD28R,1.500000X1.500000*%
%ADD29C,1.500000*%
%ADD30C,3.000000*%
%ADD31RoundRect,0.450000X0.450000X0.750000X-0.450000X0.750000X-0.450000X-0.750000X0.450000X-0.750000X0*%
%ADD32C,3.200000*%
%ADD33R,3.500000X3.500000*%
%ADD34RoundRect,0.750000X-1.000000X0.750000X-1.000000X-0.750000X1.000000X-0.750000X1.000000X0.750000X0*%
%ADD35RoundRect,0.875000X-0.875000X0.875000X-0.875000X-0.875000X0.875000X-0.875000X0.875000X0.875000X0*%
%ADD36RoundRect,0.500000X0.350000X0.350000X-0.350000X0.350000X-0.350000X-0.350000X0.350000X-0.350000X0*%
%ADD37O,1.700000X1.700000*%
%ADD38RoundRect,0.250000X0.600000X0.675000X-0.600000X0.675000X-0.600000X-0.675000X0.600000X-0.675000X0*%
%ADD39O,1.700000X1.850000*%
%ADD40RoundRect,0.250000X-0.550000X0.550000X-0.550000X-0.550000X0.550000X-0.550000X0.550000X0.550000X0*%
%ADD41C,1.600000*%
%ADD42RoundRect,0.135000X-0.185000X0.135000X-0.185000X-0.135000X0.185000X-0.135000X0.185000X0.135000X0*%
%ADD43RoundRect,0.250000X0.250000X0.475000X-0.250000X0.475000X-0.250000X-0.475000X0.250000X-0.475000X0*%
%ADD44RoundRect,0.140000X-0.170000X0.140000X-0.170000X-0.140000X0.170000X-0.140000X0.170000X0.140000X0*%
%ADD45RoundRect,0.135000X-0.135000X-0.185000X0.135000X-0.185000X0.135000X0.185000X-0.135000X0.185000X0*%
%ADD46RoundRect,0.250000X-0.250000X-0.475000X0.250000X-0.475000X0.250000X0.475000X-0.250000X0.475000X0*%
%ADD47RoundRect,0.100000X-0.130000X-0.100000X0.130000X-0.100000X0.130000X0.100000X-0.130000X0.100000X0*%
%ADD48RoundRect,0.250000X0.625000X-0.312500X0.625000X0.312500X-0.625000X0.312500X-0.625000X-0.312500X0*%
%ADD49RoundRect,0.250000X0.450000X-0.350000X0.450000X0.350000X-0.450000X0.350000X-0.450000X-0.350000X0*%
%ADD50RoundRect,0.100000X-0.100000X0.130000X-0.100000X-0.130000X0.100000X-0.130000X0.100000X0.130000X0*%
%ADD51RoundRect,0.150000X-0.600000X-0.650000X0.600000X-0.650000X0.600000X0.650000X-0.600000X0.650000X0*%
%ADD52RoundRect,0.150000X0.150000X-0.587500X0.150000X0.587500X-0.150000X0.587500X-0.150000X-0.587500X0*%
%ADD53C,0.650000*%
%ADD54R,0.600000X1.450000*%
%ADD55R,0.300000X1.450000*%
%ADD56O,1.000000X1.600000*%
%ADD57O,1.000000X2.100000*%
%ADD58RoundRect,0.150000X0.150000X-0.825000X0.150000X0.825000X-0.150000X0.825000X-0.150000X-0.825000X0*%
%ADD59RoundRect,0.235000X0.940000X1.465000X-0.940000X1.465000X-0.940000X-1.465000X0.940000X-1.465000X0*%
%ADD60RoundRect,0.250000X-0.350000X-0.450000X0.350000X-0.450000X0.350000X0.450000X-0.350000X0.450000X0*%
%ADD61RoundRect,0.250000X0.450000X-0.325000X0.450000X0.325000X-0.450000X0.325000X-0.450000X-0.325000X0*%
%ADD62RoundRect,0.218750X0.256250X-0.218750X0.256250X0.218750X-0.256250X0.218750X-0.256250X-0.218750X0*%
%ADD63RoundRect,0.250000X-0.475000X0.337500X-0.475000X-0.337500X0.475000X-0.337500X0.475000X0.337500X0*%
%ADD64RoundRect,0.100000X0.100000X-0.130000X0.100000X0.130000X-0.100000X0.130000X-0.100000X-0.130000X0*%
%ADD65RoundRect,0.250000X-0.475000X0.250000X-0.475000X-0.250000X0.475000X-0.250000X0.475000X0.250000X0*%
%ADD66RoundRect,0.225000X0.250000X-0.225000X0.250000X0.225000X-0.250000X0.225000X-0.250000X-0.225000X0*%
%ADD67RoundRect,0.162500X0.617500X0.162500X-0.617500X0.162500X-0.617500X-0.162500X0.617500X-0.162500X0*%
%ADD68RoundRect,0.075000X0.075000X-0.700000X0.075000X0.700000X-0.075000X0.700000X-0.075000X-0.700000X0*%
%ADD69RoundRect,0.075000X0.700000X-0.075000X0.700000X0.075000X-0.700000X0.075000X-0.700000X-0.075000X0*%
%ADD70RoundRect,0.225000X0.225000X0.250000X-0.225000X0.250000X-0.225000X-0.250000X0.225000X-0.250000X0*%
%ADD71R,1.000000X1.000000*%
%ADD72RoundRect,0.062500X0.325000X0.062500X-0.325000X0.062500X-0.325000X-0.062500X0.325000X-0.062500X0*%
%ADD73RoundRect,0.062500X0.062500X0.325000X-0.062500X0.325000X-0.062500X-0.325000X0.062500X-0.325000X0*%
%ADD74R,3.750000X3.750000*%
%ADD75RoundRect,0.250000X0.475000X-0.250000X0.475000X0.250000X-0.475000X0.250000X-0.475000X-0.250000X0*%
%ADD76RoundRect,0.250000X0.475000X-0.337500X0.475000X0.337500X-0.475000X0.337500X-0.475000X-0.337500X0*%
%ADD77RoundRect,0.140000X0.140000X0.170000X-0.140000X0.170000X-0.140000X-0.170000X0.140000X-0.170000X0*%
%ADD78RoundRect,0.250000X0.600000X0.600000X-0.600000X0.600000X-0.600000X-0.600000X0.600000X-0.600000X0*%
%ADD79RoundRect,0.175000X-0.275000X-0.175000X0.275000X-0.175000X0.275000X0.175000X-0.275000X0.175000X0*%
G04 APERTURE END LIST*
D10*
X47795238Y-110654819D02*
X48366666Y-110654819D01*
X48080952Y-110654819D02*
X48080952Y-109654819D01*
X48080952Y-109654819D02*
X48176190Y-109797676D01*
X48176190Y-109797676D02*
X48271428Y-109892914D01*
X48271428Y-109892914D02*
X48366666Y-109940533D01*
X47176190Y-109654819D02*
X47080952Y-109654819D01*
X47080952Y-109654819D02*
X46985714Y-109702438D01*
X46985714Y-109702438D02*
X46938095Y-109750057D01*
X46938095Y-109750057D02*
X46890476Y-109845295D01*
X46890476Y-109845295D02*
X46842857Y-110035771D01*
X46842857Y-110035771D02*
X46842857Y-110273866D01*
X46842857Y-110273866D02*
X46890476Y-110464342D01*
X46890476Y-110464342D02*
X46938095Y-110559580D01*
X46938095Y-110559580D02*
X46985714Y-110607200D01*
X46985714Y-110607200D02*
X47080952Y-110654819D01*
X47080952Y-110654819D02*
X47176190Y-110654819D01*
X47176190Y-110654819D02*
X47271428Y-110607200D01*
X47271428Y-110607200D02*
X47319047Y-110559580D01*
X47319047Y-110559580D02*
X47366666Y-110464342D01*
X47366666Y-110464342D02*
X47414285Y-110273866D01*
X47414285Y-110273866D02*
X47414285Y-110035771D01*
X47414285Y-110035771D02*
X47366666Y-109845295D01*
X47366666Y-109845295D02*
X47319047Y-109750057D01*
X47319047Y-109750057D02*
X47271428Y-109702438D01*
X47271428Y-109702438D02*
X47176190Y-109654819D01*
X46414285Y-110654819D02*
X46414285Y-109654819D01*
X46319047Y-110273866D02*
X46033333Y-110654819D01*
X46033333Y-109988152D02*
X46414285Y-110369104D01*
X53469047Y-103354819D02*
X54040475Y-103354819D01*
X53754761Y-103354819D02*
X53754761Y-102354819D01*
X53754761Y-102354819D02*
X53849999Y-102497676D01*
X53849999Y-102497676D02*
X53945237Y-102592914D01*
X53945237Y-102592914D02*
X54040475Y-102640533D01*
X53040475Y-103354819D02*
X53040475Y-102354819D01*
X52945237Y-102973866D02*
X52659523Y-103354819D01*
X52659523Y-102688152D02*
X53040475Y-103069104D01*
X138876190Y-71007200D02*
X138733333Y-71054819D01*
X138733333Y-71054819D02*
X138495238Y-71054819D01*
X138495238Y-71054819D02*
X138400000Y-71007200D01*
X138400000Y-71007200D02*
X138352381Y-70959580D01*
X138352381Y-70959580D02*
X138304762Y-70864342D01*
X138304762Y-70864342D02*
X138304762Y-70769104D01*
X138304762Y-70769104D02*
X138352381Y-70673866D01*
X138352381Y-70673866D02*
X138400000Y-70626247D01*
X138400000Y-70626247D02*
X138495238Y-70578628D01*
X138495238Y-70578628D02*
X138685714Y-70531009D01*
X138685714Y-70531009D02*
X138780952Y-70483390D01*
X138780952Y-70483390D02*
X138828571Y-70435771D01*
X138828571Y-70435771D02*
X138876190Y-70340533D01*
X138876190Y-70340533D02*
X138876190Y-70245295D01*
X138876190Y-70245295D02*
X138828571Y-70150057D01*
X138828571Y-70150057D02*
X138780952Y-70102438D01*
X138780952Y-70102438D02*
X138685714Y-70054819D01*
X138685714Y-70054819D02*
X138447619Y-70054819D01*
X138447619Y-70054819D02*
X138304762Y-70102438D01*
X138019047Y-70388152D02*
X137638095Y-70388152D01*
X137876190Y-70054819D02*
X137876190Y-70911961D01*
X137876190Y-70911961D02*
X137828571Y-71007200D01*
X137828571Y-71007200D02*
X137733333Y-71054819D01*
X137733333Y-71054819D02*
X137638095Y-71054819D01*
X136923809Y-71007200D02*
X137019047Y-71054819D01*
X137019047Y-71054819D02*
X137209523Y-71054819D01*
X137209523Y-71054819D02*
X137304761Y-71007200D01*
X137304761Y-71007200D02*
X137352380Y-70911961D01*
X137352380Y-70911961D02*
X137352380Y-70531009D01*
X137352380Y-70531009D02*
X137304761Y-70435771D01*
X137304761Y-70435771D02*
X137209523Y-70388152D01*
X137209523Y-70388152D02*
X137019047Y-70388152D01*
X137019047Y-70388152D02*
X136923809Y-70435771D01*
X136923809Y-70435771D02*
X136876190Y-70531009D01*
X136876190Y-70531009D02*
X136876190Y-70626247D01*
X136876190Y-70626247D02*
X137352380Y-70721485D01*
X136447618Y-70388152D02*
X136447618Y-71388152D01*
X136447618Y-70435771D02*
X136352380Y-70388152D01*
X136352380Y-70388152D02*
X136161904Y-70388152D01*
X136161904Y-70388152D02*
X136066666Y-70435771D01*
X136066666Y-70435771D02*
X136019047Y-70483390D01*
X136019047Y-70483390D02*
X135971428Y-70578628D01*
X135971428Y-70578628D02*
X135971428Y-70864342D01*
X135971428Y-70864342D02*
X136019047Y-70959580D01*
X136019047Y-70959580D02*
X136066666Y-71007200D01*
X136066666Y-71007200D02*
X136161904Y-71054819D01*
X136161904Y-71054819D02*
X136352380Y-71054819D01*
X136352380Y-71054819D02*
X136447618Y-71007200D01*
X135542856Y-70388152D02*
X135542856Y-71388152D01*
X135542856Y-70435771D02*
X135447618Y-70388152D01*
X135447618Y-70388152D02*
X135257142Y-70388152D01*
X135257142Y-70388152D02*
X135161904Y-70435771D01*
X135161904Y-70435771D02*
X135114285Y-70483390D01*
X135114285Y-70483390D02*
X135066666Y-70578628D01*
X135066666Y-70578628D02*
X135066666Y-70864342D01*
X135066666Y-70864342D02*
X135114285Y-70959580D01*
X135114285Y-70959580D02*
X135161904Y-71007200D01*
X135161904Y-71007200D02*
X135257142Y-71054819D01*
X135257142Y-71054819D02*
X135447618Y-71054819D01*
X135447618Y-71054819D02*
X135542856Y-71007200D01*
X134257142Y-71007200D02*
X134352380Y-71054819D01*
X134352380Y-71054819D02*
X134542856Y-71054819D01*
X134542856Y-71054819D02*
X134638094Y-71007200D01*
X134638094Y-71007200D02*
X134685713Y-70911961D01*
X134685713Y-70911961D02*
X134685713Y-70531009D01*
X134685713Y-70531009D02*
X134638094Y-70435771D01*
X134638094Y-70435771D02*
X134542856Y-70388152D01*
X134542856Y-70388152D02*
X134352380Y-70388152D01*
X134352380Y-70388152D02*
X134257142Y-70435771D01*
X134257142Y-70435771D02*
X134209523Y-70531009D01*
X134209523Y-70531009D02*
X134209523Y-70626247D01*
X134209523Y-70626247D02*
X134685713Y-70721485D01*
X133780951Y-71054819D02*
X133780951Y-70388152D01*
X133780951Y-70578628D02*
X133733332Y-70483390D01*
X133733332Y-70483390D02*
X133685713Y-70435771D01*
X133685713Y-70435771D02*
X133590475Y-70388152D01*
X133590475Y-70388152D02*
X133495237Y-70388152D01*
X133161903Y-70054819D02*
X133161903Y-70864342D01*
X133161903Y-70864342D02*
X133114284Y-70959580D01*
X133114284Y-70959580D02*
X133066665Y-71007200D01*
X133066665Y-71007200D02*
X132971427Y-71054819D01*
X132971427Y-71054819D02*
X132780951Y-71054819D01*
X132780951Y-71054819D02*
X132685713Y-71007200D01*
X132685713Y-71007200D02*
X132638094Y-70959580D01*
X132638094Y-70959580D02*
X132590475Y-70864342D01*
X132590475Y-70864342D02*
X132590475Y-70054819D01*
X132161903Y-70769104D02*
X131685713Y-70769104D01*
X132257141Y-71054819D02*
X131923808Y-70054819D01*
X131923808Y-70054819D02*
X131590475Y-71054819D01*
X130685713Y-71054819D02*
X131019046Y-70578628D01*
X131257141Y-71054819D02*
X131257141Y-70054819D01*
X131257141Y-70054819D02*
X130876189Y-70054819D01*
X130876189Y-70054819D02*
X130780951Y-70102438D01*
X130780951Y-70102438D02*
X130733332Y-70150057D01*
X130733332Y-70150057D02*
X130685713Y-70245295D01*
X130685713Y-70245295D02*
X130685713Y-70388152D01*
X130685713Y-70388152D02*
X130733332Y-70483390D01*
X130733332Y-70483390D02*
X130780951Y-70531009D01*
X130780951Y-70531009D02*
X130876189Y-70578628D01*
X130876189Y-70578628D02*
X131257141Y-70578628D01*
X130399998Y-70054819D02*
X129828570Y-70054819D01*
X130114284Y-71054819D02*
X130114284Y-70054819D01*
D11*
%TO.C,D4*%
X121850000Y-73700000D02*
X123250000Y-73700000D01*
X123250000Y-75500000D02*
X121850000Y-75500000D01*
X123250000Y-73700000D02*
X123250000Y-75500000D01*
D12*
%TO.C,R31*%
X117180000Y-71953641D02*
X117180000Y-71646359D01*
X116420000Y-71953641D02*
X116420000Y-71646359D01*
%TO.C,C23*%
X145970000Y-69267620D02*
X152430000Y-69267620D01*
X145970000Y-69307620D02*
X152430000Y-69307620D01*
X145971000Y-69347620D02*
X152429000Y-69347620D01*
X145972000Y-69387620D02*
X152428000Y-69387620D01*
X145974000Y-69427620D02*
X152426000Y-69427620D01*
X145976000Y-69467620D02*
X152424000Y-69467620D01*
X145979000Y-69507620D02*
X148160000Y-69507620D01*
X145982000Y-69547620D02*
X148160000Y-69547620D01*
X145986000Y-69587620D02*
X148160000Y-69587620D01*
X145990000Y-69627620D02*
X148160000Y-69627620D01*
X145995000Y-69667620D02*
X148160000Y-69667620D01*
X146000000Y-69707620D02*
X148160000Y-69707620D01*
X146005000Y-69747620D02*
X148160000Y-69747620D01*
X146012000Y-69787620D02*
X148160000Y-69787620D01*
X146018000Y-69827620D02*
X148160000Y-69827620D01*
X146026000Y-69867620D02*
X148160000Y-69867620D01*
X146033000Y-69907620D02*
X148160000Y-69907620D01*
X146041000Y-69947620D02*
X148160000Y-69947620D01*
X146050000Y-69987620D02*
X148160000Y-69987620D01*
X146060000Y-70027620D02*
X148160000Y-70027620D01*
X146069000Y-70067620D02*
X148160000Y-70067620D01*
X146080000Y-70107620D02*
X148160000Y-70107620D01*
X146091000Y-70147620D02*
X148160000Y-70147620D01*
X146102000Y-70187620D02*
X148160000Y-70187620D01*
X146114000Y-70227620D02*
X148160000Y-70227620D01*
X146127000Y-70267620D02*
X148160000Y-70267620D01*
X146140000Y-70307620D02*
X148160000Y-70307620D01*
X146153000Y-70347620D02*
X148160000Y-70347620D01*
X146168000Y-70387620D02*
X148160000Y-70387620D01*
X146183000Y-70427620D02*
X148160000Y-70427620D01*
X146198000Y-70467620D02*
X148160000Y-70467620D01*
X146214000Y-70507620D02*
X148160000Y-70507620D01*
X146231000Y-70547620D02*
X148160000Y-70547620D01*
X146248000Y-70587620D02*
X148160000Y-70587620D01*
X146266000Y-70627620D02*
X148160000Y-70627620D01*
X146285000Y-70667620D02*
X148160000Y-70667620D01*
X146304000Y-70707620D02*
X148160000Y-70707620D01*
X146324000Y-70747620D02*
X148160000Y-70747620D01*
X146345000Y-70787620D02*
X148160000Y-70787620D01*
X146366000Y-70827620D02*
X148160000Y-70827620D01*
X146388000Y-70867620D02*
X148160000Y-70867620D01*
X146411000Y-70907620D02*
X148160000Y-70907620D01*
X146435000Y-70947620D02*
X148160000Y-70947620D01*
X146459000Y-70987620D02*
X148160000Y-70987620D01*
X146484000Y-71027620D02*
X148160000Y-71027620D01*
X146510000Y-71067620D02*
X148160000Y-71067620D01*
X146537000Y-71107620D02*
X148160000Y-71107620D01*
X146564000Y-71147620D02*
X148160000Y-71147620D01*
X146593000Y-71187620D02*
X148160000Y-71187620D01*
X146623000Y-71227620D02*
X148160000Y-71227620D01*
X146653000Y-71267620D02*
X148160000Y-71267620D01*
X146684000Y-71307620D02*
X148160000Y-71307620D01*
X146717000Y-71347620D02*
X148160000Y-71347620D01*
X146750000Y-71387620D02*
X148160000Y-71387620D01*
X146785000Y-71427620D02*
X148160000Y-71427620D01*
X146821000Y-71467620D02*
X148160000Y-71467620D01*
X146858000Y-71507620D02*
X148160000Y-71507620D01*
X146896000Y-71547620D02*
X148160000Y-71547620D01*
X146936000Y-71587620D02*
X151464000Y-71587620D01*
X146977000Y-71627620D02*
X151423000Y-71627620D01*
X147019000Y-71667620D02*
X151381000Y-71667620D01*
X147046000Y-66082379D02*
X147676000Y-66082379D01*
X147063000Y-71707620D02*
X151337000Y-71707620D01*
X147109000Y-71747620D02*
X151291000Y-71747620D01*
X147156000Y-71787620D02*
X151244000Y-71787620D01*
X147205000Y-71827620D02*
X151195000Y-71827620D01*
X147257000Y-71867620D02*
X151143000Y-71867620D01*
X147310000Y-71907620D02*
X151090000Y-71907620D01*
X147361000Y-65767379D02*
X147361000Y-66397379D01*
X147366000Y-71947620D02*
X151034000Y-71947620D01*
X147425000Y-71987620D02*
X150975000Y-71987620D01*
X147486000Y-72027620D02*
X150914000Y-72027620D01*
X147551000Y-72067620D02*
X150849000Y-72067620D01*
X147619000Y-72107620D02*
X150781000Y-72107620D01*
X147691000Y-72147620D02*
X150709000Y-72147620D01*
X147768000Y-72187620D02*
X150632000Y-72187620D01*
X147850000Y-72227620D02*
X150550000Y-72227620D01*
X147939000Y-72267620D02*
X150461000Y-72267620D01*
X148035000Y-72307620D02*
X150365000Y-72307620D01*
X148142000Y-72347620D02*
X150258000Y-72347620D01*
X148261000Y-72387620D02*
X150139000Y-72387620D01*
X148399000Y-72427620D02*
X150001000Y-72427620D01*
X148567000Y-72467620D02*
X149833000Y-72467620D01*
X148798000Y-72507620D02*
X149602000Y-72507620D01*
X150240000Y-69507620D02*
X152421000Y-69507620D01*
X150240000Y-69547620D02*
X152418000Y-69547620D01*
X150240000Y-69587620D02*
X152414000Y-69587620D01*
X150240000Y-69627620D02*
X152410000Y-69627620D01*
X150240000Y-69667620D02*
X152405000Y-69667620D01*
X150240000Y-69707620D02*
X152400000Y-69707620D01*
X150240000Y-69747620D02*
X152395000Y-69747620D01*
X150240000Y-69787620D02*
X152388000Y-69787620D01*
X150240000Y-69827620D02*
X152382000Y-69827620D01*
X150240000Y-69867620D02*
X152374000Y-69867620D01*
X150240000Y-69907620D02*
X152367000Y-69907620D01*
X150240000Y-69947620D02*
X152359000Y-69947620D01*
X150240000Y-69987620D02*
X152350000Y-69987620D01*
X150240000Y-70027620D02*
X152340000Y-70027620D01*
X150240000Y-70067620D02*
X152331000Y-70067620D01*
X150240000Y-70107620D02*
X152320000Y-70107620D01*
X150240000Y-70147620D02*
X152309000Y-70147620D01*
X150240000Y-70187620D02*
X152298000Y-70187620D01*
X150240000Y-70227620D02*
X152286000Y-70227620D01*
X150240000Y-70267620D02*
X152273000Y-70267620D01*
X150240000Y-70307620D02*
X152260000Y-70307620D01*
X150240000Y-70347620D02*
X152247000Y-70347620D01*
X150240000Y-70387620D02*
X152232000Y-70387620D01*
X150240000Y-70427620D02*
X152217000Y-70427620D01*
X150240000Y-70467620D02*
X152202000Y-70467620D01*
X150240000Y-70507620D02*
X152186000Y-70507620D01*
X150240000Y-70547620D02*
X152169000Y-70547620D01*
X150240000Y-70587620D02*
X152152000Y-70587620D01*
X150240000Y-70627620D02*
X152134000Y-70627620D01*
X150240000Y-70667620D02*
X152115000Y-70667620D01*
X150240000Y-70707620D02*
X152096000Y-70707620D01*
X150240000Y-70747620D02*
X152076000Y-70747620D01*
X150240000Y-70787620D02*
X152055000Y-70787620D01*
X150240000Y-70827620D02*
X152034000Y-70827620D01*
X150240000Y-70867620D02*
X152012000Y-70867620D01*
X150240000Y-70907620D02*
X151989000Y-70907620D01*
X150240000Y-70947620D02*
X151965000Y-70947620D01*
X150240000Y-70987620D02*
X151941000Y-70987620D01*
X150240000Y-71027620D02*
X151916000Y-71027620D01*
X150240000Y-71067620D02*
X151890000Y-71067620D01*
X150240000Y-71107620D02*
X151863000Y-71107620D01*
X150240000Y-71147620D02*
X151836000Y-71147620D01*
X150240000Y-71187620D02*
X151807000Y-71187620D01*
X150240000Y-71227620D02*
X151777000Y-71227620D01*
X150240000Y-71267620D02*
X151747000Y-71267620D01*
X150240000Y-71307620D02*
X151716000Y-71307620D01*
X150240000Y-71347620D02*
X151683000Y-71347620D01*
X150240000Y-71387620D02*
X151650000Y-71387620D01*
X150240000Y-71427620D02*
X151615000Y-71427620D01*
X150240000Y-71467620D02*
X151579000Y-71467620D01*
X150240000Y-71507620D02*
X151542000Y-71507620D01*
X150240000Y-71547620D02*
X151504000Y-71547620D01*
X152470000Y-69267620D02*
G75*
G02*
X145930000Y-69267620I-3270000J0D01*
G01*
X145930000Y-69267620D02*
G75*
G02*
X152470000Y-69267620I3270000J0D01*
G01*
%TO.C,R4*%
X66320000Y-66446359D02*
X66320000Y-66753641D01*
X67080000Y-66446359D02*
X67080000Y-66753641D01*
%TO.C,R7*%
X167870000Y-109118859D02*
X167870000Y-109426141D01*
X168630000Y-109118859D02*
X168630000Y-109426141D01*
%TO.C,C26*%
X137861252Y-65865000D02*
X137338748Y-65865000D01*
X137861252Y-67335000D02*
X137338748Y-67335000D01*
%TO.C,C36*%
X136040000Y-64592164D02*
X136040000Y-64807836D01*
X136760000Y-64592164D02*
X136760000Y-64807836D01*
%TO.C,R23*%
X82496359Y-55170000D02*
X82803641Y-55170000D01*
X82496359Y-55930000D02*
X82803641Y-55930000D01*
%TO.C,C34*%
X123440000Y-64592164D02*
X123440000Y-64807836D01*
X124160000Y-64592164D02*
X124160000Y-64807836D01*
%TO.C,C39*%
X115438748Y-58965000D02*
X115961252Y-58965000D01*
X115438748Y-60435000D02*
X115961252Y-60435000D01*
%TO.C,R17*%
X121790000Y-54827064D02*
X121790000Y-53372936D01*
X123610000Y-54827064D02*
X123610000Y-53372936D01*
%TO.C,R76*%
X48815000Y-110427064D02*
X48815000Y-109972936D01*
X50285000Y-110427064D02*
X50285000Y-109972936D01*
%TO.C,R22*%
X82996359Y-62270000D02*
X83303641Y-62270000D01*
X82996359Y-63030000D02*
X83303641Y-63030000D01*
%TO.C,R25*%
X75220000Y-55203641D02*
X75220000Y-54896359D01*
X75980000Y-55203641D02*
X75980000Y-54896359D01*
D11*
%TO.C,D3*%
X69750000Y-60200000D02*
X71150000Y-60200000D01*
X69750000Y-62000000D02*
X69750000Y-60200000D01*
X71150000Y-62000000D02*
X69750000Y-62000000D01*
D12*
%TO.C,Q4*%
X68990000Y-54600000D02*
X68990000Y-53950000D01*
X68990000Y-54600000D02*
X68990000Y-55250000D01*
X72110000Y-54600000D02*
X72110000Y-53950000D01*
X72110000Y-54600000D02*
X72110000Y-55250000D01*
X72390000Y-56002500D02*
X72060000Y-55762500D01*
X72390000Y-55522500D01*
X72390000Y-56002500D01*
G36*
X72390000Y-56002500D02*
G01*
X72060000Y-55762500D01*
X72390000Y-55522500D01*
X72390000Y-56002500D01*
G37*
%TO.C,R6*%
X166196359Y-108692500D02*
X166503641Y-108692500D01*
X166196359Y-109452500D02*
X166503641Y-109452500D01*
%TO.C,C43*%
X137038748Y-60965000D02*
X137561252Y-60965000D01*
X137038748Y-62435000D02*
X137561252Y-62435000D01*
%TO.C,J1*%
X150100000Y-50100000D02*
X159500000Y-50100000D01*
X150100000Y-52000000D02*
X150100000Y-50100000D01*
X150100000Y-55900000D02*
X150100000Y-53900000D01*
X159500000Y-52000000D02*
X159500000Y-50100000D01*
X159500000Y-55900000D02*
X159500000Y-53900000D01*
%TO.C,J22*%
X163300000Y-50092500D02*
X172700000Y-50092500D01*
X163300000Y-51992500D02*
X163300000Y-50092500D01*
X163300000Y-55892500D02*
X163300000Y-53892500D01*
X172700000Y-51992500D02*
X172700000Y-50092500D01*
X172700000Y-55892500D02*
X172700000Y-53892500D01*
%TO.C,U3*%
X163390000Y-101672500D02*
X163390000Y-99722500D01*
X163390000Y-101672500D02*
X163390000Y-103622500D01*
X173510000Y-101672500D02*
X173510000Y-99722500D01*
X173510000Y-101672500D02*
X173510000Y-103622500D01*
X173785000Y-104612500D02*
X173455000Y-104372500D01*
X173785000Y-104132500D01*
X173785000Y-104612500D01*
G36*
X173785000Y-104612500D02*
G01*
X173455000Y-104372500D01*
X173785000Y-104132500D01*
X173785000Y-104612500D01*
G37*
%TO.C,C4*%
X67840000Y-69992164D02*
X67840000Y-70207836D01*
X68560000Y-69992164D02*
X68560000Y-70207836D01*
%TO.C,R18*%
X134390000Y-54827064D02*
X134390000Y-53372936D01*
X136210000Y-54827064D02*
X136210000Y-53372936D01*
%TO.C,C29*%
X124438748Y-60965000D02*
X124961252Y-60965000D01*
X124438748Y-62435000D02*
X124961252Y-62435000D01*
%TO.C,L1*%
X74325000Y-65800000D02*
X74325000Y-67300000D01*
X74325000Y-65800000D02*
X81725000Y-65800000D01*
X74325000Y-72600000D02*
X74325000Y-71100000D01*
X81725000Y-65800000D02*
X81725000Y-67300000D01*
X81725000Y-72600000D02*
X74325000Y-72600000D01*
X81725000Y-72600000D02*
X81725000Y-71100000D01*
%TO.C,R77*%
X53122936Y-103815000D02*
X53577064Y-103815000D01*
X53122936Y-105285000D02*
X53577064Y-105285000D01*
%TO.C,L2*%
X175040000Y-108233752D02*
X175040000Y-107711248D01*
X176460000Y-108233752D02*
X176460000Y-107711248D01*
%TO.C,Q2*%
X60490000Y-54600000D02*
X60490000Y-53950000D01*
X60490000Y-54600000D02*
X60490000Y-55250000D01*
X63610000Y-54600000D02*
X63610000Y-53950000D01*
X63610000Y-54600000D02*
X63610000Y-55250000D01*
X63890000Y-56002500D02*
X63560000Y-55762500D01*
X63890000Y-55522500D01*
X63890000Y-56002500D01*
G36*
X63890000Y-56002500D02*
G01*
X63560000Y-55762500D01*
X63890000Y-55522500D01*
X63890000Y-56002500D01*
G37*
%TO.C,FB1*%
X131890000Y-79162779D02*
X131890000Y-78837221D01*
X132910000Y-79162779D02*
X132910000Y-78837221D01*
%TO.C,C35*%
X133940000Y-68592164D02*
X133940000Y-68807836D01*
X134660000Y-68592164D02*
X134660000Y-68807836D01*
%TO.C,C10*%
X170615000Y-110211248D02*
X170615000Y-110733752D01*
X172085000Y-110211248D02*
X172085000Y-110733752D01*
%TO.C,C25*%
X125261252Y-65865000D02*
X124738748Y-65865000D01*
X125261252Y-67335000D02*
X124738748Y-67335000D01*
%TO.C,R1*%
X135570000Y-77603641D02*
X135570000Y-77296359D01*
X136330000Y-77603641D02*
X136330000Y-77296359D01*
%TO.C,C5*%
X82665000Y-72738748D02*
X82665000Y-73261252D01*
X84135000Y-72738748D02*
X84135000Y-73261252D01*
%TO.C,C3*%
X67390000Y-67340580D02*
X67390000Y-67059420D01*
X68410000Y-67340580D02*
X68410000Y-67059420D01*
%TO.C,R2*%
X66820000Y-70253641D02*
X66820000Y-69946359D01*
X67580000Y-70253641D02*
X67580000Y-69946359D01*
%TO.C,C30*%
X128561252Y-60965000D02*
X128038748Y-60965000D01*
X128561252Y-62435000D02*
X128038748Y-62435000D01*
%TO.C,U1*%
X71000000Y-67590000D02*
X70200000Y-67590000D01*
X71000000Y-67590000D02*
X71800000Y-67590000D01*
X72000000Y-70810000D02*
X70200000Y-70810000D01*
X72300000Y-67640000D02*
X72060000Y-67310000D01*
X72540000Y-67310000D01*
X72300000Y-67640000D01*
G36*
X72300000Y-67640000D02*
G01*
X72060000Y-67310000D01*
X72540000Y-67310000D01*
X72300000Y-67640000D01*
G37*
%TO.C,C37*%
X124961252Y-58965000D02*
X124438748Y-58965000D01*
X124961252Y-60435000D02*
X124438748Y-60435000D01*
%TO.C,U2*%
X135490000Y-78690000D02*
X136440000Y-78690000D01*
X135490000Y-79640000D02*
X135490000Y-78690000D01*
X135490000Y-87960000D02*
X135490000Y-88910000D01*
X135490000Y-88910000D02*
X136440000Y-88910000D01*
X145710000Y-78690000D02*
X144760000Y-78690000D01*
X145710000Y-79640000D02*
X145710000Y-78690000D01*
X145710000Y-87960000D02*
X145710000Y-88910000D01*
X145710000Y-88910000D02*
X144760000Y-88910000D01*
X145230000Y-89865000D02*
X144760000Y-89525000D01*
X145230000Y-89185000D01*
X145230000Y-89865000D01*
G36*
X145230000Y-89865000D02*
G01*
X144760000Y-89525000D01*
X145230000Y-89185000D01*
X145230000Y-89865000D01*
G37*
%TO.C,R19*%
X66620000Y-55203641D02*
X66620000Y-54896359D01*
X67380000Y-55203641D02*
X67380000Y-54896359D01*
%TO.C,Q3*%
X77452500Y-54600000D02*
X77452500Y-53950000D01*
X77452500Y-54600000D02*
X77452500Y-55250000D01*
X80572500Y-54600000D02*
X80572500Y-53950000D01*
X80572500Y-54600000D02*
X80572500Y-55250000D01*
X80852500Y-56002500D02*
X80522500Y-55762500D01*
X80852500Y-55522500D01*
X80852500Y-56002500D01*
G36*
X80852500Y-56002500D02*
G01*
X80522500Y-55762500D01*
X80852500Y-55522500D01*
X80852500Y-56002500D01*
G37*
%TO.C,C1*%
X72740580Y-71390000D02*
X72459420Y-71390000D01*
X72740580Y-72410000D02*
X72459420Y-72410000D01*
%TO.C,TP1*%
X131000000Y-71400000D02*
X131000000Y-72800000D01*
X131000000Y-72800000D02*
X132400000Y-72800000D01*
X132400000Y-71400000D02*
X131000000Y-71400000D01*
X132400000Y-72800000D02*
X132400000Y-71400000D01*
%TO.C,R5*%
X163896359Y-108692500D02*
X164203641Y-108692500D01*
X163896359Y-109452500D02*
X164203641Y-109452500D01*
%TO.C,U5*%
X117590000Y-61990000D02*
X117590000Y-62715000D01*
X117590000Y-67210000D02*
X117590000Y-66485000D01*
X118315000Y-61990000D02*
X117590000Y-61990000D01*
X118315000Y-67210000D02*
X117590000Y-67210000D01*
X122085000Y-61990000D02*
X122510000Y-61990000D01*
X122085000Y-67210000D02*
X122810000Y-67210000D01*
X122810000Y-62715000D02*
X122810000Y-62230000D01*
X122810000Y-67210000D02*
X122810000Y-66485000D01*
X122810000Y-61990000D02*
X122570000Y-61660000D01*
X123050000Y-61660000D01*
X122810000Y-61990000D01*
G36*
X122810000Y-61990000D02*
G01*
X122570000Y-61660000D01*
X123050000Y-61660000D01*
X122810000Y-61990000D01*
G37*
D11*
%TO.C,D2*%
X78250000Y-60200000D02*
X79650000Y-60200000D01*
X78250000Y-62000000D02*
X78250000Y-60200000D01*
X79650000Y-62000000D02*
X78250000Y-62000000D01*
D12*
%TO.C,C33*%
X121340000Y-68592164D02*
X121340000Y-68807836D01*
X122060000Y-68592164D02*
X122060000Y-68807836D01*
%TO.C,C7*%
X82165000Y-65761252D02*
X82165000Y-65238748D01*
X83635000Y-65761252D02*
X83635000Y-65238748D01*
D11*
%TO.C,D1*%
X61250000Y-60200000D02*
X62650000Y-60200000D01*
X61250000Y-62000000D02*
X61250000Y-60200000D01*
X62650000Y-62000000D02*
X61250000Y-62000000D01*
D12*
%TO.C,C22*%
X174715000Y-101033752D02*
X174715000Y-100511248D01*
X176185000Y-101033752D02*
X176185000Y-100511248D01*
%TO.C,R26*%
X74220000Y-55203641D02*
X74220000Y-54896359D01*
X74980000Y-55203641D02*
X74980000Y-54896359D01*
%TO.C,C8*%
X133057836Y-80590000D02*
X132842164Y-80590000D01*
X133057836Y-81310000D02*
X132842164Y-81310000D01*
%TO.C,C14*%
X146907836Y-88340000D02*
X146692164Y-88340000D01*
X146907836Y-89060000D02*
X146692164Y-89060000D01*
%TO.C,R20*%
X63970000Y-55203641D02*
X63970000Y-54896359D01*
X64730000Y-55203641D02*
X64730000Y-54896359D01*
%TO.C,C42*%
X115961252Y-60965000D02*
X115438748Y-60965000D01*
X115961252Y-62435000D02*
X115438748Y-62435000D01*
%TO.C,C40*%
X137561252Y-58965000D02*
X137038748Y-58965000D01*
X137561252Y-60435000D02*
X137038748Y-60435000D01*
%TO.C,C38*%
X128038748Y-58965000D02*
X128561252Y-58965000D01*
X128038748Y-60435000D02*
X128561252Y-60435000D01*
%TO.C,U6*%
X130190000Y-61990000D02*
X130190000Y-62715000D01*
X130190000Y-67210000D02*
X130190000Y-66485000D01*
X130915000Y-61990000D02*
X130190000Y-61990000D01*
X130915000Y-67210000D02*
X130190000Y-67210000D01*
X134685000Y-61990000D02*
X135110000Y-61990000D01*
X134685000Y-67210000D02*
X135410000Y-67210000D01*
X135410000Y-62715000D02*
X135410000Y-62230000D01*
X135410000Y-67210000D02*
X135410000Y-66485000D01*
X135410000Y-61990000D02*
X135170000Y-61660000D01*
X135650000Y-61660000D01*
X135410000Y-61990000D01*
G36*
X135410000Y-61990000D02*
G01*
X135170000Y-61660000D01*
X135650000Y-61660000D01*
X135410000Y-61990000D01*
G37*
%TO.C,R15*%
X116790000Y-54827064D02*
X116790000Y-53372936D01*
X118610000Y-54827064D02*
X118610000Y-53372936D01*
%TO.C,C24*%
X139070000Y-69267620D02*
X145530000Y-69267620D01*
X139070000Y-69307620D02*
X145530000Y-69307620D01*
X139071000Y-69347620D02*
X145529000Y-69347620D01*
X139072000Y-69387620D02*
X145528000Y-69387620D01*
X139074000Y-69427620D02*
X145526000Y-69427620D01*
X139076000Y-69467620D02*
X145524000Y-69467620D01*
X139079000Y-69507620D02*
X141260000Y-69507620D01*
X139082000Y-69547620D02*
X141260000Y-69547620D01*
X139086000Y-69587620D02*
X141260000Y-69587620D01*
X139090000Y-69627620D02*
X141260000Y-69627620D01*
X139095000Y-69667620D02*
X141260000Y-69667620D01*
X139100000Y-69707620D02*
X141260000Y-69707620D01*
X139105000Y-69747620D02*
X141260000Y-69747620D01*
X139112000Y-69787620D02*
X141260000Y-69787620D01*
X139118000Y-69827620D02*
X141260000Y-69827620D01*
X139126000Y-69867620D02*
X141260000Y-69867620D01*
X139133000Y-69907620D02*
X141260000Y-69907620D01*
X139141000Y-69947620D02*
X141260000Y-69947620D01*
X139150000Y-69987620D02*
X141260000Y-69987620D01*
X139160000Y-70027620D02*
X141260000Y-70027620D01*
X139169000Y-70067620D02*
X141260000Y-70067620D01*
X139180000Y-70107620D02*
X141260000Y-70107620D01*
X139191000Y-70147620D02*
X141260000Y-70147620D01*
X139202000Y-70187620D02*
X141260000Y-70187620D01*
X139214000Y-70227620D02*
X141260000Y-70227620D01*
X139227000Y-70267620D02*
X141260000Y-70267620D01*
X139240000Y-70307620D02*
X141260000Y-70307620D01*
X139253000Y-70347620D02*
X141260000Y-70347620D01*
X139268000Y-70387620D02*
X141260000Y-70387620D01*
X139283000Y-70427620D02*
X141260000Y-70427620D01*
X139298000Y-70467620D02*
X141260000Y-70467620D01*
X139314000Y-70507620D02*
X141260000Y-70507620D01*
X139331000Y-70547620D02*
X141260000Y-70547620D01*
X139348000Y-70587620D02*
X141260000Y-70587620D01*
X139366000Y-70627620D02*
X141260000Y-70627620D01*
X139385000Y-70667620D02*
X141260000Y-70667620D01*
X139404000Y-70707620D02*
X141260000Y-70707620D01*
X139424000Y-70747620D02*
X141260000Y-70747620D01*
X139445000Y-70787620D02*
X141260000Y-70787620D01*
X139466000Y-70827620D02*
X141260000Y-70827620D01*
X139488000Y-70867620D02*
X141260000Y-70867620D01*
X139511000Y-70907620D02*
X141260000Y-70907620D01*
X139535000Y-70947620D02*
X141260000Y-70947620D01*
X139559000Y-70987620D02*
X141260000Y-70987620D01*
X139584000Y-71027620D02*
X141260000Y-71027620D01*
X139610000Y-71067620D02*
X141260000Y-71067620D01*
X139637000Y-71107620D02*
X141260000Y-71107620D01*
X139664000Y-71147620D02*
X141260000Y-71147620D01*
X139693000Y-71187620D02*
X141260000Y-71187620D01*
X139723000Y-71227620D02*
X141260000Y-71227620D01*
X139753000Y-71267620D02*
X141260000Y-71267620D01*
X139784000Y-71307620D02*
X141260000Y-71307620D01*
X139817000Y-71347620D02*
X141260000Y-71347620D01*
X139850000Y-71387620D02*
X141260000Y-71387620D01*
X139885000Y-71427620D02*
X141260000Y-71427620D01*
X139921000Y-71467620D02*
X141260000Y-71467620D01*
X139958000Y-71507620D02*
X141260000Y-71507620D01*
X139996000Y-71547620D02*
X141260000Y-71547620D01*
X140036000Y-71587620D02*
X144564000Y-71587620D01*
X140077000Y-71627620D02*
X144523000Y-71627620D01*
X140119000Y-71667620D02*
X144481000Y-71667620D01*
X140146000Y-66082379D02*
X140776000Y-66082379D01*
X140163000Y-71707620D02*
X144437000Y-71707620D01*
X140209000Y-71747620D02*
X144391000Y-71747620D01*
X140256000Y-71787620D02*
X144344000Y-71787620D01*
X140305000Y-71827620D02*
X144295000Y-71827620D01*
X140357000Y-71867620D02*
X144243000Y-71867620D01*
X140410000Y-71907620D02*
X144190000Y-71907620D01*
X140461000Y-65767379D02*
X140461000Y-66397379D01*
X140466000Y-71947620D02*
X144134000Y-71947620D01*
X140525000Y-71987620D02*
X144075000Y-71987620D01*
X140586000Y-72027620D02*
X144014000Y-72027620D01*
X140651000Y-72067620D02*
X143949000Y-72067620D01*
X140719000Y-72107620D02*
X143881000Y-72107620D01*
X140791000Y-72147620D02*
X143809000Y-72147620D01*
X140868000Y-72187620D02*
X143732000Y-72187620D01*
X140950000Y-72227620D02*
X143650000Y-72227620D01*
X141039000Y-72267620D02*
X143561000Y-72267620D01*
X141135000Y-72307620D02*
X143465000Y-72307620D01*
X141242000Y-72347620D02*
X143358000Y-72347620D01*
X141361000Y-72387620D02*
X143239000Y-72387620D01*
X141499000Y-72427620D02*
X143101000Y-72427620D01*
X141667000Y-72467620D02*
X142933000Y-72467620D01*
X141898000Y-72507620D02*
X142702000Y-72507620D01*
X143340000Y-69507620D02*
X145521000Y-69507620D01*
X143340000Y-69547620D02*
X145518000Y-69547620D01*
X143340000Y-69587620D02*
X145514000Y-69587620D01*
X143340000Y-69627620D02*
X145510000Y-69627620D01*
X143340000Y-69667620D02*
X145505000Y-69667620D01*
X143340000Y-69707620D02*
X145500000Y-69707620D01*
X143340000Y-69747620D02*
X145495000Y-69747620D01*
X143340000Y-69787620D02*
X145488000Y-69787620D01*
X143340000Y-69827620D02*
X145482000Y-69827620D01*
X143340000Y-69867620D02*
X145474000Y-69867620D01*
X143340000Y-69907620D02*
X145467000Y-69907620D01*
X143340000Y-69947620D02*
X145459000Y-69947620D01*
X143340000Y-69987620D02*
X145450000Y-69987620D01*
X143340000Y-70027620D02*
X145440000Y-70027620D01*
X143340000Y-70067620D02*
X145431000Y-70067620D01*
X143340000Y-70107620D02*
X145420000Y-70107620D01*
X143340000Y-70147620D02*
X145409000Y-70147620D01*
X143340000Y-70187620D02*
X145398000Y-70187620D01*
X143340000Y-70227620D02*
X145386000Y-70227620D01*
X143340000Y-70267620D02*
X145373000Y-70267620D01*
X143340000Y-70307620D02*
X145360000Y-70307620D01*
X143340000Y-70347620D02*
X145347000Y-70347620D01*
X143340000Y-70387620D02*
X145332000Y-70387620D01*
X143340000Y-70427620D02*
X145317000Y-70427620D01*
X143340000Y-70467620D02*
X145302000Y-70467620D01*
X143340000Y-70507620D02*
X145286000Y-70507620D01*
X143340000Y-70547620D02*
X145269000Y-70547620D01*
X143340000Y-70587620D02*
X145252000Y-70587620D01*
X143340000Y-70627620D02*
X145234000Y-70627620D01*
X143340000Y-70667620D02*
X145215000Y-70667620D01*
X143340000Y-70707620D02*
X145196000Y-70707620D01*
X143340000Y-70747620D02*
X145176000Y-70747620D01*
X143340000Y-70787620D02*
X145155000Y-70787620D01*
X143340000Y-70827620D02*
X145134000Y-70827620D01*
X143340000Y-70867620D02*
X145112000Y-70867620D01*
X143340000Y-70907620D02*
X145089000Y-70907620D01*
X143340000Y-70947620D02*
X145065000Y-70947620D01*
X143340000Y-70987620D02*
X145041000Y-70987620D01*
X143340000Y-71027620D02*
X145016000Y-71027620D01*
X143340000Y-71067620D02*
X144990000Y-71067620D01*
X143340000Y-71107620D02*
X144963000Y-71107620D01*
X143340000Y-71147620D02*
X144936000Y-71147620D01*
X143340000Y-71187620D02*
X144907000Y-71187620D01*
X143340000Y-71227620D02*
X144877000Y-71227620D01*
X143340000Y-71267620D02*
X144847000Y-71267620D01*
X143340000Y-71307620D02*
X144816000Y-71307620D01*
X143340000Y-71347620D02*
X144783000Y-71347620D01*
X143340000Y-71387620D02*
X144750000Y-71387620D01*
X143340000Y-71427620D02*
X144715000Y-71427620D01*
X143340000Y-71467620D02*
X144679000Y-71467620D01*
X143340000Y-71507620D02*
X144642000Y-71507620D01*
X143340000Y-71547620D02*
X144604000Y-71547620D01*
X145570000Y-69267620D02*
G75*
G02*
X139030000Y-69267620I-3270000J0D01*
G01*
X139030000Y-69267620D02*
G75*
G02*
X145570000Y-69267620I3270000J0D01*
G01*
D11*
%TO.C,X1*%
X84999999Y-112000000D02*
X85000000Y-53000000D01*
X88000000Y-114999999D02*
X92000000Y-114999999D01*
X92000000Y-121500000D02*
X92000000Y-115000000D01*
X100000000Y-121500000D02*
X92000000Y-121500000D01*
X100000000Y-121500000D02*
X108000000Y-121500000D01*
X108000000Y-114999999D02*
X112000000Y-115000000D01*
X108000000Y-121500000D02*
X108000000Y-115000000D01*
X112000000Y-50000000D02*
X88000000Y-50000000D01*
X114999999Y-112000000D02*
X115000000Y-53000000D01*
X85000000Y-53000000D02*
G75*
G02*
X88000000Y-50000000I3000001J-1D01*
G01*
X88000000Y-115000000D02*
G75*
G02*
X85000000Y-112000000I0J3000000D01*
G01*
X112000000Y-50000000D02*
G75*
G02*
X115000000Y-53000000I-1J-3000001D01*
G01*
X115000000Y-112000000D02*
G75*
G02*
X112000000Y-115000000I-3000001J1D01*
G01*
D12*
%TO.C,R16*%
X129290000Y-54827064D02*
X129290000Y-53372936D01*
X131110000Y-54827064D02*
X131110000Y-53372936D01*
%TO.C,C2*%
X69138748Y-71365000D02*
X69661252Y-71365000D01*
X69138748Y-72835000D02*
X69661252Y-72835000D01*
%TO.C,Q1*%
X175650000Y-102712500D02*
X175000000Y-102712500D01*
X175650000Y-102712500D02*
X176300000Y-102712500D01*
X175650000Y-105832500D02*
X173975000Y-105832500D01*
X175650000Y-105832500D02*
X176300000Y-105832500D01*
%TD*%
%LPC*%
D13*
%TO.C,D4*%
X119000000Y-74600000D03*
X122400000Y-74600000D03*
%TD*%
D14*
%TO.C,R31*%
X116800000Y-72310000D03*
X116800000Y-71290000D03*
%TD*%
D15*
%TO.C,R30*%
X172720000Y-59800000D03*
X172080000Y-59800000D03*
%TD*%
%TO.C,R29*%
X171220000Y-59800000D03*
X170580000Y-59800000D03*
%TD*%
D16*
%TO.C,U7*%
X27800000Y-70550000D03*
X27800000Y-73100000D03*
X27800000Y-81300000D03*
X27800000Y-83850000D03*
X64800000Y-83850000D03*
X64800000Y-81300000D03*
X64800000Y-77320000D03*
X64800000Y-73100000D03*
X64800000Y-70550000D03*
%TD*%
D17*
%TO.C,J5*%
X117400000Y-106900000D03*
D18*
X119900000Y-106900000D03*
X122400000Y-106900000D03*
X124900000Y-106900000D03*
X127400000Y-106900000D03*
%TD*%
D17*
%TO.C,J4*%
X70200000Y-106900000D03*
D18*
X72700000Y-106900000D03*
X75200000Y-106900000D03*
X77700000Y-106900000D03*
X80200000Y-106900000D03*
%TD*%
D19*
%TO.C,J17*%
X44600000Y-107300000D03*
X47100000Y-107300000D03*
X49600000Y-107300000D03*
X52100000Y-107300000D03*
%TD*%
D17*
%TO.C,J6*%
X29000000Y-106927500D03*
D18*
X31500000Y-106927500D03*
X34000000Y-106927500D03*
X36500000Y-106927500D03*
X39000000Y-106927500D03*
%TD*%
D19*
%TO.C,J7*%
X123950000Y-57672500D03*
X121450000Y-57672500D03*
X118950000Y-57672500D03*
X116450000Y-57672500D03*
%TD*%
D20*
%TO.C,J21*%
X164670000Y-88880000D03*
D21*
X163400000Y-88880000D03*
X164670000Y-87610000D03*
X163400000Y-87610000D03*
X164670000Y-86340000D03*
X163400000Y-86340000D03*
X164670000Y-85070000D03*
X163400000Y-85070000D03*
X164670000Y-83800000D03*
X163400000Y-83800000D03*
X164670000Y-82530000D03*
X163400000Y-82530000D03*
X164670000Y-81260000D03*
X163400000Y-81260000D03*
%TD*%
D22*
%TO.C,J18*%
X155147500Y-80020000D03*
D23*
X157687500Y-80020000D03*
X155147500Y-82560000D03*
X157687500Y-82560000D03*
X155147500Y-85100000D03*
X157687500Y-85100000D03*
X155147500Y-87640000D03*
X157687500Y-87640000D03*
X155147500Y-90180000D03*
X157687500Y-90180000D03*
%TD*%
D24*
%TO.C,U4*%
X68467500Y-81610000D03*
D25*
X68467500Y-79070000D03*
X68467500Y-76530000D03*
X68467500Y-73990000D03*
%TD*%
D26*
%TO.C,H8*%
X185000000Y-55000000D03*
%TD*%
D27*
%TO.C,J12*%
X56585000Y-58205000D03*
X45155000Y-58205000D03*
D28*
X55315000Y-64555000D03*
D29*
X54045000Y-67095000D03*
X52775000Y-64555000D03*
X51505000Y-67095000D03*
X50235000Y-64555000D03*
X48965000Y-67095000D03*
X47695000Y-64555000D03*
X46425000Y-67095000D03*
D30*
X58640000Y-55155000D03*
X43100000Y-55155000D03*
%TD*%
D31*
%TO.C,J10*%
X82550000Y-58000000D03*
X79050000Y-58000000D03*
%TD*%
D32*
%TO.C,H6*%
X100000000Y-53500000D03*
%TD*%
D33*
%TO.C,J2*%
X145657500Y-64000000D03*
D34*
X145657500Y-58000000D03*
D35*
X140957500Y-61000000D03*
%TD*%
D31*
%TO.C,J9*%
X65550000Y-58000000D03*
X62050000Y-58000000D03*
%TD*%
D17*
%TO.C,J3*%
X133300000Y-106900000D03*
D18*
X135800000Y-106900000D03*
X138300000Y-106900000D03*
X140800000Y-106900000D03*
X143300000Y-106900000D03*
%TD*%
D19*
%TO.C,J8*%
X136550000Y-57672500D03*
X134050000Y-57672500D03*
X131550000Y-57672500D03*
X129050000Y-57672500D03*
%TD*%
%TO.C,J16*%
X57200000Y-107300000D03*
X59700000Y-107300000D03*
X62200000Y-107300000D03*
X64700000Y-107300000D03*
%TD*%
D17*
%TO.C,J23*%
X130100000Y-73900000D03*
D18*
X132600000Y-73900000D03*
X135100000Y-73900000D03*
X137600000Y-73900000D03*
X140100000Y-73900000D03*
X142600000Y-73900000D03*
%TD*%
D36*
%TO.C,J14*%
X83000000Y-100540000D03*
D37*
X83000000Y-98000000D03*
X83000000Y-95460000D03*
%TD*%
D17*
%TO.C,J24*%
X134600000Y-95700000D03*
D18*
X137100000Y-95700000D03*
X139600000Y-95700000D03*
X142100000Y-95700000D03*
X144600000Y-95700000D03*
X147100000Y-95700000D03*
%TD*%
D38*
%TO.C,J20*%
X50950000Y-93850000D03*
D39*
X48450000Y-93850000D03*
X45950000Y-93850000D03*
%TD*%
D26*
%TO.C,H9*%
X185000000Y-95000000D03*
%TD*%
D27*
%TO.C,J11*%
X39985000Y-58205000D03*
X28555000Y-58205000D03*
D28*
X38715000Y-64555000D03*
D29*
X37445000Y-67095000D03*
X36175000Y-64555000D03*
X34905000Y-67095000D03*
X33635000Y-64555000D03*
X32365000Y-67095000D03*
X31095000Y-64555000D03*
X29825000Y-67095000D03*
D30*
X42040000Y-55155000D03*
X26500000Y-55155000D03*
%TD*%
D17*
%TO.C,J19*%
X149200000Y-106900000D03*
D18*
X151700000Y-106900000D03*
X154200000Y-106900000D03*
X156700000Y-106900000D03*
X159200000Y-106900000D03*
%TD*%
D26*
%TO.C,H2*%
X15000000Y-95000000D03*
%TD*%
%TO.C,H1*%
X15500000Y-55000000D03*
%TD*%
D19*
%TO.C,J15*%
X164700000Y-107300000D03*
X167200000Y-107300000D03*
X169700000Y-107300000D03*
X172200000Y-107300000D03*
%TD*%
D31*
%TO.C,J13*%
X74050000Y-58000000D03*
X70550000Y-58000000D03*
%TD*%
D40*
%TO.C,C23*%
X149200000Y-68017620D03*
D41*
X149200000Y-70517620D03*
%TD*%
D42*
%TO.C,R4*%
X66700000Y-66090000D03*
X66700000Y-67110000D03*
%TD*%
%TO.C,R7*%
X168250000Y-108762500D03*
X168250000Y-109782500D03*
%TD*%
D43*
%TO.C,C26*%
X138550000Y-66600000D03*
X136650000Y-66600000D03*
%TD*%
D44*
%TO.C,C36*%
X136400000Y-64220000D03*
X136400000Y-65180000D03*
%TD*%
D45*
%TO.C,R23*%
X82140000Y-55550000D03*
X83160000Y-55550000D03*
%TD*%
D44*
%TO.C,C34*%
X123800000Y-64220000D03*
X123800000Y-65180000D03*
%TD*%
D46*
%TO.C,C39*%
X114750000Y-59700000D03*
X116650000Y-59700000D03*
%TD*%
D47*
%TO.C,C13*%
X166830000Y-105772500D03*
X167470000Y-105772500D03*
%TD*%
D48*
%TO.C,R17*%
X122700000Y-55562500D03*
X122700000Y-52637500D03*
%TD*%
D49*
%TO.C,R76*%
X49550000Y-111200000D03*
X49550000Y-109200000D03*
%TD*%
D50*
%TO.C,C6*%
X172850000Y-108952500D03*
X172850000Y-109592500D03*
%TD*%
D45*
%TO.C,R22*%
X82640000Y-62650000D03*
X83660000Y-62650000D03*
%TD*%
D14*
%TO.C,R25*%
X75600000Y-55560000D03*
X75600000Y-54540000D03*
%TD*%
D51*
%TO.C,D3*%
X70600000Y-61100000D03*
X74000000Y-61100000D03*
%TD*%
D52*
%TO.C,Q4*%
X71500000Y-55537500D03*
X69600000Y-55537500D03*
X70550000Y-53662500D03*
%TD*%
D45*
%TO.C,R6*%
X165840000Y-109072500D03*
X166860000Y-109072500D03*
%TD*%
D46*
%TO.C,C43*%
X136350000Y-61700000D03*
X138250000Y-61700000D03*
%TD*%
D53*
%TO.C,J1*%
X151910000Y-56600000D03*
X157690000Y-56600000D03*
D54*
X151550000Y-58045000D03*
X152350000Y-58045000D03*
D55*
X153550000Y-58045000D03*
X154550000Y-58045000D03*
X155050000Y-58045000D03*
X156050000Y-58045000D03*
D54*
X157250000Y-58045000D03*
X158050000Y-58045000D03*
X158050000Y-58045000D03*
X157250000Y-58045000D03*
D55*
X156550000Y-58045000D03*
X155550000Y-58045000D03*
X154050000Y-58045000D03*
X153050000Y-58045000D03*
D54*
X152350000Y-58045000D03*
X151550000Y-58045000D03*
D56*
X150480000Y-52950000D03*
D57*
X150480000Y-57130000D03*
D56*
X159120000Y-52950000D03*
D57*
X159120000Y-57130000D03*
%TD*%
D53*
%TO.C,J22*%
X165110000Y-56592500D03*
X170890000Y-56592500D03*
D54*
X164750000Y-58037500D03*
X165550000Y-58037500D03*
D55*
X166750000Y-58037500D03*
X167750000Y-58037500D03*
X168250000Y-58037500D03*
X169250000Y-58037500D03*
D54*
X170450000Y-58037500D03*
X171250000Y-58037500D03*
X171250000Y-58037500D03*
X170450000Y-58037500D03*
D55*
X169750000Y-58037500D03*
X168750000Y-58037500D03*
X167250000Y-58037500D03*
X166250000Y-58037500D03*
D54*
X165550000Y-58037500D03*
X164750000Y-58037500D03*
D56*
X163680000Y-52942500D03*
D57*
X163680000Y-57122500D03*
D56*
X172320000Y-52942500D03*
D57*
X172320000Y-57122500D03*
%TD*%
D58*
%TO.C,U3*%
X172895000Y-104147500D03*
X171625000Y-104147500D03*
X170355000Y-104147500D03*
X169085000Y-104147500D03*
X167815000Y-104147500D03*
X166545000Y-104147500D03*
X165275000Y-104147500D03*
X164005000Y-104147500D03*
X164005000Y-99197500D03*
X165275000Y-99197500D03*
X166545000Y-99197500D03*
X167815000Y-99197500D03*
X169085000Y-99197500D03*
X170355000Y-99197500D03*
X171625000Y-99197500D03*
X172895000Y-99197500D03*
%TD*%
D44*
%TO.C,C4*%
X68200000Y-69620000D03*
X68200000Y-70580000D03*
%TD*%
D48*
%TO.C,R18*%
X135300000Y-55562500D03*
X135300000Y-52637500D03*
%TD*%
D46*
%TO.C,C29*%
X123750000Y-61700000D03*
X125650000Y-61700000D03*
%TD*%
D59*
%TO.C,L1*%
X81050000Y-69200000D03*
X75000000Y-69200000D03*
%TD*%
D60*
%TO.C,R77*%
X52350000Y-104550000D03*
X54350000Y-104550000D03*
%TD*%
D61*
%TO.C,L2*%
X175750000Y-108997500D03*
X175750000Y-106947500D03*
%TD*%
D52*
%TO.C,Q2*%
X63000000Y-55537500D03*
X61100000Y-55537500D03*
X62050000Y-53662500D03*
%TD*%
D62*
%TO.C,FB1*%
X132400000Y-79787500D03*
X132400000Y-78212500D03*
%TD*%
D15*
%TO.C,R21*%
X65970000Y-55600000D03*
X65330000Y-55600000D03*
%TD*%
D50*
%TO.C,C27*%
X117100000Y-66930000D03*
X117100000Y-67570000D03*
%TD*%
D15*
%TO.C,R8*%
X170570000Y-105772500D03*
X169930000Y-105772500D03*
%TD*%
D47*
%TO.C,C16*%
X136830000Y-90900000D03*
X137470000Y-90900000D03*
%TD*%
D44*
%TO.C,C35*%
X134300000Y-68220000D03*
X134300000Y-69180000D03*
%TD*%
D63*
%TO.C,C10*%
X171350000Y-109435000D03*
X171350000Y-111510000D03*
%TD*%
D50*
%TO.C,R28*%
X169750000Y-59380000D03*
X169750000Y-60020000D03*
%TD*%
D43*
%TO.C,C25*%
X125950000Y-66600000D03*
X124050000Y-66600000D03*
%TD*%
D64*
%TO.C,C19*%
X147700000Y-87820000D03*
X147700000Y-87180000D03*
%TD*%
D14*
%TO.C,R1*%
X135950000Y-77960000D03*
X135950000Y-76940000D03*
%TD*%
D65*
%TO.C,C5*%
X83400000Y-72050000D03*
X83400000Y-73950000D03*
%TD*%
D66*
%TO.C,C3*%
X67900000Y-67975000D03*
X67900000Y-66425000D03*
%TD*%
D50*
%TO.C,C17*%
X133500000Y-79430000D03*
X133500000Y-80070000D03*
%TD*%
D47*
%TO.C,R10*%
X130735000Y-68100000D03*
X131375000Y-68100000D03*
%TD*%
D14*
%TO.C,R2*%
X67200000Y-70610000D03*
X67200000Y-69590000D03*
%TD*%
D64*
%TO.C,C20*%
X174050000Y-102392500D03*
X174050000Y-101752500D03*
%TD*%
D43*
%TO.C,C30*%
X129250000Y-61700000D03*
X127350000Y-61700000D03*
%TD*%
D67*
%TO.C,U1*%
X72450000Y-68250000D03*
X72450000Y-69200000D03*
X72450000Y-70150000D03*
X69750000Y-70150000D03*
X69750000Y-69200000D03*
X69750000Y-68250000D03*
%TD*%
D43*
%TO.C,C37*%
X125650000Y-59700000D03*
X123750000Y-59700000D03*
%TD*%
D68*
%TO.C,U2*%
X144350000Y-89475000D03*
X143850000Y-89475000D03*
X143350000Y-89475000D03*
X142850000Y-89475000D03*
X142350000Y-89475000D03*
X141850000Y-89475000D03*
X141350000Y-89475000D03*
X140850000Y-89475000D03*
X140350000Y-89475000D03*
X139850000Y-89475000D03*
X139350000Y-89475000D03*
X138850000Y-89475000D03*
X138350000Y-89475000D03*
X137850000Y-89475000D03*
X137350000Y-89475000D03*
X136850000Y-89475000D03*
D69*
X134925000Y-87550000D03*
X134925000Y-87050000D03*
X134925000Y-86550000D03*
X134925000Y-86050000D03*
X134925000Y-85550000D03*
X134925000Y-85050000D03*
X134925000Y-84550000D03*
X134925000Y-84050000D03*
X134925000Y-83550000D03*
X134925000Y-83050000D03*
X134925000Y-82550000D03*
X134925000Y-82050000D03*
X134925000Y-81550000D03*
X134925000Y-81050000D03*
X134925000Y-80550000D03*
X134925000Y-80050000D03*
D68*
X136850000Y-78125000D03*
X137350000Y-78125000D03*
X137850000Y-78125000D03*
X138350000Y-78125000D03*
X138850000Y-78125000D03*
X139350000Y-78125000D03*
X139850000Y-78125000D03*
X140350000Y-78125000D03*
X140850000Y-78125000D03*
X141350000Y-78125000D03*
X141850000Y-78125000D03*
X142350000Y-78125000D03*
X142850000Y-78125000D03*
X143350000Y-78125000D03*
X143850000Y-78125000D03*
X144350000Y-78125000D03*
D69*
X146275000Y-80050000D03*
X146275000Y-80550000D03*
X146275000Y-81050000D03*
X146275000Y-81550000D03*
X146275000Y-82050000D03*
X146275000Y-82550000D03*
X146275000Y-83050000D03*
X146275000Y-83550000D03*
X146275000Y-84050000D03*
X146275000Y-84550000D03*
X146275000Y-85050000D03*
X146275000Y-85550000D03*
X146275000Y-86050000D03*
X146275000Y-86550000D03*
X146275000Y-87050000D03*
X146275000Y-87550000D03*
%TD*%
D14*
%TO.C,R19*%
X67000000Y-55560000D03*
X67000000Y-54540000D03*
%TD*%
D52*
%TO.C,Q3*%
X79962500Y-55537500D03*
X78062500Y-55537500D03*
X79012500Y-53662500D03*
%TD*%
D70*
%TO.C,C1*%
X73375000Y-71900000D03*
X71825000Y-71900000D03*
%TD*%
D71*
%TO.C,TP1*%
X131700000Y-72100000D03*
%TD*%
D45*
%TO.C,R5*%
X163540000Y-109072500D03*
X164560000Y-109072500D03*
%TD*%
D50*
%TO.C,C12*%
X141400000Y-90880000D03*
X141400000Y-91520000D03*
%TD*%
D72*
%TO.C,U5*%
X122662500Y-63100000D03*
X122662500Y-63600000D03*
X122662500Y-64100000D03*
X122662500Y-64600000D03*
X122662500Y-65100000D03*
X122662500Y-65600000D03*
X122662500Y-66100000D03*
D73*
X121700000Y-67062500D03*
X121200000Y-67062500D03*
X120700000Y-67062500D03*
X120200000Y-67062500D03*
X119700000Y-67062500D03*
X119200000Y-67062500D03*
X118700000Y-67062500D03*
D72*
X117737500Y-66100000D03*
X117737500Y-65600000D03*
X117737500Y-65100000D03*
X117737500Y-64600000D03*
X117737500Y-64100000D03*
X117737500Y-63600000D03*
X117737500Y-63100000D03*
D73*
X118700000Y-62137500D03*
X119200000Y-62137500D03*
X119700000Y-62137500D03*
X120200000Y-62137500D03*
X120700000Y-62137500D03*
X121200000Y-62137500D03*
X121700000Y-62137500D03*
D74*
X120200000Y-64600000D03*
%TD*%
D51*
%TO.C,D2*%
X79100000Y-61100000D03*
X82500000Y-61100000D03*
%TD*%
D47*
%TO.C,C21*%
X173930000Y-98372500D03*
X174570000Y-98372500D03*
%TD*%
D44*
%TO.C,C33*%
X121700000Y-68220000D03*
X121700000Y-69180000D03*
%TD*%
D75*
%TO.C,C7*%
X82900000Y-66450000D03*
X82900000Y-64550000D03*
%TD*%
D50*
%TO.C,R24*%
X81200000Y-54880000D03*
X81200000Y-55520000D03*
%TD*%
D51*
%TO.C,D1*%
X62100000Y-61100000D03*
X65500000Y-61100000D03*
%TD*%
D50*
%TO.C,R27*%
X73050000Y-54880000D03*
X73050000Y-55520000D03*
%TD*%
D76*
%TO.C,C22*%
X175450000Y-101810000D03*
X175450000Y-99735000D03*
%TD*%
D14*
%TO.C,R26*%
X74600000Y-55560000D03*
X74600000Y-54540000D03*
%TD*%
D15*
%TO.C,R11*%
X169170000Y-105772500D03*
X168530000Y-105772500D03*
%TD*%
%TO.C,R9*%
X125820000Y-65200000D03*
X125180000Y-65200000D03*
%TD*%
D77*
%TO.C,C8*%
X133430000Y-80950000D03*
X132470000Y-80950000D03*
%TD*%
D50*
%TO.C,C28*%
X129300000Y-66380000D03*
X129300000Y-67020000D03*
%TD*%
D47*
%TO.C,C11*%
X164330000Y-105772500D03*
X164970000Y-105772500D03*
%TD*%
D77*
%TO.C,C14*%
X147280000Y-88700000D03*
X146320000Y-88700000D03*
%TD*%
D14*
%TO.C,R20*%
X64350000Y-55560000D03*
X64350000Y-54540000D03*
%TD*%
D43*
%TO.C,C42*%
X116650000Y-61700000D03*
X114750000Y-61700000D03*
%TD*%
%TO.C,C40*%
X138250000Y-59700000D03*
X136350000Y-59700000D03*
%TD*%
D50*
%TO.C,R3*%
X66700000Y-67980000D03*
X66700000Y-68620000D03*
%TD*%
D46*
%TO.C,C38*%
X127350000Y-59700000D03*
X129250000Y-59700000D03*
%TD*%
D72*
%TO.C,U6*%
X135262500Y-63100000D03*
X135262500Y-63600000D03*
X135262500Y-64100000D03*
X135262500Y-64600000D03*
X135262500Y-65100000D03*
X135262500Y-65600000D03*
X135262500Y-66100000D03*
D73*
X134300000Y-67062500D03*
X133800000Y-67062500D03*
X133300000Y-67062500D03*
X132800000Y-67062500D03*
X132300000Y-67062500D03*
X131800000Y-67062500D03*
X131300000Y-67062500D03*
D72*
X130337500Y-66100000D03*
X130337500Y-65600000D03*
X130337500Y-65100000D03*
X130337500Y-64600000D03*
X130337500Y-64100000D03*
X130337500Y-63600000D03*
X130337500Y-63100000D03*
D73*
X131300000Y-62137500D03*
X131800000Y-62137500D03*
X132300000Y-62137500D03*
X132800000Y-62137500D03*
X133300000Y-62137500D03*
X133800000Y-62137500D03*
X134300000Y-62137500D03*
D74*
X132800000Y-64600000D03*
%TD*%
D64*
%TO.C,C15*%
X145200000Y-90120000D03*
X145200000Y-89480000D03*
%TD*%
D48*
%TO.C,R15*%
X117700000Y-55562500D03*
X117700000Y-52637500D03*
%TD*%
D50*
%TO.C,R13*%
X166600000Y-59180000D03*
X166600000Y-59820000D03*
%TD*%
D40*
%TO.C,C24*%
X142300000Y-68017620D03*
D41*
X142300000Y-70517620D03*
%TD*%
D50*
%TO.C,C9*%
X133500000Y-81855000D03*
X133500000Y-82495000D03*
%TD*%
D78*
%TO.C,X1*%
X89770000Y-106630000D03*
D23*
X87230000Y-106630000D03*
X89770000Y-104090000D03*
X87230000Y-104090000D03*
X89770000Y-101550000D03*
X87230000Y-101550000D03*
X89770000Y-99010000D03*
X87230000Y-99010000D03*
X89770000Y-96470000D03*
X87230000Y-96470000D03*
X89770000Y-93930000D03*
X87230000Y-93930000D03*
X89770000Y-91390000D03*
X87230000Y-91390000D03*
X89770000Y-88850000D03*
X87230000Y-88850000D03*
X89770000Y-86310000D03*
X87230000Y-86310000D03*
X89770000Y-83770000D03*
X87230000Y-83770000D03*
X89770000Y-81230000D03*
X87230000Y-81230000D03*
X89770000Y-78690000D03*
X87230000Y-78690000D03*
X89770000Y-76150000D03*
X87230000Y-76150000D03*
X89770000Y-73610000D03*
X87230000Y-73610000D03*
X89770000Y-71070000D03*
X87230000Y-71070000D03*
X89770000Y-68530000D03*
X87230000Y-68530000D03*
X89770000Y-65990000D03*
X87230000Y-65990000D03*
X89770000Y-63450000D03*
X87230000Y-63450000D03*
X89770000Y-60910000D03*
X87230000Y-60910000D03*
X89770000Y-58370000D03*
X87230000Y-58370000D03*
%TD*%
D48*
%TO.C,R16*%
X130200000Y-55562500D03*
X130200000Y-52637500D03*
%TD*%
D64*
%TO.C,C18*%
X145200000Y-78020000D03*
X145200000Y-77380000D03*
%TD*%
D46*
%TO.C,C2*%
X68450000Y-72100000D03*
X70350000Y-72100000D03*
%TD*%
D79*
%TO.C,Q1*%
X174650000Y-105222500D03*
X174650000Y-103322500D03*
X176650000Y-104272500D03*
%TD*%
%LPD*%
M02*
